<?xml version="1.0" encoding="utf-8"?>
<!-- Generator: Adobe Illustrator 22.0.1, SVG Export Plug-In . SVG Version: 6.00 Build 0)  -->
<svg version="1.1" id="Layer_1" xmlns="http://www.w3.org/2000/svg" xmlns:xlink="http://www.w3.org/1999/xlink" x="0px" y="0px"
	 viewBox="0 0 500 500" style="enable-background:new 0 0 500 500;" xml:space="preserve">
    <style type="text/css">
	.st0{fill:#4d4d4d;}
</style>
<path d="M427.4,77.6l-34.2-28.9c-10.5-8.9-26-8.5-36,1l-18.9,17.7c-16-7.7-32.9-13.1-50.4-16.3l-5.3-26
	c-2.7-13.5-15.2-22.8-28.9-21.7l-44.6,3.8c-13.7,1.2-24.4,12.4-24.9,26.2l-0.9,26.5c-17.1,6.2-33.3,14.7-48.1,25.3l-22.6-15
	c-11.5-7.6-26.8-5.4-35.7,5.1l-28.9,34.4c-8.9,10.5-8.5,26,1,36l19.8,21.1c-6.8,15.4-11.7,31.6-14.5,48.2l-28.2,5.8
	c-13.5,2.7-22.8,15.2-21.7,28.9l3.8,44.6c1.2,13.7,12.4,24.4,26.2,24.9l30.5,1c5.5,14.5,12.8,28.3,21.6,41.2l-17,25.7
	c-7.6,11.5-5.4,26.8,5.1,35.7l34.2,28.9c10.5,8.9,26,8.5,36-1l22.4-20.9c14.7,6.8,30.1,11.9,45.9,15l6.2,30.6
	c2.7,13.5,15.2,22.8,28.9,21.7l44.6-3.8c13.7-1.2,24.4-12.4,24.9-26.2l1-30c16.3-5.8,31.7-13.6,45.9-23.2l24.6,16.3
	c11.5,7.6,26.8,5.4,35.7-5.1l28.9-34.2c8.9-10.5,8.5-26-1-36l-19.9-21.1c7.3-15.4,12.6-31.7,15.6-48.4l27.1-5.5
	c13.5-2.7,22.8-15.2,21.7-28.9l-3.8-44.6c-1.2-13.7-12.4-24.4-26.2-24.9l-27.2-0.9c-5.6-15.8-13.2-30.8-22.7-44.7l14.9-22.4
	C440.1,101.9,437.9,86.5,427.4,77.6L427.4,77.6z M259.3,335.5c-48.2,4.1-90.7-31.8-94.8-80c-4.1-48.2,31.8-90.7,80-94.8
	c48.2-4.1,90.7,31.8,94.8,80C343.4,289,307.5,331.5,259.3,335.5L259.3,335.5z M259.3,335.5"/>
</svg>
