<?xml version="1.0" encoding="utf-8"?>
<!-- Generator: Adobe Illustrator 22.0.1, SVG Export Plug-In . SVG Version: 6.00 Build 0)  -->
<svg version="1.1" id="Layer_1" xmlns="http://www.w3.org/2000/svg" xmlns:xlink="http://www.w3.org/1999/xlink" x="0px" y="0px"
	 viewBox="0 0 165.3 161.3" style="enable-background:new 0 0 165.3 161.3;" xml:space="preserve">
<style type="text/css">
	.st0{fill:#ef8527;}
</style>
<path class="st0" d="M95.1,69.6c0.6,0,1.2-0.3,1.7-0.7c0.9-0.9,0.9-2.4,0-3.3c-0.4-0.4-1-0.7-1.7-0.7c-0.7,0-1.2,0.2-1.6,0.7
	c-0.5,0.5-0.7,1-0.7,1.7c0,0.6,0.3,1.1,0.7,1.6C93.9,69.4,94.4,69.6,95.1,69.6z"/>
<path class="st0" d="M58.6,87.5l16.3,16.2l28.6-28.5V58.9H87.2L58.6,87.5z M90.9,63.1c1.1-1.1,2.5-1.7,4.2-1.7
	c1.7,0,3.1,0.6,4.2,1.7c1.1,1.1,1.7,2.5,1.7,4.1c0,1.6-0.6,3-1.7,4.1c-1.2,1.2-2.5,1.7-4.2,1.7c-1.6,0-3-0.6-4.2-1.7
	c-1.1-1.1-1.7-2.5-1.7-4.1C89.2,65.6,89.8,64.2,90.9,63.1z"/>
<path class="st0" d="M82.7,19.8c-33.5,0-60.8,27.3-60.8,60.8c0,33.5,27.3,60.8,60.8,60.8c33.5,0,60.8-27.3,60.8-60.8
	C143.5,47,116.2,19.8,82.7,19.8z M107,75.9c0,0.5-0.2,0.9-0.5,1.2l-30.3,30.3c-0.7,0.7-1.8,0.7-2.5,0L54.9,88.7
	c-0.7-0.7-0.7-1.8,0-2.5l30.3-30.3c0.4-0.3,0.8-0.5,1.2-0.5h18.7c1,0,1.8,0.8,1.8,1.8V75.9z"/>
<path class="st0" d="M151.5,58.2c-2.5-7.7,0.9-18.5-3.8-24.9c-4.7-6.5-16.1-6.5-22.5-11.3c-6.4-4.7-10-15.5-17.7-18
	c-7.4-2.4-16.6,4.2-24.9,4.2c-8.2,0-17.4-6.6-24.9-4.2c-7.7,2.5-11.3,13.3-17.7,18c-6.5,4.7-17.8,4.8-22.5,11.3
	c-4.7,6.4-1.3,17.2-3.8,24.9C11.5,65.6,2.3,72.3,2.3,80.5c0,8.2,9.2,14.9,11.6,22.4c2.5,7.7-0.9,18.5,3.8,24.9
	c4.7,6.5,16.1,6.6,22.5,11.3c6.4,4.7,10,15.5,17.7,18c7.4,2.4,16.6-4.2,24.9-4.2c8.2,0,17.4,6.6,24.9,4.2c7.7-2.5,11.3-13.3,17.7-18
	c6.5-4.7,17.8-4.8,22.5-11.3c4.7-6.4,1.3-17.2,3.8-24.9c2.4-7.4,11.6-14.1,11.6-22.4C163.1,72.3,153.9,65.6,151.5,58.2z M82.7,142.3
	c-34.1,0-61.8-27.7-61.8-61.8c0-34.1,27.7-61.8,61.8-61.8c34.1,0,61.8,27.7,61.8,61.8C144.5,114.6,116.8,142.3,82.7,142.3z"/>
</svg>
