<?xml version="1.0" encoding="utf-8"?>
<!-- Generator: Adobe Illustrator 22.0.1, SVG Export Plug-In . SVG Version: 6.00 Build 0)  -->
<svg version="1.1" id="Layer_1" xmlns="http://www.w3.org/2000/svg" xmlns:xlink="http://www.w3.org/1999/xlink" x="0px" y="0px"
	 viewBox="0 0 197.3 210.7" style="enable-background:new 0 0 197.3 210.7;" xml:space="preserve">
<style type="text/css">
	.st0{fill:#999999;}
</style>
<g>
	<g>
		<path class="st0" d="M188.7,37.7c-2.9-2.9-6.3-4.3-10.2-4.3H164V22.5c0-5-1.8-9.2-5.3-12.8c-3.5-3.5-7.8-5.3-12.8-5.3h-7.2
			c-5,0-9.2,1.8-12.8,5.3c-3.5,3.5-5.3,7.8-5.3,12.8v10.9H77.2V22.5c0-5-1.8-9.2-5.3-12.8c-3.5-3.5-7.8-5.3-12.8-5.3h-7.2
			c-5,0-9.2,1.8-12.8,5.3c-3.5,3.5-5.3,7.8-5.3,12.8v10.9H19.3c-3.9,0-7.3,1.4-10.2,4.3c-2.9,2.9-4.3,6.3-4.3,10.2v144.8
			c0,3.9,1.4,7.3,4.3,10.2c2.9,2.9,6.3,4.3,10.2,4.3h159.2c3.9,0,7.3-1.4,10.2-4.3c2.9-2.9,4.3-6.3,4.3-10.2V47.8
			C193,43.9,191.6,40.5,188.7,37.7L188.7,37.7z M51.8,192.6H19.3V160h32.6V192.6z M51.8,152.8H19.3v-36.2h32.6V152.8z M51.8,109.4
			H19.3V76.8h32.6V109.4z M49.3,57.6c-0.7-0.7-1.1-1.6-1.1-2.5V22.5c0-1,0.4-1.8,1.1-2.5c0.7-0.7,1.6-1.1,2.5-1.1h7.2
			c1,0,1.8,0.4,2.5,1.1c0.7,0.7,1.1,1.6,1.1,2.5v32.6c0,1-0.4,1.8-1.1,2.5c-0.7,0.7-1.6,1.1-2.5,1.1h-7.2
			C50.9,58.7,50,58.3,49.3,57.6L49.3,57.6z M95.3,192.6H59.1V160h36.2V192.6z M95.3,152.8H59.1v-36.2h36.2V152.8z M95.3,109.4H59.1
			V76.8h36.2V109.4z M138.7,192.6h-36.2V160h36.2V192.6z M138.7,152.8h-36.2v-36.2h36.2V152.8z M138.7,109.4h-36.2V76.8h36.2V109.4z
			 M136.2,57.6c-0.7-0.7-1.1-1.6-1.1-2.5V22.5c0-1,0.4-1.8,1.1-2.5c0.7-0.7,1.6-1.1,2.5-1.1h7.2c1,0,1.8,0.4,2.5,1.1
			c0.7,0.7,1.1,1.6,1.1,2.5v32.6c0,1-0.4,1.8-1.1,2.5c-0.7,0.7-1.6,1.1-2.5,1.1h-7.2C137.7,58.7,136.9,58.3,136.2,57.6L136.2,57.6z
			 M178.5,192.6h-32.6V160h32.6V192.6z M178.5,152.8h-32.6v-36.2h32.6V152.8z M178.5,109.4h-32.6V76.8h32.6V109.4z M178.5,109.4"/>
	</g>
</g>
</svg>
