<?xml version="1.0" encoding="utf-8"?>
<!-- Generator: Adobe Illustrator 22.0.1, SVG Export Plug-In . SVG Version: 6.00 Build 0)  -->
<svg version="1.1" id="Layer_1" xmlns="http://www.w3.org/2000/svg" xmlns:xlink="http://www.w3.org/1999/xlink" x="0px" y="0px"
	 viewBox="0 0 376 291" style="enable-background:new 0 0 376 291;" xml:space="preserve">
<style type="text/css">
	.st0{fill:#999999;}
</style>
    <!--
<g>
	<path class="st0" d="M204.1,79.6c0-6.5,0.6-10.9,1.7-13.4c1.1-2.5,3.9-5.8,8.4-9.9c4.4-5.2,7.6-9.2,9.4-12
		c1.9-2.8,2.8-6.2,2.8-10.2c0-4.7-1.3-8.4-3.8-10.9c-2.5-2.5-6.1-3.8-10.8-3.8c-4.1,0-7.5,1.1-10.4,3.3c-2.9,2.2-4.3,5.5-4.3,9.7
		h-12.6l-0.2-0.4c-0.1-7.2,2.4-12.9,7.6-17.3c5.2-4.3,11.8-6.5,19.8-6.5c8.8,0,15.6,2.2,20.5,6.7c4.9,4.5,7.3,10.7,7.3,18.8
		c0,5.8-1.6,11-4.7,15.8c-3.1,4.8-7.3,9.7-12.5,14.7c-2.4,2.4-3.9,4.6-4.4,6.5c-0.5,1.9-0.8,4.9-0.8,9H204.1z M217.8,107H204V93.1
		h13.8V107z"/>
</g>-->
<g>
	<path class="st0" d="M85.9,222.4c-16.6,0-30,13.5-30,30s13.5,30,30,30s30-13.5,30-30S102.4,222.4,85.9,222.4z M85.9,270.5
		c-9.9,0-18-8.1-18-18c0-9.9,8.1-18,18-18s18,8.1,18,18C103.9,262.4,95.8,270.5,85.9,270.5z"/>
	<path class="st0" d="M362.2,222.4v-36c0-2.6-1.7-4.9-4.1-5.7l-33.9-11.3c-12.8-21.6-30.3-42.2-69.1-49c-0.1,0-0.1,0-0.2,0
		c-71.6-9.9-125.4,6.3-159.9,48c-25.7,0.4-51.9,5.7-67.4,15.6c-8,5.1-12.7,14-13.2,23.5l-0.7,14.9c-3.3,0-6,2.7-6,6v24
		c0,3.3,2.7,6,6,6h24c3.3,0,6-2.7,6-6.1c0,0,0-0.1,0-0.1c0.1-23.1,18.9-41.9,42.1-41.9c23.2,0,42.1,18.8,42.1,42.1
		c-0.4,3.6,2.4,6,6,6h108.1c3.3,0,6-2.7,6-6.1c0,0,0-0.1,0-0.1c0.1-23.1,18.9-41.9,42.1-41.9c23.2,0,42.1,18.8,42.1,42.1
		c-0.4,3.6,2.4,6,6,6h24c3.3,0,6-2.7,6-6v-24C368.2,225.1,365.5,222.4,362.2,222.4z M200,165.3c0,1.7-1.3,3-3,3h-78.4
		c-2.8,0-4-3.4-2-5.3c20.8-19,47.4-29.9,80-32.8c1.8-0.2,3.3,1.3,3.3,3V165.3z M272.2,165.4c0,1.6-1.4,3-3,3H215c-1.7,0-3-1.3-3-3
		v-32.8c0-1.7,1.3-3,3-3c12,0,24.7,0.9,38.1,2.7c6.4,1.1,12.1,2.7,17.3,4.6c1.2,0.4,2,1.6,1.9,2.9L272.2,165.4z M303.6,168.3h-16.3
		c-1.7,0-3-1.4-3-3l0.2-16.3c0-2.5,2.9-3.8,4.9-2.4c6.5,4.7,11.9,10.4,16.7,16.8C307.4,165.5,306.1,168.3,303.6,168.3z"/>
	<path class="st0" d="M290.1,222.4c-16.6,0-30,13.5-30,30s13.5,30,30,30s30-13.5,30-30S306.7,222.4,290.1,222.4z M290.1,270.5
		c-9.9,0-18-8.1-18-18c0-9.9,8.1-18,18-18s18,8.1,18,18C308.2,262.4,300.1,270.5,290.1,270.5z"/>
</g>
</svg>
