<?xml version="1.0" encoding="utf-8"?>
<!-- Generator: Adobe Illustrator 22.0.1, SVG Export Plug-In . SVG Version: 6.00 Build 0)  -->
<svg version="1.1" id="Layer_1" xmlns="http://www.w3.org/2000/svg" xmlns:xlink="http://www.w3.org/1999/xlink" x="0px" y="0px"
	 viewBox="0 0 500 500" style="enable-background:new 0 0 500 500;" xml:space="preserve">
<style type="text/css">
	.st0{fill:#FFFFFF;}
</style>
<g>
	<path d="M5.9,250.2c0-75.2,0-150.5,0-225.7C5.9,8.7,11.6,3,27.3,3C97,3,166.7,3.1,236.5,3c27.8,0,51.8,9.3,71.5,28.8
		c57.7,57.3,115.1,114.9,172.6,172.4c12.3,12.3,16.2,27,11.5,43.9c-17.5,63-35.1,126-52.6,189c-2.1,7.5-4.1,15.1-6.3,22.5
		c-7,23.3-26.9,38.4-51,38.4c-119.1,0.1-238.2,0-357.3,0c-12.7,0-18.9-6.5-18.9-19.6C5.9,402.4,5.9,326.3,5.9,250.2z M225.5,219.3
		C225.5,219.3,225.5,219.3,225.5,219.3c45.6,0,91.2-0.1,136.8,0c8.6,0,15.4-2.7,19-11c3.4-8,0.7-14.7-5.1-20.5
		c-31.9-31.8-63.4-63.9-95.7-95.3c-18.6-18.1-41.5-27.1-67.7-27.1c-41.5,0-83.1,0-124.6,0c-13.7,0-19.7,5.9-19.7,19.5
		c-0.1,38.3-0.1,76.7,0,115c0,12.3,7.1,19.3,19.4,19.3C133.7,219.3,179.6,219.3,225.5,219.3z M114.9,303.3c0,0,0-0.1,0-0.1
		c10.5,0,20.9,0.3,31.4-0.1c8.6-0.4,14.8-7.5,15.1-16.1c0.3-9.1-4.9-16.7-13.5-17.1c-20.9-1-41.8-1.6-62.7-1.3
		c-10.7,0.2-17.3,8.5-16.9,18.4c0.4,9.8,7.6,16.2,18.7,16.3C96.4,303.4,105.7,303.3,114.9,303.3z"/>
	<path class="st0" d="M114.9,303.3c-9.3,0-18.6,0.1-27.9,0c-11-0.2-18.2-6.5-18.7-16.3c-0.4-9.8,6.2-18.2,16.9-18.4
		c20.9-0.3,41.8,0.3,62.7,1.3c8.6,0.4,13.8,8,13.5,17.1c-0.3,8.7-6.5,15.8-15.1,16.1c-10.4,0.4-20.9,0.1-31.4,0.1
		C114.9,303.2,114.9,303.3,114.9,303.3z"/>
</g>
</svg>
