<?xml version="1.0" encoding="utf-8"?>
<!-- Generator: Adobe Illustrator 22.0.1, SVG Export Plug-In . SVG Version: 6.00 Build 0)  -->
<svg version="1.1" id="Layer_1" xmlns="http://www.w3.org/2000/svg" xmlns:xlink="http://www.w3.org/1999/xlink" x="0px" y="0px"
	 viewBox="0 0 500 422" style="enable-background:new 0 0 500 422;" xml:space="preserve">
<style type="text/css">
	.st0{fill:#010101;}
</style>
<g>
	<path class="st0" d="M454.9,67.2H352.2V46.7c0-22.7-18.4-41.1-41.1-41.1H187.9c-22.7,0-41.1,18.4-41.1,41.1v20.5H44.1
		C21.4,67.2,3,85.6,3,108.3v61.6C3,192.6,21.4,211,44.1,211h164.3v-10.3c0-5.7,4.6-10.3,10.3-10.3h61.6c5.7,0,10.3,4.6,10.3,10.3
		V211h164.3c22.7,0,41.1-18.4,41.1-41.1v-61.6C496,85.6,477.6,67.2,454.9,67.2z M187.9,67.2V46.7h123.3v20.5H187.9z"/>
	<path class="st0" d="M490.3,222.1c-3.5-1.7-7.7-1.3-10.8,1c-7.3,5.5-15.8,8.4-24.6,8.4H290.6v30.8c0,5.7-4.6,10.3-10.3,10.3h-61.6
		c-5.7,0-10.3-4.6-10.3-10.3v-30.8H44.1c-8.8,0-17.3-2.9-24.6-8.4c-3.1-2.4-7.3-2.8-10.8-1c-3.5,1.7-5.7,5.3-5.7,9.2v144.1
		c0,22.7,18.4,41.1,41.1,41.1h410.8c22.7,0,41.1-18.4,41.1-41.1V231.3C496,227.4,493.8,223.8,490.3,222.1z"/>
</g>
</svg>
