<?xml version="1.0" encoding="utf-8"?>
<!-- Generator: Adobe Illustrator 22.0.1, SVG Export Plug-In . SVG Version: 6.00 Build 0)  -->
<svg version="1.1" id="Layer_1" xmlns="http://www.w3.org/2000/svg" xmlns:xlink="http://www.w3.org/1999/xlink" x="0px" y="0px"
	 viewBox="0 0 237.3 262" style="enable-background:new 0 0 237.3 262;" xml:space="preserve">
<style type="text/css">
	.st0{fill:#999999;}
</style>
<rect x="101.8" y="108.9" class="st0" width="33.7" height="147.8"/>
<path class="st0" d="M6.3,7.8v101.1H231V7.8H6.3z M69.5,84.3h-8.9c-1-0.8-1.6-2-1.8-3.7c-0.3-1.7-0.4-3.3-0.4-5v-4.2
	c0-2.7-0.8-4.8-2.3-6.4c-1.5-1.6-3.6-2.4-6.3-2.4H38.1v21.6h-8.7v-52h19.2c5.8,0,10.3,1.3,13.5,3.9c3.2,2.6,4.8,6.4,4.8,11.2
	c0,2.7-0.7,5-2.1,6.9c-1.4,1.9-3.4,3.5-6.1,4.7c2.9,0.9,5,2.4,6.3,4.6c1.3,2.1,1.9,4.7,1.9,7.8v4.3c0,1.5,0.2,3,0.6,4.5
	c0.4,1.5,1,2.6,1.9,3.3V84.3z M113,84.3H77.9v-52h34.8v7H86.6V54h22.8v7H86.6v16.4H113V84.3z M160.9,84.3h-8.6l-23.1-38l-0.2,0.1
	v37.9h-8.7v-52h8.7l23.1,37.9l0.2-0.1V32.3h8.6V84.3z M207.9,39.3h-15.7v45h-8.7v-45h-15.7v-7h40.1V39.3z"/>
<path class="st0" d="M48.7,39.3H38.1v16.5h10.1c3.5,0,6-0.7,7.6-2c1.6-1.3,2.4-3.4,2.4-6.1c0-2.6-0.8-4.7-2.4-6.2
	C54.3,40,51.9,39.3,48.7,39.3z"/>
</svg>
