<?xml version="1.0" encoding="utf-8"?>
<!-- Generator: Adobe Illustrator 22.0.1, SVG Export Plug-In . SVG Version: 6.00 Build 0)  -->
<svg version="1.1" id="Layer_1" xmlns="http://www.w3.org/2000/svg" xmlns:xlink="http://www.w3.org/1999/xlink" x="0px" y="0px"
	 viewBox="0 0 312 281" style="enable-background:new 0 0 312 281;" xml:space="preserve">
<style type="text/css">
	.st0{fill:#ef8527;}
</style>
<rect x="5.9" y="155.9" class="st0" width="176.3" height="24.1"/>
<path class="st0" d="M182.2,197.8H5.9v58.3c0,11.3,11.1,21.3,23.7,21.3h193.4c12.6,0,23.7-10,23.7-21.3v-58.3h-46.7H182.2z
	 M206.6,235.7H46.1v-17.8h160.5L206.6,235.7L206.6,235.7z"/>
<path class="st0" d="M29.6,102.8c-13.5,0-23.7,11.2-23.7,26.1v9.2h176.3v-35.3H29.6z"/>
<path class="st0" d="M226.7,49.8c0-14.5,11.8-26.4,26.4-26.4c14.6,0,26.4,11.8,26.4,26.4v29.4h17.8V49.8c0-24.4-19.8-44.2-44.2-44.2
	s-44.2,19.8-44.2,44.2v29.4h17.8V49.8z"/>
<path class="st0" d="M200.1,180h46.7h59.3V85.9h-106V180z M246.4,136.1l30.8-30.8l12.6,12.6l-43.4,43.4l-30.2-30.2l12.6-12.6
	L246.4,136.1z"/>
</svg>
