<?xml version="1.0" encoding="utf-8"?>
<!-- Generator: Adobe Illustrator 22.0.1, SVG Export Plug-In . SVG Version: 6.00 Build 0)  -->
<svg version="1.1" id="Layer_1" xmlns="http://www.w3.org/2000/svg" xmlns:xlink="http://www.w3.org/1999/xlink" x="0px" y="0px"
	 viewBox="0 0 289.3 293.3" style="enable-background:new 0 0 289.3 293.3;" xml:space="preserve">
<style type="text/css">
	.st0{fill:#999999;}
</style>
<g>
	<path class="st0" d="M144.7,7C67.5,7,4.7,69.7,4.7,146.9c0,77.2,62.8,139.4,139.9,139.4c77.2,0,139.9-62.2,139.9-139.4
		C284.6,69.7,221.8,7,144.7,7L144.7,7z M154,151c0,5.1-4.2,9.3-9.3,9.3H70c-5.1,0-9.3-4.2-9.3-9.3s4.2-9.3,9.3-9.3h65.3V39.1
		c0-5.1,4.2-9.3,9.3-9.3c5.1,0,9.3,4.2,9.3,9.3V151z M154,151"/>
</g>
</svg>
