<?xml version="1.0" encoding="utf-8"?>
<!-- Generator: Adobe Illustrator 22.0.1, SVG Export Plug-In . SVG Version: 6.00 Build 0)  -->
<svg version="1.1" id="Layer_1" xmlns="http://www.w3.org/2000/svg" xmlns:xlink="http://www.w3.org/1999/xlink" x="0px" y="0px"
	 viewBox="0 0 200 200" style="enable-background:new 0 0 200 200;" xml:space="preserve">
<style type="text/css">
	.st0{fill:#010101;}
	.st1{fill-rule:evenodd;clip-rule:evenodd;}
	.st2{clip-path:url(#SVGID_2_);}
	.st3{clip-path:url(#SVGID_4_);}
	.st4{clip-path:url(#SVGID_6_);}
	.st5{clip-path:url(#SVGID_8_);}
	.st6{clip-path:url(#SVGID_10_);fill:#020202;}
	.st7{clip-path:url(#SVGID_12_);}
</style>
<g>
	<g>
		<defs>
			<rect id="SVGID_3_" x="2" y="2" width="195.8" height="196"/>
		</defs>
		<clipPath id="SVGID_2_">
			<use xlink:href="#SVGID_3_"  style="overflow:visible;"/>
		</clipPath>
		<path class="st2" d="M194.8,26.1c3-8.9,2.4-15.7-1.7-20.6c-4.8-4.1-11.7-4.6-20.6-1.7c-8.9,3-16.9,8-23.9,15l-22.2,22.2L34.1,19
			c-1.5-0.5-2.9-0.1-4.2,1.1L12.2,37.9c-1,1-1.4,2.3-1.2,3.8c0.3,1.5,1.1,2.6,2.4,3.3l70.5,38.7l-36,36l-26.9-7.4
			c-0.2-0.1-0.5-0.1-1.1-0.1c-1.3,0-2.4,0.4-3.2,1.2L3.3,126.9c-0.9,1.1-1.3,2.3-1.2,3.5c0.2,1.5,0.8,2.5,1.8,3.2l35,26.2l26.2,35
			c0.8,1,1.9,1.6,3.3,1.8h0.3c1.3,0,2.4-0.4,3.2-1.2L85.2,182c1.2-1.3,1.6-2.7,1.1-4.3L79,150.8l36-36l38.7,70.5
			c0.6,1.2,1.5,1.9,2.9,2.2c0.3,0.1,0.6,0.1,1,0.1c1.1,0,2-0.3,2.6-0.8l17.8-13.3c1.6-1.3,2.1-2.8,1.7-4.6l-22.2-96.6L179.8,50
			C186.8,42.9,191.8,35,194.8,26.1L194.8,26.1z M194.8,26.1"/>
	</g>
</g>
</svg>
