<?xml version="1.0" encoding="utf-8"?>
<!-- Generator: Adobe Illustrator 22.0.1, SVG Export Plug-In . SVG Version: 6.00 Build 0)  -->
<svg version="1.1" id="Layer_1" xmlns="http://www.w3.org/2000/svg" xmlns:xlink="http://www.w3.org/1999/xlink" x="0px" y="0px"
	 viewBox="0 0 200 200" style="enable-background:new 0 0 200 200;" xml:space="preserve">
<style type="text/css">
	.st0{fill:#010101;}
	.st1{fill-rule:evenodd;clip-rule:evenodd;}
	.st2{clip-path:url(#SVGID_2_);}
	.st3{clip-path:url(#SVGID_4_);}
	.st4{clip-path:url(#SVGID_6_);}
	.st5{clip-path:url(#SVGID_8_);}
	.st6{clip-path:url(#SVGID_10_);fill:#020202;}
	.st7{clip-path:url(#SVGID_12_);}
</style>
<g>
	<path d="M30.2,65h-0.5c-6.4,0-11.5,5.2-11.5,11.5v50.3c0,6.3,5.2,11.6,11.5,11.6h0.5c6.4,0,11.5-5.2,11.5-11.6V76.5
		C41.7,70.2,36.5,65,30.2,65L30.2,65z M30.2,65"/>
	<g>
		<defs>
			<rect id="SVGID_1_" x="18.2" y="1.8" width="163.7" height="196.3"/>
		</defs>
		<clipPath id="SVGID_2_">
			<use xlink:href="#SVGID_1_"  style="overflow:visible;"/>
		</clipPath>
		<path class="st2" d="M47.3,146.1c0,5.9,4.8,10.6,10.6,10.6h11.3v27.2c0,6.4,5.2,11.5,11.6,11.5h0.5c6.4,0,11.6-5.2,11.6-11.5
			v-27.2h15.9v27.2c0,6.4,5.2,11.5,11.5,11.5h0.5c6.4,0,11.5-5.2,11.5-11.5v-27.2h11.3c5.8,0,10.6-4.7,10.6-10.6V66.8H47.3V146.1z
			 M47.3,146.1"/>
		<path class="st2" d="M127.3,18.7l9-13.9c0.6-0.8,0.3-2.1-0.6-2.6c-0.9-0.6-2.1-0.4-2.6,0.6l-9.4,14.4c-7-2.9-14.8-4.5-23.1-4.5
			c-8.3,0-16.1,1.6-23.1,4.5L68.3,2.7c-0.6-0.9-1.8-1.2-2.7-0.6c-0.9,0.6-1.1,1.8-0.6,2.6l9,13.9c-16.2,8-27.2,23-27.2,40.2
			c0,1.1,0.1,2.1,0.2,3.2h107.3c0.1-1.1,0.2-2.1,0.2-3.2C154.5,41.7,143.6,26.7,127.3,18.7L127.3,18.7z M75.8,43.6
			c-2.9,0-5.2-2.3-5.2-5.2c0-2.9,2.3-5.1,5.2-5.1c2.9,0,5.2,2.3,5.2,5.1C81,41.3,78.7,43.6,75.8,43.6L75.8,43.6z M125.6,43.6
			c-2.9,0-5.2-2.3-5.2-5.2c0-2.9,2.3-5.1,5.2-5.1c2.9,0,5.2,2.3,5.2,5.1C130.8,41.3,128.5,43.6,125.6,43.6L125.6,43.6z M125.6,43.6"
			/>
		<path class="st2" d="M171.7,65h-0.5c-6.4,0-11.5,5.2-11.5,11.5v50.3c0,6.3,5.2,11.6,11.5,11.6h0.5c6.4,0,11.5-5.2,11.5-11.6V76.5
			C183.3,70.2,178.1,65,171.7,65L171.7,65z M171.7,65"/>
	</g>
</g>
</svg>
