<?xml version="1.0" encoding="utf-8"?>
<!-- Generator: Adobe Illustrator 22.0.1, SVG Export Plug-In . SVG Version: 6.00 Build 0)  -->
<svg version="1.1" id="Layer_1" xmlns="http://www.w3.org/2000/svg" xmlns:xlink="http://www.w3.org/1999/xlink" x="0px" y="0px"
	 viewBox="0 0 200 200" style="enable-background:new 0 0 200 200;" xml:space="preserve">
<style type="text/css">
	.st0{fill:#010101;}
	.st1{fill-rule:evenodd;clip-rule:evenodd;}
	.st2{clip-path:url(#SVGID_2_);}
	.st3{clip-path:url(#SVGID_4_);}
	.st4{clip-path:url(#SVGID_6_);}
	.st5{clip-path:url(#SVGID_8_);}
	.st6{clip-path:url(#SVGID_10_);fill:#020202;}
	.st7{clip-path:url(#SVGID_12_);}
</style>
<g>
	<path d="M164.5,130.8c-5.5-7.8-8.2-16.7-8.2-26.5c0-9,2.6-17.2,7.7-24.6c2.8-4,7.3-8.7,13.6-14c-4.1-5.1-8.2-9-12.4-11.9
		c-7.5-5.2-15.9-7.7-25.3-7.7c-5.6,0-12.5,1.3-20.6,4c-7.8,2.7-13.4,4-17,4c-2.7,0-8.2-1.2-16.4-3.6c-8.3-2.4-15.3-3.6-21.1-3.6
		c-13.6,0-24.9,5.7-33.8,17.1c-9,11.6-13.4,26.4-13.4,44.5c0,19.2,5.8,39.1,17.5,59.8c11.8,20.5,23.7,30.8,35.8,30.8
		c4,0,9.3-1.3,15.7-4c6.4-2.6,12-3.9,16.9-3.9c5.2,0,11.1,1.3,18,3.8c7.2,2.5,12.8,3.8,16.7,3.8c10.1,0,20.3-7.8,30.6-23.3
		c6.7-9.9,11.5-19.8,14.6-29.7C176.2,143.6,169.9,138.6,164.5,130.8L164.5,130.8z M164.5,130.8"/>
	<path d="M124,38.9c5-5,8.7-10.5,11.1-16.4c2.3-5.9,3.4-11.3,3.4-16.2c0-0.3,0-0.7-0.1-1.2c0-0.5-0.1-0.9-0.1-1.2
		c-0.1-0.2-0.2-0.7-0.3-1.3c-0.1-0.6-0.2-1.1-0.3-1.3c-14,3.3-23.9,9.1-29.7,17.6c-6,8.6-9,18.7-9.3,30.6c5.3-0.5,9.4-1.1,12.4-2
		C115.4,46,119.7,43.1,124,38.9L124,38.9z M124,38.9"/>
</g>
</svg>
