<?xml version="1.0" encoding="utf-8"?>
<!-- Generator: Adobe Illustrator 22.0.1, SVG Export Plug-In . SVG Version: 6.00 Build 0)  -->
<svg version="1.1" id="Layer_1" xmlns="http://www.w3.org/2000/svg" xmlns:xlink="http://www.w3.org/1999/xlink" x="0px" y="0px"
	 viewBox="0 0 200 200" style="enable-background:new 0 0 200 200;" xml:space="preserve">
<style type="text/css">
	.st0{fill:#010101;}
	.st1{fill-rule:evenodd;clip-rule:evenodd;}
	.st2{clip-path:url(#SVGID_2_);}
	.st3{clip-path:url(#SVGID_4_);}
	.st4{clip-path:url(#SVGID_6_);}
	.st5{clip-path:url(#SVGID_8_);}
	.st6{clip-path:url(#SVGID_10_);fill:#020202;}
	.st7{clip-path:url(#SVGID_12_);}
	.st8{clip-path:url(#SVGID_14_);}
	.st9{fill:none;}
	.st10{clip-path:url(#SVGID_16_);}
	.st11{clip-path:url(#SVGID_18_);}
	.st12{clip-path:url(#SVGID_20_);}
	.st13{clip-path:url(#SVGID_22_);}
	.st14{clip-path:url(#SVGID_24_);}
	.st15{fill:#1E1818;}
</style>
<g>
	<path class="st0" d="M170.7,192.8l-13.1-55.4c-2.7-11.2-11.1-20.3-22.1-23.7c-5.9-1.8-11.4-2.9-17.4-3.9l-3.2-6.4
		c0-0.1-0.1-0.1-0.1-0.2l0.3-2c4.9-4.5,8.5-10.7,8.6-10.8c1.1-2,2.2-4.9,3.2-8.3c0.3,0.3,0.7,0.4,1.1,0.4c1.2,0,2.4-0.2,3.6-0.7
		c3.3-1.4,5.4-4.7,5.4-8.2v-5.2c0-3.2-2.6-5.7-5.7-5.7c-0.1,0-0.2,0-0.4,0c1-6.6,1.5-12.6,1.5-16.4c0-5-1.2-9.6-3.4-13.6
		c0-0.1,0-0.2,0-0.3l-4.2-22.9c-0.4-2.4-2.5-4.2-5-4.2H80.4c-2.5,0-4.6,1.8-5,4.2l-2.8,15.2l-1.4,7.8c0,0.1,0,0.2,0,0.3
		c-2.3,4-3.4,8.6-3.4,13.6c0,3.9,0.6,9.9,1.6,16.3c-3.1,0.1-5.5,2.6-5.5,5.7v5.2c0,3.6,2.1,6.8,5.4,8.2c1.1,0.5,2.3,0.7,3.6,0.7
		c0.3,0,0.5-0.1,0.7-0.2c0.9,3.3,1.9,6.1,2.8,8c0.9,1.8,4.4,6.8,8.6,10.6c0,0.1,0,0.1,0,0.2l0.3,2.1c0,0.1-0.1,0.1-0.1,0.2l-3.3,6.5
		c-7.1,1.3-12.3,2.5-17.1,3.9c-11.2,3.3-19.8,12.4-22.5,23.8l-13,55.1c-0.1,0.5,0,0.9,0.3,1.3c0.3,0.4,0.7,0.6,1.2,0.6h23.9v-42.3
		c0-1.4,1.1-2.5,2.5-2.5c1.4,0,2.5,1.1,2.5,2.5v42.3h38.6l0.1-66.8l0,0c-6.9-1.8-11.4-4.3-15.7-8.6c-0.9-0.9-1.1-2.1-0.5-3.2
		l4.1-8.1c1,2.3,2.8,4.1,5.1,5.1l7,3.1v11.7h3v-11.7l7-3.1c2.3-1,4.1-2.9,5.1-5.1l4.1,8.1c0.5,1.1,0.3,2.4-0.5,3.2
		c-4.3,4.3-8.8,6.8-15.7,8.6l0,0l-0.2,66.8h38.9v-42.3c0-1.4,1.1-2.5,2.5-2.5c1.4,0,2.5,1.1,2.5,2.5v42.3h23.9
		c0.5,0,0.9-0.2,1.2-0.6C170.7,193.7,170.8,193.2,170.7,192.8z M80.2,186.7c-4,0-7.2-3.2-7.2-7.2c0-4,3.2-7.2,7.2-7.2
		c4,0,7.2,3.2,7.2,7.2C87.4,183.5,84.2,186.7,80.2,186.7z M87.4,151.1c0,4-3.2,7.2-7.2,7.2c-4,0-7.2-3.2-7.2-7.2
		c0-4,3.2-7.2,7.2-7.2C84.2,143.9,87.4,147.1,87.4,151.1z M130.3,65.4c0.2,0.1,0.5,0.2,0.8,0.2c1.5,0,2.7,1.2,2.7,2.7v5.2
		c0,2.4-1.4,4.5-3.6,5.5c-0.7,0.3-1.5,0.5-2.3,0.5c-0.1,0-0.3,0-0.4,0.1C128.5,75.2,129.5,70.3,130.3,65.4z M75.4,26.5h49.2l0.9,4.7
		H74.5L75.4,26.5z M70.5,79c-2.2-0.9-3.6-3.1-3.6-5.5v-5.2c0-1.5,1.2-2.7,2.7-2.7c0.1,0,0.2,0,0.3,0c0.8,4.8,1.8,9.6,2.9,13.9
		C72,79.5,71.2,79.3,70.5,79z M111.5,104.8c-0.3,2.4-1.9,4.5-4.1,5.5l-7.3,3.2l-7.3-3.2c-2.2-1-3.8-3.1-4.1-5.5l-0.2-1.2
		c2,1.3,4.1,2.1,6.2,2.1h11.3c2,0,3.9-0.7,5.7-1.8L111.5,104.8z M105.9,102.6H94.6c-5.7,0-13.7-10.1-15.5-13.6
		c-2.2-4.4-4.6-14.6-6.3-24.3c2-2,8.2-8.8,11.9-19.1l27.9-4.3c4.1,10.9,12.7,21.3,14.6,23.4c-1.6,9.8-4,19.9-6.4,24.2
		C117.9,94.2,111.2,102.6,105.9,102.6z M119.8,186.7c-4,0-7.2-3.2-7.2-7.2c0-4,3.2-7.2,7.2-7.2c4,0,7.2,3.2,7.2,7.2
		C127,183.5,123.7,186.7,119.8,186.7z M119.8,158.3c-4,0-7.2-3.2-7.2-7.2c0-4,3.2-7.2,7.2-7.2c4,0,7.2,3.2,7.2,7.2
		C127,155.1,123.7,158.3,119.8,158.3z"/>
</g>
</svg>
