<?xml version="1.0" encoding="utf-8"?>
<!-- Generator: Adobe Illustrator 22.0.1, SVG Export Plug-In . SVG Version: 6.00 Build 0)  -->
<svg version="1.1" id="Layer_1" xmlns="http://www.w3.org/2000/svg" xmlns:xlink="http://www.w3.org/1999/xlink" x="0px" y="0px"
	 viewBox="0 0 200 200" style="enable-background:new 0 0 200 200;" xml:space="preserve">
<style type="text/css">
	.st0{fill:#010101;}
	.st1{fill-rule:evenodd;clip-rule:evenodd;}
	.st2{clip-path:url(#SVGID_2_);}
	.st3{clip-path:url(#SVGID_4_);}
	.st4{clip-path:url(#SVGID_6_);}
	.st5{clip-path:url(#SVGID_8_);}
	.st6{clip-path:url(#SVGID_10_);fill:#020202;}
	.st7{clip-path:url(#SVGID_12_);}
	.st8{clip-path:url(#SVGID_14_);}
	.st9{fill:none;}
	.st10{fill:#272626;}
	.st11{clip-path:url(#SVGID_16_);}
	.st12{clip-path:url(#SVGID_18_);}
	.st13{clip-path:url(#SVGID_20_);}
	.st14{clip-path:url(#SVGID_22_);}
	.st15{clip-path:url(#SVGID_24_);}
	.st16{fill:#1E1818;}
</style>
<g>
	<path class="st0" d="M13.4,57.5h20.9c-1.5,4.3-5.6,7.4-10.5,7.4C19,64.9,14.9,61.8,13.4,57.5z"/>
	<path class="st0" d="M108.5,140.9c-2.3,0.6-3.6,2.9-3,5.2c0,0,0,0,0,0c0.5,1.8,2.2,3.1,4.1,3.1c0.4,0,0.7,0,1.1-0.1l14.8-4
		l-9.2-6.3L108.5,140.9z"/>
	<path class="st0" d="M144.3,135.7c-0.4-1.4-1.5-2.5-2.8-2.9c-0.1,0-0.2-0.1-0.3-0.1c0,0,0,0,0,0c-0.1,0-0.2,0-0.4-0.1
		c-0.1,0-0.1,0-0.2,0c0,0-0.1,0-0.1,0c-0.1,0-0.1,0-0.2,0c0,0-0.1,0-0.1,0c-0.2,0-0.3,0-0.5,0c0,0,0,0,0,0c-0.2,0-0.3,0.1-0.5,0.1
		l-13.4,3.6l9.2,6.3l6.4-1.7C143.6,140.3,144.9,138,144.3,135.7C144.3,135.7,144.3,135.7,144.3,135.7z"/>
	<path class="st0" d="M137.2,125.6c0.3-0.1,0.5-0.1,0.8-0.2c0.1,0,0.2,0,0.3,0c0.2,0,0.3-0.1,0.5-0.1c0.1,0,0.2,0,0.3,0
		c0.2,0,0.3,0,0.5,0c0.1,0,0.2,0,0.4,0c0.1,0,0.2,0,0.2,0c0.1,0,0.1,0,0.2,0c0.1,0,0.2,0,0.3,0l2.6-4.6l-4.4-7.1l-7.9,13.8l4.7-1.3
		L137.2,125.6z"/>
	<path class="st0" d="M150.6,100.5C150.6,100.5,150.6,100.5,150.6,100.5c-0.6-0.3-1.2-0.5-1.8-0.5c-1.3,0-2.6,0.7-3.2,1.8l-2.5,4.4
		l4.4,7.1l4.5-7.8c0.5-0.8,0.6-1.8,0.4-2.8C152.1,101.8,151.5,101,150.6,100.5z"/>
	<path class="st0" d="M120.7,95.1c0.8-0.5,1.7-1,2.6-1.6c0,0,0,0,0,0c1.2-0.7,2.1-1.6,2.8-2.8c2.4-3.9,1.1-9-2.8-11.4
		c-1-0.6-2-1.2-2.9-1.8c-13.8-8.4-14.2-8.8-22.7-22.7c-0.5-0.8-1-1.7-1.6-2.6c0,0,0,0,0,0c-0.7-1.2-1.6-2.1-2.8-2.8
		c-1.3-0.8-2.8-1.2-4.3-1.2c-2.9,0-5.6,1.5-7.1,4c-0.6,1-1.2,2-1.8,2.9c-8.4,13.8-8.8,14.2-22.7,22.7c-0.8,0.5-1.7,1-2.6,1.6
		c0,0,0,0,0,0c-1.2,0.7-2.1,1.6-2.8,2.8c-2.4,3.9-1.1,9,2.8,11.4c1,0.6,2,1.2,2.9,1.8c13.8,8.4,14.2,8.8,22.7,22.7
		c0.5,0.8,1,1.7,1.6,2.6c0,0,0,0,0,0c0.7,1.2,1.6,2.1,2.8,2.8c1.3,0.8,2.8,1.2,4.3,1.2c2.9,0,5.6-1.5,7.1-4c0.6-1,1.2-2,1.8-2.9
		C106.3,104.1,106.7,103.6,120.7,95.1z M89.1,101.6c-8.4,0-15.2-6.8-15.2-15.2c0-8.4,6.8-15.2,15.2-15.2c8.4,0,15.2,6.8,15.2,15.2
		C104.3,94.8,97.5,101.6,89.1,101.6z"/>
	<path class="st0" d="M89.1,78.5c-4.3,0-7.9,3.5-7.9,7.9c0,4.3,3.5,7.9,7.9,7.9c4.3,0,7.9-3.5,7.9-7.9C96.9,82,93.4,78.5,89.1,78.5z
		"/>
	<path class="st9" d="M129.4,49.1L129.4,49.1c0.7,0.4,1.3,0.6,2,0.6c1.3,0,2.5-0.6,3.2-1.8c1-1.8,0.5-4-1.3-5.1l-0.1-0.1
		c-1.8-1-4-0.4-5.1,1.3C127,45.8,127.6,48.1,129.4,49.1z"/>
	<path class="st9" d="M102.4,124.6c0.6-1,1.2-2,1.8-2.9c7.6-12.5,7.6-12.5,20.3-20.2c0.8-0.5,1.7-1,2.6-1.6c2.2-1.3,4-3.1,5.4-5.3
		c4.5-7.4,2.2-17.1-5.2-21.6c-1-0.6-2-1.2-2.9-1.8c-12.5-7.6-12.5-7.6-20.2-20.3c-0.5-0.8-1-1.7-1.6-2.6c-1.3-2.2-3.1-4-5.3-5.4
		c-2.5-1.5-5.3-2.3-8.2-2.3c-5.5,0-10.5,2.8-13.4,7.5c-0.6,1-1.2,2-1.8,2.9c-7.6,12.5-7.6,12.5-20.3,20.2c-0.8,0.5-1.7,1-2.6,1.6
		c-2.2,1.3-4,3.1-5.4,5.3c-4.5,7.4-2.2,17.1,5.2,21.6c1,0.6,2,1.2,2.9,1.8c12.5,7.6,12.5,7.6,20.2,20.3c0.5,0.8,1,1.7,1.6,2.6
		c1.3,2.2,3.1,4,5.3,5.4c2.5,1.5,5.3,2.3,8.2,2.3C94.6,132.1,99.6,129.3,102.4,124.6z"/>
	<path class="st9" d="M74.9,153.1c-6.1-2.9-11.7-6.8-16.4-11.6c-1.4-1.4-3.8-1.4-5.2,0c-1.4,1.4-1.4,3.8,0,5.2
		c5.4,5.4,11.6,9.8,18.5,13c0.5,0.2,1,0.4,1.6,0.4c1.4,0,2.7-0.8,3.3-2.1C77.5,156.2,76.7,154,74.9,153.1z"/>
	<path class="st9" d="M138,55.2c5.2,4.4,9.5,9.6,12.9,15.4c0.7,1.2,1.9,1.8,3.2,1.8c0.6,0,1.3-0.2,1.8-0.5c1.8-1,2.4-3.3,1.4-5
		c-3.8-6.6-8.7-12.4-14.5-17.4c-1.6-1.3-3.9-1.1-5.2,0.4C136.3,51.5,136.5,53.9,138,55.2z"/>
	<path class="st9" d="M84.8,156.8l-0.1,0c-2-0.5-4,0.6-4.5,2.6c-0.5,2,0.6,4,2.6,4.5l0.1,0c0.3,0.1,0.7,0.1,1,0.1
		c1.6,0,3.1-1.1,3.6-2.7C87.9,159.4,86.8,157.3,84.8,156.8z"/>
	<path class="st9" d="M173.4,95.6c2.1,7.9,6.7,12.3,13.8,13.4V33.6c-3.2,4.9-6.8,12.2-9.8,21.4C172.3,70.6,170.8,85.8,173.4,95.6z"
		/>
	<path class="st9" d="M154.4,94.2C154.4,94.1,154.4,94.1,154.4,94.2c-1.8-1-3.7-1.5-5.6-1.5c-4,0-7.7,2.1-9.6,5.5l-3.6,6.3
		c0,0,0,0,0,0l-11.1,19.3c-1,1.7-1.5,3.7-1.5,5.6l-16.3,4.4c-6.2,1.7-9.8,8-8.2,14.2c0,0,0,0,0,0.1c1.4,5.1,6,8.6,11.2,8.6
		c1,0,2-0.1,3-0.4l30.6-8.2c6.2-1.7,9.9-8,8.2-14.2c0,0,0,0,0-0.1c-0.6-2.4-2-4.4-3.8-5.9l3.2-5.5c0,0,0,0,0,0l7.6-13.1
		c1.5-2.6,1.9-5.5,1.1-8.4C158.7,98,156.9,95.6,154.4,94.2z"/>
	<path class="st9" d="M179.4,114.4c-0.7,6.1-2,12.6-3.4,19c-1.8,8.3-3.6,17-3.6,24c0,4.1,3.3,7.4,7.4,7.4c4.1,0,7.4-3.3,7.4-7.4
		l0-40.9C184.4,116.1,181.8,115.4,179.4,114.4z"/>
	<path class="st0" d="M194.6,24.2L194.6,24.2c0-1.3-0.7-2.5-1.8-3.2c-1.1-0.7-2.6-0.7-3.7,0c-7,4.1-15.3,19.3-20.2,36.4
		c-6.4-10.3-14.9-19-25.2-25.6C130.6,23.4,115.5,19,100,19c-12.4,0-24.8,2.9-35.8,8.4c-8.1,4-15.5,9.4-21.8,15.8V24.2
		c0-2-1.7-3.7-3.7-3.7c-2,0-3.7,1.7-3.7,3.7v25.9h-7.4V24.2c0-2-1.7-3.7-3.7-3.7c-2,0-3.7,1.7-3.7,3.7v25.9h-7.4V24.2
		c0-2-1.7-3.7-3.7-3.7c-2,0-3.7,1.7-3.7,3.7v29.6c0,8.8,6.2,16.1,14.4,18c-0.7,6.6-1.9,20.8-3.6,42.3c-1.4,18-3.4,44.4-3.4,46.9
		c0,6.1,5,11.1,11.1,11.1c6.1,0,11.1-5,11.1-11.1c0-1.1-0.4-6.6-0.9-14c15,21,39.4,34,66,34c18.2,0,36.2-6.3,50.4-17.6
		c5.9-4.7,11.1-10.2,15.5-16.3c-0.5,3.6-0.9,7-0.9,10.2c0,8.2,6.6,14.8,14.8,14.8c8.2,0,14.8-6.6,14.8-14.8l0-43.9
		c0-0.1,0-0.3,0-0.4V24.2z M26.3,161.6c-1.8,2.6-3.4,2.1-4.6,1.1c-1.2-1-1.8-2.6-1.7-4.2l3-40.2c0.1-0.7,1.1-0.7,1.2,0l3,40
		C27.3,159.5,27,160.6,26.3,161.6z M137.6,50c1.3-1.6,3.7-1.7,5.2-0.4c5.8,4.9,10.7,10.8,14.5,17.4c1,1.8,0.4,4-1.4,5
		c-0.6,0.3-1.2,0.5-1.8,0.5c-1.3,0-2.5-0.7-3.2-1.8c-3.4-5.9-7.7-11.1-12.9-15.4C136.5,53.9,136.3,51.5,137.6,50z M128,44
		c1-1.8,3.3-2.3,5.1-1.3l0.1,0.1c1.8,1,2.3,3.3,1.3,5.1c-0.7,1.2-1.9,1.8-3.2,1.8c-0.6,0-1.3-0.2-1.9-0.5l-0.1-0.1
		C127.6,48.1,127,45.8,128,44z M76.6,158.1c-0.6,1.3-2,2.1-3.3,2.1c-0.5,0-1.1-0.1-1.6-0.4c-6.9-3.3-13.1-7.6-18.5-13
		c-1.4-1.4-1.4-3.8,0-5.2c1.4-1.4,3.8-1.4,5.2,0c4.8,4.8,10.3,8.7,16.4,11.6C76.7,154,77.5,156.2,76.6,158.1z M87.4,161.3
		c-0.5,1.6-1.9,2.7-3.6,2.7c-0.3,0-0.6,0-1-0.1l-0.1,0c-2-0.5-3.1-2.6-2.6-4.5c0.5-2,2.6-3.1,4.5-2.6l0.1,0
		C86.8,157.3,87.9,159.4,87.4,161.3z M80.9,129.8c-2.2-1.3-4-3.2-5.3-5.4c-0.6-0.9-1.1-1.8-1.6-2.6c-7.7-12.7-7.7-12.7-20.2-20.3
		c-0.9-0.6-1.9-1.1-2.9-1.8c-7.4-4.5-9.7-14.2-5.2-21.6c1.3-2.2,3.2-4,5.4-5.3c0.9-0.6,1.8-1.1,2.6-1.6c12.7-7.7,12.7-7.7,20.3-20.2
		c0.6-0.9,1.2-1.9,1.8-2.9c2.9-4.7,7.9-7.5,13.4-7.5c2.9,0,5.7,0.8,8.2,2.3c2.2,1.3,4,3.2,5.3,5.4c0.6,0.9,1.1,1.8,1.6,2.6
		c7.7,12.7,7.7,12.7,20.2,20.3c0.9,0.6,1.9,1.2,2.9,1.8c7.4,4.5,9.7,14.2,5.2,21.6c-1.3,2.2-3.2,4-5.4,5.3c-0.9,0.6-1.8,1.1-2.6,1.6
		c-12.7,7.7-12.7,7.7-20.3,20.2c-0.6,0.9-1.2,1.9-1.8,2.9c-2.9,4.7-7.9,7.5-13.4,7.5C86.2,132.1,83.4,131.3,80.9,129.8z
		 M158.4,109.3l-7.6,13.1c0,0,0,0,0,0l-3.2,5.5c1.8,1.5,3.2,3.5,3.8,5.9c0,0,0,0,0,0.1c1.7,6.2-2,12.6-8.2,14.2l-30.6,8.2
		c-1,0.3-2,0.4-3,0.4c-5.3,0-9.9-3.5-11.2-8.6c0,0,0,0,0-0.1c-1.6-6.2,2.1-12.5,8.2-14.2l16.3-4.4c0-1.9,0.5-3.9,1.5-5.6l11.1-19.3
		c0,0,0,0,0,0l3.6-6.3c2-3.4,5.7-5.5,9.6-5.5c1.9,0,3.8,0.5,5.5,1.5c0,0,0.1,0,0.1,0.1c2.5,1.5,4.3,3.9,5.1,6.7
		C160.3,103.7,159.9,106.7,158.4,109.3z M179.8,164.7c-4.1,0-7.4-3.3-7.4-7.4c0-7,1.8-15.6,3.6-24c1.4-6.4,2.7-12.9,3.4-19
		c2.3,1.1,4.9,1.8,7.8,2.1l0,40.9C187.2,161.4,183.9,164.7,179.8,164.7z M187.2,109c-7.2-1.1-11.7-5.5-13.8-13.4
		c-2.6-9.8-1.1-25,4-40.6c3-9.2,6.6-16.6,9.8-21.4V109z"/>
</g>
</svg>
