<?xml version="1.0" encoding="utf-8"?>
<!-- Generator: Adobe Illustrator 22.0.1, SVG Export Plug-In . SVG Version: 6.00 Build 0)  -->
<svg version="1.1" id="Layer_1" xmlns="http://www.w3.org/2000/svg" xmlns:xlink="http://www.w3.org/1999/xlink" x="0px" y="0px"
	 viewBox="0 0 200 200" style="enable-background:new 0 0 200 200;" xml:space="preserve">
<style type="text/css">
	.st0{fill:#010101;}
	.st1{fill-rule:evenodd;clip-rule:evenodd;}
	.st2{clip-path:url(#SVGID_2_);}
	.st3{clip-path:url(#SVGID_4_);}
	.st4{clip-path:url(#SVGID_6_);}
	.st5{clip-path:url(#SVGID_8_);}
	.st6{clip-path:url(#SVGID_10_);fill:#020202;}
	.st7{clip-path:url(#SVGID_12_);}
</style>
<path class="st0" d="M186.8,21.9h-49.2v-8.7c0-4.8-3.9-8.7-8.7-8.7s-8.7,3.9-8.7,8.7v8.7H79.7v-8.7c0-4.8-3.9-8.7-8.7-8.7
	s-8.7,3.9-8.7,8.7v8.7H13.2c-4.8,0-8.7,3.9-8.7,8.7v34.7v40.5v40.5v40.5c0,4.8,3.9,8.7,8.7,8.7h57.9h57.9h57.9
	c4.8,0,8.7-3.9,8.7-8.7v-40.5v-40.5V65.3V30.5C195.5,25.8,191.6,21.9,186.8,21.9z M178.1,97.1h-40.5V74h40.5V97.1z M21.9,74h40.5
	v23.2H21.9V74z M79.7,74h40.5v23.2H79.7V74z M21.9,114.5h40.5v23.2H21.9V114.5z M79.7,114.5h40.5v23.2H79.7V114.5z M137.6,114.5
	h40.5v23.2h-40.5V114.5z M21.9,155h40.5v23.2H21.9V155z M79.7,155h40.5v23.2H79.7V155z M178.1,178.1h-40.5V155h40.5V178.1z"/>
</svg>
