<?xml version="1.0" encoding="utf-8"?>
<!-- Generator: Adobe Illustrator 22.0.1, SVG Export Plug-In . SVG Version: 6.00 Build 0)  -->
<svg version="1.1" id="Layer_1" xmlns="http://www.w3.org/2000/svg" xmlns:xlink="http://www.w3.org/1999/xlink" x="0px" y="0px"
	 viewBox="0 0 200 200" style="enable-background:new 0 0 200 200;" xml:space="preserve">
<style type="text/css">
	.st0{fill:#010101;}
	.st1{fill-rule:evenodd;clip-rule:evenodd;}
	.st2{clip-path:url(#SVGID_2_);}
	.st3{clip-path:url(#SVGID_4_);}
	.st4{clip-path:url(#SVGID_6_);}
	.st5{clip-path:url(#SVGID_8_);}
	.st6{clip-path:url(#SVGID_10_);fill:#020202;}
	.st7{clip-path:url(#SVGID_12_);}
</style>
<g>
	<g>
		<defs>
			<rect id="SVGID_9_" x="6.9" y="6.6" width="186.1" height="186.8"/>
		</defs>
		<clipPath id="SVGID_2_">
			<use xlink:href="#SVGID_9_"  style="overflow:visible;"/>
		</clipPath>
		<path style="clip-path:url(#SVGID_2_);fill:#020202;" d="M186.6,151.7l-28.4-28.4c-5.7-5.6-15-5.5-20.9,0.4L123,138
			c-0.9-0.5-1.8-1-2.8-1.6c-9-5-21.4-11.9-34.4-24.9C72.7,98.5,65.9,86.1,60.9,77.1c-0.5-1-1-1.9-1.5-2.8l9.6-9.6l4.7-4.7
			c5.9-5.9,6-15.2,0.4-20.9L45.6,10.7c-5.6-5.6-15-5.5-20.9,0.4l-8,8l0.2,0.2c-2.7,3.4-4.9,7.4-6.6,11.6c-1.5,4.1-2.5,7.9-2.9,11.8
			c-3.8,31.1,10.5,59.5,49,98.1c53.3,53.3,96.2,49.3,98.1,49.1c4-0.5,7.9-1.4,11.8-3c4.2-1.6,8.2-3.9,11.6-6.6l0.2,0.2l8.1-7.9
			C192.1,166.7,192.3,157.4,186.6,151.7L186.6,151.7z M186.6,151.7"/>
	</g>
</g>
</svg>
