<?xml version="1.0" encoding="utf-8"?>
<!-- Generator: Adobe Illustrator 22.0.1, SVG Export Plug-In . SVG Version: 6.00 Build 0)  -->
<svg version="1.1" id="Layer_1" xmlns="http://www.w3.org/2000/svg" xmlns:xlink="http://www.w3.org/1999/xlink" x="0px" y="0px"
	 viewBox="0 0 200 200" style="enable-background:new 0 0 200 200;" xml:space="preserve">
<style type="text/css">
	.st0{fill:#010101;}
	.st1{fill-rule:evenodd;clip-rule:evenodd;}
	.st2{clip-path:url(#SVGID_2_);}
	.st3{clip-path:url(#SVGID_4_);}
	.st4{clip-path:url(#SVGID_6_);}
	.st5{clip-path:url(#SVGID_8_);}
	.st6{clip-path:url(#SVGID_10_);fill:#020202;}
	.st7{clip-path:url(#SVGID_12_);}
</style>
<g>
	<g>
		<path d="M176,145.8l-24.3-44.4c-1.8-3.3-4.9-5.4-8.1-6c-1.3-0.4-2.6-0.7-4-0.7h-36.9l-0.8-11.3h29.8c3.9,0,7.1-3.6,7.1-7.9
			c0-4.4-3.2-7.9-7.1-7.9h-30.8l-0.9-14c-0.5-7.7-6.9-13.5-14.4-13.5c-0.3,0-0.6,0-1,0l-3,0.2c-8,0.5-14,7.4-13.5,15.4l3.3,50.8
			c0.5,7.7,6.9,13.5,14.4,13.5c0.2,0,0.4,0,0.5,0h0.4c0.3,0,0.6,0,0.8,0h50.6l19.6,35.8c2.2,3.9,6.1,6.2,10,6.2
			c1.6,0,3.1-0.4,4.6-1.2C177.4,158,179,151.3,176,145.8L176,145.8z M176,145.8"/>
		<path d="M83.3,36c9.3,0,16.8-7.5,16.8-16.8c0-9.3-7.5-16.8-16.8-16.8c-9.3,0-16.8,7.5-16.8,16.8C66.5,28.5,74,36,83.3,36L83.3,36z
			 M83.3,36"/>
		<path d="M145.6,154.9c0,0-4-3.1-7,1.6c-3.1,4.7-7.6,16.6-24.3,25.1c-10.3,5.3-23.9,10-42.8,4.3c-18.9-5.7-42.4-27.4-39.3-57.9
			c2.1-16.1,7.5-28.9,24.5-42.1c3.5-3.2,3.4-5.4,1.8-7.3c-1.6-1.9-4.1-2.4-6.5-0.9c-2.4,1.5-3.8,2.6-3.8,2.6s-28,19.9-25.4,56.2
			c2.6,36.2,31.1,57.1,55.7,60.6c24.6,3.5,51.9-6.6,67.2-33.5C147.1,160.1,148.7,157.8,145.6,154.9L145.6,154.9z M145.6,154.9"/>
	</g>
</g>
</svg>
