<?xml version="1.0" encoding="utf-8"?>
<!-- Generator: Adobe Illustrator 22.0.1, SVG Export Plug-In . SVG Version: 6.00 Build 0)  -->
<svg version="1.1" id="Layer_1" xmlns="http://www.w3.org/2000/svg" xmlns:xlink="http://www.w3.org/1999/xlink" x="0px" y="0px"
	 viewBox="0 0 200 200" style="enable-background:new 0 0 200 200;" xml:space="preserve">
<style type="text/css">
	.st0{fill:#010101;}
	.st1{fill-rule:evenodd;clip-rule:evenodd;}
	.st2{clip-path:url(#SVGID_2_);}
	.st3{clip-path:url(#SVGID_4_);}
	.st4{clip-path:url(#SVGID_6_);}
	.st5{clip-path:url(#SVGID_8_);}
	.st6{clip-path:url(#SVGID_10_);fill:#020202;}
	.st7{clip-path:url(#SVGID_12_);}
	.st8{clip-path:url(#SVGID_14_);}
	.st9{fill:none;}
	.st10{clip-path:url(#SVGID_16_);}
	.st11{clip-path:url(#SVGID_18_);}
	.st12{clip-path:url(#SVGID_20_);}
	.st13{clip-path:url(#SVGID_22_);}
	.st14{clip-path:url(#SVGID_24_);}
	.st15{fill:#1E1818;}
</style>
<g>
	<g>
		<defs>
			<rect id="SVGID_19_" x="15.3" y="2.1" width="169.5" height="195.9"/>
		</defs>
		<clipPath id="SVGID_2_">
			<use xlink:href="#SVGID_19_"  style="overflow:visible;"/>
		</clipPath>
		<path class="st2" d="M144.5,84.7V71.1c0-4.9-4-8.9-8.9-8.9h-23.2c4.7-6.1,6.6-12,5.7-17.9c-1.1-7.2-6.2-13-10.8-18.1
			c-6.5-7.3-10-11.7-6.9-17.7c1-1.9,0.5-4.3-1.3-5.6c-1.8-1.3-4.2-1.1-5.8,0.4C72.6,23.8,83.7,37.2,91.7,47
			c5.2,6.2,8.3,10.4,7.2,15.2H72.3c4.7-6.1,6.6-12,5.7-17.9c-1.1-7.2-6.2-13-10.8-18.1c-6.5-7.3-10-11.7-6.9-17.7
			c1-1.9,0.5-4.3-1.3-5.6c-1.8-1.3-4.2-1.1-5.8,0.4C32.5,23.8,43.6,37.2,51.6,47c5.2,6.2,8.3,10.4,7.2,15.2H24.2
			c-4.9,0-8.9,4-8.9,8.9v93.6c0,17.2,14,31.2,31.2,31.2h66.8c15.7,0,28.8-11.7,30.9-26.9c21.4-2.1,38.2-20.2,38.2-42.1
			C182.3,105,165.7,87,144.5,84.7L144.5,84.7z M55.4,160.2c0,4.9-4,8.9-8.9,8.9s-8.9-4-8.9-8.9V93.4c0-4.9,4-8.9,8.9-8.9
			s8.9,4,8.9,8.9V160.2z M144.5,150.9v-48.2c11.4,2.1,20.1,12.1,20.1,24.1C164.5,138.8,155.9,148.8,144.5,150.9L144.5,150.9z
			 M144.5,150.9"/>
	</g>
</g>
</svg>
