<?xml version="1.0" encoding="utf-8"?>
<!-- Generator: Adobe Illustrator 22.0.1, SVG Export Plug-In . SVG Version: 6.00 Build 0)  -->
<svg version="1.1" id="Layer_1" xmlns="http://www.w3.org/2000/svg" xmlns:xlink="http://www.w3.org/1999/xlink" x="0px" y="0px"
	 viewBox="0 0 200 200" style="enable-background:new 0 0 200 200;" xml:space="preserve">
<style type="text/css">
	.st0{fill:#010101;}
	.st1{fill-rule:evenodd;clip-rule:evenodd;}
	.st2{clip-path:url(#SVGID_2_);}
	.st3{clip-path:url(#SVGID_4_);}
	.st4{clip-path:url(#SVGID_6_);}
	.st5{clip-path:url(#SVGID_8_);}
	.st6{clip-path:url(#SVGID_10_);fill:#020202;}
	.st7{clip-path:url(#SVGID_12_);}
	.st8{clip-path:url(#SVGID_14_);}
	.st9{fill:none;}
	.st10{clip-path:url(#SVGID_16_);}
	.st11{clip-path:url(#SVGID_18_);}
	.st12{clip-path:url(#SVGID_20_);}
	.st13{clip-path:url(#SVGID_22_);}
	.st14{clip-path:url(#SVGID_24_);}
	.st15{fill:#1E1818;}
</style>
<g>
	<path d="M161.6,19.4v37.5c10.3-0.6,10.3-10.2,10.3-18.7C171.9,29.6,171.9,20,161.6,19.4L161.6,19.4z M161.6,19.4"/>
	<g>
		<defs>
			<rect id="SVGID_21_" x="3.7" y="3.5" width="192.7" height="193"/>
		</defs>
		<clipPath id="SVGID_2_">
			<use xlink:href="#SVGID_21_"  style="overflow:visible;"/>
		</clipPath>
		<path class="st2" d="M103.5,108.6c-11.2,2.1-16.2,8.5-16.2,16c0,8.8,6.9,16,22.7,16.7c5.2,9.7,14.4,16.6,31,16.6
			c37.6,0,37.6-35,37.6-59.5h-75.2C103.4,101.5,103.4,105,103.5,108.6L103.5,108.6z M153,141.6c6.3-9.4,8.7-20,8.6-31.2
			c0-5.3,8.2-5.3,8.2,0c0,12.5-2.7,24.9-9.7,35.4C157.1,150,150,145.9,153,141.6L153,141.6z M96.9,124.7c-0.1-4.1,0.8-7.2,6.9-8.8
			c0.4,6.1,1.3,12.3,3,17.9C98.1,132.6,97,129.4,96.9,124.7L96.9,124.7z M96.9,124.7"/>
		<path class="st2" d="M63.3,193H188c5.6,0,8.7-5.8,8.7-11.2v-8c0-6-3.5-12.4-8.7-12.4H73c-4.1,0-7.4-1.1-9.6-3.1V193z M63.3,193"/>
	</g>
	<path d="M120.8,3.5H13.3c-5.6,0-9.7,4.1-9.7,9.7v168.7c0,5.4,3.9,11.2,9.7,11.2h46.5V96.6c0-7.3,5.4-12.4,13.1-12.4h47.8
		c5.7,0,9.2-5.9,9.2-11.4V13.1c0-0.9-0.1-1.8-0.3-2.6C128.7,6.2,125.4,3.5,120.8,3.5L120.8,3.5z M52.2,46.8c-0.2,0-0.4,0-0.6,0
		l-2.8-0.5c-2.4,5.3-7.6,8.9-13.8,8.9c-8.4,0-15.1-6.8-15.1-15.1c0-8.4,6.8-15.1,15.1-15.1c8.1,0,14.7,6.4,15.1,14.5l2.6,0.4
		c1.9,0.3,3.2,2.1,2.9,4.1C55.4,45.6,53.9,46.8,52.2,46.8L52.2,46.8z M52.2,46.8"/>
	<path d="M142.1,70.2h8l1.1-3.5l1.1-3.5h5.7V14h-24.6v49.2h5.4l1.6,3.5L142.1,70.2z M142.1,70.2"/>
</g>
</svg>
