<?xml version="1.0" encoding="utf-8"?>
<!-- Generator: Adobe Illustrator 22.0.1, SVG Export Plug-In . SVG Version: 6.00 Build 0)  -->
<svg version="1.1" id="Layer_1" xmlns="http://www.w3.org/2000/svg" xmlns:xlink="http://www.w3.org/1999/xlink" x="0px" y="0px"
	 viewBox="0 0 200 200" style="enable-background:new 0 0 200 200;" xml:space="preserve">
<style type="text/css">
	.st0{fill:#010101;}
	.st1{fill-rule:evenodd;clip-rule:evenodd;}
	.st2{clip-path:url(#SVGID_2_);}
	.st3{clip-path:url(#SVGID_4_);}
	.st4{clip-path:url(#SVGID_6_);}
	.st5{clip-path:url(#SVGID_8_);}
	.st6{clip-path:url(#SVGID_10_);fill:#020202;}
	.st7{clip-path:url(#SVGID_12_);}
	.st8{clip-path:url(#SVGID_14_);}
	.st9{fill:none;}
	.st10{clip-path:url(#SVGID_16_);}
	.st11{clip-path:url(#SVGID_18_);}
	.st12{clip-path:url(#SVGID_20_);}
	.st13{clip-path:url(#SVGID_22_);}
	.st14{clip-path:url(#SVGID_24_);}
	.st15{fill:#1E1818;}
</style>
<g>
	<path class="st0" d="M166.9,139.8c0.3,0.1,0.6,0.1,0.9,0.1h7.3c2.5,0,4.5-2,4.5-4.5v-19.5h5.7c2.5,0,4.5-2,4.5-4.5V88.3
		c0-2.5-2-4.5-4.5-4.5h-5.7V64.6c0-2.5-2-4.5-4.5-4.5h-7.3c-0.3,0-0.6,0-0.9,0.1c-2.1,0.4-3.6,2.2-3.6,4.4v70.8
		C163.3,137.6,164.9,139.4,166.9,139.8z"/>
	<path class="st0" d="M44,155.2h13.5c2.5,0,4.5-2,4.5-4.5v-40.3h4.1h4.1h57.6h4.1h4.1v40.3c0,2.5,2,4.5,4.5,4.5h13.5
		c2.5,0,4.5-2,4.5-4.5V49.3c0-2.5-2-4.5-4.5-4.5h-13.5c-2.5,0-4.5,2-4.5,4.5v40H132h-4.1H70.3h-4.1H62v-40c0-2.5-2-4.5-4.5-4.5H44
		c-2.5,0-4.5,2-4.5,4.5v101.4C39.5,153.2,41.5,155.2,44,155.2z"/>
	<path class="st0" d="M14.7,115.9h3.9v19.5c0,2.5,2,4.5,4.5,4.5h7.3c0.3,0,0.6,0,0.9-0.1c2.1-0.4,3.6-2.2,3.6-4.4V64.6
		c0-2.2-1.6-4-3.6-4.4c-0.3-0.1-0.6-0.1-0.9-0.1h-7.3c-2.5,0-4.5,2-4.5,4.5v19.2h-3.9c-2.5,0-4.5,2-4.5,4.5v23.1
		C10.2,113.9,12.2,115.9,14.7,115.9z"/>
</g>
</svg>
