<?xml version="1.0" encoding="utf-8"?>
<!-- Generator: Adobe Illustrator 22.0.1, SVG Export Plug-In . SVG Version: 6.00 Build 0)  -->
<svg version="1.1" id="Layer_1" xmlns="http://www.w3.org/2000/svg" xmlns:xlink="http://www.w3.org/1999/xlink" x="0px" y="0px"
	 viewBox="0 0 200 200" style="enable-background:new 0 0 200 200;" xml:space="preserve">
<style type="text/css">
	.st0{fill:#010101;}
	.st1{fill-rule:evenodd;clip-rule:evenodd;}
	.st2{clip-path:url(#SVGID_2_);}
	.st3{clip-path:url(#SVGID_4_);}
	.st4{clip-path:url(#SVGID_6_);}
	.st5{clip-path:url(#SVGID_8_);}
	.st6{clip-path:url(#SVGID_10_);fill:#020202;}
	.st7{clip-path:url(#SVGID_12_);}
</style>
<g>
	<path d="M143.9,56.9c3.1-2.2,6-4.6,8.7-7.3c5.6-5.7,9.4-12.6,10.6-19.6c1.3-7.6-0.6-14.7-5.4-19.5c-3.8-3.8-8.9-5.8-14.8-5.8
		c-8.4,0-17.2,4-24.3,11.1C107.6,27,101,42.6,97.5,53.6c-2.6-11.1-7.8-26.2-17.9-36.3c-5.4-5.4-12.4-8.2-18.9-8.2
		c-5.4,0-10.4,1.9-14.3,5.7C38,23.3,39.1,38.1,49,48c3.5,3.5,7.6,6.4,12,8.9H24.2v43.3H35v95.1H165v-95.1h10.8V56.9H143.9z
		 M127.5,24.4c4.7-4.7,10.5-7.5,15.7-7.5c1.8,0,4.3,0.4,6.2,2.2c4.4,4.4,1.9,14.6-5.3,21.8c-7.4,7.4-17.4,12.5-26.1,15.9h-8.6
		C112.4,47.1,118.1,33.8,127.5,24.4L127.5,24.4z M53,29.9c-0.1-1.5,0-4.4,2.1-6.5c1.7-1.7,4-2.1,5.6-2.1C64.3,21.3,68,23,71,26
		c5.7,5.7,10.4,14.8,13.6,26.4c0.1,0.3,0.2,0.6,0.3,0.9c-0.3-0.1-0.6-0.2-0.9-0.3c-11.5-3.2-20.6-7.9-26.4-13.6
		C54.9,36.7,53.2,33.3,53,29.9L53,29.9z M89.2,184.4H45.9V94.7h43.3V184.4z M89.2,89.3H35V67.7h54.1V89.3z M154.1,184.4h-43.3V94.7
		h43.3V184.4z M165,89.3h-54.1V67.7H165V89.3z M165,89.3"/>
</g>
</svg>
