<?xml version="1.0" encoding="utf-8"?>
<!-- Generator: Adobe Illustrator 22.0.1, SVG Export Plug-In . SVG Version: 6.00 Build 0)  -->
<svg version="1.1" id="Layer_1" xmlns="http://www.w3.org/2000/svg" xmlns:xlink="http://www.w3.org/1999/xlink" x="0px" y="0px"
	 viewBox="0 0 200 200" style="enable-background:new 0 0 200 200;" xml:space="preserve">
<style type="text/css">
	.st0{fill:#010101;}
	.st1{fill-rule:evenodd;clip-rule:evenodd;}
	.st2{clip-path:url(#SVGID_2_);}
	.st3{clip-path:url(#SVGID_4_);}
	.st4{clip-path:url(#SVGID_6_);}
	.st5{clip-path:url(#SVGID_8_);}
	.st6{clip-path:url(#SVGID_10_);fill:#020202;}
	.st7{clip-path:url(#SVGID_12_);}
	.st8{clip-path:url(#SVGID_14_);}
	.st9{fill:none;}
	.st10{clip-path:url(#SVGID_16_);}
	.st11{clip-path:url(#SVGID_18_);}
	.st12{clip-path:url(#SVGID_20_);}
	.st13{clip-path:url(#SVGID_22_);}
	.st14{clip-path:url(#SVGID_24_);}
	.st15{fill:#1E1818;}
</style>
<g>
	<path class="st0" d="M23.6,75.9h28.8c2.5,0,5,0.2,7.4,0.6V18.9c-2.5,0.4-4.9,0.6-7.4,0.6H23.6c-6.7,0-12.1,5.4-12.1,12.1v32.2
		C11.5,70.4,16.9,75.9,23.6,75.9z M165.6,14.6C153,7.4,136.9,3.5,120.1,3.5c-15.8,0-31.3,3.6-43.4,10c-2.8,1.5-5.8,2.6-8.9,3.6v61.3
		c3,0.9,6,2.1,8.9,3.6c12.2,6.5,27.6,10,43.4,10c16.8,0,32.9-4,45.5-11.1c14.6-8.4,22.9-20.4,22.9-33.1S180.1,23,165.6,14.6z
		 M152.3,59.8h-24.1c-2.2,0-4-1.8-4-4s1.8-4,4-4h24.1c2.2,0,4,1.8,4,4S154.5,59.8,152.3,59.8z M152.3,43.7h-24.1c-2.2,0-4-1.8-4-4
		c0-2.2,1.8-4,4-4h24.1c2.2,0,4,1.8,4,4C156.3,41.9,154.5,43.7,152.3,43.7z M134.8,99c-10.5,1.4-18.6,1.4-29.5,0
		c-1.2-0.2-2.4,0.2-3.3,1.1c-0.9,0.8-1.3,2.1-1.2,3.3c3.5,38.5,1.4,52.2-0.4,54.2c-1.2,1.2-1.5,2.9-0.9,4.4c0.6,1.5,2.1,2.5,3.7,2.5
		h12c-0.6,12.3-4.6,24.1-28.1,24.1c-16.3,0-28.7-4.4-33.1-11.8c-3-4.9-2.6-11.2,1.3-18.5l1.8-3.3c5.9-10.8,17-30.8,8.1-45.8
		C58.4,97.5,42.1,92,15.5,92c-2.2,0-4,1.8-4,4c0,2.2,1.8,4,4,4c23.2,0,37.5,4.4,42.7,13.1c6.5,11.1-3,28.5-8.2,37.9l-1.9,3.5
		c-6.5,12.4-4.2,21.2-1,26.4c6.1,10.1,20.3,15.7,40,15.7c32,0,35.7-20.6,36.1-32.2h4.1c0.9,0,1.8-0.3,2.5-0.9
		c6.6-5.2,9.2-22.2,9.5-60.5c0-1.2-0.5-2.3-1.4-3C137.2,99.2,136,98.8,134.8,99z M123.3,124.1c0,2.2-1.8,4-4,4s-4-1.8-4-4v-12.1
		c0-2.2,1.8-4,4-4s4,1.8,4,4V124.1z"/>
</g>
</svg>
