<?xml version="1.0" encoding="utf-8"?>
<!-- Generator: Adobe Illustrator 22.0.1, SVG Export Plug-In . SVG Version: 6.00 Build 0)  -->
<svg version="1.1" id="Layer_1" xmlns="http://www.w3.org/2000/svg" xmlns:xlink="http://www.w3.org/1999/xlink" x="0px" y="0px"
	 viewBox="0 0 200 200" style="enable-background:new 0 0 200 200;" xml:space="preserve">
<style type="text/css">
	.st0{fill:#010101;}
	.st1{fill-rule:evenodd;clip-rule:evenodd;}
	.st2{clip-path:url(#SVGID_2_);}
	.st3{clip-path:url(#SVGID_4_);}
	.st4{clip-path:url(#SVGID_6_);}
	.st5{clip-path:url(#SVGID_8_);}
	.st6{clip-path:url(#SVGID_10_);fill:#020202;}
	.st7{clip-path:url(#SVGID_12_);}
</style>
<g>
	<path d="M157.1,23.1c0,0-0.1,0-0.2,0c-13.7,1.4-28.3,0-40.7-6.5c-7.2-3.8-11.1-9-16.4-15c1.9,2.2-12.4,12.5-14,13.7
		c-8.5,6.1-19.1,9.1-29.4,9.2c-5.4,0.1-10.7-0.3-16-1.1c-1.6-0.2-16.5-2.6-16.5-3.8c-0.1,30.1,0,60.1,0,90.2c0,2.4,0,4.9,0,7.3
		c1.6,8.6,5.7,17.6,12.2,26.7c6.2,8.7,14.7,17.8,25.3,26.9c15.1,13.1,29.4,21.9,30,22.3l8.5,5.2l8.5-5.2c0.6-0.4,14.9-9.2,30.1-22.3
		c10.6-9.2,19.3-18.2,25.5-27c6.4-9.1,10.7-18,12.3-26.7c0,0,0-96.4,0-97.6C176.2,21,159.3,22.9,157.1,23.1z M166.4,114.3l-0.2,0.5
		c-2.7,14.7-14.2,31-34.4,48.3c-14.6,12.6-28.2,21-28.8,21.3l-3.2,2l-3.2-2c-0.6-0.4-14.2-8.8-28.7-21.3
		c-20.1-17.3-31.6-33.6-34.3-48.3l0-0.5c0,0,0-81.8,0-82.4c0,2.7,20.9,1.9,23,1.7c16.3-1,30.8-5.9,43.1-16.7
		c-0.4,0.7,10.9,8.3,12.2,8.9c16.4,8.5,36.4,9.4,54.5,5.9V114.3z"/>
	<path d="M131.5,38.3C116.4,35.7,104,30.7,99.8,26c-4.2,4.7-16.5,9.7-31.6,12.4c-11.3,2-21.5,2.2-28.4,1v74.6
		c5.6,32,60.1,65.5,60.1,65.5s54.6-33.5,60.2-65.6V39.3C153.6,40.6,142.9,40.4,131.5,38.3z M130.7,107.9h-22.8v22.8H92.1v-22.8H69.3
		V92.1h22.8V69.3h15.7v22.8h22.8V107.9z"/>
</g>
</svg>
