<?xml version="1.0" encoding="utf-8"?>
<!-- Generator: Adobe Illustrator 22.0.1, SVG Export Plug-In . SVG Version: 6.00 Build 0)  -->
<svg version="1.1" id="Layer_1" xmlns="http://www.w3.org/2000/svg" xmlns:xlink="http://www.w3.org/1999/xlink" x="0px" y="0px"
	 viewBox="0 0 200 200" style="enable-background:new 0 0 200 200;" xml:space="preserve">
<style type="text/css">
	.st0{fill:#010101;}
	.st1{fill-rule:evenodd;clip-rule:evenodd;}
	.st2{clip-path:url(#SVGID_2_);}
	.st3{clip-path:url(#SVGID_4_);}
	.st4{clip-path:url(#SVGID_6_);}
	.st5{clip-path:url(#SVGID_8_);}
	.st6{clip-path:url(#SVGID_10_);fill:#020202;}
	.st7{clip-path:url(#SVGID_12_);}
	.st8{clip-path:url(#SVGID_14_);}
	.st9{fill:none;}
	.st10{fill:#272626;}
	.st11{clip-path:url(#SVGID_16_);}
	.st12{clip-path:url(#SVGID_18_);}
	.st13{clip-path:url(#SVGID_20_);}
	.st14{clip-path:url(#SVGID_22_);}
	.st15{clip-path:url(#SVGID_24_);}
	.st16{fill:#1E1818;}
</style>
<g>
	<path class="st0" d="M157.4,149.6c-0.8-1.4-1.7-2.4-2.3-2.9c0,0,0,0-0.1,0h-13.5c-0.6,0.6-1.5,1.5-2.3,2.9
		c-1.4,2.4-2.9,6.8-2.2,13.8c1.5,13.8,2.6,16.8,2.6,16.9c0.1,0.1,0.1,0.2,0.1,0.4c0,0.2,0.5,1.9,4.5,2.3c-0.8-2.5-1.1-6.7-1.1-12.6
		c0.1-5.5,0.5-10.5,0.5-10.6l1,0.1l1,0.1c0,0-0.4,5-0.5,10.5c0,0.2,0,0.3,0,0.5c0,4.2,0.2,7,0.5,9c0.2,1.6,0.5,2.6,0.8,3.2
		c0,0,0.1,0,0.1,0h3.3c0,0,0.1,0,0.1,0c0.3-0.6,0.6-1.6,0.8-3.2c0.3-2,0.5-4.8,0.5-9c0-0.2,0-0.3,0-0.5c-0.1-5.4-0.5-10.4-0.5-10.4
		l1-0.1l1-0.1c0,0.1,0.4,5.1,0.5,10.6c0.1,5.9-0.3,10-1.1,12.6c4.1-0.5,4.5-2.1,4.5-2.3c0-0.1,0-0.2,0.1-0.4c0-0.1,1.1-3.1,2.6-16.9
		C160.3,156.4,158.8,152,157.4,149.6z"/>
	<path class="st0" d="M151.7,139.3c-0.3-0.2-0.6-0.4-0.9-0.5c-0.8-0.4-1.7-0.6-2.6-0.6s-1.8,0.2-2.6,0.6c-0.3,0.2-0.6,0.3-0.9,0.5
		c-0.3,0.2-0.6,0.5-0.8,0.7c-1,1-1.6,2.4-1.6,3.9c0,0,0,0,0,0c0,0.1,0,0.3,0,0.5H154c0-0.2,0-0.4,0-0.5c0,0,0,0,0,0
		c0-1.5-0.6-2.9-1.6-3.9C152.2,139.8,152,139.5,151.7,139.3z"/>
	<path class="st0" d="M144.2,96.8l1,0v39.9c0.9-0.4,1.9-0.6,2.9-0.6c1,0,2,0.2,2.9,0.6v-40l0.3,0c0.3,0,0.5,0,0.8-0.1
		c0.4-0.1,0.7-0.1,1-0.2c2.6-0.8,4.4-3.3,4.4-6.1c0-2.8-1.9-5.1-4.4-5.9c-0.3-0.1-0.7-0.2-1-0.2c-0.3,0-0.6-0.1-1-0.1l-0.1,0v-28
		c0-1.2-1-2.3-2.3-2.3h-1.3c-1.2,0-2.3,1-2.3,2.3v28.1l-1,0l-1,0l-12.1,0.2L124,61.9c-0.1-0.3-0.2-0.6-0.3-0.9c0-0.1,0-0.3-0.1-0.4
		c-0.9-2.5-2.4-4.7-4.4-6.6c-1.1-1-2.3-1.9-3.6-2.7v0l-0.7-0.4c-0.3-0.2-0.6-0.3-0.9-0.5c-0.5-0.2-1-0.5-1.5-0.7
		c-0.2-0.1-0.5-0.2-0.7-0.3c-0.1,0-0.2-0.1-0.3-0.1c-0.1,0-0.1,0-0.2-0.1c-1-0.4-2-0.7-3.1-1.1l-1.7-0.5v0.1
		c-0.6-0.1-1.2-0.3-1.8-0.4c0.2-0.2,0.4-0.3,0.5-0.5c0.1-0.1,0.2-0.2,0.3-0.3h10.7c0.6,0,1-0.5,1-1c0.1-4.1,0-8.3-0.1-11.3
		c0-1.5-0.1-2.7-0.1-3.6c0-8.8-2.1-15.4-6.2-19.6c-4-4.2-9-5.1-12.5-5.1c-2.6,0-5.2,0.5-7.4,1.4c-1,0.4-2.4,1.1-3.1,2.1
		c-0.5-0.1-1-0.2-1.5-0.2c-3.3,0-6.3,2.7-8.5,7.8c-1.7,3.8-2.8,9-3,13.3c0,0,0,0,0,0c0,0.6,0,1.4,0,2.4c0,3.2-0.1,7.9,0.1,12.7
		c0,0.6,0.5,1,1,1h10.5c0.1,0.1,0.2,0.2,0.3,0.3c0.2,0.2,0.3,0.3,0.5,0.5c-0.6,0.1-1.2,0.2-1.7,0.4v-0.1L84,48.3
		c-0.1,0-0.2,0-0.2,0.1c-1.3,0.4-2.6,0.8-3.8,1.4c-0.1,0-0.1,0.1-0.2,0.1c0,0,0,0,0,0c-0.8,0.3-1.6,0.7-2.3,1.1l-0.7,0.4v0.1
		c-3.7,2.3-6.3,5.4-8,9.2c-0.1,0.1-0.1,0.2-0.1,0.4c-0.2,0.3-0.3,0.6-0.4,1l-12.3,39l-0.9,2.8c-1.4,0.3-2.8,0.7-4.1,1.3
		c-0.7,0.3-1.3,0.9-1.6,1.7c0,0.1-0.1,0.2-0.1,0.2c0,0,0,0,0,0c0,0.1,0,0.1-0.1,0.2c0,0,0,0,0,0c0,0.1,0,0.1,0,0.2c0,0,0,0,0,0
		c0,0.1,0,0.2,0,0.2l0,0c-0.1,0.1-0.2,0.1-0.3,0.2c0,0,0,0,0,0c-0.1,0.1-0.2,0.2-0.3,0.2c0,0,0,0,0,0c-0.1,0.1-0.3,0.2-0.4,0.3
		c-0.3,0.2-0.6,0.5-0.8,0.7c0,0,0,0-0.1,0.1c-0.1,0.1-0.2,0.1-0.2,0.2c0,0-0.1,0.1-0.1,0.1c-0.1,0.1-0.1,0.1-0.2,0.2
		c0,0-0.1,0.1-0.1,0.1c-0.1,0.1-0.1,0.1-0.2,0.2c0,0-0.1,0.1-0.1,0.1c-0.1,0.1-0.2,0.2-0.3,0.3c-0.1,0.1-0.1,0.1-0.2,0.2
		c0,0.1-0.1,0.1-0.1,0.2c-0.1,0.1-0.1,0.1-0.2,0.2c0,0.1-0.1,0.1-0.1,0.2c-0.1,0.1-0.1,0.2-0.2,0.2c0,0.1-0.1,0.1-0.1,0.2
		c-0.1,0.1-0.1,0.2-0.2,0.3c0,0-0.1,0.1-0.1,0.1c-0.1,0.1-0.2,0.3-0.2,0.4c-0.1,0.1-0.1,0.3-0.2,0.4c0,0,0,0.1-0.1,0.1
		c0,0.1-0.1,0.2-0.1,0.3c0,0,0,0.1-0.1,0.1c0,0.1-0.1,0.2-0.1,0.3c0,0.1,0,0.1-0.1,0.2c0,0.1-0.1,0.2-0.1,0.3c0,0,0,0.1-0.1,0.1
		c-0.1,0.1-0.1,0.2-0.1,0.4c0,0,0,0,0,0c-0.1,0.1-0.1,0.3-0.2,0.4c0,0,0,0.1,0,0.1c0,0.1-0.1,0.2-0.1,0.3c0,0.1,0,0.1-0.1,0.2
		c0,0.1-0.1,0.2-0.1,0.3c0,0.1,0,0.1-0.1,0.2c0,0.1-0.1,0.2-0.1,0.3c0,0.1,0,0.1,0,0.2c0,0.1-0.1,0.2-0.1,0.3c0,0,0,0.1,0,0.1
		c0,0.1-0.1,0.3-0.1,0.4c0,0.1,0,0.1,0,0.2c0,0.1,0,0.2-0.1,0.3c0,0.1,0,0.1,0,0.2c0,0.1,0,0.2-0.1,0.2c0,0.1,0,0.1,0,0.2
		c0,0.1,0,0.2,0,0.2c0,0.1,0,0.1,0,0.2c0,0.1,0,0.2,0,0.3c0,0.1,0,0.1,0,0.2c0,0.1,0,0.3-0.1,0.4c0,0.1,0,0.1,0,0.2
		c0,0.1,0,0.2,0,0.2c0,0.1,0,0.1,0,0.2c0,0.1,0,0.1,0,0.2c0,0.1,0,0.2,0,0.2c0,0.1,0,0.1,0,0.2c0,0.1,0,0.2,0,0.2c0,0.1,0,0.1,0,0.2
		c0,0.3-0.1,0.6-0.1,0.9c0,0,0,0.1,0,0.1c0,0.1,0,0.2,0,0.3c0,0.1,0,0.1,0,0.2c0,0.1,0,0.2,0,0.3c0,0,0,0.1,0,0.1c0,0.1,0,0.2,0,0.3
		c0,0,0,0.1,0,0.1c0,0.4,0,0.7,0,1.1c0,0,0,0,0,0h-1.4v6.2h3.6l3.2,28.4c0,1.2,0.4,2.2,1.1,3.1c0.1,0.1,0.2,0.2,0.3,0.3
		c0.1,0.1,0.1,0.1,0.2,0.2c0.4,0.4,0.9,0.7,1.4,0.9c0.1,0,0.1,0.1,0.2,0.1c0.5,0.2,1.1,0.3,1.7,0.3H69c0.6,0,1.1-0.1,1.7-0.3
		c0.1,0,0.1-0.1,0.2-0.1c0.5-0.2,1-0.5,1.4-0.9c0.1-0.1,0.1-0.1,0.2-0.2c0.1-0.1,0.2-0.2,0.3-0.3c0.7-0.8,1.1-1.9,1.1-3.1l1.5-12.9
		l0.7-5.9l0.4-3.5l0.6-5l0.1-1.1h1H80h0.8v-6.2H80h-0.6c0,0,0,0,0,0c0-0.4,0-0.7,0-1.1c0,0,0-0.1,0-0.1c0-0.1,0-0.2,0-0.3
		c0,0,0-0.1,0-0.1c0-0.1,0-0.2,0-0.3c0-0.1,0-0.1,0-0.2c0-0.1,0-0.2,0-0.3c0,0,0-0.1,0-0.1c0-0.3-0.1-0.6-0.1-0.9c0-0.1,0-0.1,0-0.2
		c0-0.1,0-0.2,0-0.2c0-0.1,0-0.1,0-0.2c0-0.1,0-0.2,0-0.2c0-0.1,0-0.1,0-0.2c0-0.1,0-0.1,0-0.2c0-0.1,0-0.2,0-0.2c0-0.1,0-0.1,0-0.2
		c0-0.1,0-0.3-0.1-0.4c0-0.1,0-0.1,0-0.2c0-0.1,0-0.2,0-0.3c0-0.1,0-0.1,0-0.2c0-0.1,0-0.2,0-0.2c0-0.1,0-0.1,0-0.2
		c0-0.1,0-0.2-0.1-0.2c0-0.1,0-0.1,0-0.2c0-0.1,0-0.2-0.1-0.3c0-0.1,0-0.1,0-0.2c0-0.1-0.1-0.3-0.1-0.4c0,0,0-0.1,0-0.1
		c0-0.1-0.1-0.2-0.1-0.3c0-0.1,0-0.1,0-0.2c0-0.1-0.1-0.2-0.1-0.3c0-0.1,0-0.1-0.1-0.2c0-0.1-0.1-0.2-0.1-0.3c0-0.1,0-0.1-0.1-0.2
		c0-0.1-0.1-0.2-0.1-0.3c0,0,0-0.1,0-0.1c-0.1-0.1-0.1-0.3-0.2-0.4c0,0,0,0,0,0c0-0.1-0.1-0.2-0.1-0.4c0,0,0-0.1-0.1-0.1
		c0-0.1-0.1-0.2-0.1-0.3c0-0.1,0-0.1-0.1-0.2c0-0.1-0.1-0.2-0.1-0.3c0,0,0-0.1-0.1-0.1c0-0.1-0.1-0.2-0.1-0.3c0,0,0-0.1-0.1-0.1
		c-0.1-0.1-0.1-0.3-0.2-0.4c-0.1-0.1-0.2-0.3-0.2-0.4c0,0-0.1-0.1-0.1-0.1c-0.1-0.1-0.1-0.2-0.2-0.3c0-0.1-0.1-0.1-0.1-0.2
		c-0.1-0.1-0.1-0.2-0.2-0.2c0-0.1-0.1-0.1-0.1-0.2c-0.1-0.1-0.1-0.1-0.2-0.2c0-0.1-0.1-0.1-0.1-0.2c0-0.1-0.1-0.1-0.1-0.2
		c-0.1-0.1-0.1-0.1-0.2-0.2c-0.1-0.1-0.1-0.2-0.2-0.2c0,0,0,0,0-0.1c-0.1-0.1-0.1-0.2-0.2-0.2c0,0-0.1-0.1-0.1-0.1
		c-0.1-0.1-0.1-0.2-0.2-0.2c0,0-0.1-0.1-0.1-0.1c-0.1-0.1-0.2-0.2-0.2-0.2c0,0,0,0-0.1-0.1c-0.1-0.1-0.2-0.2-0.4-0.3
		c-0.5-0.4-1-0.8-1.5-1.1c0,0-0.1,0-0.1-0.1v0c0-0.2-0.1-0.3-0.1-0.5c0,0,0,0,0,0c0,0,0-0.1-0.1-0.1c0,0,0,0,0,0c0,0,0-0.1-0.1-0.1
		c0,0,0,0,0,0c-0.1-0.1-0.1-0.2-0.2-0.3c0,0,0,0,0,0c0,0-0.1-0.1-0.1-0.1c0,0,0,0,0,0c0,0-0.1-0.1-0.1-0.1c0,0,0,0,0,0
		c0,0-0.1-0.1-0.1-0.1c0,0,0,0,0,0c-0.1-0.1-0.2-0.2-0.2-0.2c0,0,0,0,0,0c0,0-0.1-0.1-0.1-0.1c0,0,0,0,0,0c0,0-0.1,0-0.1-0.1
		c0,0,0,0-0.1,0c0,0-0.1,0-0.1-0.1c0,0,0,0,0,0c0,0-0.1-0.1-0.2-0.1c-0.7-0.4-1.5-0.7-2.3-1l0.8-2.5l8-25.2v9.4v1.3l-5.1,15.8
		c0,0,0,0,0,0c0.4,0.2,0.8,0.5,1.1,0.8c0.3,0.3,0.7,0.7,0.9,1.1c0.2,0.3,0.4-1,0.4-1l4.9-15.4h0h34.2h0l4.9,15.6l-5,33.4h-0.9h-1h-1
		H99.7h-1h-1h-2.9h-1h-1H82.1h-1h-1h-0.8l-0.3,1.3l-0.2,1.3H80h1h1h10.5h1h1h2.9h1h1h10.5h1h1h0.9l0,0.1l1.5,2.9
		c0.2,0.4,0.5,1.2,0.1,1.7c-0.3,0.5-1.2,0.8-2.2,0.8c-0.1,0-0.2,0-0.3,0c-0.4,0-0.7-0.1-1-0.2c-0.4-0.1-0.7-0.2-1-0.3
		c-1.4-0.6-2.6-1.7-2.9-3c-0.2-0.7-0.9-1.1-1.6-1c-0.6,0.1-1,0.7-1,1.3c0,0.1,0,0.2,0,0.3c0.2,0.7,0.1,1.3-0.3,1.7
		c-0.5,0.7-1.6,1.1-2.8,1.1c-0.7,0-1.4-0.1-1.9-0.4c-0.4-0.2-0.7-0.4-1-0.6c-0.5-0.4-0.9-0.9-1-1.4c-0.1-0.3-0.1-0.5-0.1-0.8
		c0-0.7-0.6-1.3-1.3-1.3s-1.3,0.6-1.3,1.3c0,0.3,0,0.5-0.1,0.8c-0.2,0.5-0.5,1-1,1.4c-0.3,0.2-0.7,0.4-1,0.6
		c-0.6,0.2-1.2,0.4-1.9,0.4c-1.2,0-2.2-0.4-2.8-1.1c-0.4-0.5-0.5-1.1-0.3-1.7c0-0.1,0-0.2,0-0.3c0-0.6-0.4-1.1-1-1.3
		c-0.7-0.2-1.4,0.3-1.6,1c-0.3,1.2-1.5,2.3-2.9,3c-0.3,0.1-0.7,0.3-1,0.3c-0.3,0.1-0.7,0.1-1,0.2c-0.1,0-0.2,0-0.3,0
		c-0.6,0-1.2-0.1-1.6-0.3l-0.2,1.4l-0.2,1.3c0.6,0.2,1.2,0.3,1.9,0.3c0.1,0,0.2,0,0.3,0v35.7c0,2.9,0.7,5.3,2.1,7
		c1.3,1.6,3.2,2.5,5.3,2.5c2.1,0,4-0.9,5.3-2.5c1.4-1.7,2.1-4.1,2.1-7v-36.8c0.5-0.3,1-0.8,1.4-1.2c0.4,0.5,0.9,0.9,1.4,1.2v36.8
		c0,2.9,0.7,5.3,2.1,7c1.3,1.6,3.2,2.5,5.3,2.5c2.1,0,4-0.9,5.3-2.5c1.4-1.7,2.1-4.1,2.1-7v-35.7c0.1,0,0.2,0,0.3,0
		c2,0,3.6-0.8,4.4-2.1c0.8-1.2,0.8-2.7,0-4.3l-1.4-2.8l5.2-35.2l-5.2-16.7v-1.3v-9.1l4.9,15.5c0.8,2.6,3.3,4.4,6,4.4
		c0,0,0.1,0,0.1,0l16.6-0.3L144.2,96.8z M79.3,86.3V68.6v-1.6v-1.6V52.9v0c0.3-0.1,0.5-0.3,0.8-0.4c0.4-0.2,0.8-0.4,1.3-0.6
		c0.3-0.1,0.7-0.3,1-0.4c0.2-0.1,0.4-0.2,0.7-0.2v1.4v2v13.1v0h0.1h26.1V54.8v-2v-1.4v0c0.2,0.1,0.5,0.2,0.7,0.2
		c0.3,0.1,0.6,0.2,1,0.4c0,0,0,0,0,0c0.6,0.2,1.1,0.5,1.7,0.7c0,0,0,0,0,0c0.1,0,0.2,0.1,0.3,0.1c0.1,0,0.1,0.1,0.2,0.1v0V60v6.2
		v1.6v1v0.6v16.8H79.3z M90.6,46.8c-0.4-0.3-0.9-0.7-1.3-1c-0.2-0.2-0.4-0.4-0.6-0.5c-0.2-0.2-0.3-0.3-0.5-0.5
		c-1.8-1.8-4.2-5.1-4.2-9.4l0-4.7c0.7-2.7,1.9-6.1,4.2-8.3c0,0,0.1,0,0.1,0c1.8,3.4,5.2,6.2,10,8.4c3.7,1.7,7.4,2.6,9.8,3.1l0,1.4
		l0,0c0,4.2-2.4,7.5-4.2,9.4c-0.2,0.2-0.3,0.4-0.5,0.5c-0.2,0.2-0.4,0.4-0.6,0.5c-0.4,0.4-0.9,0.7-1.3,1c-0.1,0.1-0.3,0.2-0.4,0.3
		c-0.4,0.3-0.8,0.5-1.1,0.7c-0.3,0.2-0.5,0.3-0.8,0.4c-0.3,0.1-0.5,0.3-0.8,0.4c-0.9,0.4-1.8,0.6-2.4,0.6c-0.6,0-1.4-0.2-2.4-0.6
		c-0.3-0.1-0.5-0.2-0.8-0.4c-0.3-0.1-0.5-0.3-0.8-0.4c-0.4-0.2-0.8-0.5-1.1-0.7C90.9,46.9,90.8,46.8,90.6,46.8z M82.2,40.4
		C82.2,40.4,82.2,40.4,82.2,40.4c-2.2,0-3.9-1.7-3.9-3.8c0-1.9,1.4-3.4,3.1-3.8l0,2.5c0,1.7,0.3,3.4,1,5.1L82.2,40.4z M110.1,40.4
		C110.1,40.4,110.1,40.4,110.1,40.4l-0.3,0c0.6-1.7,1-3.4,1-5.1l0-2.5c1.8,0.3,3.1,1.9,3.1,3.8C114,38.7,112.2,40.4,110.1,40.4z
		 M86.2,20.6c0,0-0.1,0-0.1,0c-0.3,0-1.2-0.2-1.7-0.8c-0.4-0.4-0.5-1.1-0.5-1.9c0-0.1,0-0.2,0-0.3c0-0.1,0-0.3,0.1-0.4
		c0.2-0.7,0.7-1.7,2.8-1.8c0.1,0,0.3,0,0.4,0c0.7,0,1.3,0.1,1.3,0.1l1.5,0.3l-0.2-1.3l0-0.2c0-0.1,0-1,0.7-1.9
		c1-1.1,2.9-1.7,5.6-1.7h0c2.7,0,4.6,0.6,5.6,1.7c0.8,0.9,0.7,1.8,0.7,1.9l-0.1,0.9l-0.1,0.6l0.1,0l1.4-0.3c0,0,0.6-0.1,1.3-0.1
		c3,0,3.2,1.7,3.3,2.3c0.1,1,0,1.7-0.4,2.2c-0.6,0.6-1.5,0.8-1.8,0.8c-0.9-0.2-6.5-1.3-10.7-1.4v0h-0.6v0c-1.7,0-3.4,0.3-4.8,0.5
		C88.3,20.1,86.8,20.5,86.2,20.6z M101.9,57.9c-1.6,0-3.3-1.4-4.9-4.1l-0.9-1.5l-0.9,1.5c-1.6,2.7-3.2,4.1-4.9,4.1
		c-1.7,0-3.3-1.4-4.7-3.1V51l5.3-0.9c1.8,1.1,3.7,1.7,5.2,1.7c1.5,0,3.3-0.6,5.2-1.7l5.3,0.9v3.8C105.2,56.5,103.6,57.9,101.9,57.9z
		 M74.3,114c0.1,0.1,0.1,0.2,0.2,0.3c0,0,0,0.1,0.1,0.1c0,0.1,0.1,0.2,0.1,0.2c0,0,0,0.1,0.1,0.1c0,0.1,0.1,0.2,0.1,0.2
		c0,0,0,0.1,0.1,0.1c0,0.1,0.1,0.2,0.1,0.3c0,0,0,0.1,0,0.1c0.1,0.1,0.1,0.2,0.1,0.4c0,0,0,0.1,0,0.1c0,0.1,0.1,0.2,0.1,0.3
		c0,0,0,0.1,0,0.1c0,0.1,0.1,0.2,0.1,0.2c0,0,0,0.1,0,0.1c0,0.1,0.1,0.2,0.1,0.2c0,0,0,0.1,0,0.1c0,0.1,0.1,0.2,0.1,0.3
		c0,0,0,0.1,0,0.1c0,0.1,0.1,0.2,0.1,0.4c0,0,0,0.1,0,0.1c0,0.1,0,0.2,0.1,0.2c0,0.1,0,0.1,0,0.2c0,0.1,0,0.1,0.1,0.2
		c0,0.1,0,0.1,0,0.2c0,0.1,0,0.1,0,0.2c0,0.1,0,0.1,0,0.2c0,0.1,0,0.2,0,0.3c0,0.1,0,0.2,0,0.3c0,0.1,0,0.2,0,0.3c0,0.1,0,0.1,0,0.2
		c0,0.1,0,0.1,0,0.2c0,0.1,0,0.1,0,0.2c0,0.1,0,0.1,0,0.2c0,0.1,0,0.1,0,0.2c0,0.1,0,0.1,0,0.2c0,0.1,0,0.2,0,0.2c0,0,0,0.1,0,0.1
		c0,0.2,0,0.4,0.1,0.6c0,0,0,0.1,0,0.1c0,0.1,0,0.2,0,0.3c0,0,0,0.1,0,0.1c0,0.1,0,0.2,0,0.3c0,0,0,0.1,0,0.1c0,0.1,0,0.2,0,0.3
		c0,0,0,0,0,0.1c0,0.3,0,0.7,0.1,1c0,0,0,0,0,0c0,0.1,0,0.2,0,0.3c0,0,0,0,0,0c0,0.1,0,0.2,0,0.3c0,0,0,0,0,0h-0.9h-1.3H44.2
		c0,0,0,0,0,0c0-0.1,0-0.2,0-0.3c0,0,0,0,0,0c0-0.1,0-0.2,0-0.3c0,0,0,0,0,0c0-0.3,0-0.7,0.1-1c0,0,0,0,0-0.1c0-0.1,0-0.2,0-0.3
		c0,0,0-0.1,0-0.1c0-0.1,0-0.2,0-0.3c0,0,0-0.1,0-0.1c0-0.1,0-0.2,0-0.3c0,0,0-0.1,0-0.1c0-0.2,0-0.4,0.1-0.6c0,0,0-0.1,0-0.1
		c0-0.1,0-0.2,0-0.2c0-0.1,0-0.1,0-0.2c0-0.1,0-0.1,0-0.2c0-0.1,0-0.1,0-0.2c0-0.1,0-0.1,0-0.2c0-0.1,0-0.1,0-0.2c0-0.1,0-0.1,0-0.2
		c0-0.1,0-0.2,0-0.3c0-0.1,0-0.2,0-0.3c0-0.1,0-0.2,0-0.3c0-0.1,0-0.1,0-0.2c0-0.1,0-0.1,0-0.2c0-0.1,0-0.1,0-0.2
		c0-0.1,0-0.1,0.1-0.2c0-0.1,0-0.1,0-0.2c0-0.1,0-0.2,0.1-0.2c0,0,0-0.1,0-0.1c0-0.1,0.1-0.2,0.1-0.4c0,0,0-0.1,0-0.1
		c0-0.1,0.1-0.2,0.1-0.3c0,0,0-0.1,0-0.1c0-0.1,0.1-0.2,0.1-0.2c0,0,0-0.1,0-0.1c0-0.1,0.1-0.2,0.1-0.2c0,0,0-0.1,0-0.1
		c0-0.1,0.1-0.2,0.1-0.3c0,0,0-0.1,0-0.1c0-0.1,0.1-0.2,0.1-0.4c0,0,0-0.1,0-0.1c0-0.1,0.1-0.2,0.1-0.3c0,0,0-0.1,0.1-0.1
		c0-0.1,0.1-0.2,0.1-0.2c0,0,0-0.1,0.1-0.1c0-0.1,0.1-0.2,0.1-0.2c0,0,0-0.1,0.1-0.1c0.1-0.1,0.1-0.2,0.2-0.3
		c0.1-0.1,0.1-0.2,0.2-0.4c0,0,0-0.1,0.1-0.1c0.1-0.1,0.1-0.2,0.2-0.3c0,0,0-0.1,0.1-0.1c0.1-0.1,0.1-0.2,0.2-0.3
		c0,0,0.1-0.1,0.1-0.1c0.1-0.1,0.1-0.1,0.2-0.2c0,0,0.1-0.1,0.1-0.1c0-0.1,0.1-0.1,0.1-0.2c0.1-0.1,0.1-0.2,0.2-0.2
		c0,0,0.1-0.1,0.1-0.1c0.1-0.1,0.1-0.1,0.2-0.2c0,0,0.1-0.1,0.1-0.1c0.2-0.2,0.4-0.4,0.6-0.6c0,0,0,0,0,0c0.3-0.3,0.6-0.5,1-0.8
		c0,0,0,0,0,0c0.2,0.1,0.3,0.3,0.5,0.4c0,0,0,0,0,0c0.1,0,0.1,0.1,0.2,0.1c0,0,0,0,0.1,0c0,0,0.1,0,0.1,0c0,0,0.1,0,0.1,0
		c0,0,0,0,0.1,0c0,0,0.1,0,0.1,0c0,0,0,0,0.1,0c0.1,0,0.1,0,0.2,0c0,0,0,0,0,0c0.1,0,0.1,0,0.2,0c0,0,0,0,0,0c0.1,0,0.1,0,0.2,0
		c0.4,0,0.8-0.1,1.2-0.2c0.8-0.3,1.5-0.6,2.3-0.8c0.6,0.9,1.5,1.7,2.5,2.2c0.3,0.1,0.5,0.2,0.8,0.3c0.6,0.2,1.3,0.3,1.9,0.3
		c0.8,0,1.6-0.2,2.3-0.4c1-0.4,2-1.1,2.7-2c0.6,0.2,1.2,0.5,1.8,0.8c0.4,0.2,0.9,0.3,1.3,0.3c0,0,0,0,0,0c0.1,0,0.1,0,0.2,0
		c0,0,0,0,0.1,0c0,0,0.1,0,0.1,0c0,0,0,0,0.1,0c0.1,0,0.1,0,0.2,0c0,0,0,0,0.1,0c0,0,0.1,0,0.1,0c0,0,0.1,0,0.1,0c0,0,0.1,0,0.1,0
		c0,0,0.1,0,0.1,0c0,0,0.1,0,0.1,0c0,0,0.1,0,0.1,0c0,0,0,0,0.1,0c0.1-0.1,0.2-0.1,0.4-0.2c0,0,0,0,0,0c0,0,0.1-0.1,0.1-0.1
		c0,0,0,0,0,0c0.1-0.1,0.2-0.2,0.3-0.3l0,0c0.2,0.1,0.3,0.2,0.5,0.4c0,0,0,0,0,0c0.3,0.2,0.6,0.5,0.9,0.8c0,0,0,0,0,0
		c0,0,0.1,0.1,0.1,0.1c0.1,0.1,0.2,0.2,0.2,0.3c0,0,0,0.1,0.1,0.1c0.2,0.3,0.5,0.6,0.7,0.9c0,0,0.1,0.1,0.1,0.1
		c0.1,0.1,0.2,0.2,0.2,0.4c0,0,0.1,0.1,0.1,0.1C74.1,113.6,74.2,113.8,74.3,114C74.3,113.9,74.3,114,74.3,114z"/>
	<path class="st0" d="M89.1,114.9c0.8,0.4,1.7,0.8,2.6,1.1c1.4,0.4,2.9,0.7,4.4,0.7c1.5,0,3-0.2,4.4-0.7c0.9-0.3,1.8-0.6,2.6-1.1
		c5.4-2.9,9.2-9,9.2-16.1v-1.3H79.9v1.3C79.9,105.8,83.7,112,89.1,114.9z M109.7,100c-0.6,7.8-6.4,14-13.5,14c-7.1,0-13-6.2-13.5-14
		H109.7z"/>
</g>
</svg>
