<?xml version="1.0" encoding="utf-8"?>
<!-- Generator: Adobe Illustrator 22.0.1, SVG Export Plug-In . SVG Version: 6.00 Build 0)  -->
<svg version="1.1" id="Layer_1" xmlns="http://www.w3.org/2000/svg" xmlns:xlink="http://www.w3.org/1999/xlink" x="0px" y="0px"
	 viewBox="0 0 200 200" style="enable-background:new 0 0 200 200;" xml:space="preserve">
<style type="text/css">
	.st0{fill:#010101;}
	.st1{fill-rule:evenodd;clip-rule:evenodd;}
	.st2{clip-path:url(#SVGID_2_);}
	.st3{clip-path:url(#SVGID_4_);}
	.st4{clip-path:url(#SVGID_6_);}
	.st5{clip-path:url(#SVGID_8_);}
	.st6{clip-path:url(#SVGID_10_);fill:#020202;}
	.st7{clip-path:url(#SVGID_12_);}
</style>
<g>
	<path class="st0" d="M144.8,197.5H55.2c-29.1,0-52.7-23.6-52.7-52.7V55.2c0-29.1,23.6-52.7,52.7-52.7h89.6
		c29.1,0,52.7,23.6,52.7,52.7v89.6C197.5,173.9,173.9,197.5,144.8,197.5z M55.2,18.3c-20.4,0-36.9,16.6-36.9,36.9v89.6
		c0,20.4,16.6,36.9,36.9,36.9h89.6c20.4,0,36.9-16.6,36.9-36.9V55.2c0-20.4-16.6-36.9-36.9-36.9H55.2z"/>
	<path class="st0" d="M100.3,143.3c-9.3,0-18.3-3-26-8.6c-9.4-7-15.5-17.2-17.2-28.7c-1.7-11.6,1.2-23.1,8.1-32.5S82.4,58.1,94,56.4
		c4.3-0.6,8.6-0.6,12.8,0c9.3,1.4,17.8,5.7,24.5,12.3c6.7,6.7,10.9,15.2,12.3,24.5l0,0c1.7,11.6-1.2,23.1-8.1,32.5
		c-7,9.4-17.2,15.5-28.7,17.2C104.6,143.2,102.5,143.3,100.3,143.3z M100.4,71.6c-1.4,0-2.7,0.1-4.1,0.3c-7.4,1.1-13.9,5-18.4,11
		c-4.5,6-6.3,13.4-5.2,20.8c1.1,7.4,5,13.9,11,18.4c6,4.5,13.4,6.3,20.8,5.2c15.3-2.3,25.8-16.5,23.6-31.8
		c-1.8-12.3-11.3-21.7-23.6-23.6C103.1,71.7,101.8,71.6,100.4,71.6z"/>
	<path class="st0" d="M149.3,58.6c-2.1,0-4.1-0.8-5.6-2.3c-1.5-1.5-2.3-3.5-2.3-5.6c0-2.1,0.8-4.1,2.3-5.6s3.5-2.3,5.6-2.3
		s4.1,0.8,5.6,2.3c1.5,1.5,2.3,3.5,2.3,5.6c0,2.1-0.8,4.1-2.3,5.6S151.4,58.6,149.3,58.6z"/>
</g>
</svg>
