<?xml version="1.0" encoding="utf-8"?>
<!-- Generator: Adobe Illustrator 22.0.1, SVG Export Plug-In . SVG Version: 6.00 Build 0)  -->
<svg version="1.1" id="Layer_1" xmlns="http://www.w3.org/2000/svg" xmlns:xlink="http://www.w3.org/1999/xlink" x="0px" y="0px"
	 viewBox="0 0 200 200" style="enable-background:new 0 0 200 200;" xml:space="preserve">
<style type="text/css">
	.st0{fill:#010101;}
	.st1{fill-rule:evenodd;clip-rule:evenodd;}
	.st2{clip-path:url(#SVGID_2_);}
	.st3{clip-path:url(#SVGID_4_);}
	.st4{clip-path:url(#SVGID_6_);}
	.st5{clip-path:url(#SVGID_8_);}
	.st6{clip-path:url(#SVGID_10_);fill:#020202;}
	.st7{clip-path:url(#SVGID_12_);}
</style>
<g>
	<path d="M60.4,125c-1.2,0-2.2,0.4-3,1.2c-0.8,0.8-1.2,1.8-1.2,2.9c0,1.2,0.4,2.2,1.2,3c0.8,0.8,1.8,1.2,3,1.2
		c1.1,0,2.1-0.4,2.9-1.2c0.8-0.8,1.2-1.8,1.2-3c0-1.1-0.4-2.1-1.2-2.9C62.5,125.4,61.5,125,60.4,125z"/>
	<path d="M100,1C45.3,1,1,45.3,1,100c0,54.7,44.3,99,99,99s99-44.3,99-99C199,45.3,154.7,1,100,1z M75,137.5c0,1.1-0.4,2.1-1.2,2.9
		c-0.8,0.8-1.8,1.2-2.9,1.2H52c-1.1,0-2.1-0.4-2.9-1.2c-0.8-0.8-1.2-1.8-1.2-2.9V95.8c0-1.1,0.4-2.1,1.2-2.9s1.8-1.2,2.9-1.2h18.8
		c1.1,0,2.1,0.4,2.9,1.2c0.8,0.8,1.2,1.8,1.2,2.9V137.5z M149.5,110.5c0.1,3.3-0.8,6.3-2.8,8.9c0.7,2.4,0.7,5,0,7.6
		c-0.6,2.5-1.8,4.5-3.5,6.1c0.4,4.9-0.7,8.8-3.2,11.8c-2.8,3.3-7.1,5-12.8,5.1h-8.4c-2.9,0-6-0.3-9.4-1c-3.4-0.7-6-1.3-7.9-1.9
		c-1.9-0.6-4.5-1.4-7.9-2.6c-5.3-1.9-8.8-2.8-10.3-2.9c-1.1,0-2.1-0.5-2.9-1.3c-0.8-0.8-1.2-1.8-1.2-2.9V95.8c0-1.1,0.4-2,1.2-2.8
		c0.8-0.8,1.7-1.3,2.8-1.3c1-0.1,2.7-1.4,5-3.8c2.3-2.5,4.5-5.1,6.6-7.9c3-3.8,5.1-6.4,6.6-7.8c0.8-0.8,1.5-1.8,2-3.1
		c0.6-1.3,0.9-2.4,1.1-3.2c0.2-0.8,0.5-2.1,0.9-3.9c0.3-1.7,0.6-3,0.8-4c0.2-1,0.7-2.1,1.3-3.4c0.6-1.3,1.3-2.4,2.2-3.3
		c0.8-0.8,1.8-1.2,2.9-1.2c2,0,3.8,0.2,5.4,0.7c1.6,0.5,2.9,1,3.9,1.7c1,0.7,1.9,1.5,2.6,2.6c0.7,1.1,1.2,2.1,1.6,2.9
		c0.3,0.9,0.6,2,0.8,3.3c0.2,1.3,0.3,2.3,0.3,2.9c0,0.6,0,1.5,0,2.5c0,1.7-0.2,3.3-0.6,5c-0.4,1.7-0.8,3-1.2,3.9
		c-0.4,1-1,2.2-1.8,3.6c-0.1,0.3-0.3,0.7-0.6,1.2c-0.3,0.5-0.5,1-0.7,1.4c-0.2,0.4-0.3,1-0.5,1.6h18.1c3.4,0,6.3,1.2,8.8,3.7
		c2.5,2.5,3.7,5.4,3.7,8.8c0,3.7-1.2,7-3.6,9.7C149.2,107.5,149.5,109.1,149.5,110.5z"/>
</g>
</svg>
