<?xml version="1.0" encoding="utf-8"?>
<!-- Generator: Adobe Illustrator 22.0.1, SVG Export Plug-In . SVG Version: 6.00 Build 0)  -->
<svg version="1.1" id="Layer_1" xmlns="http://www.w3.org/2000/svg" xmlns:xlink="http://www.w3.org/1999/xlink" x="0px" y="0px"
	 viewBox="0 0 200 200" style="enable-background:new 0 0 200 200;" xml:space="preserve">
<style type="text/css">
	.st0{fill:#010101;}
	.st1{fill-rule:evenodd;clip-rule:evenodd;}
	.st2{clip-path:url(#SVGID_2_);}
	.st3{clip-path:url(#SVGID_4_);}
	.st4{clip-path:url(#SVGID_6_);}
	.st5{clip-path:url(#SVGID_8_);}
	.st6{clip-path:url(#SVGID_10_);fill:#020202;}
	.st7{clip-path:url(#SVGID_12_);}
</style>
<g>
	<path d="M164.4,50.7c-0.7-2.6-2.1-5.4-3.2-7.9c-12.6-30.2-40-41-62.2-41c-29.7,0-62.3,19.9-66.7,60.9v8.4c0,0.4,0.1,3.5,0.3,5.1
		C35.1,95.7,50.5,116.5,62,136c12.4,20.9,25.2,41.5,38,62.1c7.9-13.4,15.7-27.1,23.4-40.1c2.1-3.8,4.5-7.7,6.6-11.3
		c1.4-2.5,4.1-4.9,5.3-7.2c12.4-22.7,32.3-45.5,32.3-68.1v-9.2C167.6,59.8,164.6,51.2,164.4,50.7L164.4,50.7z M99.6,92.8
		c-8.7,0-18.3-4.4-23-16.4c-0.7-1.9-0.6-5.8-0.6-6.1v-5.4c0-15.3,13-22.3,24.4-22.3c14,0,24.8,11.2,24.8,25.1
		C125.1,81.6,113.6,92.8,99.6,92.8L99.6,92.8z M99.6,92.8"/>
</g>
</svg>
