<?xml version="1.0" encoding="utf-8"?>
<!-- Generator: Adobe Illustrator 22.0.1, SVG Export Plug-In . SVG Version: 6.00 Build 0)  -->
<svg version="1.1" id="Layer_1" xmlns="http://www.w3.org/2000/svg" xmlns:xlink="http://www.w3.org/1999/xlink" x="0px" y="0px"
	 viewBox="0 0 200 200" style="enable-background:new 0 0 200 200;" xml:space="preserve">
<style type="text/css">
	.st0{fill:#010101;}
	.st1{fill-rule:evenodd;clip-rule:evenodd;}
	.st2{clip-path:url(#SVGID_2_);}
	.st3{clip-path:url(#SVGID_4_);}
	.st4{clip-path:url(#SVGID_6_);}
	.st5{clip-path:url(#SVGID_8_);}
	.st6{clip-path:url(#SVGID_10_);fill:#020202;}
	.st7{clip-path:url(#SVGID_12_);}
	.st8{clip-path:url(#SVGID_14_);}
	.st9{fill:none;}
	.st10{clip-path:url(#SVGID_16_);}
	.st11{clip-path:url(#SVGID_18_);}
	.st12{clip-path:url(#SVGID_20_);}
	.st13{clip-path:url(#SVGID_22_);}
	.st14{clip-path:url(#SVGID_24_);}
	.st15{fill:#1E1818;}
</style>
<g>
	<path d="M149.2,69h-35.3c-3.4,0-6.3,2.8-6.3,6.3v12.5c0,3.4,2.9,6.3,6.3,6.3H151c3.4,0,6.3-2.8,6.3-6.3V75.2c0-3.4-2.8-6.3-6.3-6.3
		H149.2z M149.2,69"/>
	<path d="M2.3,139.2v33.4h12.3v-12.3h170v12.3H197v-33.4H2.3z M2.3,139.2"/>
	<path d="M185,27.4v20.1l-0.2-0.2v0.2c-7.4-7.2-17.7-11.8-29-11.8H44c-11.2,0-21.5,4.6-29,11.8v-0.2l-0.2,0.2V27.4H2.5V102
		c2.8-4.6,7.2-8.2,14.6-8.2h22.6c-1.3-1.7-2.1-4-2.1-6.3V75.2c0-5.7,4.7-10.4,10.4-10.4h37.6c5.7,0,10.4,4.7,10.4,10.4v12.3
		c0,2.3-0.8,4.6-2.1,6.3h12.1c-1.3-1.7-2.1-4-2.1-6.3V75.2c0-5.7,4.7-10.4,10.4-10.4H152c5.7,0,9.7,4.7,9.7,10.4v12.3
		c0,2.3-0.8,4.6-2.1,6.3h23.3c7.2,0,11.8,3.6,14.6,8.2V27.4H185z M185,27.4"/>
	<path d="M47.4,93.6h37.2c3.4,0,6.3-2.9,6.3-6.3V74.9c0-3.4-2.8-6.3-6.3-6.3H47.4c-3.4,0-6.3,2.8-6.3,6.3v12.5
		C41.4,91,44.2,93.6,47.4,93.6L47.4,93.6z M47.4,93.6"/>
	<path d="M197.3,119.1c-0.6-0.2-1.3-0.4-2.1-0.4H4.4c-0.6,0-1.3,0.2-1.9,0.4c-2.3,0.8-4.2,3.2-4.2,5.9v4.2c0,2.8,1.7,4.9,4.2,5.9
		c0.6,0.2,1.3,0.4,2.1,0.4h190.9c0.4,0,0.8,0,1.1-0.2c0.4,0,0.6-0.2,0.9-0.2c2.3-0.8,4.2-3.2,4.2-5.9V125
		C201.5,122.3,199.8,120,197.3,119.1L197.3,119.1z M197.3,119.1"/>
	<path d="M197,112.2c-1-5.5-4.2-14.4-14-14.4h-166c-9.9,0-13.1,8.9-14,14.4c-0.2,0.7-0.2,1.5-0.4,2.1h194.9
		C197.2,113.8,197.2,113,197,112.2L197,112.2z M197,112.2"/>
</g>
</svg>
