<?xml version="1.0" encoding="utf-8"?>
<!-- Generator: Adobe Illustrator 22.0.1, SVG Export Plug-In . SVG Version: 6.00 Build 0)  -->
<svg version="1.0" id="Layer_1" xmlns="http://www.w3.org/2000/svg" xmlns:xlink="http://www.w3.org/1999/xlink" x="0px" y="0px"
	 viewBox="0 0 200 200" style="enable-background:new 0 0 200 200;" xml:space="preserve">
<g>
	<path d="M184.6,41c-1.2-15.1-13.8-27-29.1-27H29.2C13.1,14,0,27.2,0,43.3v113.4C0,172.8,13.1,186,29.2,186h141.5
		c16.1,0,29.2-13.1,29.2-29.2v-90C200,55.6,193.8,46,184.6,41z M168.9,156.7c0,7.4-6,13.4-13.4,13.4H29.2c-7.4,0-13.4-6-13.4-13.4
		V43.3c0-7.4,6-13.4,13.4-13.4h126.2c7.4,0,13.4,6,13.4,13.4V156.7z"/>
	<g>
		<path d="M31.8,73.4h0.3c2.3,0,4.1-1.8,4.1-4.1V54.7l12.3,17c0.8,1.1,2,1.7,3.3,1.7h0.4c0,0,0,0,0,0c0,0,0,0,0.1,0h0.3
			c2.3,0,4.1-1.8,4.1-4.1V42.2c0-2.3-1.8-4.1-4.1-4.1h-0.3c-2.3,0-4.1,1.8-4.1,4.1v14.5L36,39.7c-0.8-1.1-2-1.7-3.3-1.7h-0.4
			c0,0,0,0,0,0c0,0,0,0-0.1,0h-0.3c-2.3,0-4.1,1.8-4.1,4.1v27.1C27.7,71.5,29.5,73.4,31.8,73.4z"/>
		<path d="M146.4,73.4c9.1,0,13.2-5.3,13.2-10.6c0.1-8.2-7.1-10.3-11.3-11.6c-4.7-1.4-5.2-2-5.2-3.2c0-0.7,1.7-1.4,4.1-1.4
			c1.6,0,3.6,0.5,4.7,1.2c1.9,1.2,4.4,0.6,5.6-1.3l0.2-0.2c0.6-0.9,0.8-2.1,0.5-3.1c-0.3-1.1-0.9-2-1.9-2.6
			c-2.5-1.5-5.9-2.5-9.2-2.5c-8.8,0-12.7,5-12.7,10c0,8,6.7,10,11.2,11.4c4.9,1.5,5.3,2.1,5.3,3.4c0,1.4-2.4,2-4.7,2
			c-2.2,0-4.6-0.9-5.9-2.3c-0.8-0.8-1.8-1.2-2.9-1.2c0,0,0,0,0,0c-1.1,0-2.1,0.4-2.9,1.2l-0.2,0.2c-0.8,0.8-1.2,1.8-1.2,2.9
			c0,1.1,0.5,2.2,1.2,2.9C137.4,71.5,142,73.4,146.4,73.4z"/>
		<path d="M100.6,73.4h0.3c0,0,0,0,0,0c0,0,0,0,0,0h0.2c1.8,0,3.3-1.1,3.9-2.8l5.2-15.3l5.1,15.3c0.6,1.7,2.1,2.8,3.9,2.8h0.3
			c0,0,0,0,0,0c0,0,0,0,0,0h0.2c1.8,0,3.3-1.1,3.9-2.8l9.2-27.1c0.4-1.3,0.2-2.6-0.6-3.7c-0.8-1.1-2-1.7-3.4-1.7h-0.4
			c-1.8,0-3.4,1.1-3.9,2.8l-5.1,15.4l-5.1-15.4c-0.6-1.7-2.1-2.8-3.9-2.8h-0.6c-1.8,0-3.4,1.1-3.9,2.8l-5.1,15.4l-5.1-15.4
			c-0.6-1.7-2.1-2.8-3.9-2.8h-0.4c-1.3,0-2.6,0.6-3.4,1.7c-0.8,1.1-1,2.5-0.6,3.7l9.2,27.1C97.3,72.3,98.8,73.4,100.6,73.4z"/>
		<path d="M82.1,65.1H69.3v-5.5h10.5c2.3,0,4.1-1.8,4.1-4.1v-0.3c0-2.3-1.8-4.1-4.1-4.1H69.3v-4.4h12.3c2.3,0,4.1-1.8,4.1-4.1v-0.3
			c0-2.3-1.8-4.1-4.1-4.1H64.8c-2.3,0-4.1,1.8-4.1,4.1v27.1c0,2.3,1.8,4.1,4.1,4.1h17.3c2.3,0,4.1-1.8,4.1-4.1
			C86.2,67,84.4,65.1,82.1,65.1z"/>
		<path d="M74.5,85.4H35.3c-4.4,0-7.9,3.5-7.9,7.9c0,4.4,3.5,7.9,7.9,7.9h39.2c4.4,0,7.9-3.5,7.9-7.9C82.4,88.9,78.9,85.4,74.5,85.4
			z"/>
		<path d="M74.5,111.8H35.3c-4.4,0-7.9,3.5-7.9,7.9s3.5,7.9,7.9,7.9h39.2c4.4,0,7.9-3.5,7.9-7.9C82.4,115.3,78.9,111.8,74.5,111.8z"
			/>
		<path d="M74.5,138.2H35.3c-4.4,0-7.9,3.5-7.9,7.9c0,4.4,3.5,7.9,7.9,7.9h39.2c4.4,0,7.9-3.5,7.9-7.9
			C82.4,141.7,78.9,138.2,74.5,138.2z"/>
		<path d="M155,84.3H94.5c-2.5,0-4.6,2.1-4.6,4.6v61.7c0,2.5,2.1,4.6,4.6,4.6H155c2.5,0,4.6-2.1,4.6-4.6V88.9
			C159.6,86.3,157.6,84.3,155,84.3z"/>
	</g>
</g>
</svg>
