<?xml version="1.0" encoding="utf-8"?>
<!-- Generator: Adobe Illustrator 22.0.1, SVG Export Plug-In . SVG Version: 6.00 Build 0)  -->
<svg version="1.1" id="Layer_1" xmlns="http://www.w3.org/2000/svg" xmlns:xlink="http://www.w3.org/1999/xlink" x="0px" y="0px"
	 viewBox="0 0 200 200" style="enable-background:new 0 0 200 200;" xml:space="preserve">
<style type="text/css">
	.st0{fill:#010101;}
	.st1{fill-rule:evenodd;clip-rule:evenodd;}
	.st2{clip-path:url(#SVGID_2_);}
	.st3{clip-path:url(#SVGID_4_);}
	.st4{clip-path:url(#SVGID_6_);}
	.st5{clip-path:url(#SVGID_8_);}
	.st6{clip-path:url(#SVGID_10_);fill:#020202;}
	.st7{clip-path:url(#SVGID_12_);}
</style>
<path class="st0" d="M67.2,5c-2-2-4.7-3.1-7.6-3.1S54,2.9,52,5l-6.4,6.4c-4.2,4.2-4.2,11,0,15.2l73.4,73.4l-73.4,73.4
	c-2,2-3.1,4.7-3.1,7.6c0,2.9,1.1,5.6,3.1,7.6l6.4,6.4c2,2,4.7,3.1,7.6,3.1c2.9,0,5.6-1.1,7.6-3.1l87.5-87.4c2-2,3.1-4.7,3.1-7.6
	c0-2.9-1.1-5.6-3.1-7.6L67.2,5z"/>
</svg>
