<?xml version="1.0" encoding="utf-8"?>
<!-- Generator: Adobe Illustrator 22.0.1, SVG Export Plug-In . SVG Version: 6.00 Build 0)  -->
<svg version="1.0" id="Layer_1" xmlns="http://www.w3.org/2000/svg" xmlns:xlink="http://www.w3.org/1999/xlink" x="0px" y="0px"
	 viewBox="0 0 200 200" style="enable-background:new 0 0 200 200;" xml:space="preserve">
<g>
	<path d="M167.4,77.6l-60.7,11.9l-68,99.8H8c-3,0-5.4,2.4-5.4,5.4c0,3,2.4,5.4,5.4,5.4l134.8-0.1c2.6,0,5.1-1,7-2.9
		c1.9-1.9,3-4.5,3-7.2c0-5.5-4.5-10-10-10l-17.6,0l29.9-59.6l14.9,71.7c1,4.6,5.1,8,9.8,8c0.7,0,1.4-0.1,2-0.2
		c2.6-0.5,4.9-2.1,6.4-4.3c1.5-2.2,2-4.9,1.4-7.5L167.4,77.6z"/>
	<path d="M100.4,25.4l0.1,0.3l9.5,53.7l55-10.3c0-1.4,0.1-3.3,0.1-5.2c0.3-7.6,0.9-10.4,3.6-11.3c2-0.7,4-1.4,6-2.1l0.3-0.1
		c5.8-2,10.8-5.2,14.8-9.4c6.5-6.8,11-17.2,3.8-26.4c-1.2-1.5-3.6-2.3-7.1-2.3c-7,0-16.3,3-22.4,5c-4.1,1.3-5.9,1.9-7.2,1.9
		c-5-0.1-9.3-1-13.4-1.9c-3.9-0.8-7.5-1.6-11.5-1.6c-1.2,0-2.3,0.1-3.5,0.2l-0.1,0c-1.8,0.2-3.4,0.4-5,0.8c-0.5,0.1-1,0.2-1.5,0.2
		c-1.2,0-2.9-0.4-4.4-2.3c-2.1-2.8-4.3-5.7-6.5-8.5c-3.2-4.1-7-6.2-11.2-6.2c-0.5,0-1,0-1.4,0.1c-0.8,0.1-3.5,0.8-4.6,3
		c-1.3,2.4-0.6,6.2,2,11.1C97.9,17.9,99.4,21.8,100.4,25.4z"/>
</g>
</svg>
