<?xml version="1.0" encoding="utf-8"?>
<!-- Generator: Adobe Illustrator 22.0.1, SVG Export Plug-In . SVG Version: 6.00 Build 0)  -->
<svg version="1.1" id="Layer_1" xmlns="http://www.w3.org/2000/svg" xmlns:xlink="http://www.w3.org/1999/xlink" x="0px" y="0px"
	 viewBox="0 0 200 200" style="enable-background:new 0 0 200 200;" xml:space="preserve">
<style type="text/css">
	.st0{fill:#010101;}
	.st1{fill-rule:evenodd;clip-rule:evenodd;}
	.st2{clip-path:url(#SVGID_2_);}
	.st3{clip-path:url(#SVGID_4_);}
	.st4{clip-path:url(#SVGID_6_);}
	.st5{clip-path:url(#SVGID_8_);}
	.st6{clip-path:url(#SVGID_10_);fill:#020202;}
	.st7{clip-path:url(#SVGID_12_);}
	.st8{clip-path:url(#SVGID_14_);}
	.st9{fill:none;}
	.st10{clip-path:url(#SVGID_16_);}
	.st11{clip-path:url(#SVGID_18_);}
	.st12{clip-path:url(#SVGID_20_);}
	.st13{clip-path:url(#SVGID_22_);}
	.st14{clip-path:url(#SVGID_24_);}
	.st15{fill:#1E1818;}
</style>
<g>
	<path class="st0" d="M175.1,165.8H56v-6.3h6.3h6.3h6.3h6.3h6.3h6.3h47h6.3h6.3h6.3h6.3h6.3h3.1V165.8z M34.4,59.3h-3.8
		c0-0.1,0-0.2,0.1-0.3c0-0.2,0.1-0.4,0.1-0.6c0.1-0.7,0.2-1.5,0.2-2.2c0-0.7-0.1-1.5-0.2-2.2c0-0.2-0.1-0.4-0.1-0.6
		c0-0.1,0-0.2-0.1-0.3h10.6l8.5,28.2h-7l-5.4-19.6C37,60.2,35.8,59.3,34.4,59.3L34.4,59.3z M65.4,131.3c1.7,0,3.1,1.4,3.1,3.1v18.8
		h-6.3v-18.8C62.3,132.7,63.7,131.3,65.4,131.3L65.4,131.3z M67.4,74.9h85.8v6.3v0H70.5L67.4,74.9z M77,58.3
		c5.9-18.2,22.7-30.4,41.7-30.4c1.7,0,3.1,1.4,3.1,3.1c0,1.7-1.4,3.1-3.1,3.1c-16.4,0-30.7,10.5-35.8,26c-0.4,1.3-1.7,2.2-3,2.2
		c-0.3,0-0.6-0.1-1-0.2C77.3,61.7,76.4,60,77,58.3L77,58.3z M159.4,81.2v-9.4V56.1h18.8l0,25.1L159.4,81.2z M165.7,150.1
		c0-1.7,1.4-3.1,3.1-3.1c1.7,0,3.1,1.4,3.1,3.1v3.1h-6.3V150.1z M153.1,134.5c0-1.7,1.4-3.1,3.1-3.1c1.7,0,3.1,1.4,3.1,3.1v18.8
		h-6.3V134.5z M140.6,147c0-1.7,1.4-3.1,3.1-3.1c1.7,0,3.1,1.4,3.1,3.1v6.3h-6.3V147z M87.4,143.9c0-1.7,1.4-3.1,3.1-3.1
		s3.1,1.4,3.1,3.1v9.4h-6.3V143.9z M74.8,147c0-1.7,1.4-3.1,3.1-3.1s3.1,1.4,3.1,3.1v6.3h-6.3V147z M160.5,35.9c1.4-2.9,2-5.6,2-8.1
		l0-2.9h12.5v2.9c0,2.6,0.7,5.3,2,8.1c0.2,0.5,0.3,1,0.5,1.5H160c0,0,0,0,0-0.1C160.2,36.8,160.3,36.3,160.5,35.9L160.5,35.9z
		 M175.1,18.5h-12.5l0-6.3l12.5,0V18.5z M178.2,43.6l0,6.3h-18.8v-6.3H178.2z M190.7,159.5c1.7,0,3.1-1.4,3.1-3.1V84.3
		c0-1.7-1.4-3.1-3.1-3.1h-6.3v0V53V40.8v-0.4c0-0.1,0-0.1,0-0.1c-0.1-2.5-0.6-4.9-1.7-7.1v0c-1-2-1.4-3.8-1.4-5.5v-6v-9.4v0
		c0-3.5-2.8-6.3-6.3-6.3h-12.5c-3.5,0-6.3,2.8-6.3,6.3v0v9.4v6c0,0.6-0.1,1.3-0.2,2c-9.5-8.5-21.5-13.4-34.2-14.1V9.1
		c0-1.7-1.4-3.1-3.1-3.1c-1.7,0-3.1,1.4-3.1,3.1v6.4C87,17.2,64,40.1,62.5,68.7h-0.2c-1.1,0-2.1,0.6-2.7,1.5c-0.6,0.9-0.6,2.1-0.1,3
		l4,8h-7.2L46.5,49c-0.4-1.3-1.6-2.2-3-2.2H26.6c-2.2-1.9-5.1-3.1-8.2-3.1c-6.9,0-12.5,5.6-12.5,12.5s5.6,12.5,12.5,12.5
		c3.2,0,6-1.2,8.2-3.1H32l5.2,19.2v71.6c0,1.7,1.4,3.1,3.1,3.1h9.4v6.4c-7,0.8-12.5,6.7-12.5,13.9c0,7.8,6.3,14.1,14.1,14.1
		s14.1-6.3,14.1-14.1c0-2.9-0.9-5.6-2.4-7.8h105c-1.5,2.2-2.4,4.9-2.4,7.8c0,7.8,6.3,14.1,14.1,14.1c7.8,0,14.1-6.3,14.1-14.1
		c0-7.2-5.5-13.1-12.5-13.9v-6.4H190.7z"/>
</g>
</svg>
