<?xml version="1.0" encoding="utf-8"?>
<!-- Generator: Adobe Illustrator 22.0.1, SVG Export Plug-In . SVG Version: 6.00 Build 0)  -->
<svg version="1.1" id="Layer_1" xmlns="http://www.w3.org/2000/svg" xmlns:xlink="http://www.w3.org/1999/xlink" x="0px" y="0px"
	 viewBox="0 0 200 200" style="enable-background:new 0 0 200 200;" xml:space="preserve">
<style type="text/css">
	.st0{fill:#010101;}
	.st1{fill-rule:evenodd;clip-rule:evenodd;}
	.st2{clip-path:url(#SVGID_2_);}
	.st3{clip-path:url(#SVGID_4_);}
	.st4{clip-path:url(#SVGID_6_);}
	.st5{clip-path:url(#SVGID_8_);}
	.st6{clip-path:url(#SVGID_10_);fill:#020202;}
	.st7{clip-path:url(#SVGID_12_);}
	.st8{clip-path:url(#SVGID_14_);}
	.st9{fill:none;}
	.st10{clip-path:url(#SVGID_16_);}
	.st11{clip-path:url(#SVGID_18_);}
	.st12{clip-path:url(#SVGID_20_);}
	.st13{clip-path:url(#SVGID_22_);}
	.st14{clip-path:url(#SVGID_24_);}
	.st15{fill:#1E1818;}
</style>
<g>
	<g>
		<path d="M179.8,53.1h-57.7l20.5-33.6c1.8-2.9,0.9-6.7-2.1-8.5c-2.9-1.8-6.7-0.9-8.5,2.1l-24.4,40H92.4L68,13.1
			c-1.8-2.9-5.6-3.8-8.5-2.1c-2.9,1.8-3.8,5.6-2.1,8.5l20.5,33.6H20.2c-7.5,0-13.5,6.1-13.5,13.5v111.7c0,7.5,6.1,13.5,13.5,13.5
			h159.5c7.5,0,13.5-6.1,13.5-13.5V66.6C193.3,59.2,187.2,53.1,179.8,53.1L179.8,53.1z M137.6,162.1c0,4.1-3.3,7.4-7.4,7.4H36
			c-4.1,0-7.4-3.3-7.4-7.4V82.9c0-4.1,3.3-7.4,7.4-7.4h94.2c4.1,0,7.4,3.3,7.4,7.4V162.1z M164.8,159.8c-7,0-12.8-5.7-12.8-12.8
			c0-7,5.7-12.8,12.8-12.8c7,0,12.8,5.7,12.8,12.8C177.6,154,171.8,159.8,164.8,159.8L164.8,159.8z M164.8,110.8
			c-7,0-12.8-5.7-12.8-12.8s5.7-12.8,12.8-12.8c7,0,12.8,5.7,12.8,12.8S171.8,110.8,164.8,110.8L164.8,110.8z M164.8,110.8"/>
	</g>
</g>
<g>
	<g>
		<defs>
			<rect id="SVGID_23_" x="46" y="90.4" width="79.7" height="60"/>
		</defs>
		<clipPath id="SVGID_2_">
			<use xlink:href="#SVGID_23_"  style="overflow:visible;"/>
		</clipPath>
		<path class="st2" d="M106.8,118.9c0,6.3-2.7,12.4-7.4,16.6c-0.9,0.8-2.1,1.2-3.2,1.2c-1.3,0-2.6-0.5-3.6-1.6c-1.8-2-1.6-5,0.3-6.8
			c2.7-2.4,4.2-5.9,4.2-9.5c0-3.6-1.5-7.1-4.2-9.5c-2-1.8-2.1-4.8-0.3-6.8c1.8-2,4.8-2.1,6.8-0.3
			C104.1,106.6,106.8,112.6,106.8,118.9L106.8,118.9z M111.7,91.9c-1.9-1.9-4.9-1.9-6.8,0c-1.9,1.9-1.9,4.9,0,6.8
			c5.4,5.4,8.4,12.6,8.4,20.3c0,7.7-3,14.9-8.4,20.3c-1.9,1.9-1.9,4.9,0,6.8c0.9,0.9,2.2,1.4,3.4,1.4c1.2,0,2.5-0.5,3.4-1.4
			c7.2-7.3,11.2-16.9,11.2-27.1C122.8,108.7,118.9,99.1,111.7,91.9L111.7,91.9z M84.4,113.1c-3.2,0-5.8,2.6-5.8,5.8
			c0,3.2,2.6,5.8,5.8,5.8c3.2,0,5.8-2.6,5.8-5.8C90.2,115.7,87.6,113.1,84.4,113.1L84.4,113.1z M76.2,102.7c-1.8-2-4.8-2.1-6.8-0.3
			c-4.7,4.2-7.4,10.3-7.4,16.6c0,6.3,2.7,12.4,7.3,16.6c0.9,0.8,2.1,1.2,3.2,1.2c1.3,0,2.6-0.5,3.6-1.6c1.8-2,1.6-5-0.3-6.8
			c-2.7-2.4-4.2-5.9-4.2-9.5c0-3.6,1.5-7.1,4.2-9.5C77.8,107.7,77.9,104.6,76.2,102.7L76.2,102.7z M55.6,118.9
			c0-7.7,3-14.9,8.4-20.3c1.9-1.9,1.9-4.9,0-6.8c-1.9-1.9-4.9-1.9-6.8,0C50,99.1,46,108.7,46,118.9c0,10.2,4,19.9,11.2,27.1
			c0.9,1,2.2,1.4,3.4,1.4c1.2,0,2.4-0.5,3.4-1.4c1.9-1.9,1.9-4.9,0-6.8C58.6,133.8,55.6,126.6,55.6,118.9L55.6,118.9z M55.6,118.9"
			/>
	</g>
</g>
</svg>
