<?xml version="1.0" encoding="utf-8"?>
<!-- Generator: Adobe Illustrator 22.0.1, SVG Export Plug-In . SVG Version: 6.00 Build 0)  -->
<svg version="1.1" id="Layer_1" xmlns="http://www.w3.org/2000/svg" xmlns:xlink="http://www.w3.org/1999/xlink" x="0px" y="0px" viewBox="0 0 500 339.5" style="enable-background:new 0 0 500 339.5;" xml:space="preserve">
<style type="text/css">
	.st0{fill:#ff565c;}
</style>
<g>
	<path class="st0" d="M249.7,191.1c-54.2,0-107.2,0-160.5,0c0,6.2,0,11.8,0,17.5c53.9,0,107.2,0,160.5,0
		C249.7,202.4,249.7,197.1,249.7,191.1z M89,249.5c33.9,0,66.5,0,99.4,0c0-6.3,0-11.8,0-17.4c-33.5,0-66.4,0-99.4,0
		C89,238.3,89,243.6,89,249.5z"/>
	<path class="st0" d="M6.3,41c1.4-3,2.8-6,4.1-9C17.6,15.6,30.7,7.2,48,7.2c121.6-0.3,243.1-0.2,364.7,0c21.9,0,39.1,14.7,40.6,36.5
		c1.6,23.6,0.4,47.4,0.4,72.2c-3.7-0.8-6.6-1.3-9.3-2.2c-48.4-14.1-91.9-4.9-129.9,28.2c-5.2,4.6-10.2,6.6-17.2,6.5
		c-79.1-0.2-158.2-0.1-237.4-0.1c-4,0-8,0-13.5,0c0,4.5,0,8.1,0,11.6c0,38.4,0,76.7,0,115.1c0,15,2.1,17.2,16.9,17.2
		c68.9,0,137.9,0.1,206.8-0.2c7.4,0,11.4,2,14.9,8.7c5.3,10.4,12.3,19.9,19.3,30.8c-4.5,0-8.1,0-11.7,0c-76.4,0-152.8-0.7-229.2,0.4
		c-27.3,0.4-47.9-6.3-57-34.3C6.3,212.2,6.3,126.6,6.3,41z M414.5,88.1c0-8.5,0-16,0-23.4c0-16.4-1.8-18.2-18-18.2
		c-110.7,0-221.4,0-332.1,0c-2.7,0-6.1-1-8,0.3c-3.8,2.6-9.1,6-9.5,9.7c-1.3,10.2-0.5,20.7-0.5,31.6
		C169.5,88.1,291.3,88.1,414.5,88.1z"/>
	<path class="st0" d="M490.8,265.3c-11.4,40.2-50.3,68.7-90.5,66.4c-44.5-2.6-79.7-34.4-86.1-77.9c-7-48,25.9-94.7,72-102.1
		c52.4-8.4,98.1,23.4,106.8,74.3C493,226,493.8,240.3,490.8,265.3z M451.9,222.3c-4.8-4.9-9.4-9.7-15.6-16
		c-14.9,15-29,29.3-43.3,43.7c-6.2-5.7-12.4-11.3-19.2-17.5c-5.4,5.2-10.2,9.7-12.6,12c11.7,12.9,22.5,24.8,31.1,34.2
		C412.1,260,431.7,241.5,451.9,222.3z"/>
	<path class="st0" d="M249.7,191.1c0,6,0,11.3,0,17.5c-53.4,0-106.6,0-160.5,0c0-5.7,0-11.3,0-17.5C142.4,191.1,195.4,191.1,249.7,191.1z"/>
	<path class="st0" d="M89,249.5c0-5.9,0-11.2,0-17.4c32.9,0,65.8,0,99.4,0c0,5.6,0,11.2,0,17.4C155.5,249.5,122.8,249.5,89,249.5z"/>
</g>
</svg>
