<?xml version="1.0" encoding="utf-8"?>
<!-- Generator: Adobe Illustrator 22.0.1, SVG Export Plug-In . SVG Version: 6.00 Build 0)  -->
<svg version="1.1" id="Layer_1" xmlns="http://www.w3.org/2000/svg" xmlns:xlink="http://www.w3.org/1999/xlink" x="0px" y="0px"
	 viewBox="0 0 200 200" style="enable-background:new 0 0 200 200;" xml:space="preserve">
<style type="text/css">
	.st0{fill:#010101;}
	.st1{fill-rule:evenodd;clip-rule:evenodd;}
	.st2{clip-path:url(#SVGID_2_);}
	.st3{clip-path:url(#SVGID_4_);}
	.st4{clip-path:url(#SVGID_6_);}
	.st5{clip-path:url(#SVGID_8_);}
	.st6{clip-path:url(#SVGID_10_);fill:#020202;}
	.st7{clip-path:url(#SVGID_12_);}
	.st8{clip-path:url(#SVGID_14_);}
	.st9{fill:none;}
	.st10{clip-path:url(#SVGID_16_);}
	.st11{clip-path:url(#SVGID_18_);}
	.st12{clip-path:url(#SVGID_20_);}
	.st13{clip-path:url(#SVGID_22_);}
	.st14{clip-path:url(#SVGID_24_);}
	.st15{fill:#1E1818;}
</style>
<g>
	<path d="M45.4,118.7c-10.1,0-18.2,8.2-18.2,18.2c0,10.1,8.2,18.2,18.2,18.2c10.1,0,18.2-8.2,18.2-18.2
		C63.6,126.9,55.4,118.7,45.4,118.7L45.4,118.7z M45.4,144.9c-4.4,0-7.9-3.5-7.9-7.9c0-4.4,3.6-7.9,7.9-7.9c4.4,0,7.9,3.5,7.9,7.9
		C53.3,141.3,49.7,144.9,45.4,144.9L45.4,144.9z M45.4,144.9"/>
	<path d="M152.5,118.7c-10.1,0-18.2,8.2-18.2,18.2c0,10.1,8.2,18.2,18.2,18.2c10.1,0,18.2-8.2,18.2-18.2
		C170.7,126.9,162.5,118.7,152.5,118.7L152.5,118.7z M152.5,144.9c-4.4,0-7.9-3.5-7.9-7.9c0-4.4,3.5-7.9,7.9-7.9
		c4.4,0,7.9,3.5,7.9,7.9C160.4,141.3,156.8,144.9,152.5,144.9L152.5,144.9z M152.5,144.9"/>
	<path d="M187.3,44.8H23.6c-6,0-11.9,4.8-13.1,10.7L4,79.4C2.8,85.3,1.8,95,1.8,101V126c0,6,4.9,10.9,10.9,10.9h11.1
		c0-11.9,9.7-21.5,21.5-21.5c11.9,0,21.5,9.6,21.5,21.5h64.1c0-11.9,9.7-21.5,21.5-21.5c11.9,0,21.5,9.6,21.5,21.5h13.3
		c6,0,10.9-4.9,10.9-10.9V55.7C198.2,49.7,193.3,44.8,187.3,44.8L187.3,44.8z M47.1,90.8H21.7l4-9.5c0.7-1.7-0.1-3.6-1.7-4.3
		c-1.7-0.7-3.6,0.1-4.3,1.7l-5,11.8c-3.4-0.9-5.4-4-4.7-7.8l5.9-23.4c0.8-4.4,5.2-8,9.7-8h21.6L47.1,90.8L47.1,90.8z M95.6,90.8h-42
		V51.4h42V90.8z M144.1,90.8h-42V51.4h42V90.8z M191.5,82.6c0,4.5-3.7,8.2-8.2,8.2h-32.6V51.4h32.6c4.5,0,8.2,3.7,8.2,8.2V82.6z
		 M191.5,82.6"/>
</g>
</svg>
