<?xml version="1.0" encoding="utf-8"?>
<!-- Generator: Adobe Illustrator 22.0.1, SVG Export Plug-In . SVG Version: 6.00 Build 0)  -->
<svg version="1.1" id="Layer_1" xmlns="http://www.w3.org/2000/svg" xmlns:xlink="http://www.w3.org/1999/xlink" x="0px" y="0px"
	 viewBox="0 0 200 200" style="enable-background:new 0 0 200 200;" xml:space="preserve">
<style type="text/css">
	.st0{fill:#010101;}
	.st1{fill-rule:evenodd;clip-rule:evenodd;}
	.st2{clip-path:url(#SVGID_2_);}
	.st3{clip-path:url(#SVGID_4_);}
	.st4{clip-path:url(#SVGID_6_);}
	.st5{clip-path:url(#SVGID_8_);}
	.st6{clip-path:url(#SVGID_10_);fill:#020202;}
	.st7{clip-path:url(#SVGID_12_);}
</style>
<g>
	<path class="st0" d="M100,191c-0.5,0-0.9,0-1.4,0c-0.3,0-0.6,0-1,0c-12.5,0-18.8-3.7-25.7-8.6c-4.7-3.3-8.7-6.2-13.3-6.9
		c-2.4-0.4-4.8-0.6-7.2-0.6c-4.2,0-7.5,0.7-10,1.1c-1.7,0.3-3.3,0.6-4.6,0.6c-4,0-5.4-2.7-5.9-4.3c-0.5-1.6-0.8-3.1-1.1-4.6
		c-0.2-1-0.6-2.8-1-3.7c-15.4-2.4-23.6-5.9-25.7-11c-0.3-0.8-0.5-1.5-0.5-2.2c-0.1-2.7,1.7-5,4.4-5.5c25.5-4.2,37.1-30.5,37.6-31.7
		c1.3-2.8,1.7-4.8,1-6.3c-1.3-3-6.8-4.8-10-5.8c-1.2-0.4-2.1-0.7-2.9-1c-9.7-3.8-11-8.5-10.4-11.8c1.1-6,9.6-8.9,14.2-6.7
		c3.2,1.5,6,2.3,8.3,2.3c1.1,0,1.9-0.2,2.5-0.4c-0.1-1.2-0.2-2.5-0.2-3.8c-0.8-13.2-1.9-29.7,2.5-39.6c13-29.2,40.7-31.5,48.8-31.5
		l3.8,0c8.2,0,35.9,2.3,48.9,31.5c4.4,9.9,3.4,26.4,2.5,39.6l0,0.6c-0.1,1.1-0.1,2.2-0.2,3.3c0.5,0.2,1.2,0.3,2.1,0.4
		c2-0.1,4.7-0.8,7.7-2.2c1.5-0.7,3.1-0.9,4.2-0.9c1.6,0,3.2,0.3,4.5,0.9c3.9,1.4,6.6,4.5,6.6,7.9c0.1,4.3-3.5,7.8-10.6,10.6
		c-0.7,0.3-1.7,0.6-2.6,0.9c-3.5,1.1-9,2.8-10.3,5.9c-0.6,1.5-0.3,3.5,0.9,6c0,0.1,0.1,0.3,0.1,0.3c1.2,2.8,12.4,27.7,36.9,31.7
		c2.7,0.4,4.5,2.8,4.4,5.5c-0.1,0.8-0.2,1.6-0.6,2.3c-2.1,5-9.9,8.4-25.1,10.8c-0.4,0.9-0.8,2.9-1,3.7c-0.3,1.5-0.7,3-1.1,4.6
		c-0.8,2.7-2.9,4.2-5.7,4.2c-1.4,0-2.9-0.2-4.8-0.6c-2.8-0.6-6-1.1-10-1.1c-2.3,0-4.7,0.2-7.2,0.6c-4.6,0.8-8.8,3.8-13.3,6.9
		C120.6,188.1,111,191,100,191"/>
</g>
</svg>
