<?xml version="1.0" encoding="utf-8"?>
<!-- Generator: Adobe Illustrator 22.0.1, SVG Export Plug-In . SVG Version: 6.00 Build 0)  -->
<svg version="1.1" id="Layer_1" xmlns="http://www.w3.org/2000/svg" xmlns:xlink="http://www.w3.org/1999/xlink" x="0px" y="0px"
	 viewBox="0 0 200 200" style="enable-background:new 0 0 200 200;" xml:space="preserve">
<style type="text/css">
	.st0{fill:#010101;}
	.st1{fill-rule:evenodd;clip-rule:evenodd;}
	.st2{clip-path:url(#SVGID_2_);}
	.st3{clip-path:url(#SVGID_4_);}
	.st4{clip-path:url(#SVGID_6_);}
	.st5{clip-path:url(#SVGID_8_);}
	.st6{clip-path:url(#SVGID_10_);fill:#020202;}
	.st7{clip-path:url(#SVGID_12_);}
</style>
<g>
	<g>
		<defs>
			<rect id="SVGID_11_" x="9.3" y="6.7" width="182.5" height="185.7"/>
		</defs>
		<clipPath id="SVGID_2_">
			<use xlink:href="#SVGID_11_"  style="overflow:visible;"/>
		</clipPath>
		<path class="st2" d="M128.5,165.5H102c-1,0-1.8,0.3-2.4,0.9c-0.6,0.6-0.9,1.4-0.9,2.4v19.9c0,1,0.3,1.8,0.9,2.4
			c0.6,0.6,1.4,0.9,2.4,0.9h26.5c1,0,1.8-0.3,2.4-0.9c0.6-0.6,0.9-1.4,0.9-2.4v-19.9c0-1-0.3-1.8-0.9-2.4
			C130.3,165.9,129.5,165.5,128.5,165.5L128.5,165.5z M128.5,165.5"/>
		<path class="st2" d="M78.9,152.3H59V10c0-1-0.3-1.8-0.9-2.4c-0.6-0.6-1.4-0.9-2.4-0.9H35.8c-1,0-1.8,0.3-2.4,0.9
			C32.8,8.2,32.5,9,32.5,10v142.3H12.6c-1.5,0-2.5,0.7-3.1,2.1c-0.6,1.3-0.3,2.5,0.7,3.6l33.1,33.1c0.8,0.6,1.6,0.9,2.4,0.9
			c0.9,0,1.7-0.3,2.4-0.9l33-33c0.7-0.8,1-1.7,1-2.5c0-1-0.3-1.8-0.9-2.4C80.6,152.6,79.8,152.3,78.9,152.3L78.9,152.3z M78.9,152.3
			"/>
	</g>
	<path d="M148.4,112.6H102c-1,0-1.8,0.3-2.4,0.9c-0.6,0.6-0.9,1.4-0.9,2.4v19.9c0,1,0.3,1.8,0.9,2.4c0.6,0.6,1.4,0.9,2.4,0.9h46.3
		c1,0,1.8-0.3,2.4-0.9c0.6-0.6,0.9-1.4,0.9-2.4v-19.9c0-1-0.3-1.8-0.9-2.4C150.1,112.9,149.3,112.6,148.4,112.6L148.4,112.6z
		 M148.4,112.6"/>
	<path d="M190.5,7.6c-0.6-0.6-1.4-0.9-2.4-0.9H102c-1,0-1.8,0.3-2.4,0.9C99,8.2,98.7,9,98.7,10v19.9c0,1,0.3,1.8,0.9,2.4
		c0.6,0.6,1.4,0.9,2.4,0.9h86.1c1,0,1.8-0.3,2.4-0.9c0.6-0.6,0.9-1.4,0.9-2.4V10C191.4,9,191.1,8.2,190.5,7.6L190.5,7.6z M190.5,7.6
		"/>
	<path d="M168.2,59.6H102c-1,0-1.8,0.3-2.4,0.9c-0.6,0.6-0.9,1.4-0.9,2.4v19.9c0,1,0.3,1.8,0.9,2.4c0.6,0.6,1.4,0.9,2.4,0.9h66.2
		c1,0,1.8-0.3,2.4-0.9c0.6-0.6,0.9-1.4,0.9-2.4V62.9c0-1-0.3-1.8-0.9-2.4C170,59.9,169.2,59.6,168.2,59.6L168.2,59.6z M168.2,59.6"
		/>
</g>
</svg>
