<?xml version="1.0" encoding="utf-8"?>
<!-- Generator: Adobe Illustrator 22.0.1, SVG Export Plug-In . SVG Version: 6.00 Build 0)  -->
<svg version="1.0" id="Layer_1" xmlns="http://www.w3.org/2000/svg" xmlns:xlink="http://www.w3.org/1999/xlink" x="0px" y="0px"
	 viewBox="0 0 200 200" style="enable-background:new 0 0 200 200;" xml:space="preserve">
<g>
	<path d="M196.6,43.5l-0.5-0.5c-4.6-4.6-12.1-4.6-16.7,0l-18,18.2c-0.9,1-2.5,1-3.5,0.1L132.7,38c-2.5-2.3-5.6-3.5-9-3.5H86.2
		c-0.9,0-1.7,0.3-2.4,0.9L52,65.7c-4.7,4.7-5,12.2-0.7,16.8c2.3,2.4,5.4,3.8,8.7,3.8H60c3.3,0,6.4-1.4,8.6-3.8l22.5-23.8h8
		l-52.4,58.6H14.4c-7.7,0-14,5.7-14.4,13c-0.2,3.8,1.1,7.5,3.8,10.2c2.6,2.7,6.2,4.3,10,4.3h48.3c1,0,1.9-0.4,2.5-1.1l24.7-26.4
		l20.8,21.7l-6.3,40.1c-1.6,6.6,1.6,13.4,7.6,16.1c1.8,0.8,3.8,1.2,5.7,1.2c2.1,0,4.2-0.5,6.1-1.4c3.7-1.8,6.4-5.2,7.3-9.4
		l10.7-57.5c0.2-1.1-0.1-2.3-1-3.1l-28.6-28.6l22.7-22.7l15.8,15.8c4.4,4.4,12.1,4.4,16.6,0L196.6,60c2.2-2.2,3.4-5.1,3.4-8.2
		C200,48.6,198.8,45.7,196.6,43.5z"/>
	<path d="M158.6,44.9c11.4,0,20.7-9.3,20.7-20.7S170,3.5,158.6,3.5c-11.4,0-20.7,9.3-20.7,20.7C137.9,35.6,147.2,44.9,158.6,44.9z"
		/>
</g>
</svg>
