<?xml version="1.0" encoding="utf-8"?>
<!-- Generator: Adobe Illustrator 22.0.1, SVG Export Plug-In . SVG Version: 6.00 Build 0)  -->
<svg version="1.1" id="Layer_1" xmlns="http://www.w3.org/2000/svg" xmlns:xlink="http://www.w3.org/1999/xlink" x="0px" y="0px" viewBox="0 0 500 500" style="enable-background:new 0 0 500 500;" xml:space="preserve">
<style type="text/css">
	.st0{fill:#ff565c;}
</style>

<g>
	<path class="st0" d="M211.5,273.2c0,13.9-11.2,25.1-25.1,25.1c-13.9,0-25.1-11.2-25.1-25.1c0-13.9,11.2-25.1,25.1-25.1
		C200.3,248.1,211.5,259.3,211.5,273.2L211.5,273.2z M313.3,248.1c-13.9,0-25.1,11.2-25.1,25.1c0,13.9,11.2,25.1,25.1,25.1
		c13.9,0,25.1-11.2,25.1-25.1C338.4,259.3,327.2,248.1,313.3,248.1L313.3,248.1z M494.2,259.2v47.7c0,23.9-19.4,43.3-43.3,43.3
		h-31.5C388.2,436.7,308.6,489,249.9,489S111.5,436.7,80.4,350.2H48.9c-23.9,0-43.3-19.4-43.3-43.3v-47.7
		c0-16.5,9.2-30.8,22.7-38.1C28.8,153.4,48.5,100.5,87,63.9c38.2-36.3,93-54.6,162.9-54.6s124.6,18.4,162.9,54.6
		c38.5,36.5,58.3,89.4,58.7,157.1C485,228.4,494.2,242.7,494.2,259.2L494.2,259.2z M402.4,273.3c0-11.2-0.6-21.6-1.4-31.8
		c-19.2-17.6-54.2-31-98.2-35.9c5.8,6.5,10.8,15.1,13.8,26.3c-27-21.3-80-16.2-120.1-63.8c-2.3-2.7-4.3-5.2-6-7.5
		c0,0,0-0.1-0.1-0.1h0c-7.1-9.6-9.6-15.4-9.7-9c-1.2,54.7-39.9,97.3-83,103.4c-0.3,6-0.5,12.1-0.5,18.4c0,23.1,3.8,44.2,10.2,63.2
		c24.2,29.2,64.1,37.4,99.5,39.6c6.6-10.4,21.3-17.7,38.4-17.7c23.2,0,42.1,13.4,42.1,29.9s-18.8,29.9-42.1,29.9
		c-17.9,0-33.1-7.9-39.2-19.1c-24.7-1.4-51.9-5.6-76.1-17.1c34,50.2,86.8,76.7,119.8,76.7C301.7,458.7,402.4,393.2,402.4,273.3
		L402.4,273.3z M445.4,215.8C442.6,97.7,375.2,35.3,249.9,35.3S57.2,97.7,54.4,215.8h16.7c6.1-39.8,19-72.6,38.5-97.7
		C140.8,78,188,57.6,249.9,57.6S359,78,390.1,118.1c19.6,25.2,32.5,57.9,38.5,97.7H445.4z M445.4,215.8"/>
</g>
</svg>
