<?xml version="1.0" encoding="utf-8"?>
<!-- Generator: Adobe Illustrator 22.0.1, SVG Export Plug-In . SVG Version: 6.00 Build 0)  -->
<svg version="1.1" id="Layer_1" xmlns="http://www.w3.org/2000/svg" xmlns:xlink="http://www.w3.org/1999/xlink" x="0px" y="0px"
	 viewBox="0 0 200 200" style="enable-background:new 0 0 200 200;" xml:space="preserve">
<style type="text/css">
	.st0{fill:#010101;}
	.st1{fill-rule:evenodd;clip-rule:evenodd;}
	.st2{clip-path:url(#SVGID_2_);}
	.st3{clip-path:url(#SVGID_4_);}
	.st4{clip-path:url(#SVGID_6_);}
	.st5{clip-path:url(#SVGID_8_);}
	.st6{clip-path:url(#SVGID_10_);fill:#020202;}
	.st7{clip-path:url(#SVGID_12_);}
	.st8{clip-path:url(#SVGID_14_);}
	.st9{fill:none;}
	.st10{clip-path:url(#SVGID_16_);}
	.st11{clip-path:url(#SVGID_18_);}
	.st12{clip-path:url(#SVGID_20_);}
	.st13{clip-path:url(#SVGID_22_);}
	.st14{clip-path:url(#SVGID_24_);}
	.st15{fill:#1E1818;}
</style>
<g>
	<g>
		<path d="M179.8,52.1h-57.7l20.5-33.6c1.8-2.9,0.9-6.7-2.1-8.5c-2.9-1.8-6.7-0.9-8.5,2.1l-24.4,40H92.4L68,12.1
			c-1.8-2.9-5.6-3.8-8.5-2.1c-2.9,1.8-3.8,5.6-2.1,8.5l20.5,33.6H20.2c-7.5,0-13.5,6.1-13.5,13.5v111.7c0,7.5,6.1,13.5,13.5,13.5
			h159.5c7.5,0,13.5-6.1,13.5-13.5V65.6C193.3,58.2,187.2,52.1,179.8,52.1L179.8,52.1z M137.6,161.1c0,4.1-3.3,7.4-7.4,7.4H36
			c-4.1,0-7.4-3.3-7.4-7.4V81.9c0-4.1,3.3-7.4,7.4-7.4h94.2c4.1,0,7.4,3.3,7.4,7.4V161.1z M164.8,158.8c-7,0-12.8-5.7-12.8-12.8
			c0-7,5.7-12.8,12.8-12.8c7,0,12.8,5.7,12.8,12.8C177.6,153,171.8,158.8,164.8,158.8L164.8,158.8z M164.8,109.8
			c-7,0-12.8-5.7-12.8-12.8s5.7-12.8,12.8-12.8c7,0,12.8,5.7,12.8,12.8S171.8,109.8,164.8,109.8L164.8,109.8z M164.8,109.8"/>
	</g>
</g>
</svg>
