<?xml version="1.0" encoding="utf-8"?>
<!-- Generator: Adobe Illustrator 22.0.1, SVG Export Plug-In . SVG Version: 6.00 Build 0)  -->
<svg version="1.1" id="Layer_1" xmlns="http://www.w3.org/2000/svg" xmlns:xlink="http://www.w3.org/1999/xlink" x="0px" y="0px"
	 viewBox="0 0 340 562" style="enable-background:new 0 0 340 562;" xml:space="preserve">
<style type="text/css">
	.st0{fill:#ff565c;}
</style>
<g>
	<g>
		<path class="st0" d="M258.5,135.8V71.4h20.9c7.9,0,13.1,0.3,15.5,1c3.7,1,6.8,3.1,9.3,6.3c2.5,3.2,3.7,7.4,3.7,12.5
			c0,4-0.7,7.3-2.2,10c-1.4,2.7-3.3,4.8-5.5,6.4s-4.5,2.6-6.7,3.1c-3.1,0.6-7.6,0.9-13.5,0.9h-8.5v24.3H258.5z M271.6,82.3v18.3h7.1
			c5.1,0,8.6-0.3,10.3-1c1.7-0.7,3.1-1.7,4.1-3.2c1-1.4,1.5-3.1,1.5-5c0-2.3-0.7-4.3-2.1-5.8c-1.4-1.5-3.1-2.5-5.2-2.9
			c-1.6-0.3-4.7-0.4-9.4-0.4H271.6z"/>
	</g>
	<g>
		<path class="st0" d="M258.6,265.2v-64.4H286c6.9,0,11.9,0.6,15,1.7c3.1,1.2,5.6,3.2,7.5,6.2c1.9,3,2.8,6.3,2.8,10.2
			c0,4.8-1.4,8.8-4.3,12c-2.8,3.1-7.1,5.1-12.7,6c2.8,1.6,5.1,3.4,7,5.4c1.8,2,4.3,5.4,7.4,10.5l7.9,12.6H301l-9.4-14
			c-3.3-5-5.6-8.2-6.9-9.5c-1.2-1.3-2.5-2.2-3.9-2.7s-3.6-0.7-6.5-0.7h-2.6v26.9H258.6z M271.6,228h9.6c6.2,0,10.1-0.3,11.7-0.8
			s2.8-1.4,3.6-2.7c0.9-1.3,1.3-2.9,1.3-4.8c0-2.2-0.6-3.9-1.7-5.3c-1.2-1.3-2.8-2.2-4.9-2.5c-1.1-0.1-4.2-0.2-9.5-0.2h-10.2V228z"
			/>
	</g>
	<g>
		<path class="st0" d="M258.7,519.8v-64.4h12.7l26.4,43v-43h12.1v64.4h-13.1l-26-42v42H258.7z"/>
	</g>
	<path class="st0" d="M295.5,309.2H42.2c-10.3,0-18.7,8.4-18.7,18.7v74c0,10.3,8.4,18.7,18.7,18.7h253.3c10.3,0,18.7-8.4,18.7-18.7
		v-74C314.2,317.5,305.8,309.2,295.5,309.2z M285.7,337.8h-53.8h-20h-86h-20H52c-3.8,0-6.9-3.1-6.9-6.9s3.1-6.9,6.9-6.9h53.8h20h86
		h20h53.8c3.8,0,6.9,3.1,6.9,6.9S289.5,337.8,285.7,337.8z"/>
	<g>
		<path class="st0" d="M105.9,337.8v177.5c0,12.6,10.2,22.8,22.8,22.8h80.4c12.6,0,22.8-10.2,22.8-22.8V337.8H105.9z"/>
		<path class="st0" d="M231.9,324.1V46.6c0-12.6-10.2-22.8-22.8-22.8h-80.4c-12.6,0-22.8,10.2-22.8,22.8v277.5H231.9z M152.4,213.7
			c0-9.1,7.4-16.5,16.5-16.5c9.1,0,16.5,7.4,16.5,16.5v100.8h-33V213.7z"/>
	</g>
</g>
</svg>
