<?xml version="1.0" encoding="utf-8"?>
<!-- Generator: Adobe Illustrator 22.0.1, SVG Export Plug-In . SVG Version: 6.00 Build 0)  -->
<svg version="1.0" id="Layer_1" xmlns="http://www.w3.org/2000/svg" xmlns:xlink="http://www.w3.org/1999/xlink" x="0px" y="0px"
	 viewBox="0 0 200 200" style="enable-background:new 0 0 200 200;" xml:space="preserve">
<style type="text/css">
	.st0{fill:none;}
</style>
<g>
	<path class="st0" d="M58.4,99.1c-23.3,0-41.7,18.3-41.7,41.7c0,23.3,18.3,41.7,41.7,41.7c23.3,0,41.7-18.3,41.7-41.7
		C100,117.5,81.7,99.1,58.4,99.1z M58.4,174.1c-18.4,0-33.3-14.9-33.3-33.3c0-18.4,14.9-33.3,33.3-33.3c18.4,0,33.3,14.9,33.3,33.3
		C91.7,159.2,76.8,174.1,58.4,174.1z"/>
	<circle cx="183.3" cy="183.3" r="16.7"/>
	<ellipse transform="matrix(0.9732 -0.2298 0.2298 0.9732 -30.7831 17.1802)" cx="58.4" cy="140.8" rx="33.3" ry="33.3"/>
	<path d="M168.3,163.3c4.2-3.3,10-5,15-5h0.8l-17.5-45c-1.7-3.3-5-5-8.3-5h-25V66.6c0-14.2-10.8-25-25-25H41.7V8.3
		c0-5-3.3-8.3-8.3-8.3H0.1v16.7h25v67.5c5-3.3,10.8-5,16.7-6.7V58.3h66.6c5,0,8.3,3.3,8.3,8.3v41.7l-10.8-0.8
		C86.7,80.8,50.9,75,24.2,94.1c-26.7,19.2-31.7,55-13.3,81.6c18.3,26.7,55,31.7,81.6,13.3c20-15,29.2-40.8,21.7-65l38.3,0.8
		L168.3,163.3z M58.4,182.4c-23.3,0-41.7-18.3-41.7-41.7c0-23.3,18.3-41.7,41.7-41.7c23.3,0,41.7,18.3,41.7,41.7
		C100,164.1,81.7,182.4,58.4,182.4z"/>
</g>
</svg>
