<?xml version="1.0" encoding="utf-8"?>
<!-- Generator: Adobe Illustrator 22.0.1, SVG Export Plug-In . SVG Version: 6.00 Build 0)  -->
<svg version="1.1" id="Layer_1" xmlns="http://www.w3.org/2000/svg" xmlns:xlink="http://www.w3.org/1999/xlink" x="0px" y="0px"
	 viewBox="0 0 200 200" style="enable-background:new 0 0 200 200;" xml:space="preserve">
<style type="text/css">
	.st0{fill:#010101;}
	.st1{fill-rule:evenodd;clip-rule:evenodd;}
	.st2{clip-path:url(#SVGID_2_);}
	.st3{clip-path:url(#SVGID_4_);}
	.st4{clip-path:url(#SVGID_6_);}
	.st5{clip-path:url(#SVGID_8_);}
	.st6{clip-path:url(#SVGID_10_);fill:#020202;}
	.st7{clip-path:url(#SVGID_12_);}
</style>
<g>
	<path d="M156.2,145.1h-10.7l0.1-6.2c0-2.8,2.3-5,5-5h0.7c2.8,0,5,2.3,5,5L156.2,145.1z M116.1,131.8c-2.7,0-4.9,1.8-4.9,4.1v30.2
		c0,2.2,2.2,4.1,4.9,4.1c2.7,0,5-1.8,5-4.1v-30.2C121,133.6,118.8,131.8,116.1,131.8L116.1,131.8z M181.2,114.9v57.5
		c0,13.8-12,25.1-26.6,25.1H45.3c-14.6,0-26.6-11.3-26.6-25.1v-57.5c0-13.8,12-25.1,26.6-25.1h109.3
		C169.3,89.8,181.2,101.1,181.2,114.9L181.2,114.9z M52.6,178.7v-60.6h13.6v-9L30,109.1v8.8l11.3,0v60.7H52.6z M93.3,127.1H82v32.4
		c0,4.7,0.3,7,0,7.8c-0.9,2.5-5,5.2-6.7,0.3c-0.3-0.9,0-3.4,0-7.9l0-32.6H64l0,32.1c0,4.9-0.1,8.6,0,10.3c0.3,2.9,0.2,6.4,2.9,8.3
		c5.1,3.7,14.8-0.5,17.3-5.8l0,6.7l9.1,0L93.3,127.1L93.3,127.1z M129.4,164.2l0-26.9c0-10.3-7.7-16.4-18.1-8.1l0.1-20l-11.3,0
		l-0.1,69.1l9.3-0.1l0.8-4.3C122,184.7,129.4,177.2,129.4,164.2L129.4,164.2z M164.8,160.6l-8.5,0.1c0,0.3,0,0.7,0,1.1v4.7
		c0,2.5-2.1,4.6-4.6,4.6H150c-2.5,0-4.6-2.1-4.6-4.6v-12.4h19.4v-7.3c0-5.3-0.1-10.7-0.6-13.7c-1.4-9.6-14.9-11.2-21.8-6.2
		c-2.1,1.5-3.8,3.6-4.7,6.4c-1,2.8-1.4,6.6-1.4,11.4v16C136.2,187.3,168.6,183.5,164.8,160.6L164.8,160.6z M121.3,73.4
		c0.6,1.4,1.5,2.6,2.7,3.4c1.2,0.9,2.8,1.3,4.6,1.3c1.6,0,3.1-0.4,4.3-1.3c1.2-0.9,2.3-2.3,3.2-4.1l-0.2,4.4h12.6V23.6h-9.9v41.7
		c0,2.3-1.9,4.1-4.1,4.1c-2.3,0-4.1-1.8-4.1-4.1V23.6H120v36.1c0,4.6,0.1,7.7,0.2,9.2C120.4,70.5,120.7,72,121.3,73.4L121.3,73.4z
		 M83.1,43.2c0-5.1,0.4-9.2,1.3-12.1c0.9-2.9,2.4-5.2,4.6-6.9c2.2-1.8,5.1-2.6,8.5-2.6c2.9,0,5.4,0.6,7.5,1.7
		c2.1,1.1,3.7,2.6,4.8,4.4c1.1,1.8,1.9,3.7,2.3,5.6c0.4,1.9,0.6,4.8,0.6,8.8v13.6c0,5-0.2,8.6-0.6,10.9c-0.4,2.3-1.2,4.5-2.5,6.5
		c-1.3,2-2.9,3.5-4.8,4.5c-2,1-4.3,1.4-6.8,1.4c-2.9,0-5.3-0.4-7.3-1.2c-2-0.8-3.5-2.1-4.6-3.7c-1.1-1.6-1.9-3.7-2.4-6
		c-0.5-2.3-0.7-5.9-0.7-10.6V43.2z M93,64.4c0,3,2.3,5.5,5,5.5c2.7,0,5-2.5,5-5.5V35.9c0-3-2.2-5.5-5-5.5c-2.8,0-5,2.5-5,5.5V64.4z
		 M58.1,78.8H70l0-41.1l14-35.2h-13l-7.5,26.1L56.1,2.5H43.2l14.9,35.3L58.1,78.8z M58.1,78.8"/>
</g>
</svg>
