<?xml version="1.0" encoding="utf-8"?>
<!-- Generator: Adobe Illustrator 22.0.1, SVG Export Plug-In . SVG Version: 6.00 Build 0)  -->
<svg version="1.1" id="Layer_1" xmlns="http://www.w3.org/2000/svg" xmlns:xlink="http://www.w3.org/1999/xlink" x="0px" y="0px"
	 viewBox="0 0 200 200" style="enable-background:new 0 0 200 200;" xml:space="preserve">
<style type="text/css">
	.st0{fill:#010101;}
	.st1{fill-rule:evenodd;clip-rule:evenodd;}
	.st2{clip-path:url(#SVGID_2_);}
	.st3{clip-path:url(#SVGID_4_);}
	.st4{clip-path:url(#SVGID_6_);}
	.st5{clip-path:url(#SVGID_8_);}
	.st6{clip-path:url(#SVGID_10_);fill:#020202;}
	.st7{clip-path:url(#SVGID_12_);}
</style>
<g>
	<g>
		<path class="st1" d="M193.4,170.2l-42.7-42.7c-0.2-0.2-0.5-0.4-0.7-0.6c8.4-12.7,13.3-28,13.3-44.4c0-44.6-36.1-80.7-80.7-80.7
			S1.8,38,1.8,82.6c0,44.6,36.1,80.7,80.7,80.7c16.4,0,31.6-4.9,44.4-13.3c0.2,0.2,0.4,0.5,0.6,0.7l42.7,42.7
			c6.4,6.4,16.8,6.4,23.2,0C199.8,187,199.8,176.6,193.4,170.2L193.4,170.2z M82.6,135.3c-29.1,0-52.7-23.6-52.7-52.7
			c0-29.1,23.6-52.7,52.7-52.7s52.7,23.6,52.7,52.7C135.3,111.7,111.7,135.3,82.6,135.3L82.6,135.3z M82.6,135.3"/>
	</g>
</g>
</svg>
