<?xml version="1.0" encoding="utf-8"?>
<!-- Generator: Adobe Illustrator 22.1.0, SVG Export Plug-In . SVG Version: 6.00 Build 0)  -->
<svg version="1.1" id="Layer_1" xmlns="http://www.w3.org/2000/svg" xmlns:xlink="http://www.w3.org/1999/xlink" x="0px" y="0px"
	 viewBox="0 0 400 400" style="enable-background:new 0 0 400 400;" xml:space="preserve">
<style type="text/css">
	.st0{fill:#4863DB;}
	.st1{fill:#3CC453;}
</style>
<g>
	<path class="st0" d="M391.7,288.8h-26.7V153.6c0.1-0.4,0.2-0.9,0.2-1.3c0-0.3-0.1-0.7-0.2-1V144c0-17-13.8-30.8-30.8-30.8H158.6
		c-2.7,0-4.8,2.2-4.8,4.8c0,2.7,2.2,4.8,4.8,4.8h175.6c11.7,0,21.1,9.4,21.1,21.1v3.6H163.5c-0.1,0-0.2,0-0.3,0
		c-2.7,0.1-4.8,2.3-4.7,5c0.1,2.7,2.3,4.8,5,4.7h191.7v131.6H78.5v-51c0-0.1,0-0.2,0-0.3c-0.1-2.7-2.3-4.8-5-4.7
		c-2.7,0.1-4.8,2.3-4.7,5v50.9H42.1l0,0c-4,0-7.3,3.3-7.3,7.3v6.9c0,12,9.7,21.7,21.8,21.8h320.7c12,0,21.8-9.7,21.8-21.8v-6.9
		C399,292,395.7,288.8,391.7,288.8z M389.3,303c0,6.6-5.4,12-12,12H56.5c-6.6,0-12-5.4-12-12v-4.5h344.7V303z"/>
	<path class="st0" d="M222.2,140.4c2.6-0.1,4.6-2.1,4.7-4.7c0.1-2.7-2-4.9-4.7-5h-10.7c-0.1,0-0.2,0-0.3,0c-2.7,0.1-4.8,2.3-4.7,5
		c0.1,2.7,2.3,4.8,5,4.7H222.2z"/>
	<path class="st0" d="M267.8,209.7h39.7c2.7,0,4.8-2.2,4.8-4.8c0-2.7-2.2-4.8-4.8-4.8h-39.7c-2.7,0-4.8,2.2-4.8,4.8
		C262.9,207.5,265.1,209.7,267.8,209.7z"/>
	<path class="st0" d="M324.6,176.3h-56.8c-0.1,0-0.2,0-0.3,0c-2.7,0.1-4.8,2.3-4.7,5s2.3,4.8,5,4.7h56.8l0,0c0.1,0,0.2,0,0.3,0
		c2.7-0.1,4.8-2.3,4.7-5C329.5,178.3,327.2,176.2,324.6,176.3z"/>
	<path class="st1" d="M200.7,211.9c0.9,0.9,2.2,1.5,3.5,1.5c1.3,0,2.5-0.5,3.4-1.5l30.5-30.5c1.9-1.9,1.9-4.8,0-6.8
		c-1.9-1.9-4.9-1.9-6.8-0.1l-27.1,27l-14.3-14.3l-0.1-0.1c-1.9-1.9-5-1.9-6.8,0.1c-1.9,1.9-1.9,5,0.1,6.8L200.7,211.9z"/>
	<path class="st0" d="M267.8,257.5c-2.6,0.1-4.6,2.1-4.7,4.7c-0.1,2.7,2,4.9,4.7,5h39.7c2.6-0.1,4.6-2.1,4.7-4.7
		c0.1-2.7-2-4.9-4.7-5H267.8z"/>
	<path class="st0" d="M324.6,243.6c0.1,0,0.2,0,0.3,0c2.7-0.1,4.8-2.3,4.7-5c-0.1-2.7-2.3-4.8-5-4.7h-56.8c-2.6,0.1-4.6,2.1-4.7,4.7
		c-0.1,2.7,2,4.9,4.7,5H324.6L324.6,243.6z"/>
	<path class="st1" d="M182.9,251.7l17.8,17.8c0.9,0.9,2.2,1.5,3.5,1.5c1.3,0,2.5-0.5,3.4-1.5L238,239c1.9-1.9,1.9-4.8,0-6.8
		c-1.9-1.9-4.9-1.9-6.8-0.1l-27.1,27.1l-14.3-14.3l-0.1-0.1c-1.9-1.9-5-1.9-6.8,0.1C180.9,246.8,181,249.9,182.9,251.7z"/>
	<path class="st1" d="M104.8,212.7l28.1,28.1c4.2,4.2,9.8,6.5,15.7,6.5l0,0c5.9,0,11.5-2.3,15.7-6.5c8.7-8.7,8.7-22.7,0-31.4
		L136.9,182c11-20.4,11.7-45,1.6-65.8C121.2,80.1,77.9,65.1,42,82.4C6,99.7-9.2,143,8.2,178.9C25.6,214.9,68.8,230.1,104.8,212.7z
		 M21,116c17.7-29.2,55.8-38.5,85.1-20.8s38.5,55.8,20.8,85.1c-1.2,1.9-0.9,4.4,0.7,6l30,30c0.1,0.1,0.2,0.2,0.3,0.3
		c4.8,5,4.7,13-0.3,17.7c-5,4.8-13,4.7-17.7-0.3l-30.6-30.6c-0.9-0.9-2.2-1.5-3.5-1.5l0,0c-0.8,0-1.6,0.2-2.3,0.6
		c-19.3,10.5-42.9,9.9-61.7-1.5C12.5,183.2,3.2,145.1,21,116z"/>
	<path class="st0" d="M78.6,189v-4.8c11.4-1.9,20-10.3,20-20.4c0-14.8-11.8-18.8-20-20.1v-22.4c3.7,1,7,3.3,9.2,6.5
		c0,0.1,0.1,0.1,0.1,0.2c1.3,2.3,4.3,3.1,6.6,1.9c2.3-1.3,3.1-4.3,1.9-6.6c-3.9-6.4-10.5-10.7-17.7-11.8v-4.8
		c-0.1-2.6-2.1-4.6-4.7-4.7c-2.7-0.1-4.9,2-5,4.7v4.8C57.6,113.3,49,121.7,49,131.8c-0.2,5.6,2.3,10.9,6.6,14.4
		c4,2.9,8.5,4.8,13.4,5.8v22.3c-3.9-1-7.2-3.5-9.3-6.9c-1.2-2.3-3.9-3.2-6.3-2.1c-2.4,1.1-3.5,3.9-2.4,6.4
		c3.8,6.8,10.6,11.4,18,12.5v4.8c0,2.7,2.2,4.8,4.8,4.8C76.4,193.8,78.6,191.6,78.6,189z M88.9,163.7c0,4.8-4.4,8.9-10.3,10.5v-20.7
		C87.1,155.4,88.9,158.6,88.9,163.7z M58.6,131.8c0-4.8,4.4-8.9,10.2-10.5v20.6C58.7,139.3,58.6,134.2,58.6,131.8z"/>
</g>
</svg>
