<?xml version="1.0" encoding="utf-8"?>
<!-- Generator: Adobe Illustrator 22.1.0, SVG Export Plug-In . SVG Version: 6.00 Build 0)  -->
<svg version="1.1" id="Layer_1" xmlns="http://www.w3.org/2000/svg" xmlns:xlink="http://www.w3.org/1999/xlink" x="0px" y="0px"
	 viewBox="0 0 400 400" style="enable-background:new 0 0 400 400;" xml:space="preserve">
<style type="text/css">
	.st0{fill:#4863DB;}
	.st1{fill:#3CC453;}
</style>
<g id="XMLID_806_" transform="translate(0 -10.262)">
	<g id="XMLID_386_" transform="translate(0 10.262)">
		<path id="XMLID_389_" class="st0" d="M398.2,218.3C391.5,151,342.4,95.5,276.3,80.8V61.1c14.1-3.5,22.8-17.8,19.3-32
			C292.7,17.3,282.1,9,270,9H214c-14.6,0-26.4,11.8-26.4,26.4c0,12.1,8.3,22.7,20.1,25.6v19.8c-29,6.4-55.5,21-76.5,42.1
			c-4.7,4.7-9.2,9.7-13.2,15c-0.2,0-0.4,0-0.6,0H62.1c-4.3-0.2-7.9,3.2-8,7.5c-0.2,4.3,3.2,7.9,7.5,8c0.2,0,0.3,0,0.5,0h45.4
			c-5.6,9.5-10.3,19.4-13.8,29.9H9c-4.3-0.2-7.9,3.2-8,7.5c-0.2,4.3,3.2,7.9,7.5,8c0.2,0,0.3,0,0.5,0h80.2
			c-2.2,9.8-3.5,19.8-3.9,29.9H51c-4.3-0.2-7.9,3.2-8,7.5c-0.2,4.3,3.2,7.9,7.5,8c0.2,0,0.3,0,0.5,0h34.6
			c0.6,10.1,2.2,20.1,4.8,29.9H40.1c-4.3-0.2-7.9,3.2-8,7.5c-0.2,4.3,3.2,7.9,7.5,8c0.2,0,0.3,0,0.5,0h55.3
			c21.1,55.6,71.9,94.6,131.2,100.5c5.1,0.5,10.3,0.7,15.4,0.7c30.4,0,60.1-8.7,85.6-25.3c3.6-2.3,4.7-7.1,2.2-10.8
			c-2.3-3.6-7.1-4.7-10.8-2.2c-65.5,42.5-153.1,23.9-195.6-41.6s-23.9-153.1,41.6-195.6s153.1-24.1,195.6,41.4
			c30.4,46.8,30.4,107.1,0.1,153.9c-2.4,3.5-1.4,8.3,2.1,10.8c3.5,2.4,8.3,1.4,10.8-2.1c0.1-0.1,0.1-0.2,0.2-0.2
			C393.2,289.4,401.8,253.7,398.2,218.3z M203.1,35.5c0-6,4.9-10.8,10.9-10.9H270c6,0.2,10.8,5.1,10.6,11.2
			c-0.2,5.8-4.8,10.4-10.6,10.6H214C208,46.3,203.1,41.4,203.1,35.5z M223.2,78.2V61.9h37.6v16.3C248.3,76.7,235.7,76.7,223.2,78.2
			L223.2,78.2z"/>
		<path id="XMLID_391_" class="st0" d="M347.6,331.6c-4.3,0-7.8,3.5-7.8,7.8c0,4.3,3.5,7.8,7.8,7.8c4.3,0,7.8-3.5,7.8-7.8
			c0-2.1-0.8-4-2.2-5.5C351.6,332.5,349.6,331.6,347.6,331.6z"/>
		<path id="XMLID_394_" class="st0" d="M242.1,113.4c-66.5,0-120.5,53.9-120.5,120.5s53.9,120.5,120.5,120.5s120.5-53.9,120.5-120.5
			l0,0C362.5,167.4,308.7,113.5,242.1,113.4z M242.1,338.9c-58,0-105-47-105-105s47-105,105-105s105,47,105,105l0,0
			C347,291.9,300.1,338.8,242.1,338.9z"/>
		<path id="XMLID_397_" class="st1" d="M291.2,173.8l-38.4,38.5c-6.7-3.3-14.6-3.3-21.4,0l-17.3-17.3c-3.2-2.9-8.1-2.6-11,0.6
			c-2.6,3-2.6,7.5,0,10.4l17.3,17.3c-5.9,12-1,26.4,11,32.3c12,5.9,26.4,1,32.3-11c3.3-6.7,3.3-14.6,0-21.4l37.3-37.3l0,0l1.1-1.1
			c2.9-3.2,2.6-8.1-0.6-11C298.7,171.1,294.2,171.1,291.2,173.8L291.2,173.8z M242.1,242.5c-4.7,0-8.6-3.9-8.6-8.6s3.9-8.6,8.6-8.6
			s8.6,3.9,8.6,8.6l0,0C250.7,238.6,246.9,242.5,242.1,242.5L242.1,242.5z"/>
		<path id="XMLID_398_" class="st1" d="M325.1,226.3h-7.2c-4.3-0.2-7.9,3.2-8,7.5c-0.2,4.3,3.2,7.9,7.5,8c0.2,0,0.3,0,0.5,0h7.2
			c4.3-0.2,7.6-3.7,7.5-8C332.6,229.7,329.3,226.4,325.1,226.3z"/>
		<path id="XMLID_399_" class="st1" d="M166.3,226H159c-4.3-0.2-7.9,3.2-8,7.5c-0.2,4.3,3.2,7.9,7.5,8c0.2,0,0.3,0,0.5,0h7.2
			c4.3,0.2,7.9-3.2,8-7.5c0.2-4.3-3.2-7.9-7.5-8C166.5,226,166.4,226,166.3,226z"/>
		<path id="XMLID_400_" class="st1" d="M242.2,165.8c4.3,0,7.8-3.5,7.8-7.8v-7.2c0.2-4.3-3.2-7.9-7.5-8c-4.3-0.2-7.9,3.2-8,7.5
			c0,0.2,0,0.3,0,0.5v7.2C234.4,162.3,237.9,165.8,242.2,165.8L242.2,165.8z"/>
		<path id="XMLID_424_" class="st1" d="M242,302.1c-4.3,0-7.8,3.5-7.8,7.8v7.2c0.2,4.3,3.7,7.6,8,7.5c4.1-0.2,7.4-3.5,7.5-7.5v-7.2
			C249.7,305.5,246.3,302.1,242,302.1z"/>
		<path id="XMLID_425_" class="st0" d="M9,274.1c-4.3,0-7.8,3.5-7.8,7.8s3.5,7.8,7.8,7.8c2.1,0,4.1-0.8,5.5-2.2
			c3.1-3.1,3.1-7.9,0-11C13,274.9,11.1,274.1,9,274.1z"/>
	</g>
</g>
</svg>
