<?xml version="1.0" encoding="UTF-8"?>
<!DOCTYPE svg PUBLIC "-//W3C//DTD SVG 1.1//EN" "http://www.w3.org/Graphics/SVG/1.1/DTD/svg11.dtd">
<!-- Creator: CorelDRAW X7 -->
<svg xmlns="http://www.w3.org/2000/svg" xml:space="preserve" width="6.0995mm" height="6.1598mm" version="1.1" style="shape-rendering:geometricPrecision; text-rendering:geometricPrecision; image-rendering:optimizeQuality; fill-rule:evenodd; clip-rule:evenodd" viewBox="0 0 50 50" xmlns:xlink="http://www.w3.org/1999/xlink">
 <defs>
  <style type="text/css">
   <![CDATA[
    .fil0 {fill:#C5F8F5}
   ]]>
  </style>
 </defs>
 <g id="Layer_x0020_1">
  <metadata id="CorelCorpID_0Corel-Layer"/>
  <path class="fil0" d="M27 16c2,0 4,1 5,2l4 -2 3 -10 5 1 -3 9 9 2 -1 5 -11 -3 -4 3c1,0 1,1 1,2 0,1 0,2 -1,3l4 2 11 -3 1 5 -9 3 3 8 -5 2 -3 -11 -4 -2c-1,1 -3,2 -5,3l0 4 8 8 -4 3 -6 -6 -6 6 -4 -3 7 -8 0 -4c-1,-1 -3,-2 -4,-3l-4 2 -3 11 -5 -2 3 -8 -9 -3 1 -5 11 3 3 -2c0,-1 0,-2 0,-3 0,-1 0,-2 0,-2l-3 -3 -11 3 -1 -5 9 -2 -3 -9 5 -1 3 10 4 2c1,-1 3,-2 4,-2l0 -5 -7 -7 4 -4 6 6 6 -6 4 4 -8 7 0 5z"/>
 </g>
</svg>