<?xml version="1.0" encoding="utf-8"?>
<!-- Generator: Adobe Illustrator 22.1.0, SVG Export Plug-In . SVG Version: 6.00 Build 0)  -->
<svg version="1.1" id="Layer_1" xmlns="http://www.w3.org/2000/svg" xmlns:xlink="http://www.w3.org/1999/xlink" x="0px" y="0px"
	 viewBox="0 0 400 400" style="enable-background:new 0 0 400 400;" xml:space="preserve">
<style type="text/css">
	.st0{fill:none;stroke:#4863DB;stroke-width:15;stroke-miterlimit:10;}
	.st1{fill:#4863DB;stroke:#4863DB;stroke-width:15;stroke-miterlimit:10;}
	.st2{fill:#3CC453;stroke:#3CC453;stroke-width:3;stroke-miterlimit:10;}
</style>
<g>
	<circle class="st0" cx="168.1" cy="177.4" r="81"/>
	<path class="st0" d="M271.1,161.6c-7.6-50-50.8-88.3-102.9-88.3C110.6,73.3,64,119.9,64,177.4c0,1.3,0.1,2.6,0.1,3.9"/>
	<path class="st0" d="M276.4,196.7h-11.8V162h11.8c8.4,0,15.2,6.8,15.2,15.2v4.4C291.6,189.9,284.8,196.7,276.4,196.7z"/>
	<path class="st1" d="M59.9,196.7h11.8V162H59.9c-8.4,0-15.2,6.8-15.2,15.2v4.4C44.7,189.9,51.5,196.7,59.9,196.7z"/>
	<path class="st0" d="M272.3,196.7c0,0,0,34.7-27,34.7s-61.7,0-61.7,0"/>
	<path class="st0" d="M278.1,393.4H58.2v-57.9c0-34.1,27.6-61.7,61.7-61.7h96.4c34.1,0,61.7,27.6,61.7,61.7V393.4z"/>
	<path class="st2" d="M331.5,28.5C316.8,13.7,296.4,4.6,274,4.6c-2.1,0-3.8,1.7-3.8,3.8c0,2.1,1.7,3.8,3.8,3.8
		c20.4,0,38.8,8.3,52.2,21.7c13.4,13.4,21.6,31.8,21.6,52.2c0,2.1,1.7,3.8,3.8,3.8c2.1,0,3.8-1.7,3.8-3.8
		C355.3,63.6,346.2,43.2,331.5,28.5z M274,24c-2.1,0-3.8,1.7-3.8,3.8c0,2.1,1.7,3.8,3.8,3.8c15,0,28.6,6.1,38.5,16
		c9.8,9.9,15.9,23.5,15.9,38.5c0,2.1,1.7,3.8,3.8,3.8c2.1,0,3.8-1.7,3.8-3.8c0-17.1-6.9-32.6-18.1-43.8C306.6,30.9,291.1,24,274,24z
		 M273.9,43.4c-2.1,0-3.8,1.7-3.8,3.8c0,2.1,1.7,3.8,3.8,3.8c9.7,0,18.4,3.9,24.8,10.3c6.3,6.4,10.2,15.1,10.2,24.8
		c0,2.1,1.7,3.8,3.8,3.8c2.1,0,3.8-1.7,3.8-3.8c0-11.7-4.8-22.4-12.4-30.1C296.3,48.2,285.7,43.4,273.9,43.4z M273.9,62.8
		c-2.1,0-3.8,1.7-3.8,3.8c0,2.1,1.7,3.8,3.8,3.8c2.2,0,4.2,0.4,6.1,1.2c2.8,1.2,5.2,3.2,6.9,5.7c1.7,2.5,2.7,5.5,2.7,8.7
		c0,2.1,1.7,3.8,3.8,3.8c2.1,0,3.8-1.7,3.8-3.8c0-6.4-2.6-12.2-6.8-16.4C286.1,65.4,280.3,62.8,273.9,62.8z"/>
</g>
</svg>
