<?xml version="1.0" encoding="utf-8"?>
<!-- Generator: Adobe Illustrator 22.0.1, SVG Export Plug-In . SVG Version: 6.00 Build 0)  -->
<svg version="1.1" id="Layer_1" xmlns="http://www.w3.org/2000/svg" xmlns:xlink="http://www.w3.org/1999/xlink" x="0px" y="0px"
	 viewBox="0 0 189.5 274.7" style="enable-background:new 0 0 189.5 274.7;" xml:space="preserve">
<path d="M101.3,204.6h36.5c13.7,0,25.1-11.5,25.1-25.2v-72.6c0-0.5-0.3-0.9-0.4-1.4h6.8c4.4,0,8-3.6,8-8v-24c0-4.4-3.6-8-8-8h-27.2
	V19.8c0-4.4-3.6-8-8-8h-16.8c-4.4,0-8,3.6-8,8v45.6H74.1V19.8c0-4.4-3.6-8-8-8H49.3c-4.4,0-8,3.6-8,8v45.6H14.9c-4.4,0-8,3.6-8,8v24
	c0,4.4,3.6,8,8,8h6.2c0,0.5,0.2,0.9,0.2,1.4v72.6c0,13.7,10.9,25.2,24.5,25.2h27.5v64.1h28V204.6z"/>
</svg>
