<?xml version="1.0" encoding="utf-8"?>
<!-- Generator: Adobe Illustrator 22.0.1, SVG Export Plug-In . SVG Version: 6.00 Build 0)  -->
<svg version="1.1" id="Layer_1" xmlns="http://www.w3.org/2000/svg" xmlns:xlink="http://www.w3.org/1999/xlink" x="0px" y="0px"
	 viewBox="0 0 344 332" style="enable-background:new 0 0 344 332;" xml:space="preserve">
<path d="M171.9,285.4"/>
<path d="M171.9,14C88.1,14,20,82.1,20,165.9c0,83.7,68.1,151.9,151.9,151.9c83.7,0,151.9-68.1,151.9-151.9
	C323.7,82.1,255.6,14,171.9,14z M251,186.2h-80.7c-6.9,0-12.5-5.6-12.5-12.5V79.1c0-6.9,5.6-12.5,12.5-12.5
	c6.9,0,12.5,5.6,12.5,12.5v82.1H251c6.9,0,12.5,5.6,12.5,12.5C263.5,180.6,257.9,186.2,251,186.2z"/>
</svg>
