<?xml version="1.0" encoding="utf-8"?>
<!-- Generator: Adobe Illustrator 22.0.1, SVG Export Plug-In . SVG Version: 6.00 Build 0)  -->
<svg version="1.1" id="Layer_1" xmlns="http://www.w3.org/2000/svg" xmlns:xlink="http://www.w3.org/1999/xlink" x="0px" y="0px"
	 viewBox="0 0 300 200" style="enable-background:new 0 0 300 200;" xml:space="preserve">
<style type="text/css">
	.st0{fill:#717171;}
	.st1{fill:#A5A5A5;}
	.st2{clip-path:url(#SVGID_2_);fill:#A5A5A5;}
	.st3{clip-path:url(#SVGID_4_);fill:#A5A5A5;}
	.st4{clip-path:url(#SVGID_6_);fill:#A5A5A5;}
	.st5{opacity:0.6;fill:#717171;}
	.st6{clip-path:url(#SVGID_8_);fill:#A5A5A5;}
	.st7{clip-path:url(#SVGID_10_);fill:#A5A5A5;}
	.st8{clip-path:url(#SVGID_12_);fill:#A5A5A5;}
	.st9{clip-path:url(#SVGID_14_);fill:#A5A5A5;}
	.st10{clip-path:url(#SVGID_16_);fill:#A5A5A5;}
</style>
<g>
	<path d="M189.5-0.5H29.3C18-0.5,8.9,8.6,8.9,19.9v160.2c0,11.3,9.1,20.4,20.4,20.4h160.2c11.3,0,20.4-9.1,20.4-20.4V19.9
		C209.9,8.7,200.8-0.5,189.5-0.5z M153.7,105l-67,38.7c-3.8,2.2-8.5-0.5-8.5-4.9V61.3c0-4.4,4.8-7.1,8.5-4.9l67,38.7
		C157.6,97.3,157.6,102.8,153.7,105z"/>
	<g>
		<path d="M256.4,73.9c-5.6-1.2-10.4-2.7-14.3-4.5c-3.9-1.8-6.9-4.4-9.1-7.6c-2.2-3.2-3.3-7.2-3.3-11.8c0-4.3,0.8-8,2.4-11.2
			c1.6-3.2,3.7-5.8,6.1-7.7c2.4-2,5.1-3.5,8-4.5c2.9-1,6.3-1.7,10.2-1.9v-9.2h6.1v9.2c5.8,0.4,10.7,1.8,14.7,4c4,2.3,7,5.4,9,9.4
			c1.4,2.9,2.2,6.5,2.4,10.6h-10.9c-0.8-4.5-2.3-7.9-4.6-10.2c-2.3-2.3-5.8-3.8-10.6-4.6v30.1c5.6,1.4,9.7,2.6,12.2,3.6
			c4,1.5,7.1,3.4,9.3,5.5c2.3,2.1,4,4.6,5.2,7.5c1.2,2.9,1.8,6,1.8,9.5c0,4.6-1.1,9-3.2,13.1c-2.1,4.1-5.2,7.3-9.4,9.6
			c-4.1,2.3-9.5,3.7-16,4.2V127h-6.1v-10.2c-6.9-0.5-12.6-2.1-16.9-4.6c-4.3-2.6-7.5-6.2-9.5-10.9c-1.5-3.5-2.2-8.2-2.2-14h11.5
			c0.1,4.4,0.7,8,1.9,10.6c1.1,2.6,2.9,4.7,5.2,6.3c2.4,1.6,5.7,2.7,9.9,3.4V73.9z M256.4,33.8c-4.7,0.1-8.4,1.5-11.1,4.3
			c-2.7,2.7-4.1,6.1-4.1,10.3c0,3.5,1.2,6.5,3.6,9.1c2.4,2.5,6.3,4.3,11.5,5.2V33.8z M262.5,107.6c2.5-0.1,4.6-0.4,6.4-0.9
			c1.8-0.5,3.4-1.4,5-2.6c1.5-1.2,2.9-2.9,4-5c1.1-2.1,1.6-4.6,1.6-7.5c0-3.9-1.2-7.2-3.5-9.8c-2.4-2.6-6.8-4.7-13.4-6.3V107.6z"/>
	</g>
</g>
</svg>
