<?xml version="1.0" encoding="utf-8"?>
<!-- Generator: Adobe Illustrator 22.0.1, SVG Export Plug-In . SVG Version: 6.00 Build 0)  -->
<svg version="1.1" id="Layer_1" xmlns="http://www.w3.org/2000/svg" xmlns:xlink="http://www.w3.org/1999/xlink" x="0px" y="0px"
	 viewBox="0 0 200 200" style="enable-background:new 0 0 200 200;" xml:space="preserve">
<style type="text/css">
	.st0{fill:#717171;}
	.st1{fill:#A5A5A5;}
	.st2{clip-path:url(#SVGID_2_);fill:#A5A5A5;}
	.st3{clip-path:url(#SVGID_4_);fill:#A5A5A5;}
	.st4{clip-path:url(#SVGID_6_);fill:#A5A5A5;}
	.st5{opacity:0.6;fill:#717171;}
	.st6{clip-path:url(#SVGID_8_);fill:#A5A5A5;}
	.st7{clip-path:url(#SVGID_10_);fill:#A5A5A5;}
	.st8{clip-path:url(#SVGID_12_);fill:#A5A5A5;}
	.st9{clip-path:url(#SVGID_14_);fill:#A5A5A5;}
	.st10{clip-path:url(#SVGID_16_);fill:#A5A5A5;}
</style>
<g>
	<path d="M16.3,145.4h167.3c2.2,0,4.3-0.9,5.8-2.6c1.5-1.6,2.2-3.8,2-6c-3.8-41.2-34.8-74.5-74.9-81.8c0.1-0.7,0.2-1.4,0.2-2.1
		c0-7.9-6.4-22.3-16.8-22.3c-10.4,0-16.8,14.4-16.8,22.3c0,0.7,0.1,1.4,0.2,2.1c-40.1,7.3-71.1,40.6-74.9,81.8c-0.2,2.2,0.5,4.4,2,6
		C12,144.5,14.1,145.4,16.3,145.4L16.3,145.4z M93.3,53c0-5,4.3-12.2,6.7-12.2c2.4,0,6.7,7.2,6.7,12.2c0,0.3-0.1,0.6-0.2,0.9
		c-2.2-0.2-4.3-0.3-6.5-0.3c-2.2,0-4.4,0.2-6.5,0.3C93.4,53.6,93.3,53.3,93.3,53L93.3,53z M93.3,53"/>
	<path d="M191.9,152.6H8.1c-4.6,0-8.4,3.8-8.4,8.4c0,4.6,3.8,8.4,8.4,8.4h183.7c4.6,0,8.4-3.8,8.4-8.4
		C200.2,156.3,196.5,152.6,191.9,152.6L191.9,152.6z M191.9,152.6"/>
</g>
</svg>
