<?xml version="1.0" encoding="utf-8"?>
<!-- Generator: Adobe Illustrator 22.0.1, SVG Export Plug-In . SVG Version: 6.00 Build 0)  -->
<svg version="1.1" id="Layer_1" xmlns="http://www.w3.org/2000/svg" xmlns:xlink="http://www.w3.org/1999/xlink" x="0px" y="0px"
	 viewBox="0 0 200 200" style="enable-background:new 0 0 200 200;" xml:space="preserve">
<style type="text/css">
	.st0{fill:#717171;}
	.st1{fill:#A5A5A5;}
	.st2{clip-path:url(#SVGID_2_);fill:#A5A5A5;}
	.st3{clip-path:url(#SVGID_4_);fill:#A5A5A5;}
	.st4{clip-path:url(#SVGID_6_);fill:#A5A5A5;}
	.st5{opacity:0.6;fill:#717171;}
	.st6{clip-path:url(#SVGID_8_);fill:#A5A5A5;}
	.st7{clip-path:url(#SVGID_10_);fill:#A5A5A5;}
	.st8{clip-path:url(#SVGID_12_);fill:#A5A5A5;}
	.st9{clip-path:url(#SVGID_14_);fill:#A5A5A5;}
	.st10{clip-path:url(#SVGID_16_);fill:#A5A5A5;}
</style>
<g>
	<path d="M94.2,68.8c17.1,0,32.6-0.1,48,0c18.5,0.1,26.6,8.1,26.8,27c0.2,22.6,0.1,45.2,0.1,69.4c6.4,0,11.2-0.4,15.9,0.1
		c9.2,0.9,16.4,6.8,14.8,15.3c-1.1,5.5-9,12.7-14.8,13.7c-12.1,2.1-24.9,1.3-37.2,0.2c-3.1-0.3-8-6.3-8.2-9.9
		c-0.9-16.4-1-33-0.2-49.4c0.6-11.4-2.6-16-14.8-15.4c-18.7,1-37.4,0.3-56.1,0.2c-24.4-0.1-36.2-11.8-36.3-35.8
		c-0.1-22.7,0.3-45.4-0.1-68.1C31.8,7.6,34.5,4,43.4,4.4c13.3,0.6,26.7,0.5,40.1,0c8.2-0.3,11,3,10.8,11
		C93.9,32.7,94.2,49.9,94.2,68.8z"/>
	<path d="M19.3,81.5c0,13.4-0.1,26.7,0,40.1c0.3,19.4,13,32.5,32.6,32.9c17.3,0.4,34.7,0.3,52.1,0c7.2-0.1,11.9,0.9,11.8,9.9
		c-0.1,8.2-4.1,9.7-10.9,9.4c-21.7-0.8-43.8,0.7-65.1-2.7c-24.7-4-39.6-24.8-39.7-49.7c-0.2-27.6,0-55.2,0-82.8
		c0-6.4-0.8-12.4,9-12.6c10.1-0.2,10.4,5.4,10.3,12.8C19.1,53.1,19.3,67.3,19.3,81.5z"/>
</g>
</svg>
