<?xml version="1.0" encoding="utf-8"?>
<!-- Generator: Adobe Illustrator 22.0.1, SVG Export Plug-In . SVG Version: 6.00 Build 0)  -->
<svg version="1.1" id="Layer_1" xmlns="http://www.w3.org/2000/svg" xmlns:xlink="http://www.w3.org/1999/xlink" x="0px" y="0px"
	 viewBox="0 0 201 186" style="enable-background:new 0 0 201 186;" xml:space="preserve">
<g>
	<path d="M95,63.5c16.2,0,30.8-0.1,45.4,0c17.5,0.1,25.2,7.7,25.4,25.5c0.2,21.4,0.1,42.7,0.1,65.6c6,0,10.6-0.4,15,0.1
		c8.7,0.9,15.5,6.4,14,14.5c-1,5.2-8.5,12-14,13c-11.4,2-23.5,1.3-35.2,0.2c-3-0.3-7.6-5.9-7.8-9.3c-0.8-15.5-1-31.2-0.2-46.7
		c0.5-10.8-2.5-15.1-14-14.5c-17.6,0.9-35.4,0.3-53,0.2c-23.1-0.1-34.3-11.2-34.3-33.8c0-21.5,0.2-42.9-0.1-64.4
		C36.1,5.7,38.6,2.3,47,2.6c12.6,0.5,25.3,0.5,37.9,0c7.8-0.3,10.4,2.9,10.2,10.4C94.7,29.4,95,45.7,95,63.5z"/>
	<path d="M24.2,55.1c0,12.6-0.1,25.3,0,37.9c0.2,18.4,12.3,30.7,30.8,31.1c16.4,0.4,32.8,0.3,49.2,0c6.8-0.1,11.3,0.8,11.1,9.4
		c-0.1,7.7-3.9,9.2-10.3,8.9c-20.5-0.8-41.4,0.6-61.5-2.6c-23.4-3.7-37.4-23.4-37.5-47C5.9,66.7,6,40.6,6,14.5c0-6-0.7-11.7,8.5-12
		c9.5-0.2,9.9,5.1,9.7,12.1C24,28.1,24.2,41.6,24.2,55.1z"/>
</g>
</svg>
