<?xml version="1.0" encoding="utf-8"?>
<!-- Generator: Adobe Illustrator 22.0.1, SVG Export Plug-In . SVG Version: 6.00 Build 0)  -->
<svg version="1.1" id="Layer_1" xmlns="http://www.w3.org/2000/svg" xmlns:xlink="http://www.w3.org/1999/xlink" x="0px" y="0px"
	 viewBox="0 0 424 290" style="enable-background:new 0 0 424 290;" xml:space="preserve">
<style type="text/css">
	.st0{fill:#000100;}
</style>
<g>
	<path class="st0" d="M46.8,234.5H377c4.3,0,8.5-1.8,11.4-5c2.9-3.2,4.4-7.5,4-11.9c-7.5-81.3-68.7-147-147.8-161.4
		c0.2-1.4,0.4-2.7,0.4-4.2c0-15.5-12.6-44-33.1-44c-20.5,0-33.1,28.5-33.1,44c0,1.4,0.2,2.8,0.4,4.2
		C100.1,70.6,38.8,136.3,31.3,217.6c-0.4,4.3,1,8.6,4,11.9C38.2,232.7,42.4,234.5,46.8,234.5L46.8,234.5z M198.6,52
		c0-10,8.6-24.2,13.2-24.2c4.7,0,13.2,14.2,13.2,24.2c0,0.6-0.3,1.2-0.4,1.8c-4.3-0.3-8.5-0.6-12.9-0.6c-4.3,0-8.6,0.3-12.9,0.6
		C198.9,53.2,198.6,52.7,198.6,52L198.6,52z M198.6,52"/>
	<path class="st0" d="M393.2,248.6H30.6c-9.1,0-16.6,7.4-16.6,16.6c0,9.1,7.4,16.6,16.6,16.6h362.6c9.1,0,16.6-7.4,16.6-16.6
		C409.7,256,402.3,248.6,393.2,248.6L393.2,248.6z M393.2,248.6"/>
</g>
</svg>
