<?xml version="1.0" encoding="utf-8"?>
<!-- Generator: Adobe Illustrator 22.0.1, SVG Export Plug-In . SVG Version: 6.00 Build 0)  -->
<svg version="1.1" id="Layer_1" xmlns="http://www.w3.org/2000/svg" xmlns:xlink="http://www.w3.org/1999/xlink" x="0px" y="0px"
	 viewBox="0 0 200 200" style="enable-background:new 0 0 200 200;" xml:space="preserve">
<style type="text/css">
	.st0{fill:#717171;}
	.st1{fill:#A5A5A5;}
	.st2{clip-path:url(#SVGID_2_);fill:#A5A5A5;}
	.st3{clip-path:url(#SVGID_4_);fill:#A5A5A5;}
	.st4{clip-path:url(#SVGID_6_);fill:#A5A5A5;}
	.st5{opacity:0.6;fill:#717171;}
	.st6{clip-path:url(#SVGID_8_);fill:#A5A5A5;}
	.st7{clip-path:url(#SVGID_10_);fill:#A5A5A5;}
	.st8{clip-path:url(#SVGID_12_);fill:#A5A5A5;}
	.st9{clip-path:url(#SVGID_14_);fill:#A5A5A5;}
	.st10{clip-path:url(#SVGID_16_);fill:#A5A5A5;}
	.st11{clip-path:url(#SVGID_18_);fill:#A5A5A5;}
	.st12{clip-path:url(#SVGID_20_);fill:#A5A5A5;}
	.st13{clip-path:url(#SVGID_22_);fill:#A5A5A5;}
	.st14{clip-path:url(#SVGID_24_);fill:#A5A5A5;}
	.st15{fill:none;}
	.st16{clip-path:url(#SVGID_26_);fill:#A5A5A5;}
	.st17{clip-path:url(#SVGID_28_);fill:#A5A5A5;}
	.st18{clip-path:url(#SVGID_30_);fill:#A5A5A5;}
	.st19{clip-path:url(#SVGID_32_);fill:#A5A5A5;}
	.st20{clip-path:url(#SVGID_34_);fill:#A5A5A5;}
	.st21{clip-path:url(#SVGID_36_);fill:#A5A5A5;}
</style>
<path d="M71.7,146.5h27.7c10.4,0,19.1-8.7,19.1-19.1V72.2c0-0.4-0.3-0.7-0.3-1.1h5.1c3.4,0,6.1-2.7,6.1-6.1V46.8
	c0-3.4-2.7-6.1-6.1-6.1h-20.7V6.1c0-3.4-2.7-6.1-6.1-6.1H83.9c-3.4,0-6.1,2.7-6.1,6.1v34.6H51.1V6.1C51.1,2.7,48.3,0,45,0H32.2
	c-3.4,0-6.1,2.7-6.1,6.1v34.6H6.1c-3.4,0-6.1,2.7-6.1,6.1V65c0,3.4,2.7,6.1,6.1,6.1h4.7c0,0.4,0.2,0.7,0.2,1.1v55.2
	c0,10.4,8.3,19.1,18.6,19.1h20.9v53.4h21.3V146.5z"/>
<g>
	<path d="M138.4,49.4v60c0,5.6,4.5,10.1,10,10.1h12.2v80.3h17.1v-80.3H190c5.5,0,10-4.5,10-10.1v-60H138.4z M181.8,75.4h-1.1v2.7
		c0,2.4-1.3,4.4-2.5,5.8c-0.9,1-1.9,1.8-3.2,2.5c-3.4,2-4.1,3.7-4.2,4.4v9.5c1.9,0.6,3.4,2.4,3.4,4.6c0,2.7-2.2,4.8-4.7,4.8
		c-2.6,0-4.7-2.2-4.7-4.8c0-2.2,1.4-4,3.4-4.6V96l0,0v-0.1c0-0.4-0.3-2.3-4.2-4.6c-1.2-0.7-2.2-1.6-3.2-2.5
		c-1.3-1.4-2.5-3.4-2.5-5.8v-2.7c-1-0.6-1.6-1.6-1.6-2.8c0-1.8,1.4-3.2,3.2-3.2c1.8,0,3.2,1.4,3.2,3.2c0,1.1-0.6,2.2-1.5,2.7
		c0.1,1.6,0.1,3.5,0.3,4.2c0.4,1.5,1.4,2.9,2.9,3.9l3.4,2.4V66H165l2.3-4l2.3-4l2.4,4l2.4,4h-3.5v19.9l3.4-2.4
		c1.4-1,2.5-2.4,2.9-3.9c0.2-0.6,0.3-2.6,0.3-4.2h-1.2v-5.6h5.5L181.8,75.4L181.8,75.4z"/>
	<path d="M192.5,0.3h-46.6v47.1h46.6V0.3z M164.2,29.8H154V19.5h10.2V29.8z M184.2,29.8H174V19.5h10.2V29.8z"/>
</g>
</svg>
