<?xml version="1.0" encoding="utf-8"?>
<!-- Generator: Adobe Illustrator 22.0.1, SVG Export Plug-In . SVG Version: 6.00 Build 0)  -->
<svg version="1.1" id="Layer_1" xmlns="http://www.w3.org/2000/svg" xmlns:xlink="http://www.w3.org/1999/xlink" x="0px" y="0px"
	 viewBox="0 0 200 200" style="enable-background:new 0 0 200 200;" xml:space="preserve">
<style type="text/css">
	.st0{fill:#676767;}
	.st1{fill:#A09F9F;}
	.st2{fill:#717171;}
	.st3{clip-path:url(#SVGID_2_);fill:#A5A5A5;}
	.st4{fill:#A5A5A5;}
	.st5{clip-path:url(#SVGID_4_);fill:#A5A5A5;}
	.st6{clip-path:url(#SVGID_6_);fill:#A5A5A5;}
	.st7{opacity:0.6;fill:#717171;}
	.st8{clip-path:url(#SVGID_8_);fill:#A5A5A5;}
	.st9{clip-path:url(#SVGID_10_);fill:#A5A5A5;}
	.st10{clip-path:url(#SVGID_12_);fill:#A5A5A5;}
	.st11{clip-path:url(#SVGID_14_);fill:#A5A5A5;}
	.st12{clip-path:url(#SVGID_16_);fill:#A5A5A5;}
	.st13{clip-path:url(#SVGID_18_);fill:#A5A5A5;}
	.st14{clip-path:url(#SVGID_20_);fill:#A5A5A5;}
	.st15{clip-path:url(#SVGID_22_);fill:#A5A5A5;}
	.st16{clip-path:url(#SVGID_24_);fill:#A5A5A5;}
	.st17{fill:none;}
	.st18{clip-path:url(#SVGID_26_);fill:#A5A5A5;}
	.st19{clip-path:url(#SVGID_28_);fill:#A5A5A5;}
	.st20{clip-path:url(#SVGID_30_);fill:#A5A5A5;}
</style>
<rect x="174" y="19.5" class="st17" width="10.2" height="10.3"/>
<path class="st17" d="M127.2,42.1c-0.3-0.2-0.6-0.5-1-0.7c-0.5-0.3-1.1-0.5-1.7-0.6c-0.4-0.1-0.8-0.1-1.2-0.1h-20.7V6.1
	c0-2.7-1.8-5-4.3-5.8C97.9,0.1,97.3,0,96.6,0H83.9c-0.6,0-1.2,0.1-1.8,0.3c-0.8,0.2-1.5,0.6-2.1,1.1c-0.2,0.1-0.3,0.3-0.4,0.4
	c-1.1,1.1-1.8,2.6-1.8,4.3v34.6H51.1V6.1c0-2.7-1.8-5-4.3-5.8C46.2,0.1,45.6,0,45,0H32.2c-1.5,0-2.8,0.5-3.9,1.4
	c-0.2,0.1-0.3,0.3-0.4,0.4c-0.3,0.3-0.5,0.6-0.7,0.9c-0.7,1-1,2.1-1,3.4v34.6H6.1c-2.3,0-4.3,1.3-5.3,3.2C0.3,44.8,0,45.8,0,46.8V65
	c0,1,0.3,2,0.7,2.9c1,1.9,3,3.2,5.3,3.2h4.7c0,0.1,0,0.3,0,0.4c0.1,0.2,0.1,0.4,0.1,0.7v55.2c0,3.2,0.8,6.3,2.2,9
	c0.3,0.5,0.6,1.1,0.9,1.6c0.7,1,1.4,2,2.3,2.8c1.7,1.7,3.7,3.2,5.9,4.1c1.1,0.5,2.3,0.9,3.5,1.1c1.2,0.3,2.5,0.4,3.8,0.4h20.9v53.4
	h21.3v-53.4h27.7c0.6,0,1.3,0,1.9-0.1c1.3-0.1,2.5-0.4,3.7-0.8c1.2-0.4,2.3-0.9,3.4-1.5c3.2-1.8,5.9-4.5,7.7-7.7
	c1.5-2.7,2.3-5.8,2.3-9V72.2c0-0.4-0.3-0.7-0.3-1.1h5.1c0.4,0,0.8,0,1.2-0.1c0.6-0.1,1.2-0.3,1.7-0.6c0.3-0.2,0.7-0.4,1-0.7
	c1.4-1.1,2.2-2.8,2.2-4.7V46.8C129.5,44.9,128.6,43.2,127.2,42.1z"/>
<rect x="174" y="19.5" class="st17" width="10.2" height="10.3"/>
<g>
	<path class="st0" d="M127.2,42.1c-0.3-0.2-0.6-0.5-1-0.7c-0.5-0.3-1.1-0.5-1.7-0.6c-0.4-0.1-0.8-0.1-1.2-0.1h-20.7V6.1
		c0-2.7-1.8-5-4.3-5.8C97.9,0.1,97.3,0,96.6,0H83.9c-0.6,0-1.2,0.1-1.8,0.3c-0.8,0.2-1.5,0.6-2.1,1.1c-0.2,0.1-0.3,0.3-0.4,0.4
		c-1.1,1.1-1.8,2.6-1.8,4.3v34.6H51.1V6.1c0-2.7-1.8-5-4.3-5.8C46.2,0.1,45.6,0,45,0H32.2c-1.5,0-2.8,0.5-3.9,1.4
		c-0.2,0.1-0.3,0.3-0.4,0.4c-0.3,0.3-0.5,0.6-0.7,0.9c-0.7,1-1,2.1-1,3.4v34.6H6.1c-2.3,0-4.3,1.3-5.3,3.2C0.3,44.8,0,45.8,0,46.8
		V65c0,1,0.3,2,0.7,2.9c1,1.9,3,3.2,5.3,3.2h4.7c0,0.1,0,0.3,0,0.4c0.1,0.2,0.1,0.4,0.1,0.7v55.2c0,3.2,0.8,6.3,2.2,9
		c0.3,0.5,0.6,1.1,0.9,1.6c0.7,1,1.4,2,2.3,2.8c1.7,1.7,3.7,3.2,5.9,4.1c1.1,0.5,2.3,0.9,3.5,1.1c1.2,0.3,2.5,0.4,3.8,0.4h20.9v53.4
		h21.3v-53.4h27.7c0.6,0,1.3,0,1.9-0.1c1.3-0.1,2.5-0.4,3.7-0.8c1.2-0.4,2.3-0.9,3.4-1.5c3.2-1.8,5.9-4.5,7.7-7.7
		c1.5-2.7,2.3-5.8,2.3-9V72.2c0-0.4-0.3-0.7-0.3-1.1h5.1c0.4,0,0.8,0,1.2-0.1c0.6-0.1,1.2-0.3,1.7-0.6c0.3-0.2,0.7-0.4,1-0.7
		c1.4-1.1,2.2-2.8,2.2-4.7V46.8C129.5,44.9,128.6,43.2,127.2,42.1z"/>
	<g>
		<rect x="154" y="19.7" class="st17" width="10.2" height="10.3"/>
		<path class="st17" d="M176.2,75.6h1.2c0,1,0,2.1-0.1,3c0,0.2,0,0.3,0,0.5c0,0.3-0.1,0.5-0.1,0.7c-0.1,0.6-0.4,1.1-0.7,1.6
			c-0.4,0.7-1,1.3-1.7,1.9c-0.2,0.1-0.3,0.3-0.5,0.4l-3.4,2.4V66.2h3.5l-2.4-4l-2.4-4l-2.3,4l-2.3,4h3.1V91v0l-3.4-2.4
			c-1.4-1-2.4-2.4-2.9-3.9c0-0.2-0.1-0.4-0.1-0.7c0-0.3-0.1-0.6-0.1-1c0-0.6-0.1-1.2-0.1-1.8c0-0.2,0-0.4,0-0.6
			c0.3-0.2,0.6-0.5,0.9-0.8c0.4-0.5,0.7-1.2,0.7-1.9c0-1.8-1.4-3.2-3.2-3.2c-0.4,0-0.8,0.1-1.2,0.3c-0.2,0.1-0.4,0.2-0.5,0.3
			c-0.8,0.6-1.4,1.6-1.4,2.7c0,1.2,0.6,2.2,1.6,2.8v2.7c0,0.9,0.2,1.8,0.5,2.6c0.2,0.5,0.4,1,0.7,1.5c0.4,0.7,0.9,1.3,1.4,1.8
			c0.5,0.5,1,0.9,1.5,1.3c0.5,0.4,1.1,0.8,1.7,1.2c1.5,0.9,2.4,1.7,3,2.4c1,1.2,1.1,2,1.1,2.2v0.1v4.3c-1.2,0.4-2.2,1.2-2.8,2.3
			c-0.4,0.7-0.6,1.4-0.6,2.2c0,2.7,2.2,4.8,4.7,4.8c1.6,0,3.1-0.8,3.9-2.1c0.5-0.8,0.8-1.7,0.8-2.7c0-2.2-1.4-4-3.4-4.6V91
			c0.1-0.6,0.6-2.2,3.5-4c0.2-0.1,0.4-0.2,0.6-0.4c0.3-0.2,0.6-0.4,0.9-0.6c0.6-0.4,1.1-0.8,1.6-1.2c0.2-0.2,0.5-0.5,0.7-0.7
			c1.2-1.4,2.5-3.4,2.5-5.8v-2.7h1V70h-5.5V75.6z"/>
		<rect x="154" y="19.7" class="st17" width="10.2" height="10.3"/>
		<path class="st17" d="M176.2,75.6h1.2c0,1,0,2.1-0.1,3c0,0.2,0,0.3,0,0.5c0,0.3-0.1,0.5-0.1,0.7c-0.1,0.6-0.4,1.1-0.7,1.6
			c-0.4,0.7-1,1.3-1.7,1.9c-0.2,0.1-0.3,0.3-0.5,0.4l-3.4,2.4V66.2h3.5l-2.4-4l-2.4-4l-2.3,4l-2.3,4h3.1V91v0l-3.4-2.4
			c-1.4-1-2.4-2.4-2.9-3.9c0-0.2-0.1-0.4-0.1-0.7c0-0.3-0.1-0.6-0.1-1c0-0.6-0.1-1.2-0.1-1.8c0-0.2,0-0.4,0-0.6
			c0.3-0.2,0.6-0.5,0.9-0.8c0.4-0.5,0.7-1.2,0.7-1.9c0-1.8-1.4-3.2-3.2-3.2c-0.4,0-0.8,0.1-1.2,0.3c-0.2,0.1-0.4,0.2-0.5,0.3
			c-0.8,0.6-1.4,1.6-1.4,2.7c0,1.2,0.6,2.2,1.6,2.8v2.7c0,0.9,0.2,1.8,0.5,2.6c0.2,0.5,0.4,1,0.7,1.5c0.4,0.7,0.9,1.3,1.4,1.8
			c0.5,0.5,1,0.9,1.5,1.3c0.5,0.4,1.1,0.8,1.7,1.2c1.5,0.9,2.4,1.7,3,2.4c1,1.2,1.1,2,1.1,2.2v0.1v4.3c-1.2,0.4-2.2,1.2-2.8,2.3
			c-0.4,0.7-0.6,1.4-0.6,2.2c0,2.7,2.2,4.8,4.7,4.8c1.6,0,3.1-0.8,3.9-2.1c0.5-0.8,0.8-1.7,0.8-2.7c0-2.2-1.4-4-3.4-4.6V91
			c0.1-0.6,0.6-2.2,3.5-4c0.2-0.1,0.4-0.2,0.6-0.4c0.3-0.2,0.6-0.4,0.9-0.6c0.6-0.4,1.1-0.8,1.6-1.2c0.2-0.2,0.5-0.5,0.7-0.7
			c1.2-1.4,2.5-3.4,2.5-5.8v-2.7h1V70h-5.5V75.6z"/>
		<g>
			<path class="st1" d="M138.4,49.3v60c0,2.1,0.6,4,1.7,5.7c1.4,2.2,3.7,3.7,6.3,4.2c0.7,0.1,1.3,0.2,2,0.2h12.2v80.3h17.1v-80.3
				H190c0.3,0,0.7,0,1-0.1c0.7-0.1,1.3-0.2,2-0.4c0.6-0.2,1.2-0.5,1.8-0.8c1.1-0.6,2.1-1.5,3-2.5c0.2-0.2,0.4-0.5,0.6-0.8
				c0.4-0.5,0.7-1.1,0.9-1.7c0.5-1.2,0.8-2.5,0.8-3.9v-60H138.4z M181.7,75.4h-1v2.7c0,2.4-1.3,4.4-2.5,5.8
				c-0.2,0.3-0.4,0.5-0.7,0.7c-0.5,0.5-1,0.9-1.6,1.2c-0.3,0.2-0.6,0.4-0.9,0.6c-0.2,0.1-0.4,0.2-0.6,0.4c-2.9,1.8-3.5,3.4-3.5,4
				v9.5c1.9,0.6,3.4,2.4,3.4,4.6c0,1-0.3,1.9-0.8,2.7c-0.9,1.3-2.3,2.1-3.9,2.1c-2.6,0-4.7-2.2-4.7-4.8c0-0.8,0.2-1.6,0.6-2.2
				c0.6-1.1,1.6-2,2.8-2.3v-4.3v-0.1c0-0.2-0.1-1.1-1.1-2.2c-0.6-0.7-1.6-1.5-3-2.4c-0.6-0.4-1.2-0.8-1.7-1.2
				c-0.5-0.4-1-0.9-1.5-1.3c-0.5-0.5-1-1.1-1.4-1.8c-0.3-0.5-0.5-0.9-0.7-1.5c-0.3-0.8-0.5-1.6-0.5-2.6v-2.7c-1-0.6-1.6-1.6-1.6-2.8
				c0-1.1,0.6-2.1,1.4-2.7c0.2-0.1,0.3-0.2,0.5-0.3c0.4-0.2,0.8-0.3,1.2-0.3c1.8,0,3.2,1.4,3.2,3.2c0,0.7-0.3,1.4-0.7,1.9
				c-0.2,0.3-0.5,0.6-0.9,0.8c0,0.2,0,0.4,0,0.6c0,0.6,0.1,1.3,0.1,1.8c0,0.4,0,0.7,0.1,1c0,0.3,0.1,0.5,0.1,0.7
				c0.4,1.5,1.4,2.9,2.9,3.9l3.4,2.4v0V66H165l2.3-4l2.3-4l2.4,4l2.4,4h-3.5v19.9l3.4-2.4c0.2-0.1,0.4-0.3,0.5-0.4
				c0.7-0.5,1.2-1.2,1.7-1.9c0.3-0.5,0.6-1.1,0.7-1.6c0.1-0.2,0.1-0.4,0.1-0.7c0-0.1,0-0.3,0-0.5c0.1-0.9,0.1-2,0.1-3h-1.2v-5.6h5.5
				V75.4z"/>
			<path class="st1" d="M145.9,0.2v47.1h46.6V0.2H145.9z M164.2,29.7H154V19.4h10.2V29.7z M184.2,29.7H174V19.4h10.2V29.7z"/>
		</g>
		<path class="st17" d="M145.9,0.5v47.1h46.6V0.5H145.9z M164.2,30H154V19.7h10.2V30z M184.2,30H174V19.7h10.2V30z"/>
	</g>
</g>
</svg>
