<?xml version="1.0" encoding="utf-8"?>
<!-- Generator: Adobe Illustrator 22.0.1, SVG Export Plug-In . SVG Version: 6.00 Build 0)  -->
<svg version="1.1" id="Layer_1" xmlns="http://www.w3.org/2000/svg" xmlns:xlink="http://www.w3.org/1999/xlink" x="0px" y="0px"
	 viewBox="0 0 200 200" style="enable-background:new 0 0 200 200;" xml:space="preserve">
<style type="text/css">
	.st0{fill:#717171;}
	.st1{fill:#A5A5A5;}
	.st2{clip-path:url(#SVGID_2_);fill:#A5A5A5;}
	.st3{clip-path:url(#SVGID_4_);fill:#A5A5A5;}
	.st4{clip-path:url(#SVGID_6_);fill:#A5A5A5;}
	.st5{opacity:0.6;fill:#717171;}
	.st6{clip-path:url(#SVGID_8_);fill:#A5A5A5;}
	.st7{clip-path:url(#SVGID_10_);fill:#A5A5A5;}
	.st8{clip-path:url(#SVGID_12_);fill:#A5A5A5;}
	.st9{clip-path:url(#SVGID_14_);fill:#A5A5A5;}
	.st10{clip-path:url(#SVGID_16_);fill:#A5A5A5;}
</style>
<path d="M100.2,0C44.8,0,0,44.8,0,100.2c0,52.5,40.4,95.6,91.9,99.8c-0.3-0.7-0.4-1.4-0.4-2.2v-29.9H85c-10.5,0-19.6-7.1-22.1-17.2
	L38.1,52.9c-0.5-1.9-0.2-4,0.9-5.7c1.1-1.7,2.8-2.9,4.7-3.3l3.7-0.7c3.8-0.8,7.6,1.6,8.5,5.4l23.9,93.8c1.2,4.5,5.2,7.7,9.9,7.7
	h48.1c3.9,0,7.1,3.2,7.1,7.1v3.6c0,3.9-3.2,7.1-7.1,7.1h-28.6v29.9c0,0.7-0.1,1.5-0.4,2.1c51.2-4.4,91.4-47.4,91.4-99.8
	C200.3,44.8,155.5,0,100.2,0z M138.4,120.5c-5,4.8-11.1,7.2-18.5,7.2c-7,0-12.8-2-17.4-6c-4.6-4-7.3-9.3-8-15.8l14.4-1.7
	c0.5,3.7,1.7,6.5,3.7,8.4c2,1.9,4.4,2.9,7.3,2.9c3.1,0,5.6-1.2,7.7-3.5c2.1-2.3,3.1-5.5,3.1-9.4c0-3.7-1-6.7-3-8.9
	c-2-2.2-4.5-3.3-7.3-3.3c-1.9,0-4.2,0.4-6.8,1.1l1.6-12.1c4,0.1,7.1-0.8,9.2-2.6c2.1-1.8,3.2-4.3,3.2-7.4c0-2.6-0.8-4.7-2.3-6.2
	c-1.5-1.5-3.6-2.3-6.2-2.3c-2.5,0-4.7,0.9-6.5,2.6c-1.8,1.8-2.9,4.3-3.3,7.7l-13.7-2.3c1-4.7,2.4-8.4,4.3-11.2c1.9-2.8,4.6-5,8-6.6
	c3.4-1.6,7.3-2.4,11.5-2.4c7.3,0,13.1,2.3,17.5,7c3.6,3.8,5.4,8.1,5.4,12.9c0,6.8-3.7,12.2-11.1,16.3c4.4,0.9,8,3.1,10.6,6.4
	c2.7,3.3,4,7.3,4,12C145.9,110,143.4,115.8,138.4,120.5z"/>
</svg>
