<?xml version="1.0" encoding="utf-8"?>
<!-- Generator: Adobe Illustrator 22.0.1, SVG Export Plug-In . SVG Version: 6.00 Build 0)  -->
<svg version="1.1" id="Layer_1" xmlns="http://www.w3.org/2000/svg" xmlns:xlink="http://www.w3.org/1999/xlink" x="0px" y="0px"
	 viewBox="0 0 200 200" style="enable-background:new 0 0 200 200;" xml:space="preserve">
<style type="text/css">
	.st0{fill:#717171;}
	.st1{fill:#A5A5A5;}
	.st2{clip-path:url(#SVGID_2_);fill:#A5A5A5;}
	.st3{clip-path:url(#SVGID_4_);fill:#A5A5A5;}
	.st4{clip-path:url(#SVGID_6_);fill:#A5A5A5;}
	.st5{opacity:0.6;fill:#717171;}
	.st6{clip-path:url(#SVGID_8_);fill:#A5A5A5;}
	.st7{clip-path:url(#SVGID_10_);fill:#A5A5A5;}
	.st8{clip-path:url(#SVGID_12_);fill:#A5A5A5;}
	.st9{clip-path:url(#SVGID_14_);fill:#A5A5A5;}
	.st10{clip-path:url(#SVGID_16_);fill:#A5A5A5;}
	.st11{clip-path:url(#SVGID_18_);fill:#A5A5A5;}
	.st12{clip-path:url(#SVGID_20_);fill:#A5A5A5;}
	.st13{clip-path:url(#SVGID_22_);fill:#A5A5A5;}
	.st14{clip-path:url(#SVGID_24_);fill:#A5A5A5;}
	.st15{fill:none;}
	.st16{clip-path:url(#SVGID_26_);fill:#A5A5A5;}
	.st17{clip-path:url(#SVGID_28_);fill:#A5A5A5;}
	.st18{clip-path:url(#SVGID_30_);fill:#A5A5A5;}
	.st19{clip-path:url(#SVGID_32_);fill:#A5A5A5;}
	.st20{clip-path:url(#SVGID_34_);fill:#A5A5A5;}
	.st21{clip-path:url(#SVGID_36_);fill:#A5A5A5;}
</style>
<path d="M100.2,0C44.8,0,0,44.8,0,100.2c0,52.5,40.4,95.6,91.9,99.8c-0.3-0.7-0.4-1.4-0.4-2.2v-29.9H85c-10.5,0-19.6-7.1-22.1-17.2
	L38.1,52.9c-0.5-1.9-0.2-4,0.9-5.7c1.1-1.7,2.8-2.9,4.7-3.3l3.7-0.7c3.8-0.8,7.6,1.6,8.5,5.4l23.9,93.8c1.2,4.5,5.2,7.7,9.9,7.7
	h48.1c3.9,0,7.1,3.2,7.1,7.1v3.6c0,3.9-3.2,7.1-7.1,7.1h-28.6v29.9c0,0.7-0.1,1.5-0.4,2.1c51.2-4.4,91.4-47.4,91.4-99.8
	C200.3,44.8,155.5,0,100.2,0z"/>
</svg>
