<?xml version="1.0" encoding="utf-8"?>
<!-- Generator: Adobe Illustrator 22.0.1, SVG Export Plug-In . SVG Version: 6.00 Build 0)  -->
<svg version="1.1" id="Layer_1" xmlns="http://www.w3.org/2000/svg" xmlns:xlink="http://www.w3.org/1999/xlink" x="0px" y="0px"
	 viewBox="0 0 251.4 245.7" style="enable-background:new 0 0 251.4 245.7;" xml:space="preserve">
<style type="text/css">
	.st0{fill:#4D4D4D;}
	.st1{fill:#FFFFFF;}
	.st2{font-family:'Arial-BoldMT';}
	.st3{font-size:126.2988px;}
</style>
<g>
	<circle class="st0" cx="125.7" cy="120.9" r="117.1"/>
	<path class="st1" d="M169.8,179.3h-56.2c-5.5,0-10.2-3.7-11.6-9L74,60.6c-1.1-4.4-5.5-7.2-10-6.3l-4.3,0.9
		c-2.3,0.5-4.3,1.9-5.6,3.8c-1.2,2-1.6,4.4-1.1,6.7L82,180c3,11.8,13.6,20.1,25.9,20.1h7.6v35c0,3.7,3,6.8,6.8,6.8h7.3
		c3.7,0,6.8-3,6.8-6.8v-35h33.4c4.6,0,8.3-3.7,8.3-8.3v-4.2C178.1,183,174.4,179.3,169.8,179.3z"/>
	<text transform="matrix(1 0 0 1 114.2608 151.5774)" class="st1 st2 st3">3</text>
</g>
</svg>
