<?xml version="1.0" encoding="utf-8"?>
<!-- Generator: Adobe Illustrator 22.0.1, SVG Export Plug-In . SVG Version: 6.00 Build 0)  -->
<svg version="1.1" id="Layer_1" xmlns="http://www.w3.org/2000/svg" xmlns:xlink="http://www.w3.org/1999/xlink" x="0px" y="0px"
	 viewBox="0 0 200 200" style="enable-background:new 0 0 200 200;" xml:space="preserve">
<style type="text/css">
	.st0{fill:#717171;}
	.st1{fill:#A5A5A5;}
	.st2{clip-path:url(#SVGID_2_);fill:#A5A5A5;}
	.st3{clip-path:url(#SVGID_4_);fill:#A5A5A5;}
	.st4{clip-path:url(#SVGID_6_);fill:#A5A5A5;}
	.st5{opacity:0.6;fill:#717171;}
	.st6{clip-path:url(#SVGID_8_);fill:#A5A5A5;}
	.st7{clip-path:url(#SVGID_10_);fill:#A5A5A5;}
	.st8{clip-path:url(#SVGID_12_);fill:#A5A5A5;}
	.st9{clip-path:url(#SVGID_14_);fill:#A5A5A5;}
	.st10{clip-path:url(#SVGID_16_);fill:#A5A5A5;}
</style>
<g>
	<path d="M121.1,158.4c0,11.5-9.3,20.8-20.8,20.8c-11.5,0-20.8-9.3-20.8-20.8c0-11.5,9.3-20.8,20.8-20.8
		C111.8,137.6,121.1,146.9,121.1,158.4L121.1,158.4z M121.1,158.4"/>
	<path d="M159.7,103.3c-7.7-7.7-16.7-13.8-26.7-18c-10.4-4.4-21.4-6.6-32.7-6.6c-11.6,0-22.8,2.3-33.4,6.9
		c-10.2,4.4-19.3,10.7-27,18.7l25.6,24.8c9.2-9.5,21.5-14.8,34.8-14.8c12.9,0,25.1,5,34.2,14.2L159.7,103.3z M159.7,103.3"/>
	<path d="M100.3,20.7c-19.2,0-37.7,3.7-55.3,11.2C28.1,39.1,12.9,49.3-0.1,62.3l25.2,25.2c9.8-9.8,21.1-17.4,33.8-22.8
		c13.1-5.5,27-8.3,41.4-8.3c28.2,0,54.8,10.9,74.8,30.8l25.1-25.3c-13-12.9-28.1-23-44.9-30.1C137.8,24.5,119.3,20.7,100.3,20.7
		L100.3,20.7z M100.3,20.7"/>
</g>
</svg>
