<?xml version="1.0" encoding="utf-8"?>
<!-- Generator: Adobe Illustrator 22.0.1, SVG Export Plug-In . SVG Version: 6.00 Build 0)  -->
<svg version="1.1" id="Layer_1" xmlns="http://www.w3.org/2000/svg" xmlns:xlink="http://www.w3.org/1999/xlink" x="0px" y="0px"
	 viewBox="0 0 300 200" style="enable-background:new 0 0 300 200;" xml:space="preserve">
<style type="text/css">
	.st0{fill:#717171;}
	.st1{fill:#A5A5A5;}
	.st2{clip-path:url(#SVGID_2_);fill:#A5A5A5;}
	.st3{clip-path:url(#SVGID_4_);fill:#A5A5A5;}
	.st4{clip-path:url(#SVGID_6_);fill:#A5A5A5;}
	.st5{opacity:0.6;fill:#717171;}
	.st6{clip-path:url(#SVGID_8_);fill:#A5A5A5;}
	.st7{clip-path:url(#SVGID_10_);fill:#A5A5A5;}
	.st8{clip-path:url(#SVGID_12_);fill:#A5A5A5;}
	.st9{clip-path:url(#SVGID_14_);fill:#A5A5A5;}
	.st10{clip-path:url(#SVGID_16_);fill:#A5A5A5;}
</style>
<g>
	<g>
		<path d="M130.3,161.1c0,11.5-9.3,20.8-20.8,20.8c-11.5,0-20.8-9.3-20.8-20.8c0-11.5,9.3-20.8,20.8-20.8
			C121,140.3,130.3,149.6,130.3,161.1L130.3,161.1z M130.3,161.1"/>
		<path d="M168.9,106c-7.7-7.7-16.7-13.8-26.7-18c-10.4-4.4-21.4-6.6-32.7-6.6c-11.6,0-22.8,2.3-33.4,6.9C65.9,92.7,56.8,99,49,107
			l25.6,24.8c9.2-9.5,21.5-14.8,34.8-14.8c12.9,0,25.1,5,34.2,14.2L168.9,106z M168.9,106"/>
		<path d="M109.5,23.4c-19.2,0-37.7,3.7-55.3,11.2C37.3,41.8,22.1,52,9.1,65l25.2,25.2c9.8-9.8,21.1-17.4,33.8-22.8
			c13.1-5.5,27-8.3,41.4-8.3c28.2,0,54.8,10.9,74.8,30.8l25.1-25.3c-13-12.9-28.1-23-44.9-30.1C147,27.2,128.5,23.4,109.5,23.4
			L109.5,23.4z M109.5,23.4"/>
	</g>
	<g>
		<path d="M256.2,76.6c-5.6-1.2-10.4-2.7-14.3-4.5c-3.9-1.8-6.9-4.4-9.1-7.6c-2.2-3.2-3.3-7.2-3.3-11.8c0-4.3,0.8-8,2.4-11.2
			c1.6-3.2,3.7-5.8,6.1-7.7c2.4-2,5.1-3.5,8-4.5c2.9-1,6.3-1.7,10.2-1.9V18h6.1v9.2c5.8,0.4,10.7,1.8,14.7,4c4,2.3,7,5.4,9,9.4
			c1.4,2.9,2.2,6.5,2.4,10.6h-10.9c-0.8-4.5-2.3-7.9-4.6-10.2c-2.3-2.3-5.8-3.8-10.6-4.6v30.1c5.6,1.4,9.7,2.6,12.2,3.6
			c4,1.5,7.1,3.4,9.3,5.5c2.3,2.1,4,4.6,5.2,7.5c1.2,2.9,1.8,6,1.8,9.5c0,4.6-1.1,9-3.2,13.1c-2.1,4.1-5.2,7.3-9.4,9.6
			c-4.1,2.3-9.5,3.7-16,4.2v10.2h-6.1v-10.2c-6.9-0.5-12.6-2.1-16.9-4.6c-4.3-2.6-7.5-6.2-9.5-10.9c-1.5-3.5-2.2-8.2-2.2-14h11.5
			c0.1,4.4,0.7,8,1.9,10.6c1.1,2.6,2.9,4.7,5.2,6.3c2.4,1.6,5.7,2.7,9.9,3.4V76.6z M256.2,36.6c-4.7,0.1-8.4,1.5-11.1,4.3
			c-2.7,2.7-4.1,6.1-4.1,10.3c0,3.5,1.2,6.5,3.6,9.1c2.4,2.5,6.3,4.3,11.5,5.2V36.6z M262.4,110.3c2.5-0.1,4.6-0.4,6.4-0.9
			c1.8-0.5,3.4-1.4,5-2.6c1.5-1.2,2.9-2.9,4-5c1.1-2.1,1.6-4.6,1.6-7.5c0-3.9-1.2-7.2-3.5-9.8c-2.4-2.6-6.8-4.7-13.4-6.3V110.3z"/>
	</g>
</g>
</svg>
