<?xml version="1.0" encoding="utf-8"?>
<!-- Generator: Adobe Illustrator 22.1.0, SVG Export Plug-In . SVG Version: 6.00 Build 0)  -->
<svg version="1.1" id="Layer_1" xmlns="http://www.w3.org/2000/svg" xmlns:xlink="http://www.w3.org/1999/xlink" x="0px" y="0px"
	 viewBox="0 0 512 512" style="enable-background:new 0 0 512 512;" xml:space="preserve">
<style type="text/css">
	.st0{fill:#DC171D;}
	.st1{fill:#012A87;}
	.st2{fill:#FFFFFF;}
</style>
<rect x="170.9" y="0.1" class="st0" width="170.2" height="511.8"/>
<rect x="0" y="199.3" class="st1" width="512" height="113.5"/>
<g>
	<polygon class="st2" points="227.1,280.3 230.7,290.5 241.3,290.8 233,297.5 236.1,309 227.1,301.9 218.5,308.5 221.6,298.3 
		212.9,290.7 222.1,290.8 	"/>
	<polygon class="st2" points="179.3,241.7 182.8,251.8 193.4,252.2 185.1,258.9 188.2,270.3 179.3,263.3 170.6,269.9 173.8,259.6 
		165,252.1 174.2,252.2 	"/>
	<polygon class="st2" points="227.3,203 230.9,213.2 241.5,213.5 233.1,220.2 236.3,231.7 227.3,224.7 218.6,231.3 221.8,221 
		213,213.4 222.2,213.5 	"/>
	<polygon class="st2" points="282.7,203.2 286.2,213.3 296.8,213.7 288.5,220.4 291.6,231.8 282.7,224.8 274,231.4 277.1,221.1 
		268.4,213.6 277.6,213.7 	"/>
	<polygon class="st2" points="332.8,241.7 336.4,251.8 347,252.2 338.7,258.9 341.8,270.3 332.8,263.3 324.2,269.9 327.3,259.6 
		318.6,252.1 327.8,252.2 	"/>
	<polygon class="st2" points="284.7,280.2 288.2,290.3 298.8,290.7 290.5,297.4 293.7,308.8 284.7,301.8 276,308.4 279.2,298.1 
		270.4,290.6 279.6,290.7 	"/>
</g>
</svg>
