<?xml version="1.0" encoding="utf-8"?>
<!-- Generator: Adobe Illustrator 22.1.0, SVG Export Plug-In . SVG Version: 6.00 Build 0)  -->
<svg version="1.1" id="Layer_1" xmlns="http://www.w3.org/2000/svg" xmlns:xlink="http://www.w3.org/1999/xlink" x="0px" y="0px"
	 viewBox="0 0 512 512" style="enable-background:new 0 0 512 512;" xml:space="preserve">
<style type="text/css">
	.st0{fill:#FFFFFF;}
	.st1{fill:#2F4712;}
	.st2{fill:#FFAD2D;}
</style>
<g>
	<rect x="0" y="85.3" class="st0" width="512" height="341.3"/>
	<path class="st1" d="M247.4,368.8c-0.1-0.1-0.1-0.1-0.2-0.1l-0.1-0.1c-0.2-0.2-0.5-0.5-0.9-0.9c-0.8-0.9-1.8-2.1-2.7-3.2
		c-1.8-2.2-3.2-4.1-3.5-4.5l-0.5-0.6l-0.5,0.6c-0.3,0.4-1.7,2.3-3.5,4.5c-0.9,1.1-1.9,2.4-2.7,3.2c-0.4,0.5-0.7,0.8-0.9,0.9
		l-0.1,0.1c-0.1,0.1-0.1,0.1-0.2,0.1l-0.1,0l-1.1-0.1l0.6-0.4l0.5,0.3c0-0.1-0.1-0.2-0.1-0.3c-0.1-0.2-0.3-0.4-0.5-0.6
		c-0.5-0.5-1.1-1.1-1.6-1.6c-1.2-1.1-2.3-2-2.3-2l0,0l8.2-6l-3.2-1.5l1.7-1.9l5.9,2.5l5.9-2.5l1.7,1.9L244,358l8.2,6l0,0
		c0,0-1.2,1-2.4,2c-0.5,0.5-1.2,1.1-1.6,1.6c-0.2,0.2-0.4,0.5-0.5,0.6c-0.1,0.1-0.1,0.2-0.1,0.3l0.5-0.3l0.5,0.4L247.4,368.8
		L247.4,368.8L247.4,368.8z M262.1,359.7c-6.2,0-10.4-2.8-10.6-2.9c5.4-2.6,10.1-3.9,13.9-3.9h0.1c3.2,0,5.2,1,6.3,1.8
		c1.1,0.8,1.6,1.7,1.6,1.8l0,0C269.8,358.6,266,359.7,262.1,359.7L262.1,359.7z M217,359.7c-3.9,0-7.7-1.1-11.3-3.2l0,0l0,0
		c0,0,0.5-0.9,1.6-1.8c1.1-0.8,3.1-1.8,6.3-1.8h0.1c3.8,0,8.5,1.3,13.9,3.9C227.4,356.9,223.2,359.7,217,359.7L217,359.7L217,359.7z
		 M278.8,356c-0.6,0-1.2-0.3-1.3-0.8c-0.2-0.5-0.1-1,0.2-1.7c0.5-1.2,1.5-2.4,2.8-2.5c0,0,0.1,0,0.1,0l0.2,0c0.3,0,0.6,0.1,0.9,0.2
		c0,0,0.1,1.2-0.2,2.4c-0.2,0.7-0.4,1.2-0.8,1.6C280.2,355.7,279.5,356,278.8,356L278.8,356z M200.3,356c-0.7,0-1.4-0.3-1.8-0.8
		c-0.4-0.4-0.6-0.9-0.8-1.6c-0.3-1.1-0.2-2.3-0.2-2.4c0.3-0.1,0.6-0.2,0.9-0.2l0.1,0c1.4,0,2.6,1.2,3,2.5c0.3,0.7,0.3,1.3,0.2,1.7
		C201.5,355.6,200.9,356,200.3,356L200.3,356z M249.4,352.6c6.5-12.2,13.2-13.6,15.8-13.6c0.9,0,1.5,0.1,1.6,0.2l0,0
		c0,0,0.4,2.7-1.5,5.6C263.5,347.6,259.3,351.1,249.4,352.6L249.4,352.6L249.4,352.6z M229.7,352.6c-9.9-1.4-14.1-5-15.8-7.7
		c-1.9-2.9-1.5-5.6-1.5-5.7l0,0l0,0c0,0,0.6-0.2,1.5-0.2C216.5,339,223.2,340.3,229.7,352.6L229.7,352.6L229.7,352.6L229.7,352.6z
		 M269.7,350.6c-2,0-4.2-0.2-6.6-0.5l0,0l0,0c5.2-5.1,10.2-6.1,13.4-6.1c0.3,0,0.5,0,0.7,0c2.6,0.1,4.3,0.9,4.4,0.9
		c0,0.1-0.1,0.6-0.3,1.1c-0.3,0.6-0.9,1.5-2.1,2.3C277.1,349.9,273.9,350.6,269.7,350.6L269.7,350.6L269.7,350.6z M209.5,350.6
		c-4.2,0-7.4-0.7-9.5-2.2c-1.2-0.8-1.8-1.7-2.1-2.3c-0.3-0.6-0.3-1.1-0.3-1.1c0.1,0,1.8-0.8,4.4-0.9c0.2,0,0.4,0,0.7,0
		c3.3,0,8.2,1.1,13.5,6.1l0,0h0C213.6,350.4,211.4,350.6,209.5,350.6L209.5,350.6z M289.7,349.8c-2.4,0-4.1-0.4-5.1-1.2
		c-0.5-0.3-0.7-0.8-0.6-1.2c0.1-0.5,0.5-1,1.2-1.6c2-1.5,5-2.3,8.9-2.4c0.3,0,0.5,0,0.8,0c0.2,0,0.4,0,0.6,0
		c4.7,0.1,8.8,1.2,8.8,1.2l0,0l0,0c-3.8,3.8-9.9,5.2-14.4,5.2L289.7,349.8L289.7,349.8z M189,349.8c-4.5,0-10.6-1.4-14.4-5.2l0,0
		l0,0c0,0,4.2-1.1,8.8-1.2c0.3,0,0.6,0,0.8,0c4.2,0,7.4,0.8,9.5,2.4c0.7,0.6,1.2,1.1,1.2,1.6c0.1,0.4-0.1,0.9-0.6,1.2
		c-1,0.7-2.7,1.1-5.1,1.1L189,349.8L189,349.8z M304.5,342.4c-0.5,0-0.9-0.3-1-0.7c-0.1-0.4-0.1-0.9,0.1-1.5c0.2-0.6,0.5-1.1,1-1.5
		c0.3-0.3,0.8-0.7,1.4-0.7c0.3,0,0.5,0.1,0.7,0.2c0,0.1,0.1,1.1-0.2,2.1c-0.1,0.6-0.3,1.1-0.6,1.4
		C305.6,342.2,305,342.4,304.5,342.4L304.5,342.4z M174.6,342.4c-0.5,0-1.1-0.2-1.4-0.7c-0.3-0.3-0.5-0.8-0.6-1.4
		c-0.2-1.1-0.2-2.1-0.2-2.1v0c0.2-0.1,0.4-0.2,0.7-0.2c0.7,0,1.2,0.4,1.5,0.7c0.4,0.4,0.8,0.9,1,1.5c0.2,0.6,0.2,1.1,0.1,1.5
		C175.5,342.1,175.1,342.4,174.6,342.4L174.6,342.4z M271.2,341.7c-0.6,0-1.2-0.3-1.3-0.8c-0.2-0.5-0.1-1,0.2-1.7
		c0.5-1.1,1.5-2.4,2.8-2.5c0,0,0.1,0,0.1,0l0.2,0c0.3,0,0.6,0.1,0.9,0.2c0,0,0.1,1.2-0.2,2.4c-0.2,0.7-0.4,1.2-0.8,1.6
		C272.6,341.4,271.9,341.7,271.2,341.7L271.2,341.7z M207.9,341.7c-0.7,0-1.4-0.3-1.8-0.8c-0.4-0.4-0.6-0.9-0.8-1.6
		c-0.3-1.1-0.2-2.3-0.2-2.4c0.3-0.1,0.6-0.2,0.9-0.2h0.1c1.4,0,2.6,1.2,3,2.5c0.3,0.7,0.3,1.3,0.2,1.7
		C209.1,341.3,208.5,341.7,207.9,341.7L207.9,341.7z M191.7,341c-9-0.3-13.6-2.9-15.9-4.9c-1.3-1.2-2-2.3-2.4-3.1
		c-0.4-0.7-0.5-1.3-0.5-1.4l0,0c0,0,0.8-0.3,2.2-0.3l0.2,0C178.3,331.2,184.4,332.5,191.7,341L191.7,341L191.7,341z M287.4,341
		c7-8.2,13-9.6,16-9.8c0.1,0,0.2,0,0.3,0c0.1,0,0.2,0,0.4,0c1.3,0,2.2,0.3,2.2,0.3v0c0,0-0.1,0.6-0.5,1.4c-0.4,0.8-1.1,1.9-2.4,3.1
		C301,338.1,296.4,340.7,287.4,341L287.4,341L287.4,341z M201.4,340.1c-7.2-1.1-11.3-4.2-13.4-6.6c-2.3-2.5-2.9-4.9-3-5
		c0,0,0.9-0.2,2.2-0.3c0.1,0,0.2,0,0.3,0c0.1,0,0.2,0,0.3,0C191.5,328.3,198,330,201.4,340.1L201.4,340.1L201.4,340.1z M277.7,340.1
		c3.4-10.1,9.9-11.8,13.6-11.8c0.1,0,0.2,0,0.3,0c0.1,0,0.2,0,0.3,0c1.3,0,2.2,0.3,2.2,0.3l0,0c0,0-0.7,2.4-3,5
		C289,335.9,284.9,339,277.7,340.1L277.7,340.1z M314.7,336.6c-4,0-6.9-0.8-6.9-0.8l0,0l0,0c0,0,3.1-4.6,9.1-5.8
		c1.6-0.3,3.2-0.5,4.9-0.5c0.1,0,0.3,0,0.4,0c3.4,0.1,5.9,0.8,6,0.8l0,0c0,0,0,0.3,0,0.6c0,0.3-0.2,0.9-0.6,1.4
		c-0.7,1-2.3,2.5-6.1,3.4C319.3,336.4,317,336.6,314.7,336.6L314.7,336.6z M164.4,336.6c-2.4,0-4.6-0.3-6.8-0.8
		c-3.8-0.9-5.4-2.4-6.1-3.4c-0.4-0.6-0.5-1.1-0.6-1.4c0-0.3,0-0.6,0-0.6l0,0c0,0,2.5-0.7,6-0.8c0.1,0,0.3,0,0.4,0
		c1.7,0,3.3,0.2,4.9,0.5c6,1.2,9.1,5.7,9.1,5.8l0,0l0,0C171.3,335.8,168.4,336.6,164.4,336.6L164.4,336.6z M298,330.6
		c-0.6,0-1.1-0.3-1.3-0.8c-0.2-0.5-0.1-1,0.1-1.7c0.5-1.1,1.5-2.4,2.8-2.5c0,0,0.1,0,0.1,0l0.2,0c0.3,0,0.6,0.1,0.9,0.2
		c0,0,0.1,1.2-0.2,2.4c-0.2,0.7-0.4,1.3-0.8,1.7C299.3,330.3,298.7,330.6,298,330.6L298,330.6z M181.2,330.6c-0.7,0-1.4-0.3-1.8-0.7
		c-0.4-0.4-0.6-0.9-0.8-1.7c-0.3-1.1-0.2-2.3-0.2-2.4c0.3-0.1,0.6-0.2,0.9-0.2l0.1,0c1.4,0,2.6,1.2,3,2.5c0.3,0.7,0.3,1.3,0.1,1.7
		C182.3,330.2,181.8,330.6,181.2,330.6L181.2,330.6z M168.6,328.8c-0.1,0-3.4-0.9-6.8-3c-3.2-1.9-7-5.4-7.5-10.7v0l0,0
		c0,0,0.3-0.1,0.7-0.1c0.1,0,0.1,0,0.2,0c0.9,0,2.9,0.3,5.2,2C163.4,319.4,166.1,323.3,168.6,328.8L168.6,328.8z M310.5,328.8
		c2.4-5.5,5.2-9.5,8.2-11.7c2.1-1.6,3.9-2,5-2c0.1,0,0.1,0,0.2,0c0.1,0,0.1,0,0.2,0c0.4,0,0.7,0.1,0.7,0.1v0
		c-0.5,5.3-4.3,8.8-7.5,10.7C313.9,327.9,310.6,328.8,310.5,328.8L310.5,328.8z M176.8,328.5c0,0-2.4-1-5.4-3.5
		c-2.8-2.3-6.7-6.5-9.5-13.3c0,0,0.6-0.3,1.6-0.4c0.1,0,0.1,0,0.2,0c0.1,0,0.2,0,0.3,0c1.4,0,3.5,0.6,5.8,3.1
		C172.4,317.4,174.8,322.1,176.8,328.5L176.8,328.5L176.8,328.5L176.8,328.5z M302.3,328.5c2-6.4,4.4-11.1,7.1-14
		c2.3-2.5,4.4-3.1,5.8-3.1c0.1,0,0.2,0,0.3,0c0.1,0,0.1,0,0.2,0c1,0.1,1.6,0.4,1.6,0.4c-2.8,6.8-6.7,10.9-9.5,13.3
		C304.7,327.6,302.3,328.5,302.3,328.5L302.3,328.5L302.3,328.5L302.3,328.5z M323.6,327.9c-1,0-1.7-0.2-2-0.7
		c-0.4-0.6,0.1-1.3,0.2-1.5c0.7-1.1,2.4-2.2,4.6-2.2h0.1c0.5,0,0.9,0.1,1.4,0.2v0c0,0,0.1,1.1-0.3,2.1
		C327.3,326.4,326.3,327.9,323.6,327.9L323.6,327.9z M155.5,327.9c-2.7,0-3.7-1.5-4-2.1c-0.5-1.1-0.3-2.1-0.3-2.1l0,0
		c0.4-0.1,0.9-0.2,1.4-0.2h0.1c2.2,0,3.9,1.1,4.6,2.2c0.1,0.2,0.6,1,0.2,1.5C157.2,327.7,156.6,327.9,155.5,327.9L155.5,327.9z
		 M329.7,320.2c-1.6,0-2.7-0.1-2.7-0.1l0,0c0,0,0.1-2,1.8-3.9c1.7-1.8,5.2-4,12.8-4.2l0,0l0,0c0,0-0.2,1.7-1,3.5
		c-0.7,1.7-2.1,3.7-4.6,4.2C333.5,320.1,331.2,320.2,329.7,320.2L329.7,320.2z M149.4,320.2c-1.5,0-3.9-0.1-6.3-0.5
		c-2.4-0.4-3.8-2.5-4.6-4.2c-0.8-1.8-1-3.5-1-3.6h0c7.6,0.2,11.1,2.4,12.8,4.2c1.7,1.9,1.8,3.8,1.8,3.9h0
		C152.1,320.1,151.1,320.2,149.4,320.2L149.4,320.2z M321.8,312.4c0,0-0.4-4.3-0.4-8.6c0-4.3,4.5-6,4.7-6l0,0c0,0.1-0.2,1.6-0.4,3.3
		c-0.2,1.3-0.4,3.8-0.4,4.9c0,1.2-0.8,2.6-1.7,4C322.7,311.3,321.8,312.4,321.8,312.4L321.8,312.4L321.8,312.4L321.8,312.4z
		 M157.3,312.4c0,0-0.9-1.1-1.7-2.4c-0.9-1.4-1.7-2.8-1.7-4c0-1.1-0.3-3.6-0.4-4.9c-0.2-1.7-0.4-3.2-0.4-3.3l0,0
		c0.2,0.1,4.7,1.8,4.7,6C157.7,308.1,157.3,312.3,157.3,312.4L157.3,312.4L157.3,312.4L157.3,312.4z M327.7,312
		c-0.1,0-0.2,0-0.2-0.1c-0.1,0-0.2-0.1-0.2-0.3c-0.1-0.3-0.1-0.6,0-1c0.1-0.8,0.5-1.8,1.2-3.3c1-2.3,2.3-4.6,2.5-4.9l0,0
		c0,0,1.8-2.3,4.1-4.5c1.3-1.3,2.6-2.4,3.7-3.1c1.4-1,2.5-1.4,3.5-1.5h0c0.3,0,0.6,0,0.8,0.1l0,0v0c0,0,0.2,1.8,0,4.1
		c-0.2,3-1,5.2-2.2,6.7c-1.4,1.6-3.7,3.3-6.6,5c-2.6,1.5-5,2.5-6.3,2.7C327.8,312,327.7,312,327.7,312L327.7,312z M151.4,312
		c0,0-0.1,0-0.1,0c-1.3-0.2-3.7-1.2-6.3-2.7c-2.9-1.7-5.2-3.4-6.6-5c-1.2-1.4-2-3.7-2.2-6.7c-0.2-2.1,0-3.9,0-4.1
		c0.2-0.1,0.5-0.1,0.8-0.1c1,0,2.1,0.5,3.5,1.5c1.1,0.8,2.4,1.8,3.7,3.1c2.3,2.3,4.1,4.5,4.1,4.5l0,0c0.2,0.3,1.4,2.6,2.4,4.9
		c0.6,1.4,1,2.5,1.2,3.3c0.1,0.5,0.1,0.7,0,1c0,0.1-0.1,0.2-0.2,0.3C151.6,312,151.5,312,151.4,312L151.4,312z"/>
	<path class="st2" d="M397.6,139.6l-1.3,0.5l-0.5,0.2l-1.6-0.1l-1.5,0.7l-2.7,1.8l-0.1,0.1l-1,0.3l-0.9-0.4l-0.5,0.2l-0.2,1.1
		l-0.5,0.8l-0.6,0.4l-2.2,0.2l-1.8,0.9l-2.4-0.6l-1.1,0.4l-2.3,2.1L375,149l-0.4,0l-1.6-0.1l-0.7,0.2l-1,1l-1.9,0.1l-0.6,0.4
		l-0.9,1.9l-1,1l-0.6,0.1l-0.6-0.2l-0.5,0.1l-0.2,1.2l-0.5,0.5l-1.3,0.4l-1,0.8l-0.9,0.5l-1.2,0H360l-1.2,0.7l-2.2,0.2l-0.9,0.9
		l-0.2,0.2l-0.4,0.3l-0.7,0.4l-0.2,0.1l-0.9-0.2l-1,0.4l-0.4-0.6l-0.7,0.4l-0.9,0l-1.1-0.5l-0.9-0.4l-0.6,0.1l-0.2,1.1l0,0.1
		l-0.7,0.9l-1.2,0.8l-0.2,0.2l-1.4,1.8l-2.7,2.8l-2.3,1.2l-2.4,0.7l-1.6,1.4l-4.3,2.1l-6.8,3.4l-1.4,0.4l-2,0.3l-3.6,1.3l-3.3,1
		l-0.6,0.2l-4.4,1.3l-2.1-0.2l-1.2,0.4l-3.2-0.4l-2.2,0l-1.4,0.3l-2.6,1.3l-4.5,2.1l-1.5,1.3l-2.3,1.2l-2.7,0.8l0-1.1l0,0l-0.9,0.3
		l-0.7,0.2l-2.2,0.3h-1.2l-0.8-0.2l-0.1,0l-4.4,1.5l-5,0.5l-2.5,0.8l-1.9,0l-1.2,0.3l-2.3,0.3l-0.8-0.2l-0.2,0l-6.7,0.3l-3.1-0.3
		l-1.5,0.3l-2.4-0.8l-3.6-0.4l-0.8-0.2l-1.9-0.6l-0.8,0.5l-0.6,0.1l-1.5-0.6l-0.5,0l-1.3,0.5l-0.7-0.2l-0.7-0.5l-1.6-0.2l-1-0.8
		l-5.3,0.7l-1.4-0.4l-4.9-1.4l-0.8,0l-1,0.7l-1.4,0.5l-1.3,0.3l-1.7,0.1l-2-0.5l-2.1-1l-0.8-0.2l-1.7,0.2l-0.5,0l-3.1-1.7l-4-2.5
		l-2.7-1.3l-1-0.2l-0.1,0.5l0.5,1.6l0.2,1.6L197,185l0,0.9l0.3,0.8l1,1.1l0.4,1.1l0.3,3l0,3l-0.5,4.9l-0.2,0.7l-0.6,2.5l-0.5,2.3
		l-2,6.2l-0.6,0.8l-1.4,0.9l-3.1,2.1l-2.3,1.3l-0.7,0.3l-1.8,0.1l-1.1-0.1l-1.4-0.8l-1.4-0.4l-1.8-1.3l-2-0.4l-2.2-1.3l-0.6-0.7
		l-1.2-0.1l-1.7-0.5v0l-0.6-0.2l-0.4-0.1l-2.2-0.1l-2-0.9l-1.1-0.3l-1.4-0.1l-1.5,0.7v0l-0.8,0.4l-1-0.4l-0.7,0l-0.8,1.2l-0.1,0.2
		l-0.5,0.3l-0.7,0l-0.5,0l-0.6,0.3l-0.8,0.3l-0.7,0.3l-0.3,0.1l0,0l-0.2,0l-0.4,0.1l-0.5,0.1l-0.8-0.5l-0.4-0.3l-0.7-0.1l-0.4,0.3
		l-0.1,1.3l-0.3,0.8l-1.1,1l-1.1,1l-0.8,1.2l-2.1,4.8l-1.3,1.9l-0.4,0.4l-1.4,1.5l-1.2,0.9l-2.8,2.2l-2.7,1l-2.3,0.5l-1.1,0
		l-2.1-0.3l-1.9-0.6l-2.1-1.3l-2.3-1.8l-3.3-3.3l-0.5-0.3l-0.1-0.1l-1-0.7l-0.8,0l-0.3,0.5l-0.2,0.7l-0.1,0.6l-0.4,3.6l0,0.2
		l0.2,1.5l2.5,3.5l0.8,1.9l0.1,0.2l0.5,0.9l0.4,0.7l0,0.1l0.9,2.6l-0.6,1.4l0.3,1l-0.8,0.6l-0.1,0.8l2.2,2.8l0.5,1.2l-0.5,1.7
		l-0.9,1l-0.2,0.3l0.1,0.7l1,0.9l1.8,1.6l0.9,2.3l0.7,0.6l0.8-0.2l0.5,0.4l0.7,0l0.7,0.7l0.4,0.2l0.7,0.4l0.6,0.7l0.1,2.2l1,2.8
		l0,1.5l0,0.2l0.6,1.1l0.2,0.9l-0.3,2.3l0.8,0.7l0.9-0.2l0.6,0.1l0.9,0.8l1.1,1.7l1.1-0.2l0.7,0.3l3.4,3l0.8,0.4l0,0l0.5,0.3
		l0.7,0.7l1.1-0.7l0.1,0l1.1-0.1l0.5,0.3l1,0.7l1.3,0l2.8,0.8l1.2,0.3l2.4,1.5l1,0.6l0.6,0.5l0.8,0.7l1.6,0.7l1.4,0.3l0.7,0.2
		l0.6,0.2l0,0l0,0l0,0l3,1.2l1.6,0.4l1.5,0.6l1.1,0.4l0.8,0l1.1-1l1.1-0.1l0.9,0.2l0.9-0.1l1.4-0.9l0.3-0.4l1-0.5l3.4-0.4l1,0.3
		l2.5-1.1l1.7,0.5l1.5-0.5l3.3,0.7l0.9,0.6l1,1.1l0.1,0l1.1,0l-0.5,0.8l1.4,1.5l1.3,2l0.1,0.3l0.9,2.8l0.7,1l0.5,1.4l0,0.9l-0.8,0.6
		l-0.1,0.3l0,0.1l0.2,0.4l0.3-0.2l0.6-0.3l0.7-0.1l1.2,0.1l0.8,0.1l1.2-0.6l0.8-0.4l1.3,0.6l1.4,0l0.6,0.3l1.7,0.8l0.9,0.1l0.3-0.2
		l0.2-0.5l-0.1-0.6l-0.7-0.8l-1.4-1.7l-0.6-0.9l-0.4-1.2l-0.1-1.6l-0.1-1.1l0.2-1.4l0.4-0.5l0.3-1.1h0l0.1-0.3l0.8-1.1l2.1-1.4
		l2.3-2l1.8-1.2l1.9-0.8l0-0.2l0.2,0.1l4.7-1.6l0.1,0l2.1-0.4l14.2,1l0.5-0.2l0,0l0.5-1.3l0.3-0.2l0.2-0.2l1.6-0.7l0.7-0.1l2,0.5
		l0.8,0.2l1.3-0.7l0.9,0l1.9-1.1l1.2,0l0.5-0.2l2.3-1.7l2.3-0.6l0.6-0.3l0.2-0.1l2.3-1.2l1.5-1.1l1.3-0.7l1.4-0.4l3.6-0.3l0.7-1.2
		l1.6-0.2l0.9-1.1l1.1-0.4l0.8-1.1l0.6-0.9l0.9-0.5l2.9-0.2l3.4,0.4l0.5-0.3l0.8-2.8l0.8-0.5l2.2-3.2l0-1.2l0-1l0.4-1.4l-0.2-2.5
		l0.3-2.5l1.4-3.2l1.2-1.3l1.9-1.3l1-0.4l1.4-0.2v0l0.2,0l0.4-0.1l4.8-0.1c0.1,0,1.7,0,1.7,0l1.6,0l4,0.7l0.3,0l1.4,0.4l1.6,1.2
		l1.7,1.6l0.3,0.3l1.1,0.5l0.3,0.1l0.9-0.1l1.3-0.7l1-0.8l1.3-0.7l0,0l0.7-1.1l0,0l0,0v0l0,0l0.3-0.4l2.5-1l3-0.2l0.3-0.2l0.2-0.1
		l0.8-0.9l0.7,0l1.8,0.6l1.3-0.2l1,0.4l0.8-0.1l1.5-0.2l1.6,1.1l0.9,0.1l3.2,1.9l0.2,0l0.1,0l0.2,0l0.4-0.1l0.6-0.2l0.1,0l0.1,0.1
		l0.4,0.5l0.5,0.1l0.6-0.8l-0.2-0.4l-0.1-0.1l-1.1-0.2l-1-1.8l1-1.1l-1.5-1.9l-0.3-0.3l-0.1-0.1l-0.5-0.8l-2.7-4.1l-3.5-2.8v0
		l-1.2-1l0,0l-0.4-0.3l-1.9-1.9l-1.3-1.8l-0.2-0.4l-0.3-0.6l-0.8-1.8l-1.4-1.1l-1.1-1.2l-0.1-0.1l-2.4-3.2l-0.4-0.5l-0.6-0.3l-1.2,0
		l-0.1-0.1l-0.1-0.1l0,0l0.6-0.6l0.6-0.2l0.3-0.6l-1.2-3.5l0-0.1l-0.1-1.1l1-5l0.1-0.6l1.7-3.4l1-0.8l1.1-2.2l1-1.4l0.9-0.9l0.2-0.1
		l1.7-1l1.4-0.2l1.3-0.2l2.3,0.7l2.2,0l0.4,0l1-0.1l1.7-0.5l0.8-0.5l0.4-0.6l0.8-2.8l0.3-0.9l0.5-1l3-3.5l2.3-2.1l5.1-3.8l2.5-1.5
		l1.3-0.8l11.4-5.1l3-3l1.5-1.6l2.7-1.8l3.2-1.3l2.8-2.2l0.6-0.8l0.8-2.4l0.6-0.2l0.6-1.2l0.2-0.3l2.3-1.6l0.3-0.1l8.8-4.4l1.3,0.2
		l0.7-1l2.5-0.4l0.5-0.1l0.6-0.3l0.5-0.9v-0.2l0.1-2.4l0.5-0.7l0.3-1.6l0.3-0.4l0.3-0.4l0.7-0.5L397.6,139.6L397.6,139.6z"/>
</g>
</svg>
