<?xml version="1.0" encoding="utf-8"?>
<!-- Generator: Adobe Illustrator 22.1.0, SVG Export Plug-In . SVG Version: 6.00 Build 0)  -->
<svg version="1.1" id="Layer_1" xmlns="http://www.w3.org/2000/svg" xmlns:xlink="http://www.w3.org/1999/xlink" x="0px" y="0px"
	 viewBox="0 0 512 512" style="enable-background:new 0 0 512 512;" xml:space="preserve">
<style type="text/css">
	.st0{fill:#002488;}
	.st1{fill:#FCDD09;}
	.st2{fill:#008000;}
</style>
<g>
	<g>
		<rect x="0" y="90.7" width="512" height="330.5"/>
		<rect x="0" y="90.7" class="st0" width="512" height="110.3"/>
	</g>
	<g>
		<g>
			<path class="st1" d="M75.6,149c5.9,0,10.9,7.4,12.5,16.7l4.5,0c-2.5-21.9-12.1-36.7-24.5-35.7c-13.2,2.3-10.2,15.2-8.3,19.3
				c2.6,5.9,12.3,10.5,15.8,11.4C73.8,159.1,70.5,151,75.6,149z"/>
			<path class="st1" d="M120.8,149c-5.9,0-10.9,7.4-12.5,16.7l-4.5,0c2.5-21.9,12.1-36.7,24.5-35.7c13.2,2.3,10.2,15.2,8.3,19.3
				c-2.6,5.9-12.3,10.5-15.8,11.4C122.6,159.1,125.9,151,120.8,149z"/>
			<path class="st1" d="M98.6,96.8c24.5,21.4,4.8,36.8,3,68.9h-6.7c-1.8-32.1-21.5-47.5,3-68.9C97.8,96.8,98.1,96.8,98.6,96.8z"/>
			<rect x="85.5" y="167.5" class="st1" width="25.4" height="1.9"/>
			<path class="st1" d="M98.1,198.4c2.7-0.1,5.1-8.2,3.4-17.6c3.8,1.8,11.1,1.9,14,1.4c-3.1-1.5-8.9-5.6-10.3-10.7l0.1,0l-14,0
				c-1.4,5.1-7.2,9.3-10.3,10.7c2.9,0.5,10.2,0.4,14-1.4c-1.7,9.5,0.8,17.5,3.4,17.6"/>
		</g>
		<g>
			<path class="st1" d="M233.4,149.3c5.9,0,10.9,7.4,12.5,16.7l4.5,0c-2.5-21.9-12.1-36.7-24.5-35.7c-13.2,2.3-10.2,15.2-8.3,19.3
				c2.6,5.9,12.3,10.5,15.8,11.4C231.6,159.4,228.3,151.3,233.4,149.3z"/>
			<path class="st1" d="M278.6,149.3c-5.9,0-10.9,7.4-12.5,16.7l-4.5,0c2.5-21.9,12.1-36.7,24.5-35.7c13.2,2.3,10.2,15.2,8.3,19.3
				c-2.6,5.9-12.3,10.5-15.8,11.4C280.4,159.4,283.7,151.3,278.6,149.3z"/>
			<path class="st1" d="M256.4,97.1c24.5,21.4,4.8,36.8,3,68.9h-6.7c-1.8-32.1-21.5-47.5,3-68.9C255.6,97.1,255.9,97.1,256.4,97.1z"
				/>
			<rect x="243.3" y="167.8" class="st1" width="25.4" height="1.9"/>
			<path class="st1" d="M255.9,198.6c2.7-0.1,5.1-8.2,3.4-17.6c3.8,1.8,11.1,1.9,14,1.4c-3.1-1.5-8.9-5.6-10.3-10.7l0.1,0l-14,0
				c-1.4,5.1-7.2,9.3-10.3,10.7c2.9,0.5,10.2,0.4,14-1.4c-1.7,9.5,0.8,17.5,3.4,17.6"/>
		</g>
		<g>
			<path class="st1" d="M391.3,149c5.9,0,10.9,7.4,12.5,16.7l4.5,0c-2.5-21.9-12.1-36.7-24.5-35.7c-13.2,2.3-10.2,15.2-8.3,19.3
				c2.6,5.9,12.3,10.5,15.8,11.4C389.4,159.1,386.2,151,391.3,149z"/>
			<path class="st1" d="M436.4,149c-5.9,0-10.9,7.4-12.5,16.7l-4.5,0c2.5-21.9,12.1-36.7,24.5-35.7c13.2,2.3,10.2,15.2,8.3,19.3
				c-2.6,5.9-12.3,10.5-15.8,11.4C438.3,159.1,441.5,151,436.4,149z"/>
			<path class="st1" d="M414.2,96.8c24.5,21.4,4.8,36.8,3,68.9h-6.7c-1.8-32.1-21.5-47.5,3-68.9C413.4,96.8,413.8,96.8,414.2,96.8z"
				/>
			<rect x="401.2" y="167.5" class="st1" width="25.4" height="1.9"/>
			<path class="st1" d="M413.8,198.4c2.7-0.1,5.1-8.2,3.4-17.6c3.8,1.8,11.1,1.9,14,1.4c-3.1-1.5-8.9-5.6-10.3-10.7l0.1,0l-14,0
				c-1.4,5.1-7.2,9.3-10.3,10.7c2.9,0.5,10.2,0.4,14-1.4c-1.7,9.5,0.8,17.5,3.4,17.6"/>
		</g>
	</g>
	<g>
		<g>
			<polygon class="st2" points="334.1,332.9 334.9,331.6 435.3,353.4 433.8,357.3 			"/>
			<polygon class="st2" points="330.3,337.2 331.2,335.9 431,360.3 429.4,364.3 			"/>
			<polygon class="st2" points="424,372 425.8,368.2 329.3,338.3 325.7,339.3 			"/>
			<polygon class="st2" points="418.9,379.9 420.8,376.2 327.9,344 324.4,344.9 			"/>
			<polygon class="st2" points="414.2,387.5 416.3,383.9 325.2,347.2 321.6,347.9 			"/>
			<polygon class="st2" points="408.9,394.9 411.2,391.3 321.9,350.8 318.3,351.4 			"/>
		</g>
		<path class="st2" d="M150.3,325.4c-1.8-15.6,3.8-22.1,12.8-24.6c-7.2-2.9-16.8-1.5-19.3,1.4c0.5,0,0.8,3.9,0.8,8.6
			c-0.1-1-2-3.7-2.6-7.3c-1.5,1.4-4.7,4.2-7.1,6.4c1.6-3.1,4.8-6.8,6.3-9.2c-0.3,0-0.5-1.9-0.5-4.3c-11.5,2.7-15.6,8-15,16.3
			c-1.5-1.7-4.7-10.7,1.2-13.6c0.4-0.3,6.7-3.9,14.5-5.4c0.9-3.7,4.3-6.9,6.2-9c-2.5,0-4.6-0.4-4.6-1c-17.7,6.9-21.7,5.9-26.1,9.2
			c0,0.8-1.4,1.4-3.1,1.4c-0.4-4.7,11.1-7.9,26.7-11.4c-30.7-8-30.1,6.5-32.2,8c-1.3-0.4,0.9-5.8,1.7-10.1
			c-6.9,0.2-14.3,2.6-16.8,5.3c-1.5-5.8,13.9-9.3,33.3-8.7l-14-7c-18.4-2.8-23.3,0.6-23.8,8.4c-1.4-8.1,2.6-10.1,18.1-11.6l-9.3-6
			l-6.2-1l3.7-1.2l-3.5-3.6l5.2,3.2c3.7-1.5,7.9-2.2,8.8-2.2c-3.6-1.1-7.6-2.6-10.1-3.1c0.7,0,1.2,0.3,1.2,0.8
			c-11.4-1-17.8,1.6-23,11.3l-0.5-0.4c-0.5-8.6,8-15.6,19.9-12.3c-8.7-1.9-18.8-5.9-29.3-7.3c22.5,1.7,55,11,79.1,20.4
			c3.1,3.1,11.1,7.6,16.2,10.9c1.5,0,2.8-0.5,2.8-1.2c-5.4-2.5-13.8-7.6-16.6-12.7c-17,1.5-52.4-39.2-53.7-49.2
			c3.3,4.5,13.2,18,24.7,28.6c-2.7-5.6-9.9-13.5-12.1-23.3c2.7,1.2,21.7,31.4,34.2,40.2c-4.7-11-21.2-21.1-20.3-34.2
			c5.5,9.9,18.2,26.2,28.1,36.8c0.8-0.6,2-0.9,3-0.6c-2.3-2.9-4.6-5.7-6.9-8.6c-2.3-2.9-4.4-5.7-5.1-9.2c3.9,3.1,7.3,6.9,9.9,11.1
			c0.7,1.1,1.3,2.2,1.9,3.3c0.4,0.7,0.8,2.6,1.5,3c0.8,0.5,2.4-0.2,3.3-0.3c1.4-0.2,2.7-0.2,4.1,0c-3.5-1.9-6.3-4.8-8.7-8
			c-2.3-3.2-4.1-6.7-5.9-10.2c-1.2-2.2-2-4.5-3.1-6.7c5.6,6.9,11.2,13.8,16.8,20.6c1.1,1.3,2.2,2.9,1.6,4.5c2.2,0,4.6,0,6.8,0
			c-1.3-0.1-2.5-0.9-3.3-1.9c-0.9-1-1.5-2.1-2-3.3c-2.8-5.4-5.6-10.9-8.4-16.3c5,5.4,10,10.7,15.1,16.1c1.8,1.9,3.3,4.2,4.7,6.4
			c2,0.1,4,0.1,6.1,0.1c-3.3-2.3-5.3-6-7.1-9.5c-2.1-4-4.1-8-6.2-12.1c-1.1-2.1-2.8-4.1-1.9-6.3c0.3-0.8,1.5-0.8,2.2-0.3
			c0.7,0.5,1,1.4,1.2,2.2c0.9,2.8,1.9,5.7,2.9,8.4c1.6,4.1,3.3,8.1,6.3,11.3c1.6,1.8,3.3,3.6,4.9,5.4c0.9,1,2,2.1,3.4,2
			c0.5,0,1-0.2,1.5-0.2c0.5,0,1.1,0.4,1,0.9c-0.4,0.3-0.9,0.6-1.3,0.9c3.5,0.7,6.8,2.1,9.7,4c0,20.7-9.4,37.4-20.9,37.4
			c-6.9,7.3-13.3,14.3-13.9,15.7c-0.3-5.9,5.7-12.5,13.7-17.5l0,0.1c0.1-0.1,0.2-0.3,0.1-0.4c-0.1-0.1-0.2-0.2-0.3-0.3
			c-0.2-0.2-0.5-0.4-0.7-0.5l0,0.2c0-0.5-1.6-0.9-3.5-0.9c-10.6,2-17.7,11-18.2,23.1"/>
		<g>
			<path class="st2" d="M123.8,258.3c-19.1-9.2-36.6-24.3-38.9-34.9C97.9,232.3,115.3,249,123.8,258.3z"/>
			<path class="st2" d="M73.6,238.1c4.9,2.8,14.4,6.6,18.6,10.3c3,1.7,5.7,3.6,6.5,5c1.5,2.8,7.9,1.1,12.3,1.6c-0.6-1-4.6-3.9-9-6
				c-5.2-5.8-19.3-17.6-33.6-23.5c5.1,5.3,15.2,11.4,19.4,16.5c-2.7-1.7-9.8-3.4-14.2-4.5C73.7,237.6,73.6,237.8,73.6,238.1z"/>
		</g>
	</g>
	<g>
		<path d="M180.6,264.6c1.5,1.8,6.8,3.3,9.6,4.4l-2.1,0.5c-1.1-1.4-8.3-3-11.6-4.9h0.2h4.2"/>
		<path d="M170,264.4l-4.7-0.3c0,3.5,6.9,6.3,15.4,6.3C176,269.8,171.5,266.9,170,264.4z"/>
		<polygon points="158.8,263.7 153.2,263.9 161.4,266 		"/>
		<path d="M150.4,265.5c3.7,1.7,11.2,4.7,17.3,6.4c-1.3,0.3-2.6,1.4-3.8,2.1C159.1,272.6,153.5,268.6,150.4,265.5z"/>
		<path d="M172.1,274c-2.3,0.2-4.5,0.8-5.4,1.3c6.1,2.2,14.2,5,16.7,7.3c1.9,0,3.4-0.6,3.4-1.4C186.7,277.2,180.2,274,172.1,274z"/>
		<path d="M175.6,284.6l-3.5-1.3l-6.7-4.7l-2.2-1.4l1.2-0.9c2.2,2.4,10.8,4.9,17,7.4l-4.8,2.1L175.6,284.6z"/>
		<polygon points="148.7,276.2 156.4,278.2 154.5,279.4 		"/>
		<polygon points="160.5,279.3 158.7,280.6 164.7,282 		"/>
		<path d="M152.5,285.1c-1.4,0.6-4.6,4-7.1,7.7c5.4-1.4,11.4-3.1,15.7-3.6c-0.3-1.2-2.8-2.9-4.6-4.4
			C154.3,284.8,152.5,284.9,152.5,285.1z"/>
		<path d="M168.2,298.8c-9.6-3.9-21.2-3.2-24.5,0c0-1.7,0.2-3.2,0.5-3.2c2.9-0.8,12.6-2.5,20.7-4.4c9,0,16.3,2.1,16.3,4.7l-0.5,0.7
			c-4.5,0.3-10.7,1.2-12.6,2.1"/>
		<polygon points="138.9,274.2 132.9,273.2 141.4,278 146.4,278.4 		"/>
		<path d="M131.4,265.1c6.3,1.9,13.7,7.2,8.8,5.9L131.4,265.1z"/>
		<path d="M125.2,274.1c-1.1,0.3-5.2-1.1-7.4-2.9l5.3,0.6C124.1,272.1,124.9,273.2,125.2,274.1z"/>
		<polygon points="115.5,266.6 110.4,267 105.5,264.2 111.7,263.3 		"/>
		<path d="M109.4,261l-1.4-1.6c-2.3,0.3-3.8,1.4-6.9,1.9l3.4,2.1C105.5,262.5,107.5,261.3,109.4,261z"/>
		<polygon points="124.3,266.9 130.8,269 127.5,266.4 126.3,265.2 123.6,262.2 121.4,261.4 116.3,262.5 122,266.4 123.6,266.4 		"/>
		<path d="M111.5,259.1c2.2-0.1,1.3-0.7,0.4-0.8l6.6,2.1l-5.2-0.1v0.1l-2-1.3"/>
	</g>
	<g>
		<ellipse class="st1" cx="256" cy="310.9" rx="76.2" ry="73.9"/>
		<g>
			<path class="st1" d="M276.4,208.1c-4.5,6.1-9,17.7,2.5,32.3c-8.6,0-15.6-1.4-15.6-3.1C262.1,224.8,266.2,216.7,276.4,208.1z"/>
			<path class="st1" d="M254.8,206.2c-3.3,6.7-5.7,18.9,8.3,31.3c-8.5,1.5-15.6,1.3-15.9-0.4C243.7,225.1,246.3,216.4,254.8,206.2z"
				/>
			<path class="st1" d="M232.1,208.5c-1.6,7.3-1.1,19.7,15.4,28.7c-7.9,3.3-14.9,4.7-15.6,3.1C225.6,229.3,226.1,220.3,232.1,208.5z
				"/>
			<path class="st1" d="M210.3,216.2c0.1,7.4,3.6,19.4,21.8,24.5c-7,5-13.4,7.8-14.5,6.5C208.9,237.8,207.3,228.9,210.3,216.2z"/>
			<path class="st1" d="M191,227.7c1.7,7.3,7.6,18.3,26.5,19.7c-5.8,6.2-11.5,10.3-12.8,9.2C194.2,249.2,190.7,240.8,191,227.7z"/>
			<path class="st1" d="M175.1,242c3,6.9,10.7,16.8,29.6,15c-4.6,7.1-9.5,12.1-11,11.2C182.1,262.7,177.2,255,175.1,242z"/>
			<path class="st1" d="M363.2,297.6c-7.3-2.3-20.1-2.9-31,12.1c-2.6-8-3.4-14.8-1.7-15.3C342.4,289.4,351.7,290.7,363.2,297.6z"/>
			<path class="st1" d="M358.5,277.1c-7.6-1-20.4,0.5-28.3,17.1c-4-7.4-6-14-4.4-14.8C336.6,272.5,345.9,272.3,358.5,277.1z"/>
			<path class="st1" d="M349.3,256.8c-7.7,0.7-19.7,4.9-23.6,22.9c-5.6-6.3-9.1-12.4-7.8-13.5C326.9,257.1,336,254.9,349.3,256.8z"
				/>
			<path class="st1" d="M335.2,239c-7.3,2.4-18,9.2-17.5,27.5c-7-4.9-11.8-10-10.8-11.4C313.5,244.3,321.7,240.1,335.2,239z"/>
			<path class="st1" d="M317.9,224.7c-6.6,3.8-15.7,12.6-11.4,30.4c-7.9-3.4-13.6-7.5-12.9-9C297.8,234.2,305,228.4,317.9,224.7z"/>
			<path class="st1" d="M299.1,214.4c-5.9,4.8-13.2,15-5.8,31.9c-8.4-2.1-14.8-5.1-14.3-6.7C280.9,227.1,287,220.2,299.1,214.4z"/>
			<path class="st1" d="M161.6,260c4.5,6.1,14.4,14,32.3,8.1c-2.8,7.9-6.4,13.9-8.1,13.3C173.3,278.5,166.7,272.1,161.6,260z"/>
			<path class="st1" d="M152.9,280.8c5.8,4.9,17.3,10.4,33.4,0.7c-0.8,8.3-2.9,14.9-4.7,14.7C168.7,296.2,160.7,291.5,152.9,280.8z"
				/>
			<g>
				<path class="st1" d="M148.5,301.6c6.7,3.7,19.1,7,32.9-5.5c0.8,8.3,0.1,15.2-1.7,15.3C167.1,313.8,158.3,310.6,148.5,301.6z"/>
				<path class="st1" d="M148.7,322.5c7.2,2.5,20,3.7,31.4-11c2.3,8,2.8,14.9,1.1,15.4C169.1,331.5,160,329.8,148.7,322.5z"/>
				<path class="st1" d="M153.3,344.3c7.6,0.9,20.4-0.8,28-17.6c4.1,7.3,6.2,13.9,4.7,14.7C175.3,348.5,165.9,348.9,153.3,344.3z"/>
				<path class="st1" d="M163.2,364.5c7.6-0.8,19.6-5.3,23.1-23.4c5.8,6.2,9.4,12.2,8.1,13.3C185.6,363.7,176.6,366.2,163.2,364.5z"
					/>
				<g>
					<path class="st1" d="M177,382c7.3-2.3,18.1-9.1,17.7-27.4c6.9,5,11.7,10.1,10.7,11.4C198.8,376.8,190.5,381,177,382z"/>
					<path class="st1" d="M193.2,395.9c6.8-3.5,16.2-12,12.5-30c7.7,3.7,13.4,7.9,12.6,9.5C213.7,387.2,206.3,392.7,193.2,395.9z"/>
					<path class="st1" d="M213,407.2c5.8-4.9,13-15.2,5.2-31.9c8.4,1.9,14.9,4.8,14.5,6.5C230.9,394.1,225,401.1,213,407.2z"/>
					<path class="st1" d="M235.2,413.5c4.5-6.1,9-17.7-2.5-32.3c8.6,0,15.6,1.4,15.6,3.1C249.6,396.9,245.4,405,235.2,413.5z"/>
				</g>
			</g>
			<g>
				<path class="st1" d="M257.4,415.3c3.2-6.8,5.3-19.1-8.9-31.2c8.5-1.6,15.6-1.6,15.9,0.1C268.2,396.2,265.8,405,257.4,415.3z"/>
				<path class="st1" d="M279,413.1c1.9-7.2,1.8-19.7-14.4-29.2c8-3,15.1-4.2,15.7-2.6C286.2,392.5,285.3,401.5,279,413.1z"/>
				<path class="st1" d="M300.9,406.6c0.2-7.4-2.8-19.5-20.8-25.3c7.1-4.7,13.7-7.4,14.7-6C303.1,384.9,304.4,393.9,300.9,406.6z"/>
				<path class="st1" d="M320.7,395c-1.6-7.3-7.4-18.4-26.3-20c5.8-6.2,11.6-10.2,12.9-9.1C317.7,373.4,321.1,381.9,320.7,395z"/>
				<g>
					<path class="st1" d="M337.4,380c-3.1-6.8-11.1-16.5-29.9-14.4c4.4-7.2,9.2-12.3,10.7-11.4C329.9,359.5,335,367.1,337.4,380z"/>
					<path class="st1" d="M350.1,363c-4.3-6.2-13.9-14.4-32-9.1c3.1-7.8,6.9-13.6,8.5-13C339,344.1,345.4,350.7,350.1,363z"/>
					<path class="st1" d="M359.7,342.9c-5.6-5.1-16.9-11-33.3-1.9c1.2-8.3,3.5-14.8,5.2-14.6C344.5,326.8,352.3,331.9,359.7,342.9z"
						/>
					<path class="st1" d="M364,320.8c-6.7-3.7-19.1-7-32.9,5.6c-0.8-8.3-0.1-15.2,1.6-15.3C345.5,308.6,354.2,311.8,364,320.8z"/>
				</g>
			</g>
		</g>
	</g>
</g>
</svg>
