<?xml version="1.0" encoding="utf-8"?>
<!-- Generator: Adobe Illustrator 22.1.0, SVG Export Plug-In . SVG Version: 6.00 Build 0)  -->
<svg version="1.1" id="Layer_1" xmlns="http://www.w3.org/2000/svg" xmlns:xlink="http://www.w3.org/1999/xlink" x="0px" y="0px"
	 viewBox="0 0 512 512" style="enable-background:new 0 0 512 512;" xml:space="preserve">
<style type="text/css">
	.st0{fill:none;stroke:#000000;stroke-width:0.25;}
	.st1{fill:#008256;}
	.st2{fill:#EC1B2E;stroke:#000000;stroke-width:0.25;stroke-linejoin:bevel;}
	.st3{fill:#FFF100;stroke:#000000;stroke-width:0.25;stroke-linejoin:bevel;}
	.st4{stroke:#000000;stroke-width:0.25;stroke-linejoin:bevel;}
	.st5{fill:#FFFFFF;}
</style>
<g>
	<rect x="0.1" y="85.4" class="st0" width="511.8" height="341.1"/>
	<polygon class="st1" points="511.9,85.4 0.1,85.4 0.1,426.6 	"/>
	<polygon class="st2" points="0.1,426.6 511.9,426.6 511.9,85.4 	"/>
	<polygon class="st3" points="511.9,154.9 105.7,426.6 0.1,426.6 0.1,356.4 408.1,85.4 511.9,85.4 	"/>
	<polygon class="st4" points="511.9,138.9 81.2,426.6 0.1,426.6 0.1,372.6 432,85.4 511.9,85.4 	"/>
	<g>
		<polygon class="st5" points="141.8,292.5 149.4,319.1 126.3,334.6 154.2,335.6 161.7,362.3 171.1,336.2 198.8,337.3 176.9,320.1 
			186.7,294.2 163.6,309.7 		"/>
		<polygon class="st5" points="337.4,161.3 345,187.9 321.9,203.4 349.8,204.4 357.3,231.1 366.7,205 394.5,206.1 372.5,188.9 
			382.3,163 359.2,178.5 		"/>
	</g>
</g>
</svg>
