<?xml version="1.0" encoding="utf-8"?>
<!-- Generator: Adobe Illustrator 22.0.1, SVG Export Plug-In . SVG Version: 6.00 Build 0)  -->
<svg version="1.1" id="Layer_1" xmlns="http://www.w3.org/2000/svg" xmlns:xlink="http://www.w3.org/1999/xlink" x="0px" y="0px" viewBox="0 0 500 466.5" style="enable-background:new 0 0 500 466.5;" xml:space="preserve">
<style type="text/css">
	.st0{fill:#ff565c;}
</style>
<g>
	<path class="st0" d="M86.3,166.8H20.4c-9.1,0-16.5,7.4-16.5,16.5V447c0,9.1,7.4,16.5,16.5,16.5h65.9c9.1,0,16.5-7.4,16.5-16.5
		V183.3C102.8,174.2,95.4,166.8,86.3,166.8z"/>
	<path class="st0" d="M498,210.5c-2.9-25.6-26.8-43.7-52.5-43.7H317c10.9-19.6,16.8-74.9,16.5-97.5C333.1,32,302.1,2,264.7,2h-13.6
		c-9.1,0-16.5,7.4-16.5,16.5c0,38.1-14.8,106.9-42.8,134.9c-18.8,18.8-34.9,25.7-56.1,36.2v247.3c32.3,10.8,73.4,26.6,135.9,26.6
		h107.8c35.5,0,63.2-32.9,49.4-67.7c21-5.7,36.4-24.9,36.4-47.7c0-6.4-1.2-12.6-3.5-18.2c35.3-9.6,48.4-53.3,23.8-80.7
		C494.7,239.2,499.7,225.4,498,210.5z"/>
</g>
</svg>
