<?xml version="1.0" encoding="utf-8"?>
<!-- Generator: Adobe Illustrator 22.0.1, SVG Export Plug-In . SVG Version: 6.00 Build 0)  -->
<svg version="1.1" id="Layer_1" xmlns="http://www.w3.org/2000/svg" xmlns:xlink="http://www.w3.org/1999/xlink" x="0px" y="0px"
	 viewBox="0 0 200 200" style="enable-background:new 0 0 200 200;" xml:space="preserve">
<style type="text/css">
	.st0{fill:#010101;}
	.st1{fill-rule:evenodd;clip-rule:evenodd;}
	.st2{clip-path:url(#SVGID_2_);}
	.st3{clip-path:url(#SVGID_4_);}
	.st4{clip-path:url(#SVGID_6_);}
	.st5{clip-path:url(#SVGID_8_);}
	.st6{clip-path:url(#SVGID_10_);fill:#020202;}
	.st7{clip-path:url(#SVGID_12_);}
	.st8{clip-path:url(#SVGID_14_);}
	.st9{fill:none;}
	.st10{clip-path:url(#SVGID_16_);}
	.st11{clip-path:url(#SVGID_18_);}
	.st12{clip-path:url(#SVGID_20_);}
	.st13{clip-path:url(#SVGID_22_);}
	.st14{clip-path:url(#SVGID_24_);}
	.st15{fill:#1E1818;}
</style>
<g>
	<path d="M132.1,60.5l-15.5-30c-1.2-2.3-4.3-4.2-6.9-4.2H90.3c-2.6,0-5.7,1.9-6.9,4.2l-15.5,30c-0.9,1.7-1.6,4.1-2,6.2h68.1
		C133.7,64.6,133,62.1,132.1,60.5L132.1,60.5z M132.1,60.5"/>
	<path d="M65.7,189.2c0,2.6,2.1,4.8,4.8,4.8h59.1c2.6,0,4.8-2.1,4.8-4.8v-47.8H65.7V189.2z M65.7,189.2"/>
	<path d="M89.1,22.7h21.8c2.6,0,4.8-2.1,4.8-4.8v-7.1c0-2.6-2.1-4.8-4.8-4.8H89.1c-2.6,0-4.8,2.1-4.8,4.8v7.1
		C84.3,20.5,86.5,22.7,89.1,22.7L89.1,22.7z M89.1,22.7"/>
	<path d="M135.7,91.7c0.8,0,1.4-2.1,1.4-4.8v-8.7c0-1.4-0.2-2.7-0.5-3.6H63.4c-0.3,0.9-0.5,2.2-0.5,3.6v8.7c0,2.6,0.6,4.8,1.4,4.8
		c0.8,0,1.4,0.8,1.4,1.7c0,0.9-0.6,1.7-1.4,1.7c-0.8,0-1.4,2.1-1.4,4.8v8.7c0,2.6,0.6,4.8,1.4,4.8c0.8,0,1.4,0.8,1.4,1.7
		c0,0.9-0.6,1.7-1.4,1.7c-0.8,0-1.4,2.1-1.4,4.8v8.7c0,1.3,0.2,2.5,0.4,3.4h73.3c0.3-0.9,0.4-2.1,0.4-3.4v-8.7
		c0-2.6-0.6-4.8-1.4-4.8c-0.8,0-1.4-0.8-1.4-1.7c0-0.9,0.6-1.7,1.4-1.7c0.8,0,1.4-2.1,1.4-4.8v-8.7c0-2.6-0.6-4.8-1.4-4.8
		c-0.8,0-1.4-0.8-1.4-1.7C134.3,92.4,134.9,91.7,135.7,91.7L135.7,91.7z M98.9,123c-8.3,0-15-6.7-15-15c0-8.3,15-25.5,15-25.5
		s15,17.2,15,25.5C113.8,116.3,107.1,123,98.9,123L98.9,123z M98.9,123"/>
</g>
</svg>
