<?xml version="1.0" encoding="utf-8"?>
<!-- Generator: Adobe Illustrator 22.0.1, SVG Export Plug-In . SVG Version: 6.00 Build 0)  -->
<svg version="1.0" id="Layer_1" xmlns="http://www.w3.org/2000/svg" xmlns:xlink="http://www.w3.org/1999/xlink" x="0px" y="0px"
	 viewBox="0 0 200 200" style="enable-background:new 0 0 200 200;" xml:space="preserve">
<g>
	<path d="M100,0C44.9,0,0,44.9,0,100c0,55.1,44.9,100,100,100c55.1,0,100-44.9,100-100C200,44.9,155.1,0,100,0z M190,88.7l-22,3.4
		c-0.7-6.2-2.3-12.2-4.5-17.7l21-7.5C187.2,73.8,189.1,81.1,190,88.7z M156.4,28.9c6.6,5.2,12.4,11.3,17.3,18.1L156,60.6
		c-3.9-5.5-8.6-10.5-14-14.7L156.4,28.9z M111.3,10c9.1,1.1,17.8,3.6,25.8,7.2l-8.5,20.6c-6.4-3-13.4-5-20.8-5.8L111.3,10z M88.7,10
		l3.4,22c-7.3,0.8-14.3,2.8-20.8,5.8l-8.5-20.6C70.9,13.6,79.6,11.1,88.7,10z M43.6,28.9L58,46c-5.3,4.2-10.1,9.1-14,14.7L26.3,47.1
		C31.2,40.3,37.1,34.2,43.6,28.9z M15.5,66.9l21,7.5C34.3,80,32.7,86,32,92.2l-22-3.4C10.9,81.1,12.8,73.8,15.5,66.9z M10,111.3
		l22-3.4c0.7,6.2,2.3,12.2,4.5,17.7l-21,7.5C12.8,126.2,10.9,118.9,10,111.3z M43.6,171.1c-6.6-5.2-12.4-11.3-17.3-18.1L44,139.4
		c3.9,5.5,8.6,10.5,14,14.7L43.6,171.1z M88.7,190c-9.1-1.1-17.8-3.6-25.8-7.2l8.5-20.6c6.4,3,13.4,5,20.8,5.8L88.7,190z M100,160.8
		c-2.3,0-4.5-0.1-6.7-0.4c-6.7-0.7-13.1-2.6-19-5.3c-4.1-1.9-7.9-4.2-11.4-6.9c-4.9-3.8-9.3-8.3-12.8-13.4
		c-2.5-3.6-4.7-7.5-6.4-11.7c-2.1-5.1-3.5-10.6-4.2-16.3c-0.2-2.2-0.4-4.4-0.4-6.7c0-2.3,0.1-4.5,0.4-6.7c0.6-5.7,2.1-11.2,4.2-16.3
		c1.7-4.1,3.8-8.1,6.4-11.7c3.6-5.1,7.9-9.6,12.8-13.4c3.5-2.7,7.3-5,11.4-6.9c5.9-2.8,12.3-4.6,19-5.3c2.2-0.2,4.4-0.4,6.7-0.4
		c2.3,0,4.5,0.1,6.7,0.4c6.7,0.7,13.1,2.6,19,5.3c4.1,1.9,7.9,4.2,11.4,6.9c4.9,3.8,9.3,8.3,12.8,13.4c2.5,3.6,4.7,7.5,6.4,11.7
		c2.1,5.1,3.5,10.6,4.2,16.3c0.2,2.2,0.4,4.4,0.4,6.7c0,2.3-0.1,4.5-0.4,6.7c-0.6,5.7-2.1,11.2-4.2,16.3c-1.7,4.1-3.8,8.1-6.4,11.7
		c-3.6,5.1-7.9,9.6-12.8,13.4c-3.5,2.7-7.3,5-11.4,6.9c-5.9,2.8-12.3,4.6-19,5.3C104.5,160.6,102.3,160.8,100,160.8z M111.3,190
		l-3.4-22c7.3-0.8,14.3-2.8,20.8-5.8l8.5,20.6C129.1,186.4,120.4,188.9,111.3,190z M156.4,171.1L142,154c5.3-4.2,10.1-9.1,14-14.7
		l17.7,13.6C168.8,159.7,162.9,165.8,156.4,171.1z M184.5,133.1l-21-7.5c2.3-5.6,3.8-11.5,4.5-17.7l22,3.4
		C189.1,118.9,187.2,126.2,184.5,133.1z"/>
	<path d="M140.7,108.6c3,0,5.7-1.6,7.2-3.9c0.9-1.4,1.4-3,1.4-4.7c0-1.7-0.5-3.3-1.4-4.7c-1.5-2.4-4.2-3.9-7.2-3.9
		c-3.4,0-6.3,2-7.7,4.8h-20c-1.3-4.4-4.8-7.9-9.2-9.2V67c2.8-1.4,4.8-4.3,4.8-7.7c0-3-1.6-5.7-3.9-7.2c-1.4-0.9-3-1.4-4.7-1.4
		c-1.7,0-3.3,0.5-4.7,1.4c-2.4,1.5-3.9,4.2-3.9,7.2c0,3.4,2,6.3,4.8,7.7v20c-4.4,1.3-7.9,4.8-9.2,9.2H67c-1.4-2.8-4.3-4.8-7.7-4.8
		c-3,0-5.7,1.6-7.2,3.9c-0.9,1.4-1.4,3-1.4,4.7c0,1.7,0.5,3.3,1.4,4.7c1.5,2.4,4.2,3.9,7.2,3.9c3.4,0,6.3-2,7.7-4.8h20
		c1.3,4.4,4.8,7.9,9.2,9.2v20c-2.8,1.4-4.8,4.3-4.8,7.7c0,3,1.6,5.7,3.9,7.2c1.4,0.9,3,1.4,4.7,1.4c1.7,0,3.3-0.5,4.7-1.4
		c2.4-1.5,3.9-4.2,3.9-7.2c0-3.4-2-6.3-4.8-7.7v-20c4.4-1.3,7.9-4.8,9.2-9.2h20C134.4,106.7,137.3,108.6,140.7,108.6z"/>
	<path d="M73.1,76.5c3.1,0,5.7-1.9,6.8-4.5c0.4-0.9,0.6-1.9,0.6-2.9c0-4.1-3.3-7.5-7.5-7.5c-0.6,0-1.2,0.1-1.7,0.2
		c-3.3,0.8-5.7,3.7-5.7,7.2C65.7,73.2,69,76.5,73.1,76.5z M72.8,63.5c0.1-0.1,0.2-0.2,0.4-0.2c3.2,0,5.8,2.6,5.8,5.8
		c0,0.4-0.3,0.8-0.8,0.8c-0.5,0-0.8-0.3-0.8-0.8c0-0.1,0-0.1,0-0.2C77.2,67,75.9,65.4,74,65c-0.3-0.1-0.6-0.1-0.9-0.1
		c-0.4,0-0.8-0.4-0.8-0.8C72.4,63.8,72.5,63.6,72.8,63.5z"/>
</g>
</svg>
