<?xml version="1.0" encoding="utf-8"?>
<!-- Generator: Adobe Illustrator 22.0.1, SVG Export Plug-In . SVG Version: 6.00 Build 0)  -->
<svg version="1.0" id="Layer_1" xmlns="http://www.w3.org/2000/svg" xmlns:xlink="http://www.w3.org/1999/xlink" x="0px" y="0px"
	 viewBox="0 0 200 200" style="enable-background:new 0 0 200 200;" xml:space="preserve">
<style type="text/css">
	.st0{fill:none;}
</style>
<g>
	<path class="st0" d="M153.8,76.2c-9.2,6-17.1,20.9-20.4,23.3c-2,1.5-5.4-0.3-5.5-3.1c-0.1-2.7,9-13.7,13.2-28.9
		c4.2-15.2-12.5-23.9-18.2-8.3c-3.6,9.8-5.2,29.4-8.6,31.9c-3.4,2.5-5.6,1-7.2-2.4c-1.6-3.3,4.4-18.7,5.6-33.6
		c1.2-14.8-15.2-14-19.3-1.9c-4.1,12.1,0.6,31.5-1,36.7c-0.8,2.7-2.9,4.2-5.4,2.4c-2.6-1.8-4.8-18.5-8.4-32.8
		C75.1,45.1,58,47.7,59.3,59.8c0.9,8.1,8.2,22.8,13.6,37.1c2.1,5.7,3.1,11.4,2.8,16.3c-0.3,4.5-3.9,8-6.7,8.6
		c-2.8,0.6-8-13.2-17.9-16c-9.9-2.9-19.7,9.2-10.9,15.5c8.8,6.2,14.2,5.5,16.7,9.2c2.5,3.7,5.5,10,10.2,14.6
		c18.2,17.9,34.8,5.7,38.4,6.1c3.6,0.4,8.6,8.5,18.5,2.8c6.7-3.9,10.6-14.4,13.3-22.6c2.7-8.2,1.8-17.3,3.2-20.1
		c2.7-5.3,12.6-12.2,18.1-18C166.8,84.7,163,70.2,153.8,76.2z"/>
	<path d="M199.6,58.8C193.8,2.4,130.5,3.3,100,30.5C69.5,3.3,6.3,2.4,0.4,58.8C-7.2,131.4,100,187.6,100,187.6
		S207.2,131.4,199.6,58.8z M158.7,93.2c-5.5,5.8-15.4,12.7-18.1,18c-1.4,2.7-0.5,11.8-3.2,20.1c-2.7,8.2-6.6,18.8-13.3,22.6
		c-9.9,5.7-14.9-2.4-18.5-2.8c-3.6-0.4-20.2,11.7-38.4-6.1c-4.7-4.6-7.7-10.9-10.2-14.6c-2.5-3.7-7.9-3-16.7-9.2
		c-8.8-6.2,1-18.3,10.9-15.5c9.9,2.8,15.1,16.6,17.9,16c2.8-0.6,6.4-4.1,6.7-8.6c0.3-4.9-0.7-10.6-2.8-16.3
		c-5.4-14.3-12.7-28.9-13.6-37.1c-1.3-12,15.8-14.7,19.3-0.3c3.5,14.4,5.8,31.1,8.4,32.8c2.6,1.8,4.6,0.2,5.4-2.4
		c1.6-5.2-3.2-24.6,1-36.7c4.1-12.1,20.5-12.9,19.3,1.9c-1.2,14.8-7.2,30.2-5.6,33.6c1.6,3.3,3.8,4.8,7.2,2.4c3.4-2.5,5-22,8.6-31.9
		c5.7-15.6,22.4-6.9,18.2,8.3c-4.2,15.2-13.3,26.3-13.2,28.9c0.1,2.8,3.6,4.6,5.5,3.1c3.2-2.4,11.1-17.3,20.4-23.3
		C163,70.2,166.8,84.7,158.7,93.2z"/>
</g>
</svg>
