<?xml version="1.0" encoding="utf-8"?>
<!-- Generator: Adobe Illustrator 22.0.1, SVG Export Plug-In . SVG Version: 6.00 Build 0)  -->
<svg version="1.1" id="Layer_1" xmlns="http://www.w3.org/2000/svg" xmlns:xlink="http://www.w3.org/1999/xlink" x="0px" y="0px"
	 viewBox="0 0 200 200" style="enable-background:new 0 0 200 200;" xml:space="preserve">
<style type="text/css">
	.st0{fill:#010101;}
	.st1{fill-rule:evenodd;clip-rule:evenodd;}
	.st2{clip-path:url(#SVGID_2_);}
	.st3{clip-path:url(#SVGID_4_);}
	.st4{clip-path:url(#SVGID_6_);}
	.st5{clip-path:url(#SVGID_8_);}
	.st6{clip-path:url(#SVGID_10_);fill:#020202;}
	.st7{clip-path:url(#SVGID_12_);}
	.st8{clip-path:url(#SVGID_14_);}
	.st9{fill:none;}
	.st10{clip-path:url(#SVGID_16_);}
	.st11{clip-path:url(#SVGID_18_);}
	.st12{clip-path:url(#SVGID_20_);}
	.st13{clip-path:url(#SVGID_22_);}
	.st14{clip-path:url(#SVGID_24_);}
	.st15{fill:#1E1818;}
</style>
<g>
	<path d="M112.2,133.5v-12.2c0-1.7-1.4-3-3-3H90.9c-1.7,0-3,1.4-3,3v12.2c0,1.7,1.4,3,3,3h1.3l-1.8,3.8l9.6,19.1l9.6-19.1l-1.8-3.8
		h1.3C110.8,136.6,112.2,135.2,112.2,133.5z"/>
	<path d="M159.2,132.2c-8.6-8.5-19.8-13.4-31.8-13.9l-24.7,49.3c-1,2.1-4.4,2.1-5.5,0l-24.7-49.3c-12,0.4-23.2,5.3-31.8,13.9
		c-9,9-13.9,20.9-13.9,33.6v31.6h146.3v-31.6C173.1,153.2,168.2,141.2,159.2,132.2z M154.8,176.2c0,1.7-1.4,3-3,3h-24.4
		c-1.7,0-3-1.4-3-3v-18.3c0-1.7,1.4-3,3-3h24.4c1.7,0,3,1.4,3,3V176.2z"/>
	<rect x="130.5" y="160.9" width="18.3" height="12.2"/>
	<path d="M100,112.2c23.5,0,42.7-19.1,42.7-42.7c0-6.4-1.5-12.6-4.1-18.3h-77c-2.7,5.7-4.1,11.9-4.1,18.3
		C57.3,93,76.5,112.2,100,112.2z"/>
	<path d="M63.4,42.1c0,1.7,1.4,3,3,3h67c1.7,0,3-1.4,3-3v-11c7.6-7.6,6.1-19.4,6.1-19.9c-0.2-1.1-0.9-2.1-2-2.4
		c-12.1-4.2-25.8-6.3-40.6-6.3c-14.9,0-28.5,2.1-40.6,6.3c-1.4,0.5-2.1,1.8-2,3.2c-0.3,2.8-0.5,12.4,6,19V42.1z"/>
</g>
</svg>
