<?xml version="1.0" encoding="utf-8"?>
<!-- Generator: Adobe Illustrator 22.0.1, SVG Export Plug-In . SVG Version: 6.00 Build 0)  -->
<svg version="1.0" id="Layer_1" xmlns="http://www.w3.org/2000/svg" xmlns:xlink="http://www.w3.org/1999/xlink" x="0px" y="0px"
	 viewBox="0 0 200 200" style="enable-background:new 0 0 200 200;" xml:space="preserve">
<style type="text/css">
	.st0{fill:none;}
</style>
<g>
	<path class="st0" d="M20.6,47.7h4.4c0,1,0,1.9,0,2.9h-4.4c-0.9,0-1.6,0.7-1.6,1.6v3.6c0,0.9,0.7,1.6,1.6,1.6l5.6,0l0.2,0.5
		c1.5,4.8,4.1,8.8,8.1,11.9c3.1,2.4,6.8,3.7,10.7,4.4c5.6,0.9,10.9,0.1,16.1-2c0.3-0.1,0.7-0.3,1-0.5c1.2-0.7,1.5-1.7,1-3
		c-0.6-1.4-1.2-2.8-1.8-4.2c-0.5-1.2-1.3-1.6-2.6-1.3c-1.7,0.4-3.5,1-5.2,1.3c-3.7,0.8-7.4,0.8-11-0.6c-3.1-1.2-5-3.6-6.3-6.5
		c0,0,0-0.1,0-0.1l10.8,0c0.9,0,1.6-0.7,1.6-1.6v-3.6c0-0.9-0.7-1.6-1.6-1.6l-12.3,0c0-1,0-1.9,0-2.9l12.4,0c0.9,0,1.6-0.7,1.6-1.6
		v-3.6c0-0.9-0.7-1.6-1.6-1.6l-11.3,0c1.3-3.9,3.5-6.9,7.7-8.3c3.3-1.1,6.7-1,10-0.3c1.7,0.4,3.4,0.9,5.2,1.3
		c1.4,0.3,2.1-0.1,2.7-1.3c0.7-1.4,1.2-2.8,1.8-4.3c0.5-1.3,0.2-2.3-1.2-2.9c-1.4-0.6-2.8-1.1-4.3-1.5c-5.6-1.5-11.2-1.6-16.8,0.2
		C34.1,25.9,29.7,30.5,27,37c-0.5,1.2-0.9,2.6-1.2,3.9h-5.3c-0.9,0-1.6,0.7-1.6,1.7v3.6C18.9,47,19.7,47.7,20.6,47.7z"/>
	<path class="st0" d="M162.7,149.1c-2.5-1.3-5.1-2.4-7.7-3.4c-1.5-0.6-2.9-1.4-4.2-2.4c-2.5-2-2-5.2,0.9-6.5
		c0.8-0.4,1.7-0.5,2.6-0.5c3.4-0.2,6.6,0.4,9.7,1.9c1.5,0.7,2,0.5,2.5-1.1c0.5-1.7,1-3.4,1.5-5.1c0.3-1.1-0.1-1.9-1.2-2.4
		c-2-0.9-4-1.5-6.1-1.8c-2.8-0.5-2.8-0.5-2.8-3.2c0-3.9,0-3.9-3.9-3.9c-0.5,0-1.1,0-1.7,0c-1.8,0.1-2.2,0.4-2.2,2.2
		c0,0.8,0,1.7,0,2.5c0,2.5,0,2.4-2.4,3.3c-5.7,2.1-9.2,5.9-9.6,12.2c-0.3,5.5,2.5,9.2,7.1,11.9c2.8,1.7,5.9,2.7,8.8,3.9
		c1.1,0.5,2.2,1.1,3.2,1.9c2.9,2.4,2.3,6.3-1,7.7c-1.8,0.8-3.7,1-5.6,0.7c-3-0.4-5.9-1.2-8.6-2.6c-1.6-0.8-2.1-0.6-2.6,1.1
		c-0.5,1.5-0.9,3-1.3,4.5c-0.5,2-0.3,2.5,1.6,3.4c2.5,1.2,5.1,1.8,7.8,2.2c2.1,0.3,2.2,0.5,2.2,2.6c0,1,0,2,0,2.9c0,1.2,0.6,2,1.9,2
		c1.5,0,2.9,0,4.4,0c1.2,0,1.8-0.7,1.8-1.9c0-1.4,0-2.7,0-4.1c0-1.4,0.5-2.1,1.9-2.5c3-0.8,5.6-2.5,7.6-4.9
		C172.7,163.3,170.6,153.4,162.7,149.1z"/>
	<path d="M144.4,61v15.2c0,2.9,3.1,4.7,5.6,3.2l48-27.7c2.5-1.5,2.5-5.1,0-6.5l-48-27.7c-2.5-1.5-5.6,0.4-5.6,3.2v15.2h-40.5
		c0.9,4,1.3,8.1,1.3,12.3c0,4.4-0.5,8.6-1.3,12.8H144.4z"/>
	<path d="M55.6,139.5L55.6,139.5v-15.2c0-2.9-3.1-4.7-5.6-3.2l-48,27.7c-2.5,1.5-2.5,5.1,0,6.5l48,27.7c2.5,1.5,5.6-0.4,5.6-3.2
		v-15.2h40.7c-0.9-4-1.4-8.2-1.4-12.5c0-4.3,0.5-8.5,1.4-12.5H55.6z"/>
	<path d="M46.1,94.5C71.5,94.4,92,73.7,91.9,48.2C91.9,22.7,71.2,2.2,45.8,2.3C20.4,2.4-0.1,23.1,0,48.5C0.1,74,20.8,94.6,46.1,94.5
		z M18.9,42.6c0-1,0.7-1.7,1.6-1.7h5.3c0.4-1.3,0.7-2.6,1.2-3.9c2.7-6.5,7.1-11.1,13.8-13.3c5.6-1.8,11.2-1.8,16.8-0.2
		c1.5,0.4,2.9,0.9,4.3,1.5c1.3,0.6,1.7,1.7,1.2,2.9c-0.6,1.5-1.2,2.9-1.8,4.3c-0.6,1.2-1.3,1.6-2.7,1.3c-1.7-0.4-3.4-0.9-5.2-1.3
		c-3.4-0.7-6.7-0.7-10,0.3c-4.2,1.3-6.4,4.4-7.7,8.3l11.3,0c0.9,0,1.6,0.7,1.6,1.6V46c0,0.9-0.7,1.6-1.6,1.6l-12.4,0c0,1,0,2,0,2.9
		l12.3,0c0.9,0,1.6,0.7,1.6,1.6v3.6c0,0.9-0.7,1.6-1.6,1.6l-10.8,0c0,0,0,0.1,0,0.1c1.3,2.9,3.2,5.3,6.3,6.5c3.6,1.4,7.3,1.4,11,0.6
		c1.7-0.4,3.5-0.9,5.2-1.3c1.3-0.3,2,0.1,2.6,1.3c0.6,1.4,1.2,2.8,1.8,4.2c0.5,1.3,0.2,2.3-1,3c-0.3,0.2-0.6,0.3-1,0.5
		c-5.2,2-10.5,2.8-16.1,2c-3.9-0.6-7.6-2-10.7-4.4c-4-3.1-6.6-7.1-8.1-11.9l-0.2-0.5l-5.6,0c-0.9,0-1.6-0.7-1.6-1.6v-3.6
		c0-0.9,0.7-1.6,1.6-1.6h4.4c0-1,0-1.9,0-2.9h-4.4c-0.9,0-1.6-0.7-1.6-1.6V42.6z"/>
	<path d="M154,106.2c-25.3,0-45.8,20.5-45.8,45.8s20.5,45.8,45.8,45.8s45.8-20.5,45.8-45.8C199.8,126.7,179.3,106.2,154,106.2z
		 M167.2,170c-2,2.4-4.6,4.1-7.6,4.9c-1.3,0.4-1.9,1-1.9,2.5c0,1.3,0,2.7,0,4.1c0,1.2-0.6,1.9-1.8,1.9c-1.5,0-2.9,0-4.4,0
		c-1.3,0-1.9-0.7-1.9-2c0-1,0-2,0-2.9c0-2.2-0.1-2.3-2.2-2.6c-2.7-0.4-5.3-1-7.8-2.2c-1.9-1-2.1-1.4-1.6-3.4c0.4-1.5,0.8-3,1.3-4.5
		c0.5-1.7,1-2,2.6-1.1c2.7,1.4,5.6,2.2,8.6,2.6c2,0.2,3.9,0,5.6-0.7c3.4-1.5,3.9-5.4,1-7.7c-1-0.8-2.1-1.4-3.2-1.9
		c-2.9-1.3-6-2.3-8.8-3.9c-4.5-2.7-7.4-6.4-7.1-11.9c0.4-6.2,3.9-10.1,9.6-12.2c2.4-0.9,2.4-0.8,2.4-3.3c0-0.8,0-1.7,0-2.5
		c0-1.9,0.4-2.2,2.2-2.2c0.6,0,1.2,0,1.7,0c3.9,0,3.9,0,3.9,3.9c0,2.8,0,2.8,2.8,3.2c2.1,0.3,4.2,1,6.1,1.8c1.1,0.5,1.5,1.2,1.2,2.4
		c-0.5,1.7-1,3.4-1.5,5.1c-0.5,1.6-1,1.8-2.5,1.1c-3.1-1.5-6.3-2.1-9.7-1.9c-0.9,0-1.7,0.2-2.6,0.5c-2.9,1.3-3.4,4.5-0.9,6.5
		c1.2,1,2.7,1.7,4.2,2.4c2.6,1.1,5.2,2.1,7.7,3.4C170.6,153.4,172.7,163.3,167.2,170z"/>
</g>
</svg>
