<?xml version="1.0" encoding="utf-8"?>
<!-- Generator: Adobe Illustrator 22.0.1, SVG Export Plug-In . SVG Version: 6.00 Build 0)  -->
<svg version="1.1" id="Layer_1" xmlns="http://www.w3.org/2000/svg" xmlns:xlink="http://www.w3.org/1999/xlink" x="0px" y="0px"
	 viewBox="0 0 500 500" style="enable-background:new 0 0 500 500;" xml:space="preserve">
<style type="text/css">
	.st0{fill:#FF565C;}
</style>
<path class="st0" d="M480.6,204.2C423.1,146.7,365.7,89.1,308,31.8C288.3,12.3,264.3,3,236.5,3C166.7,3.1,97,3,27.3,3
	C11.6,3,5.9,8.7,5.9,24.5c0,75.2,0,150.5,0,225.7c0,76.1,0,152.2,0.1,228.2c0,13.1,6.2,19.6,18.9,19.6c119.1,0,238.2,0.1,357.3,0
	c24.1,0,44-15.1,51-38.4c2.2-7.4,4.2-15,6.3-22.5c17.5-63,35.1-126,52.6-189C496.8,231.2,492.9,216.5,480.6,204.2z M161.4,287
	c-0.3,8.7-6.5,15.8-15.1,16.1c-3.9,0.2-7.8,0.2-11.8,0.2c-4.7,0-9.3,0-14-0.1c-1.9,0-3.8,0-5.6,0v0.1c-6.9,0-13.9,0.1-20.9,0
	c-2.3,0-4.7,0-7,0c0,0,0,0,0,0c-11.1-0.1-18.3-6.5-18.7-16.3c0,0,0,0,0,0v0l0,0c-0.4-9.9,6.2-18.2,16.9-18.4
	c20.9-0.3,41.8,0.3,62.7,1.3c1.1,0,2.1,0.2,3.1,0.5C157.7,272.2,161.7,279,161.4,287L161.4,287L161.4,287z M381.3,208.3
	c-3.6,8.3-10.4,11-19,11c-45.6-0.1-91.2,0-136.8,0c-45.9,0-91.8,0-137.6-0.1c-12.3,0-19.4-7-19.4-19.3c-0.1-38.3-0.1-76.7,0-115
	c0-13.6,6-19.5,19.7-19.5c41.5,0,83.1,0,124.6,0c26.2,0,49.1,9,67.7,27.1c32.3,31.4,63.8,63.5,95.7,95.3
	C382,193.6,384.7,200.3,381.3,208.3z"/>
</svg>
