<?xml version="1.0" encoding="utf-8"?>
<!-- Generator: Adobe Illustrator 22.0.1, SVG Export Plug-In . SVG Version: 6.00 Build 0)  -->
<svg version="1.1" id="Layer_1" xmlns="http://www.w3.org/2000/svg" xmlns:xlink="http://www.w3.org/1999/xlink" x="0px" y="0px"
	 viewBox="0 0 200 200" style="enable-background:new 0 0 200 200;" xml:space="preserve">
<style type="text/css">
	.st0{fill:#010101;}
	.st1{fill-rule:evenodd;clip-rule:evenodd;}
	.st2{clip-path:url(#SVGID_2_);}
	.st3{clip-path:url(#SVGID_4_);}
	.st4{clip-path:url(#SVGID_6_);}
	.st5{clip-path:url(#SVGID_8_);}
	.st6{clip-path:url(#SVGID_10_);fill:#020202;}
	.st7{clip-path:url(#SVGID_12_);}
	.st8{clip-path:url(#SVGID_14_);}
	.st9{fill:none;}
	.st10{clip-path:url(#SVGID_16_);}
	.st11{clip-path:url(#SVGID_18_);}
	.st12{clip-path:url(#SVGID_20_);}
	.st13{clip-path:url(#SVGID_22_);}
	.st14{clip-path:url(#SVGID_24_);}
	.st15{fill:#1E1818;}
</style>
<path class="st0" d="M172,103.8c-16.2-7.7-32.7-15.4-47.1-33c-5.6-6.8-14.4-13.6-22.7-14.7v-2.8c0-6.8,2.7-9.9,5.5-13.1
	c2.7-3.1,5.8-6.6,5.8-13.4c0-7.2-5.8-13-13-13c-7.2,0-13,5.8-13,13c0,1.2,1,2.2,2.2,2.2c1.2,0,2.2-1,2.2-2.2c0-4.7,3.8-8.5,8.5-8.5
	c4.7,0,8.5,3.8,8.5,8.5c0,5.1-2.1,7.4-4.7,10.5c-3.1,3.5-6.6,7.5-6.6,16V56c-8.3,1.1-17.1,7.9-22.7,14.7c-14.4,17.6-31,25.3-47.1,33
	C6.2,114.1,2.8,120,2.8,128c0,8.1,10,10.9,16,2.8H51c0,14.4,0,43.7,0,43.7c0,6.5,5.3,11.8,11.8,11.8h75.6c6.5,0,11.8-5.3,11.8-11.8
	c0,0,0-29.3,0-43.7h31c6,8.1,16,5.4,16-2.8C197.3,120,193.8,114.1,172,103.8z M150.2,124c0-0.6,0-1,0-1.1c0-1-0.5-1.5-1.3-1.5
	c-0.3,0-96.3,0-96.6,0c-0.8,0-1.3,0.5-1.3,1.5c0,0.1,0,0.5,0,1.1H25.7L100,81.4l74.3,42.6H150.2z"/>
</svg>
