<?xml version="1.0" encoding="utf-8"?>
<!-- Generator: Adobe Illustrator 22.0.1, SVG Export Plug-In . SVG Version: 6.00 Build 0)  -->
<svg version="1.1" id="Layer_1" xmlns="http://www.w3.org/2000/svg" xmlns:xlink="http://www.w3.org/1999/xlink" x="0px" y="0px"
	 viewBox="0 0 200 200" style="enable-background:new 0 0 200 200;" xml:space="preserve">
<style type="text/css">
	.st0{fill:#010101;}
	.st1{fill-rule:evenodd;clip-rule:evenodd;}
	.st2{clip-path:url(#SVGID_2_);}
	.st3{clip-path:url(#SVGID_4_);}
	.st4{clip-path:url(#SVGID_6_);}
	.st5{clip-path:url(#SVGID_8_);}
	.st6{clip-path:url(#SVGID_10_);fill:#020202;}
	.st7{clip-path:url(#SVGID_12_);}
	.st8{clip-path:url(#SVGID_14_);}
	.st9{fill:none;}
	.st10{clip-path:url(#SVGID_16_);}
	.st11{clip-path:url(#SVGID_18_);}
	.st12{clip-path:url(#SVGID_20_);}
	.st13{clip-path:url(#SVGID_22_);}
	.st14{clip-path:url(#SVGID_24_);}
	.st15{fill:#1E1818;}
</style>
<g>
	<path class="st0" d="M181.3,112.6c-0.2-0.2-1-0.9-2.3-2c-22.6-18-43.1-24.3-43.1-24.3c-5.6-1.5-11.2-2.6-16.6-3.1L106,68.1
		c-3.1-3.5-8.7-4.4-13-2L63.5,82.3c-2.2,1.2-3.8,3.3-4.4,5.6c-0.5,2.3,0,4.7,1.5,6.6l1.6,2.1c-2.9,1.6-5.7,3.3-8.5,5.2L29.9,89.1
		c-4.8-2.5-10.6-2.4-15.2,0.4c-4.6,2.8-6.8,7.5-5.8,12.4c0.2,0.9,0.5,1.7,1,2.5l9.6,15.7c0.8,1.4,0.9,3,0.1,4.4l-8.9,16
		c-0.4,0.8-0.7,1.6-0.9,2.5c-0.7,4,0.8,7.8,4.1,10.6c4.8,4,11.9,4.6,17.4,1.4l23.3-13.5c1.3,0.8,2.6,1.6,4,2.3l-1,0.9
		c-4.2,3.5-4.9,9-1.7,13.2l4.2,5.5c0.5,0.6,1,1.2,1.6,1.7c2.3,1.9,5.2,2.9,8.1,2.9c2.9,0,5.8-0.9,8-2.8l11.2-9.2
		c7.6,1.8,15.1,2.6,22.4,2.5c8.4-0.1,17.1-1.6,25.8-4.3l1.1-0.3c0,0,22-6.9,43.1-27.8C185.6,122.1,185.5,116.3,181.3,112.6z
		 M176.3,122c-0.6,0.6-14.8,14.5-36.7,24.9c-1.9-1.5-3.4-3.2-4.2-4.3c-4.4-5.7-7-13.9-7.2-22.5c-0.2-8.6,2.1-16.8,6.2-22.7
		c0.9-1.3,2.3-3,4-4.4c17.7,7.7,30.9,17.8,35.8,21.9c1.2,1,1.9,1.6,2,1.7l0,0C177.8,118.3,177.8,120.5,176.3,122z"/>
	<path class="st0" d="M189.6,74.1c-0.9-8.3-1.4-13.2-1.6-14.9c1.9-0.8,3.3-2.7,3.3-4.9c0-2.3-1.5-4.3-3.7-5
		c-0.1-6.3,0.3-12.1,1.2-17.3h-3.2c-1,5.3-1.4,11-1.4,17.3c-2,0.7-3.5,2.6-3.5,4.9c0,2.5,1.7,4.5,4,5.1l1.4,14.6l1.3,12.7
		c0.2,1.3-0.1,2.4-0.9,3.4c-0.8,1-1.8,1.5-3,1.6c-1.2,0.1-2.3-0.2-3.2-0.9c-1-0.8-1.6-1.8-1.8-3c-0.1-0.7-0.1-0.7,0.3-1.5l2.7,1.6
		c-0.8-0.7-1.7-2.9-2.4-5.8c-0.6-2.6-0.8-4.8-0.6-5.9l-2.7,8.2c-0.6,1.5-0.7,2.2-0.6,3.7c0.2,2.2,1.2,3.8,2.8,5.2
		c1.7,1.4,3.6,2,5.7,1.8c2.2-0.2,3.9-1.2,5.3-2.9c1.4-1.7,2-3.6,1.8-5.7l0-0.2L189.6,74.1z M186.2,56c-1,0-1.8-0.8-1.8-1.8
		c0-1,0.8-1.8,1.8-1.8c1,0,1.8,0.8,1.8,1.8C187.9,55.2,187.1,56,186.2,56z"/>
	
		<ellipse transform="matrix(0.1602 -0.9871 0.9871 0.1602 14.2735 250.3266)" class="st0" cx="154.2" cy="116.8" rx="6.1" ry="6.1"/>
</g>
</svg>
