<?xml version="1.0" encoding="utf-8"?>
<!-- Generator: Adobe Illustrator 22.0.1, SVG Export Plug-In . SVG Version: 6.00 Build 0)  -->
<svg version="1.1" id="Layer_1" xmlns="http://www.w3.org/2000/svg" xmlns:xlink="http://www.w3.org/1999/xlink" x="0px" y="0px"
	 viewBox="0 0 200 200" style="enable-background:new 0 0 200 200;" xml:space="preserve">
<style type="text/css">
	.st0{fill:#010101;}
	.st1{fill-rule:evenodd;clip-rule:evenodd;}
	.st2{clip-path:url(#SVGID_2_);}
	.st3{clip-path:url(#SVGID_4_);}
	.st4{clip-path:url(#SVGID_6_);}
	.st5{clip-path:url(#SVGID_8_);}
	.st6{clip-path:url(#SVGID_10_);fill:#020202;}
	.st7{clip-path:url(#SVGID_12_);}
	.st8{clip-path:url(#SVGID_14_);}
	.st9{fill:none;}
	.st10{clip-path:url(#SVGID_16_);}
	.st11{clip-path:url(#SVGID_18_);}
	.st12{clip-path:url(#SVGID_20_);}
	.st13{clip-path:url(#SVGID_22_);}
	.st14{clip-path:url(#SVGID_24_);}
	.st15{fill:#1E1818;}
</style>
<g>
	<path class="st0" d="M163.8,44.3l-3.2-3.2c-3.4-3.4-8.4-4-12.4-2.1c-16.7-14.6-41.3-16-59.6-3.3c-9-5.8-19.5-8.9-30.2-8.9
		c-30.8,0-55.9,25.1-55.9,55.9v86.4c0,2.2,1.8,4.1,4.1,4.1h16.3c2.2,0,4.1-1.8,4.1-4.1V82.7c0-17.4,14.1-31.5,31.5-31.5
		c4.9,0,9.7,1.1,14.1,3.3c-8.4,17.5-5.6,38.4,7.2,53c-0.7,1.4-1.1,3-1.1,4.6c0,2.9,1.1,5.7,3.2,7.8l3.2,3.2c0.8,0.8,1.8,1.2,2.9,1.2
		c1.1,0,2.1-0.4,2.9-1.2L163.8,50C165.4,48.4,165.4,45.9,163.8,44.3z"/>
	<path class="st0" d="M124.2,110.9c-0.7-2.1-3-3.3-5.1-2.6c-2.1,0.7-3.3,3-2.6,5.1l8.1,24.4c0.6,1.7,2.2,2.8,3.9,2.8
		c0.4,0,0.9-0.1,1.3-0.2c2.1-0.7,3.3-3,2.6-5.1L124.2,110.9z"/>
	<path class="st0" d="M152.8,116.3c1,0,2.1-0.4,2.9-1.2c1.6-1.6,1.6-4.2,0-5.7l-16.3-16.3c-1.6-1.6-4.2-1.6-5.7,0
		c-1.6,1.6-1.6,4.2,0,5.7l16.3,16.3C150.8,115.9,151.8,116.3,152.8,116.3z"/>
	<path class="st0" d="M149,78.4c-0.7,2.1,0.4,4.4,2.6,5.1l24.4,8.1c0.4,0.1,0.9,0.2,1.3,0.2c1.7,0,3.3-1.1,3.9-2.8
		c0.7-2.1-0.4-4.4-2.6-5.1l-24.4-8.1C152,75.1,149.7,76.3,149,78.4z"/>
	<path class="st0" d="M148.1,126.2c-1.3-1.9-3.8-2.4-5.6-1.1c-1.9,1.2-2.4,3.8-1.1,5.6l16.3,24.4c0.8,1.2,2.1,1.8,3.4,1.8
		c0.8,0,1.6-0.2,2.3-0.7c1.9-1.2,2.4-3.8,1.1-5.6L148.1,126.2z"/>
	<path class="st0" d="M195.7,116.9l-24.4-16.3c-1.8-1.2-4.4-0.7-5.6,1.1c-1.2,1.9-0.7,4.4,1.1,5.6l24.4,16.3
		c0.7,0.5,1.5,0.7,2.3,0.7c1.3,0,2.6-0.6,3.4-1.8C198.1,120.7,197.6,118.2,195.7,116.9z"/>
</g>
</svg>
