<?xml version="1.0" encoding="utf-8"?>
<!-- Generator: Adobe Illustrator 22.0.1, SVG Export Plug-In . SVG Version: 6.00 Build 0)  -->
<svg version="1.1" id="Layer_1" xmlns="http://www.w3.org/2000/svg" xmlns:xlink="http://www.w3.org/1999/xlink" x="0px" y="0px"
	 viewBox="0 0 200 200" style="enable-background:new 0 0 200 200;" xml:space="preserve">
<style type="text/css">
	.st0{fill:#010101;}
	.st1{fill-rule:evenodd;clip-rule:evenodd;}
	.st2{clip-path:url(#SVGID_2_);}
	.st3{clip-path:url(#SVGID_4_);}
	.st4{clip-path:url(#SVGID_6_);}
	.st5{clip-path:url(#SVGID_8_);}
	.st6{clip-path:url(#SVGID_10_);fill:#020202;}
	.st7{clip-path:url(#SVGID_12_);}
</style>
<g>
	<path d="M70.2,113.2h31.2c-5.5,15.5-20.3,26.6-37.7,26.5c-21.1-0.2-38.6-17-39.4-38.1C23.4,79,41.6,60.3,64,60.3
		c10.2,0,19.6,3.9,26.6,10.3c1.7,1.5,4.2,1.5,5.9,0L108,59.8c1.8-1.7,1.8-4.5,0-6.2C96.8,43,81.8,36.4,65.3,36
		C30,35.3,0.2,64.3,0,99.5C-0.2,135.1,28.5,164,64,164c34.1,0,62-26.7,63.9-60.4c0-0.4,0.1-14.7,0.1-14.7H70.2
		c-2.4,0-4.3,1.9-4.3,4.3v15.7C65.9,111.3,67.8,113.2,70.2,113.2z"/>
	<path d="M180.9,90.3V75c0-2.1-1.7-3.8-3.8-3.8h-12.9c-2.1,0-3.8,1.7-3.8,3.8v15.4h-15.4c-2.1,0-3.8,1.7-3.8,3.8V107
		c0,2.1,1.7,3.8,3.8,3.8h15.4v15.4c0,2.1,1.7,3.8,3.8,3.8h12.9c2.1,0,3.8-1.7,3.8-3.8v-15.4h15.4c2.1,0,3.8-1.7,3.8-3.8V94.1
		c0-2.1-1.7-3.8-3.8-3.8L180.9,90.3L180.9,90.3z"/>
</g>
</svg>
