<?xml version="1.0" encoding="utf-8"?>
<!-- Generator: Adobe Illustrator 22.0.1, SVG Export Plug-In . SVG Version: 6.00 Build 0)  -->
<svg version="1.1" id="Layer_1" xmlns="http://www.w3.org/2000/svg" xmlns:xlink="http://www.w3.org/1999/xlink" x="0px" y="0px"
	 viewBox="0 0 200 200" style="enable-background:new 0 0 200 200;" xml:space="preserve">
<style type="text/css">
	.st0{fill:#010101;}
	.st1{fill-rule:evenodd;clip-rule:evenodd;}
	.st2{clip-path:url(#SVGID_2_);}
	.st3{clip-path:url(#SVGID_4_);}
	.st4{clip-path:url(#SVGID_6_);}
	.st5{clip-path:url(#SVGID_8_);}
	.st6{clip-path:url(#SVGID_10_);fill:#020202;}
	.st7{clip-path:url(#SVGID_12_);}
</style>
<g>
	<path d="M184.4,51.1c-8.7-14.9-20.5-26.8-35.5-35.5C134,6.9,117.7,2.5,100,2.5c-17.7,0-34,4.4-48.9,13.1
		c-14.9,8.7-26.8,20.5-35.5,35.5C6.9,66,2.5,82.3,2.5,100c0,17.7,4.4,34,13.1,48.9c8.7,14.9,20.5,26.8,35.5,35.5
		c14.9,8.7,31.3,13.1,48.9,13.1c17.7,0,34-4.4,48.9-13.1c14.9-8.7,26.8-20.5,35.5-35.5c8.7-14.9,13.1-31.3,13.1-48.9
		C197.5,82.3,193.1,66,184.4,51.1L184.4,51.1z M83.8,26.9c0-1.2,0.4-2.2,1.1-2.9c0.8-0.8,1.7-1.1,2.9-1.1h24.4
		c1.2,0,2.2,0.4,2.9,1.1c0.8,0.8,1.1,1.7,1.1,2.9v20.3c0,1.2-0.4,2.2-1.1,2.9c-0.8,0.8-1.7,1.1-2.9,1.1H87.8c-1.2,0-2.2-0.4-2.9-1.1
		c-0.8-0.8-1.1-1.7-1.1-2.9V26.9z M132.5,160.9c0,1.2-0.4,2.2-1.1,2.9c-0.8,0.8-1.7,1.1-2.9,1.1H71.6c-1.2,0-2.2-0.4-2.9-1.1
		c-0.8-0.8-1.1-1.7-1.1-2.9v-20.3c0-1.2,0.4-2.2,1.1-2.9c0.8-0.8,1.7-1.1,2.9-1.1h12.2V95.9H71.6c-1.2,0-2.2-0.4-2.9-1.1
		c-0.8-0.8-1.1-1.7-1.1-2.9V71.6c0-1.2,0.4-2.2,1.1-2.9c0.8-0.8,1.7-1.1,2.9-1.1h40.6c1.2,0,2.2,0.4,2.9,1.1
		c0.8,0.8,1.1,1.7,1.1,2.9v65h12.2c1.2,0,2.2,0.4,2.9,1.1c0.8,0.8,1.1,1.7,1.1,2.9V160.9z M132.5,160.9"/>
</g>
</svg>
