<?xml version="1.0" encoding="utf-8"?>
<!-- Generator: Adobe Illustrator 22.0.1, SVG Export Plug-In . SVG Version: 6.00 Build 0)  -->
<svg version="1.0" id="Layer_1" xmlns="http://www.w3.org/2000/svg" xmlns:xlink="http://www.w3.org/1999/xlink" x="0px" y="0px"
	 viewBox="0 0 200 200" style="enable-background:new 0 0 200 200;" xml:space="preserve">
<style type="text/css">
	.st0{fill:none;}
</style>
<g>
	<circle class="st0" cx="100" cy="37.5" r="12.5"/>
	<polygon points="87.5,162.5 87.5,87.5 93.8,75 56.3,75 62.5,87.5 62.5,162.5 	"/>
	<polygon points="37.5,162.5 37.5,87.5 43.8,75 6.3,75 12.5,87.5 12.5,162.5 	"/>
	<path d="M100,0L0,62.5h200L100,0z M100,50c-6.9,0-12.5-5.6-12.5-12.5S93.1,25,100,25s12.5,5.6,12.5,12.5S106.9,50,100,50z"/>
	<polygon points="6.3,175 0,200 200,200 193.8,175 	"/>
	<polygon points="187.5,162.5 187.5,87.5 193.8,75 156.3,75 162.5,87.5 162.5,162.5 	"/>
	<polygon points="137.5,162.5 137.5,87.5 143.8,75 106.3,75 112.5,87.5 112.5,162.5 	"/>
</g>
</svg>
