<?xml version="1.0" encoding="utf-8"?>
<!-- Generator: Adobe Illustrator 22.0.1, SVG Export Plug-In . SVG Version: 6.00 Build 0)  -->
<svg version="1.1" id="Layer_1" xmlns="http://www.w3.org/2000/svg" xmlns:xlink="http://www.w3.org/1999/xlink" x="0px" y="0px"
	 viewBox="0 0 200 200" style="enable-background:new 0 0 200 200;" xml:space="preserve">
<style type="text/css">
	.st0{fill:#010101;}
	.st1{fill-rule:evenodd;clip-rule:evenodd;}
	.st2{clip-path:url(#SVGID_2_);}
	.st3{clip-path:url(#SVGID_4_);}
	.st4{clip-path:url(#SVGID_6_);}
	.st5{clip-path:url(#SVGID_8_);}
	.st6{clip-path:url(#SVGID_10_);fill:#020202;}
	.st7{clip-path:url(#SVGID_12_);}
	.st8{clip-path:url(#SVGID_14_);}
	.st9{fill:none;}
	.st10{clip-path:url(#SVGID_16_);}
	.st11{clip-path:url(#SVGID_18_);}
	.st12{clip-path:url(#SVGID_20_);}
	.st13{clip-path:url(#SVGID_22_);}
	.st14{clip-path:url(#SVGID_24_);}
	.st15{fill:#1E1818;}
</style>
<g>
	<path d="M6605.8-178.2v26.2h-19.2v32h19.2V-25h39.4v-95.1h26.4c0,0,2.5-15.3,3.7-32.1h-29.9V-174c0-3.3,4.3-7.7,8.5-7.7h21.5V-215
		h-29.2C6604.9-215,6605.8-183,6605.8-178.2L6605.8-178.2z M6605.8-178.2"/>
</g>
<g>
	<path d="M6948.5-180.5c-7.2,3.2-14.9,5.3-23,6.3c8.3-5,14.6-12.8,17.6-22.1c-7.7,4.6-16.3,7.9-25.4,9.7
		c-7.3-7.8-17.7-12.6-29.2-12.6c-22.1,0-40,17.9-40,40c0,3.1,0.4,6.2,1,9.1c-33.3-1.7-62.8-17.6-82.5-41.8
		c-3.4,5.9-5.4,12.8-5.4,20.1c0,13.9,7.1,26.1,17.8,33.3c-6.6-0.2-12.7-2-18.1-5c0,0.2,0,0.3,0,0.5c0,19.4,13.8,35.6,32.1,39.2
		c-3.4,0.9-6.9,1.4-10.5,1.4c-2.6,0-5.1-0.3-7.5-0.7c5.1,15.9,19.9,27.5,37.4,27.8c-13.7,10.7-31,17.1-49.7,17.1
		c-3.2,0-6.4-0.2-9.5-0.6c17.7,11.4,38.8,18,61.4,18c73.6,0,113.9-61,113.9-113.9c0-1.7,0-3.5-0.1-5.2
		C6936.4-165.4,6943.2-172.5,6948.5-180.5L6948.5-180.5z M6948.5-180.5"/>
</g>
<g>
	<path d="M7041.2-106.8h31.2c-5.5,15.5-20.3,26.6-37.7,26.5c-21.1-0.2-38.5-17-39.4-38.1c-0.9-22.6,17.3-41.3,39.7-41.3
		c10.2,0,19.6,3.9,26.6,10.3c1.7,1.5,4.2,1.5,5.9,0l11.5-10.8c1.8-1.7,1.8-4.5,0-6.2c-11.2-10.6-26.2-17.2-42.7-17.5
		c-35.3-0.7-65,28.2-65.3,63.5c-0.2,35.5,28.5,64.4,64,64.4c34.1,0,62-26.7,63.9-60.4c0-0.4,0.1-14.7,0.1-14.7h-57.8
		c-2.4,0-4.3,1.9-4.3,4.3v15.7C7036.9-108.7,7038.8-106.8,7041.2-106.8z"/>
	<path d="M7151.9-129.7V-145c0-2.1-1.7-3.8-3.8-3.8h-12.9c-2.1,0-3.8,1.7-3.8,3.8v15.4h-15.4c-2.1,0-3.8,1.7-3.8,3.8v12.9
		c0,2.1,1.7,3.8,3.8,3.8h15.4v15.4c0,2.1,1.7,3.8,3.8,3.8h12.9c2.1,0,3.8-1.7,3.8-3.8v-15.4h15.4c2.1,0,3.8-1.7,3.8-3.8v-12.9
		c0-2.1-1.7-3.8-3.8-3.8H7151.9L7151.9-129.7z"/>
</g>
<g>
	<path class="st0" d="M7335.8-22.5h-89.6c-29.1,0-52.7-23.6-52.7-52.7v-89.6c0-29.1,23.6-52.7,52.7-52.7h89.6
		c29.1,0,52.7,23.6,52.7,52.7v89.6C7388.5-46.1,7364.9-22.5,7335.8-22.5z M7246.2-201.7c-20.4,0-36.9,16.6-36.9,36.9v89.6
		c0,20.4,16.6,36.9,36.9,36.9h89.6c20.4,0,36.9-16.6,36.9-36.9v-89.6c0-20.4-16.6-36.9-36.9-36.9H7246.2z"/>
	<path class="st0" d="M7291.3-76.7c-9.3,0-18.3-3-26-8.6c-9.4-7-15.5-17.2-17.2-28.7s1.2-23.1,8.1-32.5c7-9.4,17.2-15.5,28.7-17.2
		c4.3-0.6,8.6-0.6,12.8,0c9.3,1.4,17.8,5.7,24.5,12.3c6.7,6.7,10.9,15.2,12.3,24.5l0,0c1.7,11.6-1.2,23.1-8.1,32.5
		c-7,9.4-17.2,15.5-28.7,17.2C7295.6-76.8,7293.5-76.7,7291.3-76.7z M7291.4-148.4c-1.4,0-2.7,0.1-4.1,0.3c-7.4,1.1-13.9,5-18.4,11
		s-6.3,13.4-5.2,20.8c1.1,7.4,5,13.9,11,18.4c6,4.5,13.4,6.3,20.8,5.2c15.3-2.3,25.8-16.5,23.6-31.8c-1.8-12.3-11.3-21.7-23.6-23.6
		C7294.1-148.3,7292.8-148.4,7291.4-148.4z"/>
	<path class="st0" d="M7340.3-161.4c-2.1,0-4.1-0.8-5.6-2.3c-1.5-1.5-2.3-3.5-2.3-5.6s0.8-4.1,2.3-5.6c1.5-1.5,3.5-2.3,5.6-2.3
		c2.1,0,4.1,0.8,5.6,2.3c1.5,1.5,2.3,3.5,2.3,5.6c0,2.1-0.8,4.1-2.3,5.6C7344.4-162.3,7342.4-161.4,7340.3-161.4z"/>
</g>
<g>
	<path class="st0" d="M7511-29c-0.5,0-0.9,0-1.4,0c-0.3,0-0.6,0-1,0c-12.5,0-18.8-3.7-25.7-8.6c-4.7-3.3-8.7-6.2-13.3-6.9
		c-2.4-0.4-4.9-0.6-7.2-0.6c-4.2,0-7.5,0.7-10,1.1c-1.7,0.3-3.3,0.6-4.6,0.6c-4,0-5.4-2.7-5.9-4.3c-0.5-1.6-0.8-3.1-1.1-4.6
		c-0.2-1-0.6-2.8-1-3.7c-15.4-2.4-23.6-5.9-25.7-11c-0.3-0.8-0.5-1.5-0.5-2.2c-0.1-2.7,1.7-5,4.4-5.5c25.5-4.2,37.1-30.5,37.6-31.7
		c1.3-2.8,1.7-4.8,1-6.3c-1.3-3-6.8-4.8-10-5.8c-1.2-0.4-2.1-0.7-2.9-1c-9.7-3.8-11-8.5-10.4-11.8c1.1-6,9.6-8.9,14.2-6.7
		c3.2,1.5,6,2.3,8.3,2.3c1.1,0,1.9-0.2,2.5-0.4c-0.1-1.2-0.2-2.5-0.2-3.8c-0.8-13.2-1.9-29.7,2.5-39.6c13-29.2,40.7-31.5,48.8-31.5
		l3.8,0c8.2,0,35.9,2.3,48.9,31.5c4.4,9.9,3.4,26.4,2.5,39.6l0,0.6c-0.1,1.1-0.1,2.2-0.2,3.3c0.5,0.2,1.2,0.3,2.1,0.4
		c2-0.1,4.7-0.8,7.7-2.2c1.5-0.7,3.1-0.9,4.2-0.9c1.6,0,3.2,0.3,4.5,0.9c3.9,1.4,6.6,4.5,6.6,7.9c0.1,4.3-3.5,7.8-10.6,10.6
		c-0.7,0.3-1.7,0.6-2.6,0.9c-3.5,1.1-9,2.8-10.3,5.9c-0.6,1.5-0.3,3.5,0.9,6c0,0.1,0.1,0.3,0.1,0.3c1.2,2.8,12.4,27.7,36.9,31.7
		c2.7,0.4,4.5,2.8,4.4,5.5c-0.1,0.8-0.2,1.6-0.6,2.3c-2.1,5-9.9,8.4-25.1,10.8c-0.4,0.9-0.8,2.9-1,3.7c-0.3,1.5-0.7,3-1.1,4.6
		c-0.8,2.7-2.9,4.2-5.7,4.2c-1.4,0-2.9-0.2-4.8-0.6c-2.8-0.6-6-1.1-10-1.1c-2.3,0-4.7,0.2-7.2,0.6c-4.6,0.8-8.8,3.8-13.3,6.9
		C7531.6-31.9,7522-29,7511-29"/>
</g>
<g>
	<path d="M7787.2-74.9h-10.7l0.1-6.2c0-2.8,2.3-5,5-5h0.7c2.8,0,5,2.3,5,5L7787.2-74.9z M7747.1-88.2c-2.7,0-4.9,1.8-4.9,4.1v30.2
		c0,2.2,2.2,4.1,4.9,4.1c2.7,0,5-1.8,5-4.1v-30.2C7752-86.4,7749.8-88.2,7747.1-88.2L7747.1-88.2z M7812.3-105.1v57.5
		c0,13.8-12,25.1-26.6,25.1h-109.3c-14.6,0-26.6-11.3-26.6-25.1v-57.5c0-13.8,12-25.1,26.6-25.1h109.3
		C7800.3-130.2,7812.3-118.9,7812.3-105.1L7812.3-105.1z M7683.6-41.3v-60.6h13.6v-9l-36.1-0.1v8.8l11.3,0v60.7H7683.6z
		 M7724.3-92.9H7713v32.4c0,4.7,0.3,7,0,7.8c-0.9,2.5-5,5.2-6.7,0.3c-0.3-0.9,0-3.4,0-7.9l0-32.6H7695l0,32.1c0,4.9-0.1,8.6,0,10.3
		c0.3,2.9,0.2,6.4,2.9,8.3c5.1,3.7,14.8-0.5,17.3-5.8l0,6.7l9.1,0L7724.3-92.9L7724.3-92.9z M7760.4-55.8l0-26.9
		c0-10.3-7.7-16.4-18.1-8.1l0.1-20l-11.3,0l-0.1,69.1l9.3-0.1l0.8-4.3C7753-35.3,7760.4-42.8,7760.4-55.8L7760.4-55.8z M7795.8-59.4
		l-8.5,0.1c0,0.3,0,0.7,0,1.1v4.7c0,2.5-2.1,4.6-4.6,4.6h-1.7c-2.5,0-4.6-2.1-4.6-4.6v-12.4h19.4v-7.3c0-5.3-0.1-10.7-0.6-13.7
		c-1.4-9.6-14.9-11.2-21.8-6.2c-2.1,1.5-3.8,3.6-4.7,6.4c-1,2.8-1.4,6.6-1.4,11.4v16C7767.2-32.7,7799.6-36.5,7795.8-59.4
		L7795.8-59.4z M7752.3-146.6c0.6,1.4,1.5,2.6,2.7,3.4c1.2,0.9,2.8,1.3,4.6,1.3c1.6,0,3.1-0.4,4.3-1.3c1.2-0.9,2.3-2.3,3.2-4.1
		l-0.2,4.4h12.6v-53.6h-9.9v41.7c0,2.3-1.9,4.1-4.1,4.1c-2.3,0-4.1-1.8-4.1-4.1v-41.7H7751v36.1c0,4.6,0.1,7.7,0.2,9.2
		C7751.4-149.5,7751.7-148,7752.3-146.6L7752.3-146.6z M7714.1-176.8c0-5.1,0.4-9.2,1.3-12.1c0.9-2.9,2.4-5.2,4.6-6.9
		c2.2-1.8,5.1-2.6,8.5-2.6c2.9,0,5.4,0.6,7.5,1.7c2.1,1.1,3.7,2.6,4.8,4.4c1.1,1.8,1.9,3.7,2.3,5.6c0.4,1.9,0.6,4.8,0.6,8.8v13.6
		c0,5-0.2,8.6-0.6,10.9c-0.4,2.3-1.2,4.5-2.5,6.5c-1.3,2-2.9,3.5-4.8,4.5c-2,1-4.3,1.4-6.8,1.4c-2.9,0-5.3-0.4-7.3-1.2
		c-2-0.8-3.5-2.1-4.6-3.7c-1.1-1.6-1.9-3.7-2.4-6c-0.5-2.3-0.7-5.9-0.7-10.6V-176.8z M7724-155.6c0,3,2.3,5.5,5,5.5
		c2.7,0,5-2.5,5-5.5v-28.5c0-3-2.2-5.5-5-5.5c-2.8,0-5,2.5-5,5.5V-155.6z M7689.1-141.2h11.9l0-41.1l14-35.2h-13l-7.5,26.1
		l-7.6-26.2h-12.9l14.9,35.3L7689.1-141.2z M7689.1-141.2"/>
</g>
<g>
	<path d="M7911.4-95c-1.2,0-2.2,0.4-3,1.2c-0.8,0.8-1.2,1.8-1.2,2.9c0,1.2,0.4,2.2,1.2,3c0.8,0.8,1.8,1.2,3,1.2
		c1.1,0,2.1-0.4,2.9-1.2c0.8-0.8,1.2-1.8,1.2-3c0-1.1-0.4-2.1-1.2-2.9C7913.5-94.6,7912.5-95,7911.4-95z"/>
	<path d="M7951-219c-54.7,0-99,44.3-99,99c0,54.7,44.3,99,99,99s99-44.3,99-99C8050-174.7,8005.7-219,7951-219z M7926-82.5
		c0,1.1-0.4,2.1-1.2,2.9c-0.8,0.8-1.8,1.2-2.9,1.2H7903c-1.1,0-2.1-0.4-2.9-1.2c-0.8-0.8-1.2-1.8-1.2-2.9v-41.7
		c0-1.1,0.4-2.1,1.2-2.9c0.8-0.8,1.8-1.2,2.9-1.2h18.8c1.1,0,2.1,0.4,2.9,1.2c0.8,0.8,1.2,1.8,1.2,2.9V-82.5z M8000.5-109.5
		c0.1,3.3-0.8,6.3-2.8,8.9c0.7,2.4,0.7,5,0,7.6c-0.6,2.5-1.8,4.5-3.5,6.1c0.4,4.9-0.7,8.8-3.2,11.8c-2.8,3.3-7.1,5-12.8,5.1h-8.4
		c-2.9,0-6-0.3-9.4-1c-3.4-0.7-6-1.3-7.9-1.9c-1.9-0.6-4.5-1.4-7.9-2.6c-5.3-1.9-8.8-2.8-10.3-2.9c-1.1,0-2.1-0.5-2.9-1.3
		c-0.8-0.8-1.2-1.8-1.2-2.9v-41.8c0-1.1,0.4-2,1.2-2.8c0.8-0.8,1.7-1.3,2.8-1.3c1-0.1,2.7-1.4,5-3.8c2.3-2.5,4.5-5.1,6.6-7.9
		c3-3.8,5.1-6.4,6.6-7.8c0.8-0.8,1.5-1.8,2-3.1c0.6-1.3,0.9-2.4,1.1-3.2c0.2-0.8,0.5-2.1,0.9-3.9c0.3-1.7,0.6-3,0.8-4
		c0.2-1,0.7-2.1,1.3-3.4c0.6-1.3,1.3-2.4,2.2-3.3c0.8-0.8,1.8-1.2,2.9-1.2c2,0,3.8,0.2,5.4,0.7c1.6,0.5,2.9,1,3.9,1.7
		c1,0.7,1.9,1.5,2.6,2.6c0.7,1.1,1.2,2.1,1.6,2.9c0.3,0.9,0.6,2,0.8,3.3c0.2,1.3,0.3,2.3,0.3,2.9c0,0.6,0,1.5,0,2.5
		c0,1.7-0.2,3.3-0.6,5c-0.4,1.7-0.8,3-1.2,3.9c-0.4,1-1,2.2-1.8,3.6c-0.1,0.3-0.3,0.7-0.6,1.2c-0.3,0.5-0.5,1-0.7,1.4
		c-0.2,0.4-0.3,1-0.5,1.6h18.1c3.4,0,6.3,1.2,8.8,3.7c2.5,2.5,3.7,5.4,3.7,8.8c0,3.7-1.2,7-3.6,9.7
		C8000.2-112.5,8000.5-110.9,8000.5-109.5z"/>
</g>
<g>
	<path d="M8266.7-120l-57.6-58l-15.1,15.1l32.5,32.2h-151v21.4h151l-32.5,32.2l15.1,15.1L8266.7-120z M8266.7-120"/>
</g>
<g>
	<g>
		<path class="st1" d="M8484.4-49.8l-42.7-42.7c-0.2-0.2-0.5-0.4-0.7-0.6c8.4-12.7,13.3-28,13.3-44.4c0-44.6-36.1-80.7-80.7-80.7
			c-44.6,0-80.7,36.1-80.7,80.7c0,44.6,36.1,80.7,80.7,80.7c16.4,0,31.6-4.9,44.4-13.3c0.2,0.2,0.4,0.5,0.6,0.7l42.7,42.7
			c6.4,6.4,16.8,6.4,23.2,0C8490.8-33,8490.8-43.4,8484.4-49.8L8484.4-49.8z M8373.6-84.7c-29.1,0-52.7-23.6-52.7-52.7
			c0-29.1,23.6-52.7,52.7-52.7s52.7,23.6,52.7,52.7C8426.3-108.3,8402.7-84.7,8373.6-84.7L8373.6-84.7z M8373.6-84.7"/>
	</g>
</g>
<path class="st0" d="M8578.2-215c-2-2-4.7-3.1-7.6-3.1c-2.9,0-5.6,1.1-7.6,3.1l-6.4,6.4c-4.2,4.2-4.2,11,0,15.2l73.4,73.4
	l-73.4,73.4c-2,2-3.1,4.7-3.1,7.6c0,2.9,1.1,5.6,3.1,7.6l6.4,6.4c2,2,4.7,3.1,7.6,3.1c2.9,0,5.6-1.1,7.6-3.1l87.5-87.4
	c2-2,3.1-4.7,3.1-7.6c0-2.9-1.1-5.6-3.1-7.6L8578.2-215z"/>
<g>
	<path d="M8895.4-169.3c-0.7-2.6-2.1-5.4-3.2-7.9c-12.6-30.2-40-41-62.2-41c-29.7,0-62.3,19.9-66.7,60.9v8.4c0,0.4,0.1,3.5,0.3,5.1
		c2.5,19.5,17.9,40.3,29.4,59.9c12.4,20.9,25.2,41.5,38,62.1c7.9-13.4,15.7-27.1,23.4-40.1c2.1-3.8,4.5-7.7,6.6-11.3
		c1.4-2.5,4.1-4.9,5.3-7.2c12.4-22.7,32.3-45.5,32.3-68.1v-9.2C8898.6-160.2,8895.6-168.8,8895.4-169.3L8895.4-169.3z M8830.6-127.2
		c-8.7,0-18.3-4.4-23-16.4c-0.7-1.9-0.6-5.8-0.6-6.1v-5.4c0-15.3,13-22.3,24.4-22.3c14,0,24.8,11.2,24.8,25.1
		C8856.1-138.4,8844.6-127.2,8830.6-127.2L8830.6-127.2z M8830.6-127.2"/>
</g>
<g>
	<path d="M8981.2-155h-0.5c-6.4,0-11.5,5.2-11.5,11.5v50.3c0,6.3,5.2,11.6,11.5,11.6h0.5c6.4,0,11.5-5.2,11.5-11.6v-50.3
		C8992.7-149.8,8987.5-155,8981.2-155L8981.2-155z M8981.2-155"/>
	<g>
		<defs>
			<rect id="SVGID_1_" x="8969.2" y="-218.2" width="163.7" height="196.3"/>
		</defs>
		<clipPath id="SVGID_2_">
			<use xlink:href="#SVGID_1_"  style="overflow:visible;"/>
		</clipPath>
		<path class="st2" d="M8998.3-73.9c0,5.9,4.8,10.6,10.6,10.6h11.3v27.2c0,6.4,5.2,11.5,11.6,11.5h0.5c6.4,0,11.6-5.2,11.6-11.5
			v-27.2h15.9v27.2c0,6.4,5.2,11.5,11.5,11.5h0.5c6.4,0,11.5-5.2,11.5-11.5v-27.2h11.3c5.8,0,10.6-4.7,10.6-10.6v-79.3h-106.9V-73.9
			z M8998.3-73.9"/>
		<path class="st2" d="M9078.3-201.3l9-13.9c0.6-0.8,0.3-2.1-0.6-2.6c-0.9-0.6-2.1-0.4-2.6,0.6l-9.4,14.4c-7-2.9-14.8-4.5-23.1-4.5
			c-8.3,0-16.1,1.6-23.1,4.5l-9.3-14.4c-0.6-0.9-1.8-1.2-2.7-0.6c-0.9,0.6-1.1,1.8-0.6,2.6l9,13.9c-16.2,8-27.2,23-27.2,40.2
			c0,1.1,0.1,2.1,0.2,3.2h107.3c0.1-1.1,0.2-2.1,0.2-3.2C9105.5-178.3,9094.6-193.3,9078.3-201.3L9078.3-201.3z M9026.8-176.4
			c-2.9,0-5.2-2.3-5.2-5.2c0-2.9,2.3-5.1,5.2-5.1s5.2,2.3,5.2,5.1C9032-178.7,9029.7-176.4,9026.8-176.4L9026.8-176.4z
			 M9076.6-176.4c-2.9,0-5.2-2.3-5.2-5.2c0-2.9,2.3-5.1,5.2-5.1c2.9,0,5.2,2.3,5.2,5.1C9081.8-178.7,9079.5-176.4,9076.6-176.4
			L9076.6-176.4z M9076.6-176.4"/>
		<path class="st2" d="M9122.7-155h-0.5c-6.4,0-11.5,5.2-11.5,11.5v50.3c0,6.3,5.2,11.6,11.5,11.6h0.5c6.4,0,11.5-5.2,11.5-11.6
			v-50.3C9134.3-149.8,9129.1-155,9122.7-155L9122.7-155z M9122.7-155"/>
	</g>
</g>
<g>
	<path d="M9335.5-89.2c-5.5-7.8-8.2-16.7-8.2-26.5c0-9,2.6-17.2,7.7-24.6c2.8-4,7.3-8.7,13.6-14c-4.1-5.1-8.2-9-12.4-11.9
		c-7.5-5.2-15.9-7.7-25.3-7.7c-5.6,0-12.5,1.3-20.6,4c-7.8,2.7-13.4,4-17,4c-2.7,0-8.2-1.2-16.4-3.6c-8.3-2.4-15.3-3.6-21.1-3.6
		c-13.6,0-24.9,5.7-33.8,17.1c-9,11.6-13.4,26.4-13.4,44.5c0,19.2,5.8,39.1,17.5,59.8c11.8,20.5,23.7,30.8,35.8,30.8
		c4,0,9.3-1.3,15.7-4c6.4-2.6,12-3.9,16.9-3.9c5.2,0,11.1,1.3,18,3.8c7.2,2.5,12.8,3.8,16.7,3.8c10.1,0,20.3-7.8,30.6-23.3
		c6.7-9.9,11.5-19.8,14.6-29.7C9347.2-76.4,9340.9-81.4,9335.5-89.2L9335.5-89.2z M9335.5-89.2"/>
	<path d="M9295-181.1c5-5,8.7-10.5,11.1-16.4c2.3-5.9,3.4-11.3,3.4-16.2c0-0.3,0-0.7-0.1-1.2c0-0.5-0.1-0.9-0.1-1.2
		c-0.1-0.2-0.2-0.7-0.3-1.3c-0.1-0.6-0.2-1.1-0.3-1.3c-14,3.3-23.9,9.1-29.7,17.6c-6,8.6-9,18.7-9.3,30.6c5.3-0.5,9.4-1.1,12.4-2
		C9286.4-174,9290.7-176.9,9295-181.1L9295-181.1z M9295-181.1"/>
</g>
<g>
	<path d="M9491.9-119.9c13.6,0,25.3-4.8,34.9-14.5c9.7-9.6,14.5-21.3,14.5-34.9c0-13.6-4.8-25.3-14.5-34.9
		c-9.6-9.6-21.3-14.5-34.9-14.5s-25.3,4.8-34.9,14.5c-9.7,9.7-14.5,21.3-14.5,34.9c0,13.6,4.8,25.3,14.5,34.9
		C9466.6-124.8,9478.3-119.9,9491.9-119.9L9491.9-119.9z M9491.9-119.9"/>
	<path d="M9582-67.8c-0.3-4.3-0.9-9-1.8-14c-0.9-5-2-9.7-3.4-14c-1.4-4.3-3.2-8.5-5.5-12.5c-2.3-4.1-5-7.5-8-10.4
		c-3-2.9-6.7-5.2-11-6.9c-4.3-1.7-9.1-2.6-14.3-2.6c-0.8,0-2.6,0.9-5.4,2.8c-2.8,1.9-6,3.9-9.6,6.2c-3.6,2.3-8.2,4.3-13.9,6.2
		c-5.7,1.8-11.4,2.8-17.2,2.8c-5.7,0-11.5-0.9-17.2-2.8c-5.7-1.8-10.3-3.9-13.9-6.2c-3.6-2.3-6.8-4.3-9.6-6.2
		c-2.8-1.8-4.6-2.8-5.4-2.8c-5.2,0-10,0.9-14.3,2.6c-4.3,1.7-8,4-11,6.9c-3,2.9-5.7,6.3-8,10.4c-2.3,4.1-4.2,8.2-5.5,12.5
		c-1.4,4.3-2.5,8.9-3.4,14c-0.9,5-1.5,9.7-1.8,14c-0.3,4.3-0.4,8.8-0.4,13.3c0,10.3,3.1,18.4,9.4,24.4c6.3,6,14.6,8.9,25,8.9h112.4
		c10.4,0,18.7-3,25-8.9c6.3-6,9.4-14.1,9.4-24.4C9582.4-59,9582.3-63.5,9582-67.8L9582-67.8z M9582-67.8"/>
</g>
<path class="st0" d="M9797.8-198.1h-49.2v-8.7c0-4.8-3.9-8.7-8.7-8.7s-8.7,3.9-8.7,8.7v8.7h-40.5v-8.7c0-4.8-3.9-8.7-8.7-8.7
	s-8.7,3.9-8.7,8.7v8.7h-49.2c-4.8,0-8.7,3.9-8.7,8.7v34.7v40.5v40.5v40.5c0,4.8,3.9,8.7,8.7,8.7h57.9h57.9h57.9
	c4.8,0,8.7-3.9,8.7-8.7v-40.5v-40.5v-40.5v-34.7C9806.5-194.2,9802.6-198.1,9797.8-198.1z M9789.1-122.9h-40.5V-146h40.5V-122.9z
	 M9632.9-146h40.5v23.2h-40.5V-146z M9690.7-146h40.5v23.2h-40.5V-146z M9632.9-105.5h40.5v23.2h-40.5V-105.5z M9690.7-105.5h40.5
	v23.2h-40.5V-105.5z M9748.6-105.5h40.5v23.2h-40.5V-105.5z M9632.9-65h40.5v23.2h-40.5V-65z M9690.7-65h40.5v23.2h-40.5V-65z
	 M9789.1-41.9h-40.5V-65h40.5V-41.9z"/>
<g>
	<g>
		<defs>
			<rect id="SVGID_3_" x="9833" y="-218" width="195.8" height="196"/>
		</defs>
		<clipPath id="SVGID_4_">
			<use xlink:href="#SVGID_3_"  style="overflow:visible;"/>
		</clipPath>
		<path class="st3" d="M10025.8-193.9c3-8.9,2.4-15.7-1.7-20.6c-4.8-4.1-11.7-4.6-20.6-1.7c-8.9,3-16.9,8-23.9,15l-22.2,22.2
			l-92.3-22.1c-1.5-0.5-2.9-0.1-4.2,1.1l-17.8,17.8c-1,1-1.4,2.3-1.2,3.8c0.3,1.5,1.1,2.6,2.4,3.3l70.5,38.7l-36,36l-26.9-7.4
			c-0.2-0.1-0.5-0.1-1.1-0.1c-1.3,0-2.4,0.4-3.2,1.2l-13.3,13.5c-0.9,1.1-1.3,2.3-1.2,3.5c0.2,1.5,0.8,2.5,1.8,3.2l35,26.2l26.2,35
			c0.8,1,1.9,1.6,3.3,1.8h0.3c1.3,0,2.4-0.4,3.2-1.2l13.3-13.3c1.2-1.3,1.6-2.7,1.1-4.3l-7.4-26.9l36-36l38.7,70.5
			c0.6,1.2,1.5,1.9,2.9,2.2c0.3,0.1,0.6,0.1,1,0.1c1.1,0,2-0.3,2.6-0.8l17.8-13.3c1.6-1.3,2.1-2.8,1.7-4.6l-22.2-96.6l22.4-22.4
			C10017.8-177.1,10022.8-185,10025.8-193.9L10025.8-193.9z M10025.8-193.9"/>
	</g>
</g>
<g>
	<path d="M10053.3-203.3l73.3,73.3v93.3l48.8-12.2V-130l73.3-73.3H10053.3z M10053.3-203.3"/>
</g>
<g>
	<g>
		<defs>
			<rect id="SVGID_5_" x="10272.5" y="-218.5" width="197" height="197"/>
		</defs>
		<clipPath id="SVGID_6_">
			<use xlink:href="#SVGID_5_"  style="overflow:visible;"/>
		</clipPath>
		<path class="st4" d="M10465.8-129.7c3.9-3.8,5.3-9.4,3.6-14.5c-1.7-5.2-6-8.9-11.4-9.6l-47.8-7c-2-0.3-3.8-1.6-4.7-3.4l-21.4-43.3
			c-2.4-4.9-7.3-7.9-12.7-7.9c-5.4,0-10.3,3-12.7,7.9l-21.4,43.3c-0.9,1.8-2.7,3.1-4.7,3.4l-47.8,7c-5.4,0.8-9.8,4.5-11.5,9.6
			c-1.7,5.2-0.3,10.7,3.6,14.5l34.6,33.7c1.5,1.4,2.1,3.5,1.8,5.5l-8.2,47.6c-0.7,4.2,0.4,8.3,3.1,11.5c4.2,5,11.6,6.6,17.5,3.4
			l42.8-22.5c1.8-0.9,4-0.9,5.8,0l42.8,22.5c2.1,1.1,4.3,1.7,6.6,1.7c4.2,0,8.1-1.9,10.9-5.1c2.7-3.2,3.8-7.3,3.1-11.5l-8.2-47.6
			c-0.4-2,0.3-4.1,1.8-5.5L10465.8-129.7z M10465.8-129.7"/>
	</g>
</g>
<g>
	<g>
		<path d="M10667-74.2l-24.3-44.4c-1.8-3.3-4.9-5.4-8.1-6c-1.3-0.4-2.6-0.7-4-0.7h-36.9l-0.8-11.3h29.8c3.9,0,7.1-3.6,7.1-7.9
			c0-4.4-3.2-7.9-7.1-7.9h-30.8l-0.9-14c-0.5-7.7-6.9-13.5-14.4-13.5c-0.3,0-0.6,0-1,0l-3,0.2c-8,0.5-14,7.4-13.5,15.4l3.3,50.8
			c0.5,7.7,6.9,13.5,14.4,13.5c0.2,0,0.4,0,0.5,0h0.4c0.3,0,0.6,0,0.8,0h50.6l19.6,35.8c2.2,3.9,6.1,6.2,10,6.2
			c1.6,0,3.1-0.4,4.6-1.2C10668.4-62,10670-68.7,10667-74.2L10667-74.2z M10667-74.2"/>
		<path d="M10574.3-184c9.3,0,16.8-7.5,16.8-16.8c0-9.3-7.5-16.8-16.8-16.8c-9.3,0-16.8,7.5-16.8,16.8
			C10557.5-191.5,10565-184,10574.3-184L10574.3-184z M10574.3-184"/>
		<path d="M10636.6-65.1c0,0-4-3.1-7,1.6c-3.1,4.7-7.6,16.6-24.3,25.1c-10.3,5.3-23.9,10-42.8,4.3c-18.9-5.7-42.4-27.4-39.3-57.9
			c2.1-16.1,7.5-28.9,24.5-42.1c3.5-3.2,3.4-5.4,1.8-7.3c-1.6-1.9-4.1-2.4-6.5-0.9c-2.4,1.5-3.8,2.6-3.8,2.6s-28,19.9-25.4,56.2
			c2.6,36.2,31.1,57.1,55.7,60.6c24.6,3.5,51.9-6.6,67.2-33.5C10638.1-59.9,10639.7-62.2,10636.6-65.1L10636.6-65.1z M10636.6-65.1"
			/>
	</g>
</g>
<g>
	<defs>
		<rect id="SVGID_7_" x="10735.5" y="-219" width="151" height="200"/>
	</defs>
	<clipPath id="SVGID_8_">
		<use xlink:href="#SVGID_7_"  style="overflow:visible;"/>
	</clipPath>
	<path class="st5" d="M10882.6-192.9c-47.8,0-69.2-24.7-69.4-25c-1.2-1.5-3.8-1.5-5,0c-0.2,0.3-21.4,25-69.4,25
		c-1.8,0-3.3,1.5-3.3,3.3v62.4c0,34.1,15.3,66.5,41,86.7c10.4,8.1,21.5,14,33.2,17.5c0.3,0.1,0.6,0.1,0.9,0.1c0.3,0,0.6,0,0.9-0.1
		c11.7-3.5,22.9-9.4,33.2-17.5c25.7-20.2,41-52.6,41-86.7v-62.4C10885.8-191.4,10884.4-192.9,10882.6-192.9L10882.6-192.9z
		 M10879.3-127.2c0,32.1-14.4,62.6-38.5,81.5c-9.4,7.4-19.5,12.8-30.1,16.1c-10.6-3.3-20.7-8.7-30.1-16.1
		c-24.1-19-38.5-49.4-38.5-81.5v-59.1c40-0.9,61.6-18,68.6-24.7c7,6.7,28.6,23.8,68.6,24.7V-127.2z M10879.3-127.2"/>
</g>
<path d="M10847.4-149.3"/>
<path d="M10863.4-174.4c-24.2-3.1-41-11.7-50.9-18.4c-1.1-0.8-2.6-0.8-3.7,0c-9.8,6.7-26.7,15.3-50.9,18.4c-1.6,0.2-2.9,1.6-2.9,3.2
	v44c0,28.1,12.5,54.8,33.5,71.3c6.6,5.2,13.6,9.3,20.9,12.1c0.4,0.2,0.8,0.2,1.2,0.2c0.4,0,0.8-0.1,1.2-0.2
	c7.2-2.8,14.3-6.9,20.9-12.1c21-16.5,33.5-43.1,33.5-71.3v-44C10866.2-172.8,10865-174.2,10863.4-174.4z M10801.9-95.5l-19.9-19.9
	l8.8-8.8l11.1,11.1l28.6-28.6l8.8,8.8L10801.9-95.5z"/>
<path d="M11105-230.3"/>
<g>
	<path d="M11115.4-168.9c-8.7-14.9-20.5-26.8-35.5-35.5c-14.9-8.7-31.2-13.1-48.9-13.1s-34,4.4-48.9,13.1
		c-14.9,8.7-26.8,20.5-35.5,35.5c-8.7,14.9-13.1,31.3-13.1,48.9c0,17.7,4.4,34,13.1,48.9c8.7,14.9,20.5,26.8,35.5,35.5
		c14.9,8.7,31.3,13.1,48.9,13.1s34-4.4,48.9-13.1c14.9-8.7,26.8-20.5,35.5-35.5c8.7-14.9,13.1-31.3,13.1-48.9
		C11128.5-137.7,11124.1-154,11115.4-168.9L11115.4-168.9z M11014.8-193.1c0-1.2,0.4-2.2,1.1-2.9c0.8-0.8,1.7-1.1,2.9-1.1h24.4
		c1.2,0,2.2,0.4,2.9,1.1c0.8,0.8,1.1,1.7,1.1,2.9v20.3c0,1.2-0.4,2.2-1.1,2.9c-0.8,0.8-1.7,1.1-2.9,1.1h-24.4
		c-1.2,0-2.2-0.4-2.9-1.1c-0.8-0.8-1.1-1.7-1.1-2.9V-193.1z M11063.5-59.1c0,1.2-0.4,2.2-1.1,2.9c-0.8,0.8-1.7,1.1-2.9,1.1h-56.9
		c-1.2,0-2.2-0.4-2.9-1.1c-0.8-0.8-1.1-1.7-1.1-2.9v-20.3c0-1.2,0.4-2.2,1.1-2.9c0.8-0.8,1.7-1.1,2.9-1.1h12.2v-40.6h-12.2
		c-1.2,0-2.2-0.4-2.9-1.1c-0.8-0.8-1.1-1.7-1.1-2.9v-20.3c0-1.2,0.4-2.2,1.1-2.9c0.8-0.8,1.7-1.1,2.9-1.1h40.6
		c1.2,0,2.2,0.4,2.9,1.1c0.8,0.8,1.1,1.7,1.1,2.9v65h12.2c1.2,0,2.2,0.4,2.9,1.1c0.8,0.8,1.1,1.7,1.1,2.9V-59.1z M11063.5-59.1"/>
</g>
<g>
	<path d="M11294.9-163.1c3.1-2.2,6-4.6,8.7-7.3c5.6-5.7,9.4-12.6,10.6-19.6c1.3-7.6-0.6-14.7-5.3-19.5c-3.8-3.8-8.9-5.8-14.8-5.8
		c-8.4,0-17.2,4-24.3,11.1c-11.2,11.2-17.8,26.8-21.3,37.8c-2.6-11.1-7.8-26.2-17.9-36.3c-5.4-5.4-12.4-8.2-18.9-8.2
		c-5.4,0-10.4,1.9-14.3,5.7c-8.5,8.5-7.3,23.3,2.6,33.2c3.5,3.5,7.6,6.4,12,8.9h-36.7v43.3h10.8v95.1h129.9v-95.1h10.8v-43.3
		H11294.9z M11278.5-195.6c4.7-4.7,10.5-7.5,15.7-7.5c1.8,0,4.3,0.4,6.2,2.2c4.4,4.4,1.9,14.6-5.3,21.8
		c-7.4,7.4-17.4,12.5-26.1,15.9h-8.6C11263.4-172.9,11269.1-186.2,11278.5-195.6L11278.5-195.6z M11204-190.1
		c-0.1-1.5,0-4.4,2.1-6.5c1.7-1.7,4-2.1,5.6-2.1c3.6,0,7.4,1.7,10.3,4.6c5.7,5.7,10.4,14.8,13.6,26.4c0.1,0.3,0.2,0.6,0.3,0.9
		c-0.3-0.1-0.6-0.2-0.9-0.3c-11.5-3.2-20.6-7.9-26.4-13.6C11205.9-183.3,11204.2-186.7,11204-190.1L11204-190.1z M11240.2-35.6
		h-43.3v-89.7h43.3V-35.6z M11240.2-130.7h-54.1v-21.7h54.1V-130.7z M11305.1-35.6h-43.3v-89.7h43.3V-35.6z M11316-130.7h-54.1
		v-21.7h54.1V-130.7z M11316-130.7"/>
</g>
<g>
	<path d="M11528.1-196.9c0,0-0.1,0-0.2,0c-13.7,1.4-28.3,0-40.7-6.5c-7.2-3.8-11.1-9-16.4-15c1.9,2.2-12.4,12.5-14,13.7
		c-8.5,6.1-19.1,9.1-29.4,9.2c-5.4,0.1-10.7-0.3-16-1.1c-1.6-0.2-16.5-2.6-16.5-3.8c-0.1,30.1,0,60.1,0,90.2c0,2.4,0,4.9,0,7.3
		c1.6,8.6,5.7,17.6,12.2,26.7c6.2,8.7,14.7,17.8,25.3,26.9c15.1,13.1,29.4,21.9,30,22.3l8.5,5.2l8.5-5.2c0.6-0.4,14.9-9.2,30.1-22.3
		c10.6-9.2,19.3-18.2,25.5-27c6.4-9.1,10.7-18,12.3-26.7c0,0,0-96.4,0-97.6C11547.2-199,11530.3-197.1,11528.1-196.9z
		 M11537.4-105.7l-0.2,0.5c-2.7,14.7-14.2,31-34.4,48.3c-14.6,12.6-28.2,21-28.8,21.3l-3.2,2l-3.2-2c-0.6-0.4-14.2-8.8-28.7-21.3
		c-20.1-17.3-31.6-33.6-34.3-48.3l0-0.5c0,0,0-81.8,0-82.4c0,2.7,20.9,1.9,23,1.7c16.3-1,30.8-5.9,43.1-16.7
		c-0.4,0.7,10.9,8.3,12.2,8.9c16.4,8.5,36.4,9.4,54.5,5.9V-105.7z"/>
	<path d="M11502.5-181.7c-15.1-2.7-27.5-7.7-31.7-12.4c-4.2,4.7-16.5,9.7-31.6,12.4c-11.3,2-21.5,2.2-28.4,1v74.6
		c5.6,32,60.1,65.5,60.1,65.5s54.6-33.5,60.2-65.6v-74.5C11524.6-179.4,11513.9-179.6,11502.5-181.7z M11501.7-112.1h-22.8v22.8
		h-15.7v-22.8h-22.8v-15.7h22.8v-22.8h15.7v22.8h22.8V-112.1z"/>
</g>
<polygon points="11753.6,-22 11691,-84.6 11628.4,-22 11593,-57.4 11655.6,-120 11593,-182.6 11628.4,-218 11691,-155.4 
	11753.6,-218 11789,-182.6 11726.4,-120 11789,-57.4 "/>
<g>
	<g>
		<defs>
			<rect id="SVGID_9_" x="11817.9" y="-213.4" width="186.1" height="186.8"/>
		</defs>
		<clipPath id="SVGID_10_">
			<use xlink:href="#SVGID_9_"  style="overflow:visible;"/>
		</clipPath>
		<path class="st6" d="M11997.6-68.3l-28.4-28.4c-5.7-5.6-15-5.5-20.9,0.4L11934-82c-0.9-0.5-1.8-1-2.8-1.6
			c-9-5-21.4-11.9-34.4-24.9c-13.1-13.1-19.9-25.4-24.9-34.5c-0.5-1-1-1.9-1.5-2.8l9.6-9.6l4.7-4.7c5.9-5.9,6-15.2,0.4-20.9
			l-28.4-28.4c-5.6-5.6-15-5.5-20.9,0.4l-8,8l0.2,0.2c-2.7,3.4-4.9,7.4-6.6,11.6c-1.5,4.1-2.5,7.9-2.9,11.8
			c-3.8,31.1,10.5,59.5,49,98.1c53.3,53.3,96.2,49.3,98.1,49.1c4-0.5,7.9-1.4,11.8-3c4.2-1.6,8.2-3.9,11.6-6.6l0.2,0.2l8.1-7.9
			C12003.1-53.3,12003.3-62.6,11997.6-68.3L11997.6-68.3z M11997.6-68.3"/>
	</g>
</g>
<g>
	<g>
		<defs>
			<rect id="SVGID_11_" x="12040.3" y="-213.3" width="182.5" height="185.7"/>
		</defs>
		<clipPath id="SVGID_12_">
			<use xlink:href="#SVGID_11_"  style="overflow:visible;"/>
		</clipPath>
		<path class="st7" d="M12159.5-54.5h-26.5c-1,0-1.8,0.3-2.4,0.9c-0.6,0.6-0.9,1.4-0.9,2.4v19.9c0,1,0.3,1.8,0.9,2.4
			c0.6,0.6,1.4,0.9,2.4,0.9h26.5c1,0,1.8-0.3,2.4-0.9c0.6-0.6,0.9-1.4,0.9-2.4v-19.9c0-1-0.3-1.8-0.9-2.4
			C12161.3-54.1,12160.5-54.5,12159.5-54.5L12159.5-54.5z M12159.5-54.5"/>
		<path class="st7" d="M12109.9-67.7h-19.9V-210c0-1-0.3-1.8-0.9-2.4c-0.6-0.6-1.4-0.9-2.4-0.9h-19.9c-1,0-1.8,0.3-2.4,0.9
			c-0.6,0.6-0.9,1.4-0.9,2.4v142.3h-19.9c-1.5,0-2.5,0.7-3.1,2.1c-0.6,1.3-0.3,2.5,0.7,3.6l33.1,33.1c0.8,0.6,1.6,0.9,2.4,0.9
			c0.9,0,1.7-0.3,2.4-0.9l33-33c0.7-0.8,1-1.7,1-2.5c0-1-0.3-1.8-0.9-2.4C12111.6-67.4,12110.8-67.7,12109.9-67.7L12109.9-67.7z
			 M12109.9-67.7"/>
	</g>
	<path d="M12179.4-107.4h-46.4c-1,0-1.8,0.3-2.4,0.9s-0.9,1.4-0.9,2.4v19.9c0,1,0.3,1.8,0.9,2.4c0.6,0.6,1.4,0.9,2.4,0.9h46.4
		c1,0,1.8-0.3,2.4-0.9c0.6-0.6,0.9-1.4,0.9-2.4v-19.9c0-1-0.3-1.8-0.9-2.4C12181.1-107.1,12180.3-107.4,12179.4-107.4L12179.4-107.4
		z M12179.4-107.4"/>
	<path d="M12221.5-212.4c-0.6-0.6-1.4-0.9-2.4-0.9h-86.1c-1,0-1.8,0.3-2.4,0.9c-0.6,0.6-0.9,1.4-0.9,2.4v19.9c0,1,0.3,1.8,0.9,2.4
		c0.6,0.6,1.4,0.9,2.4,0.9h86.1c1,0,1.8-0.3,2.4-0.9c0.6-0.6,0.9-1.4,0.9-2.4V-210C12222.4-211,12222.1-211.8,12221.5-212.4
		L12221.5-212.4z M12221.5-212.4"/>
	<path d="M12199.2-160.4h-66.2c-1,0-1.8,0.3-2.4,0.9c-0.6,0.6-0.9,1.4-0.9,2.4v19.9c0,1,0.3,1.8,0.9,2.4c0.6,0.6,1.4,0.9,2.4,0.9
		h66.2c1,0,1.8-0.3,2.4-0.9c0.6-0.6,0.9-1.4,0.9-2.4v-19.9c0-1-0.3-1.8-0.9-2.4C12201-160.1,12200.2-160.4,12199.2-160.4
		L12199.2-160.4z M12199.2-160.4"/>
</g>
<g>
	<path d="M12372.1-61.6c0,11.5-9.3,20.8-20.8,20.8c-11.5,0-20.8-9.3-20.8-20.8c0-11.5,9.3-20.8,20.8-20.8
		C12362.8-82.4,12372.1-73.1,12372.1-61.6L12372.1-61.6z M12372.1-61.6"/>
	<path d="M12410.7-116.7c-7.7-7.7-16.7-13.8-26.7-18c-10.4-4.4-21.4-6.6-32.7-6.6c-11.6,0-22.8,2.3-33.4,6.9
		c-10.2,4.4-19.3,10.7-27,18.7l25.6,24.8c9.2-9.5,21.5-14.8,34.8-14.8c12.9,0,25.1,5,34.2,14.2L12410.7-116.7z M12410.7-116.7"/>
	<path d="M12351.3-199.3c-19.2,0-37.7,3.7-55.3,11.2c-16.9,7.2-32.1,17.4-45.1,30.4l25.2,25.2c9.8-9.8,21.1-17.4,33.8-22.8
		c13.1-5.5,27-8.3,41.4-8.3c28.2,0,54.8,10.9,74.8,30.8l25.1-25.3c-13-12.9-28.1-23-44.9-30.1
		C12388.8-195.5,12370.3-199.3,12351.3-199.3L12351.3-199.3z M12351.3-199.3"/>
</g>
<g>
	<path d="M12569.3-153.3c-4.9,0-8.2,0.5-10,0.9v31.6c2.1,0.5,4.7,0.6,8.1,0.6c12.9,0,20.8-6.5,20.8-17.4
		C12588.1-147.5,12581.3-153.3,12569.3-153.3L12569.3-153.3z M12569.3-153.3"/>
	<path d="M12642.8-216.5h-143.6c-12.7,0-23,10.3-23,23v147.9c0,12.7,10.3,23,23,23h143.6c12.7,0,22.9-10.3,22.9-23v-147.9
		C12665.7-206.3,12655.5-216.5,12642.8-216.5L12642.8-216.5z M12651.6-49.4c0,6.9-5.6,12.5-12.5,12.5h-136.5
		c-6.9,0-12.5-5.6-12.5-12.5v-140.3c0-6.9,5.6-12.5,12.5-12.5h136.5c6.9,0,12.5,5.6,12.5,12.5V-49.4z M12651.6-49.4"/>
	<path d="M12639.1-193.3h-136.5c-2,0-3.7,1.7-3.7,3.7v140.3c0,2,1.6,3.7,3.7,3.7h136.5c2,0,3.7-1.6,3.7-3.7v-140.3
		C12642.8-191.7,12641.1-193.3,12639.1-193.3L12639.1-193.3z M12602.3-112.9c-8.2,7.8-20.5,11.3-34.7,11.3c-3.2,0-5.9-0.2-8.3-0.5
		v38.3h-23.7v-105.5c7.5-1.3,17.9-2.2,32.6-2.2c14.9,0,25.5,2.9,32.6,8.6c6.8,5.4,11.4,14.3,11.4,24.7
		C12612.1-127.8,12608.6-118.9,12602.3-112.9L12602.3-112.9z M12602.3-112.9"/>
</g>
<g>
	<g>
		<defs>
			<rect id="SVGID_13_" x="12695.1" y="-214.6" width="191.8" height="189.3"/>
		</defs>
		<clipPath id="SVGID_14_">
			<use xlink:href="#SVGID_13_"  style="overflow:visible;"/>
		</clipPath>
		<path class="st8" d="M12738.1-91.7c-4.1-4.3-7.1-9.4-8.9-14.9c-8.5,8.5-16.3,16.4-20.7,21.4c-12.6,13.9-12.9,21.1-13.3,29.5
			c-0.4,7.5,2.4,14.8,7.8,20.4c5.8,6.1,14,9.6,22.5,9.6c12.8,0,23.3-10.4,23.3-23.3c0-9.7-7.9-17.6-17.6-17.6
			c-7.2,0-13.1,5.9-13.1,13.1c0,5.2,4.2,9.4,9.6,9.5c0,0,0,0,0,0c1.1,0,2.8-0.8,3.9-2.1c0.6-0.8,0.9-1.5,0.8-2.2
			c-0.6-2.7,1.2-5.3,3.8-5.9c2.7-0.6,5.3,1.2,5.9,3.8c0.8,3.7-0.2,7.4-2.8,10.6c-2.9,3.5-7.5,5.8-11.7,5.7
			c-10.8-0.2-19.3-8.7-19.3-19.4c0-12.7,10.3-23,23-23c9.9,0,18.6,5.2,23.4,13.1c0.7-4.7,2.2-9.9,6.1-16.2
			C12752.1-81.2,12744.1-85.4,12738.1-91.7L12738.1-91.7z M12738.1-91.7"/>
		<path class="st8" d="M12767.8-88.9c12.8,0,23.3-10.4,23.3-23.3c0-9.7-7.9-17.6-17.6-17.6c-7.2,0-13.1,5.9-13.1,13.1
			c0,5.2,4.2,9.4,9.6,9.5c1.1,0,2.8-0.8,3.9-2.1c0.6-0.8,0.9-1.5,0.8-2.2c-0.6-2.7,1.2-5.3,3.8-5.9c2.7-0.6,5.3,1.2,5.9,3.8
			c0.8,3.7-0.2,7.4-2.8,10.6c-2.9,3.5-7.5,5.7-11.7,5.7c-10.8-0.2-19.3-8.7-19.3-19.4c0-6.2,2.6-12.1,6.7-16.2
			c20-20.3,80.7-80.8,80.7-80.8c-2.6-0.7-5.3-1.1-8-1.1h0c-8.2,0-15.9,3.2-21.6,8.9c0,0,0,0-0.1,0.1c-0.4,0.4-43.9,42.5-57.3,57.3
			c-12.6,13.9-12.9,21.1-13.3,29.5c-0.4,7.5,2.4,14.8,7.8,20.4C12751.1-92.4,12759.3-88.9,12767.8-88.9L12767.8-88.9z M12767.8-88.9
			"/>
	</g>
	<path d="M12801-112.2L12801-112.2l50-49.9c0.1-0.2,0.3-0.4,0.5-0.5c11.9-11.9,11.9-31.3,0-43.2c-1.3-1.3-2.6-2.4-4-3.4l-69.8,69.8
		C12790.8-137.4,12801-126,12801-112.2L12801-112.2z M12801-112.2"/>
	<path d="M12877.8-142.2c-6-6-13.8-9-21.7-9c-0.7,0-1.4,0-2.1,0.1l-62.6,62.6c-0.4,0.4-0.9,0.8-1.5,1c-4.8,4.3-10.8,7.2-17.5,8.2
		c-8,10.4-8.3,16.7-8.6,23.9c-0.4,7.5,2.4,14.8,7.8,20.4c5.8,6.1,14,9.6,22.5,9.6c12.8,0,23.3-10.4,23.3-23.3
		c0-9.7-7.9-17.6-17.6-17.6c-7.2,0-13.1,5.9-13.1,13.1c0,5.2,4.2,9.4,9.6,9.5c1.1,0,2.8-0.8,3.9-2.1c0.6-0.8,0.9-1.5,0.8-2.2
		c-0.6-2.7,1.2-5.3,3.8-5.9c2.7-0.6,5.3,1.2,5.9,3.8c0.8,3.7-0.2,7.4-2.8,10.6c-2.9,3.5-7.5,5.8-11.7,5.7
		c-10.8-0.2-19.3-8.7-19.3-19.4c0-12.7,10.3-23,23-23c15.2,0,27.6,12.4,27.6,27.6v0l50-50c0.1-0.2,0.3-0.4,0.5-0.5
		c5.8-5.8,8.9-13.4,8.9-21.6C12886.7-128.8,12883.5-136.5,12877.8-142.2L12877.8-142.2z M12877.8-142.2"/>
</g>
<g>
	<path class="st0" d="M13068.4-70.4c-0.8-1.4-1.7-2.4-2.3-2.9c0,0,0,0-0.1,0h-13.5c-0.6,0.6-1.5,1.5-2.3,2.9
		c-1.4,2.4-2.9,6.8-2.2,13.8c1.5,13.8,2.6,16.8,2.6,16.9c0.1,0.1,0.1,0.2,0.1,0.4c0,0.2,0.5,1.9,4.5,2.3c-0.8-2.5-1.1-6.7-1.1-12.6
		c0.1-5.5,0.5-10.5,0.5-10.6l1,0.1l1,0.1c0,0-0.4,5-0.5,10.5c0,0.2,0,0.3,0,0.5c0,4.2,0.2,7,0.5,9c0.2,1.6,0.5,2.6,0.8,3.2
		c0,0,0.1,0,0.1,0h3.3c0,0,0.1,0,0.1,0c0.3-0.6,0.6-1.6,0.8-3.2c0.3-2,0.5-4.8,0.5-9c0-0.2,0-0.3,0-0.5c-0.1-5.4-0.5-10.4-0.5-10.4
		l1-0.1l1-0.1c0,0.1,0.4,5.1,0.5,10.6c0.1,5.9-0.3,10-1.1,12.6c4.1-0.5,4.5-2.1,4.5-2.3c0-0.1,0-0.2,0.1-0.4c0-0.1,1.1-3.1,2.6-16.9
		C13071.3-63.6,13069.8-68,13068.4-70.4z"/>
	<path class="st0" d="M13062.7-80.7c-0.3-0.2-0.6-0.4-0.9-0.5c-0.8-0.4-1.7-0.6-2.6-0.6s-1.8,0.2-2.6,0.6c-0.3,0.2-0.6,0.3-0.9,0.5
		c-0.3,0.2-0.6,0.5-0.8,0.7c-1,1-1.6,2.4-1.6,3.9c0,0,0,0,0,0c0,0.1,0,0.3,0,0.5h11.7c0-0.2,0-0.4,0-0.5c0,0,0,0,0,0
		c0-1.5-0.6-2.9-1.6-3.9C13063.2-80.2,13063-80.5,13062.7-80.7z"/>
	<path class="st0" d="M13055.2-123.2l1,0v39.9c0.9-0.4,1.9-0.6,2.9-0.6s2,0.2,2.9,0.6v-40l0.3,0c0.3,0,0.5,0,0.8-0.1
		c0.4-0.1,0.7-0.1,1-0.2c2.6-0.8,4.4-3.3,4.4-6.1c0-2.8-1.9-5.1-4.4-5.9c-0.3-0.1-0.7-0.2-1-0.2c-0.3,0-0.6-0.1-1-0.1l-0.1,0v-28
		c0-1.2-1-2.3-2.3-2.3h-1.3c-1.2,0-2.3,1-2.3,2.3v28.1l-1,0l-1,0l-12.1,0.2l-7.1-22.4c-0.1-0.3-0.2-0.6-0.3-0.9c0-0.1,0-0.3-0.1-0.4
		c-0.9-2.5-2.4-4.7-4.4-6.6c-1.1-1-2.3-1.9-3.6-2.7v0l-0.7-0.4c-0.3-0.2-0.6-0.3-0.9-0.5c-0.5-0.2-1-0.5-1.5-0.7
		c-0.2-0.1-0.5-0.2-0.7-0.3c-0.1,0-0.2-0.1-0.3-0.1c-0.1,0-0.1,0-0.2-0.1c-1-0.4-2-0.7-3.1-1.1l-1.7-0.5v0.1
		c-0.6-0.1-1.2-0.3-1.8-0.4c0.2-0.2,0.4-0.3,0.5-0.5c0.1-0.1,0.2-0.2,0.3-0.3h10.7c0.6,0,1-0.5,1-1c0.1-4.1,0-8.3-0.1-11.3
		c0-1.5-0.1-2.7-0.1-3.6c0-8.8-2.1-15.4-6.2-19.6c-4-4.2-9-5.1-12.5-5.1c-2.6,0-5.2,0.5-7.4,1.4c-1,0.4-2.4,1.1-3.1,2.1
		c-0.5-0.1-1-0.2-1.5-0.2c-3.3,0-6.3,2.7-8.5,7.8c-1.7,3.8-2.8,9-3,13.3c0,0,0,0,0,0c0,0.6,0,1.4,0,2.4c0,3.2-0.1,7.9,0.1,12.7
		c0,0.6,0.5,1,1,1h10.5c0.1,0.1,0.2,0.2,0.3,0.3c0.2,0.2,0.3,0.3,0.5,0.5c-0.6,0.1-1.2,0.2-1.7,0.4v-0.1l-1.7,0.5
		c-0.1,0-0.2,0-0.2,0.1c-1.3,0.4-2.6,0.8-3.8,1.4c-0.1,0-0.1,0.1-0.2,0.1c0,0,0,0,0,0c-0.8,0.3-1.6,0.7-2.3,1.1l-0.7,0.4v0.1
		c-3.7,2.3-6.3,5.4-8,9.2c-0.1,0.1-0.1,0.2-0.1,0.4c-0.2,0.3-0.3,0.6-0.4,1l-12.3,39l-0.9,2.8c-1.4,0.3-2.8,0.7-4.1,1.3
		c-0.7,0.3-1.3,0.9-1.6,1.7c0,0.1-0.1,0.2-0.1,0.2c0,0,0,0,0,0c0,0.1,0,0.1-0.1,0.2c0,0,0,0,0,0c0,0.1,0,0.1,0,0.2c0,0,0,0,0,0
		c0,0.1,0,0.2,0,0.2l0,0c-0.1,0.1-0.2,0.1-0.3,0.2c0,0,0,0,0,0c-0.1,0.1-0.2,0.2-0.3,0.2c0,0,0,0,0,0c-0.1,0.1-0.3,0.2-0.4,0.3
		c-0.3,0.2-0.6,0.5-0.8,0.7c0,0,0,0-0.1,0.1c-0.1,0.1-0.2,0.1-0.2,0.2c0,0-0.1,0.1-0.1,0.1c-0.1,0.1-0.1,0.1-0.2,0.2
		c0,0-0.1,0.1-0.1,0.1c-0.1,0.1-0.1,0.1-0.2,0.2c0,0-0.1,0.1-0.1,0.1c-0.1,0.1-0.2,0.2-0.3,0.3c-0.1,0.1-0.1,0.1-0.2,0.2
		c0,0.1-0.1,0.1-0.1,0.2c-0.1,0.1-0.1,0.1-0.2,0.2c0,0.1-0.1,0.1-0.1,0.2c-0.1,0.1-0.1,0.2-0.2,0.2c0,0.1-0.1,0.1-0.1,0.2
		c-0.1,0.1-0.1,0.2-0.2,0.3c0,0-0.1,0.1-0.1,0.1c-0.1,0.1-0.2,0.3-0.2,0.4c-0.1,0.1-0.1,0.3-0.2,0.4c0,0,0,0.1-0.1,0.1
		c0,0.1-0.1,0.2-0.1,0.3c0,0,0,0.1-0.1,0.1c0,0.1-0.1,0.2-0.1,0.3c0,0.1,0,0.1-0.1,0.2c0,0.1-0.1,0.2-0.1,0.3c0,0,0,0.1-0.1,0.1
		c-0.1,0.1-0.1,0.2-0.1,0.4c0,0,0,0,0,0c-0.1,0.1-0.1,0.3-0.2,0.4c0,0,0,0.1,0,0.1c0,0.1-0.1,0.2-0.1,0.3c0,0.1,0,0.1-0.1,0.2
		c0,0.1-0.1,0.2-0.1,0.3c0,0.1,0,0.1-0.1,0.2c0,0.1-0.1,0.2-0.1,0.3c0,0.1,0,0.1,0,0.2c0,0.1-0.1,0.2-0.1,0.3c0,0,0,0.1,0,0.1
		c0,0.1-0.1,0.3-0.1,0.4c0,0.1,0,0.1,0,0.2c0,0.1,0,0.2-0.1,0.3c0,0.1,0,0.1,0,0.2c0,0.1,0,0.2-0.1,0.2c0,0.1,0,0.1,0,0.2
		c0,0.1,0,0.2,0,0.2c0,0.1,0,0.1,0,0.2c0,0.1,0,0.2,0,0.3c0,0.1,0,0.1,0,0.2c0,0.1,0,0.3-0.1,0.4c0,0.1,0,0.1,0,0.2
		c0,0.1,0,0.2,0,0.2c0,0.1,0,0.1,0,0.2c0,0.1,0,0.1,0,0.2c0,0.1,0,0.2,0,0.2c0,0.1,0,0.1,0,0.2c0,0.1,0,0.2,0,0.2c0,0.1,0,0.1,0,0.2
		c0,0.3-0.1,0.6-0.1,0.9c0,0,0,0.1,0,0.1c0,0.1,0,0.2,0,0.3c0,0.1,0,0.1,0,0.2c0,0.1,0,0.2,0,0.3c0,0,0,0.1,0,0.1c0,0.1,0,0.2,0,0.3
		c0,0,0,0.1,0,0.1c0,0.4,0,0.7,0,1.1c0,0,0,0,0,0h-1.4v6.2h3.6l3.2,28.4c0,1.2,0.4,2.2,1.1,3.1c0.1,0.1,0.2,0.2,0.3,0.3
		c0.1,0.1,0.1,0.1,0.2,0.2c0.4,0.4,0.9,0.7,1.4,0.9c0.1,0,0.1,0.1,0.2,0.1c0.5,0.2,1.1,0.3,1.7,0.3h17.1c0.6,0,1.1-0.1,1.7-0.3
		c0.1,0,0.1-0.1,0.2-0.1c0.5-0.2,1-0.5,1.4-0.9c0.1-0.1,0.1-0.1,0.2-0.2c0.1-0.1,0.2-0.2,0.3-0.3c0.7-0.8,1.1-1.9,1.1-3.1l1.5-12.9
		l0.7-5.9l0.4-3.5l0.6-5l0.1-1.1h1h1.8h0.8v-6.2h-0.8h-0.6c0,0,0,0,0,0c0-0.4,0-0.7,0-1.1c0,0,0-0.1,0-0.1c0-0.1,0-0.2,0-0.3
		c0,0,0-0.1,0-0.1c0-0.1,0-0.2,0-0.3c0-0.1,0-0.1,0-0.2c0-0.1,0-0.2,0-0.3c0,0,0-0.1,0-0.1c0-0.3-0.1-0.6-0.1-0.9c0-0.1,0-0.1,0-0.2
		c0-0.1,0-0.2,0-0.2c0-0.1,0-0.1,0-0.2c0-0.1,0-0.2,0-0.2c0-0.1,0-0.1,0-0.2c0-0.1,0-0.1,0-0.2c0-0.1,0-0.2,0-0.2c0-0.1,0-0.1,0-0.2
		c0-0.1,0-0.3-0.1-0.4c0-0.1,0-0.1,0-0.2c0-0.1,0-0.2,0-0.3c0-0.1,0-0.1,0-0.2c0-0.1,0-0.2,0-0.2c0-0.1,0-0.1,0-0.2
		c0-0.1,0-0.2-0.1-0.2c0-0.1,0-0.1,0-0.2c0-0.1,0-0.2-0.1-0.3c0-0.1,0-0.1,0-0.2c0-0.1-0.1-0.3-0.1-0.4c0,0,0-0.1,0-0.1
		c0-0.1-0.1-0.2-0.1-0.3c0-0.1,0-0.1,0-0.2c0-0.1-0.1-0.2-0.1-0.3c0-0.1,0-0.1-0.1-0.2c0-0.1-0.1-0.2-0.1-0.3c0-0.1,0-0.1-0.1-0.2
		c0-0.1-0.1-0.2-0.1-0.3c0,0,0-0.1,0-0.1c-0.1-0.1-0.1-0.3-0.2-0.4c0,0,0,0,0,0c0-0.1-0.1-0.2-0.1-0.4c0,0,0-0.1-0.1-0.1
		c0-0.1-0.1-0.2-0.1-0.3c0-0.1,0-0.1-0.1-0.2c0-0.1-0.1-0.2-0.1-0.3c0,0,0-0.1-0.1-0.1c0-0.1-0.1-0.2-0.1-0.3c0,0,0-0.1-0.1-0.1
		c-0.1-0.1-0.1-0.3-0.2-0.4c-0.1-0.1-0.2-0.3-0.2-0.4c0,0-0.1-0.1-0.1-0.1c-0.1-0.1-0.1-0.2-0.2-0.3c0-0.1-0.1-0.1-0.1-0.2
		c-0.1-0.1-0.1-0.2-0.2-0.2c0-0.1-0.1-0.1-0.1-0.2c-0.1-0.1-0.1-0.1-0.2-0.2c0-0.1-0.1-0.1-0.1-0.2c0-0.1-0.1-0.1-0.1-0.2
		c-0.1-0.1-0.1-0.1-0.2-0.2c-0.1-0.1-0.1-0.2-0.2-0.2c0,0,0,0,0-0.1c-0.1-0.1-0.1-0.2-0.2-0.2c0,0-0.1-0.1-0.1-0.1
		c-0.1-0.1-0.1-0.2-0.2-0.2c0,0-0.1-0.1-0.1-0.1c-0.1-0.1-0.2-0.2-0.2-0.2c0,0,0,0-0.1-0.1c-0.1-0.1-0.2-0.2-0.4-0.3
		c-0.5-0.4-1-0.8-1.5-1.1c0,0-0.1,0-0.1-0.1v0c0-0.2-0.1-0.3-0.1-0.5c0,0,0,0,0,0c0,0,0-0.1-0.1-0.1c0,0,0,0,0,0c0,0,0-0.1-0.1-0.1
		c0,0,0,0,0,0c-0.1-0.1-0.1-0.2-0.2-0.3c0,0,0,0,0,0c0,0-0.1-0.1-0.1-0.1c0,0,0,0,0,0c0,0-0.1-0.1-0.1-0.1c0,0,0,0,0,0
		c0,0-0.1-0.1-0.1-0.1c0,0,0,0,0,0c-0.1-0.1-0.2-0.2-0.2-0.2c0,0,0,0,0,0c0,0-0.1-0.1-0.1-0.1c0,0,0,0,0,0c0,0-0.1,0-0.1-0.1
		c0,0,0,0-0.1,0c0,0-0.1,0-0.1-0.1c0,0,0,0,0,0c0,0-0.1-0.1-0.2-0.1c-0.7-0.4-1.5-0.7-2.3-1l0.8-2.5l8-25.2v9.4v1.3l-5.1,15.8
		c0,0,0,0,0,0c0.4,0.2,0.8,0.5,1.1,0.8c0.3,0.3,0.7,0.7,0.9,1.1c0.2,0.3,0.4-1,0.4-1l4.9-15.4l0,0h34.2l0,0l4.9,15.6l-5,33.4h-0.9
		h-1h-1h-10.5h-1h-1h-2.9h-1h-1h-10.5h-1.1h-1h-0.8l-0.3,1.3l-0.2,1.3h1.3h1h1.1h10.5h1h1h2.9h1h1h10.5h1h1h0.9l0,0.1l1.5,2.9
		c0.2,0.4,0.5,1.2,0.1,1.7c-0.3,0.5-1.2,0.8-2.2,0.8c-0.1,0-0.2,0-0.3,0c-0.4,0-0.7-0.1-1-0.2c-0.4-0.1-0.7-0.2-1-0.3
		c-1.4-0.6-2.6-1.7-2.9-3c-0.2-0.7-0.9-1.1-1.6-1c-0.6,0.1-1,0.7-1,1.3c0,0.1,0,0.2,0,0.3c0.2,0.7,0.1,1.3-0.3,1.7
		c-0.5,0.7-1.6,1.1-2.8,1.1c-0.7,0-1.4-0.1-1.9-0.4c-0.4-0.2-0.7-0.4-1-0.6c-0.5-0.4-0.9-0.9-1-1.4c-0.1-0.3-0.1-0.5-0.1-0.8
		c0-0.7-0.6-1.3-1.3-1.3s-1.3,0.6-1.3,1.3c0,0.3,0,0.5-0.1,0.8c-0.2,0.5-0.5,1-1,1.4c-0.3,0.2-0.7,0.4-1,0.6
		c-0.6,0.2-1.2,0.4-1.9,0.4c-1.2,0-2.2-0.4-2.8-1.1c-0.4-0.5-0.5-1.1-0.3-1.7c0-0.1,0-0.2,0-0.3c0-0.6-0.4-1.1-1-1.3
		c-0.7-0.2-1.4,0.3-1.6,1c-0.3,1.2-1.5,2.3-2.9,3c-0.3,0.1-0.7,0.3-1.1,0.3c-0.3,0.1-0.7,0.1-1,0.2c-0.1,0-0.2,0-0.3,0
		c-0.6,0-1.2-0.1-1.6-0.3l-0.2,1.4l-0.2,1.3c0.6,0.2,1.2,0.3,1.9,0.3c0.1,0,0.2,0,0.3,0v35.7c0,2.9,0.7,5.3,2.1,7
		c1.3,1.6,3.2,2.5,5.3,2.5s4-0.9,5.3-2.5c1.4-1.7,2.1-4.1,2.1-7v-36.8c0.5-0.3,1-0.8,1.4-1.2c0.4,0.5,0.9,0.9,1.4,1.2v36.8
		c0,2.9,0.7,5.3,2.1,7c1.3,1.6,3.2,2.5,5.3,2.5s4-0.9,5.3-2.5c1.4-1.7,2.1-4.1,2.1-7v-35.7c0.1,0,0.2,0,0.3,0c2,0,3.6-0.8,4.4-2.1
		c0.8-1.2,0.8-2.7,0-4.3l-1.4-2.8l5.2-35.2l-5.2-16.7v-1.3v-9.1l4.9,15.5c0.8,2.6,3.3,4.4,6,4.4c0,0,0.1,0,0.1,0l16.6-0.3
		L13055.2-123.2z M12990.3-133.7v-17.7v-1.6v-1.6v-12.6v0c0.3-0.1,0.5-0.3,0.8-0.4c0.4-0.2,0.8-0.4,1.3-0.6c0.3-0.1,0.7-0.3,1-0.4
		c0.2-0.1,0.4-0.2,0.7-0.2v1.4v2v13.1v0h0.1h26.1v-13.1v-2v-1.4v0c0.2,0.1,0.5,0.2,0.7,0.2c0.3,0.1,0.6,0.2,1,0.4c0,0,0,0,0,0
		c0.6,0.2,1.1,0.5,1.7,0.7c0,0,0,0,0,0c0.1,0,0.2,0.1,0.3,0.1c0.1,0,0.1,0.1,0.2,0.1v0v7.1v6.2v1.6v1v0.6v16.8H12990.3z
		 M13001.6-173.2c-0.4-0.3-0.9-0.7-1.3-1c-0.2-0.2-0.4-0.4-0.6-0.5c-0.2-0.2-0.3-0.3-0.5-0.5c-1.8-1.8-4.2-5.1-4.2-9.4l0-4.7
		c0.7-2.7,1.9-6.1,4.2-8.3c0,0,0.1,0,0.1,0c1.8,3.4,5.2,6.2,10,8.4c3.7,1.7,7.4,2.6,9.8,3.1l0,1.4v0c0,4.2-2.4,7.5-4.2,9.4
		c-0.2,0.2-0.3,0.4-0.5,0.5c-0.2,0.2-0.4,0.4-0.6,0.5c-0.4,0.4-0.9,0.7-1.3,1c-0.1,0.1-0.3,0.2-0.4,0.3c-0.4,0.3-0.8,0.5-1.1,0.7
		c-0.3,0.2-0.5,0.3-0.8,0.4c-0.3,0.1-0.5,0.3-0.8,0.4c-0.9,0.4-1.8,0.6-2.4,0.6c-0.6,0-1.4-0.2-2.4-0.6c-0.3-0.1-0.5-0.2-0.8-0.4
		c-0.3-0.1-0.5-0.3-0.8-0.4c-0.4-0.2-0.8-0.5-1.1-0.7C13001.9-173.1,13001.8-173.2,13001.6-173.2z M12993.2-179.6
		C12993.2-179.6,12993.2-179.6,12993.2-179.6c-2.2,0-3.9-1.7-3.9-3.8c0-1.9,1.4-3.4,3.1-3.8l0,2.5c0,1.7,0.3,3.4,1,5.1
		L12993.2-179.6z M13021.1-179.6C13021.1-179.6,13021.1-179.6,13021.1-179.6l-0.3,0c0.6-1.7,1-3.4,1-5.1l0-2.5
		c1.8,0.3,3.1,1.9,3.1,3.8C13025-181.3,13023.2-179.6,13021.1-179.6z M12997.2-199.4c0,0-0.1,0-0.1,0c-0.3,0-1.2-0.2-1.7-0.8
		c-0.4-0.4-0.5-1.1-0.5-1.9c0-0.1,0-0.2,0-0.3c0-0.1,0-0.3,0.1-0.4c0.2-0.7,0.7-1.7,2.8-1.8c0.1,0,0.3,0,0.4,0
		c0.7,0,1.3,0.1,1.3,0.1l1.5,0.3l-0.2-1.3l0-0.2c0-0.1,0-1,0.7-1.9c1-1.1,2.9-1.7,5.6-1.7h0c2.7,0,4.6,0.6,5.6,1.7
		c0.8,0.9,0.7,1.8,0.7,1.9l-0.1,0.9l-0.1,0.6l0.1,0l1.4-0.3c0,0,0.6-0.1,1.3-0.1c3,0,3.2,1.7,3.3,2.3c0.1,1,0,1.7-0.4,2.2
		c-0.6,0.6-1.5,0.8-1.8,0.8c-0.9-0.2-6.5-1.3-10.7-1.4v0h-0.6v0c-1.7,0-3.4,0.3-4.8,0.5C12999.3-199.9,12997.8-199.5,12997.2-199.4z
		 M13012.9-162.1c-1.6,0-3.3-1.4-4.9-4.1l-0.9-1.5l-0.9,1.5c-1.6,2.7-3.2,4.1-4.9,4.1c-1.7,0-3.3-1.4-4.7-3.1v-3.8l5.3-0.9
		c1.8,1.1,3.7,1.7,5.2,1.7c1.5,0,3.3-0.6,5.2-1.7l5.3,0.9v3.8C13016.2-163.5,13014.6-162.1,13012.9-162.1z M12985.3-106
		c0.1,0.1,0.1,0.2,0.2,0.3c0,0,0,0.1,0.1,0.1c0,0.1,0.1,0.2,0.1,0.2c0,0,0,0.1,0.1,0.1c0,0.1,0.1,0.2,0.1,0.2c0,0,0,0.1,0.1,0.1
		c0,0.1,0.1,0.2,0.1,0.3c0,0,0,0.1,0,0.1c0.1,0.1,0.1,0.2,0.1,0.4c0,0,0,0.1,0,0.1c0,0.1,0.1,0.2,0.1,0.3c0,0,0,0.1,0,0.1
		c0,0.1,0.1,0.2,0.1,0.2c0,0,0,0.1,0,0.1c0,0.1,0.1,0.2,0.1,0.2c0,0,0,0.1,0,0.1c0,0.1,0.1,0.2,0.1,0.3c0,0,0,0.1,0,0.1
		c0,0.1,0.1,0.2,0.1,0.4c0,0,0,0.1,0,0.1c0,0.1,0,0.2,0.1,0.2c0,0.1,0,0.1,0,0.2c0,0.1,0,0.1,0.1,0.2c0,0.1,0,0.1,0,0.2
		c0,0.1,0,0.1,0,0.2c0,0.1,0,0.1,0,0.2c0,0.1,0,0.2,0,0.3c0,0.1,0,0.2,0,0.3c0,0.1,0,0.2,0,0.3c0,0.1,0,0.1,0,0.2c0,0.1,0,0.1,0,0.2
		c0,0.1,0,0.1,0,0.2c0,0.1,0,0.1,0,0.2c0,0.1,0,0.1,0,0.2c0,0.1,0,0.1,0,0.2c0,0.1,0,0.2,0,0.2c0,0,0,0.1,0,0.1c0,0.2,0,0.4,0.1,0.6
		c0,0,0,0.1,0,0.1c0,0.1,0,0.2,0,0.3c0,0,0,0.1,0,0.1c0,0.1,0,0.2,0,0.3c0,0,0,0.1,0,0.1c0,0.1,0,0.2,0,0.3c0,0,0,0,0,0.1
		c0,0.3,0,0.7,0.1,1c0,0,0,0,0,0c0,0.1,0,0.2,0,0.3c0,0,0,0,0,0c0,0.1,0,0.2,0,0.3c0,0,0,0,0,0h-0.9h-1.3h-30.4c0,0,0,0,0,0
		c0-0.1,0-0.2,0-0.3c0,0,0,0,0,0c0-0.1,0-0.2,0-0.3c0,0,0,0,0,0c0-0.3,0-0.7,0.1-1c0,0,0,0,0-0.1c0-0.1,0-0.2,0-0.3c0,0,0-0.1,0-0.1
		c0-0.1,0-0.2,0-0.3c0,0,0-0.1,0-0.1c0-0.1,0-0.2,0-0.3c0,0,0-0.1,0-0.1c0-0.2,0-0.4,0.1-0.6c0,0,0-0.1,0-0.1c0-0.1,0-0.2,0-0.2
		c0-0.1,0-0.1,0-0.2c0-0.1,0-0.1,0-0.2c0-0.1,0-0.1,0-0.2c0-0.1,0-0.1,0-0.2c0-0.1,0-0.1,0-0.2c0-0.1,0-0.1,0-0.2c0-0.1,0-0.2,0-0.3
		c0-0.1,0-0.2,0-0.3c0-0.1,0-0.2,0-0.3c0-0.1,0-0.1,0-0.2c0-0.1,0-0.1,0-0.2c0-0.1,0-0.1,0-0.2c0-0.1,0-0.1,0.1-0.2
		c0-0.1,0-0.1,0-0.2c0-0.1,0-0.2,0.1-0.2c0,0,0-0.1,0-0.1c0-0.1,0.1-0.2,0.1-0.4c0,0,0-0.1,0-0.1c0-0.1,0.1-0.2,0.1-0.3
		c0,0,0-0.1,0-0.1c0-0.1,0-0.2,0.1-0.2c0,0,0-0.1,0-0.1c0-0.1,0.1-0.2,0.1-0.2c0,0,0-0.1,0-0.1c0-0.1,0.1-0.2,0.1-0.3
		c0,0,0-0.1,0-0.1c0-0.1,0.1-0.2,0.1-0.4c0,0,0-0.1,0-0.1c0-0.1,0.1-0.2,0.1-0.3c0,0,0-0.1,0.1-0.1c0-0.1,0.1-0.2,0.1-0.2
		c0,0,0-0.1,0.1-0.1c0-0.1,0.1-0.2,0.1-0.2c0,0,0-0.1,0.1-0.1c0.1-0.1,0.1-0.2,0.2-0.3c0.1-0.1,0.1-0.2,0.2-0.4c0,0,0-0.1,0.1-0.1
		c0.1-0.1,0.1-0.2,0.2-0.3c0,0,0-0.1,0.1-0.1c0.1-0.1,0.1-0.2,0.2-0.3c0,0,0.1-0.1,0.1-0.1c0-0.1,0.1-0.1,0.2-0.2
		c0,0,0.1-0.1,0.1-0.1c0-0.1,0.1-0.1,0.1-0.2c0.1-0.1,0.1-0.2,0.2-0.2c0,0,0.1-0.1,0.1-0.1c0.1-0.1,0.1-0.1,0.2-0.2
		c0,0,0.1-0.1,0.1-0.1c0.2-0.2,0.4-0.4,0.6-0.6c0,0,0,0,0,0c0.3-0.3,0.6-0.5,1-0.8c0,0,0,0,0,0c0.2,0.1,0.3,0.3,0.5,0.4c0,0,0,0,0,0
		c0.1,0,0.1,0.1,0.2,0.1c0,0,0,0,0.1,0c0,0,0.1,0,0.1,0c0,0,0.1,0,0.1,0c0,0,0,0,0.1,0c0,0,0.1,0,0.1,0c0,0,0,0,0.1,0
		c0.1,0,0.1,0,0.2,0c0,0,0,0,0,0c0.1,0,0.1,0,0.2,0c0,0,0,0,0,0c0.1,0,0.1,0,0.2,0c0.4,0,0.8-0.1,1.2-0.2c0.8-0.3,1.5-0.6,2.3-0.8
		c0.6,0.9,1.5,1.7,2.5,2.2c0.3,0.1,0.5,0.2,0.8,0.3c0.6,0.2,1.3,0.3,1.9,0.3c0.8,0,1.6-0.2,2.3-0.4c1-0.4,2-1.1,2.7-2
		c0.6,0.2,1.2,0.5,1.8,0.8c0.4,0.2,0.9,0.3,1.3,0.3c0,0,0,0,0,0c0.1,0,0.1,0,0.2,0c0,0,0,0,0.1,0c0,0,0.1,0,0.1,0c0,0,0,0,0.1,0
		c0.1,0,0.1,0,0.2,0c0,0,0,0,0.1,0c0,0,0.1,0,0.1,0c0,0,0.1,0,0.1,0c0,0,0.1,0,0.1,0c0,0,0.1,0,0.1,0c0,0,0.1,0,0.1,0
		c0,0,0.1,0,0.1,0c0,0,0,0,0.1,0c0.1-0.1,0.2-0.1,0.4-0.2c0,0,0,0,0,0c0,0,0.1-0.1,0.1-0.1c0,0,0,0,0,0c0.1-0.1,0.2-0.2,0.3-0.3v0
		c0.2,0.1,0.3,0.2,0.5,0.4c0,0,0,0,0,0c0.3,0.2,0.6,0.5,0.9,0.8c0,0,0,0,0,0c0,0,0.1,0.1,0.1,0.1c0.1,0.1,0.2,0.2,0.2,0.3
		c0,0,0,0.1,0.1,0.1c0.2,0.3,0.5,0.6,0.7,0.9c0,0,0.1,0.1,0.1,0.1c0.1,0.1,0.2,0.2,0.2,0.4c0,0,0.1,0.1,0.1,0.1
		C12985.1-106.4,12985.2-106.2,12985.3-106C12985.3-106.1,12985.3-106,12985.3-106z"/>
	<path class="st0" d="M13000.1-105.1c0.8,0.4,1.7,0.8,2.6,1.1c1.4,0.4,2.9,0.7,4.4,0.7s3-0.2,4.4-0.7c0.9-0.3,1.8-0.6,2.6-1.1
		c5.4-2.9,9.2-9,9.2-16.1v-1.3h-32.4v1.3C12990.9-114.2,12994.7-108,13000.1-105.1z M13020.7-120c-0.6,7.8-6.4,14-13.5,14
		c-7.1,0-13-6.2-13.5-14H13020.7z"/>
</g>
<g>
	<path class="st0" d="M13144.4-162.5h20.9c-1.5,4.3-5.6,7.4-10.5,7.4S13145.9-158.2,13144.4-162.5z"/>
	<path class="st0" d="M13239.5-79.1c-2.3,0.6-3.6,2.9-3,5.2c0,0,0,0,0,0c0.5,1.8,2.2,3.1,4.1,3.1c0.4,0,0.7,0,1.1-0.1l14.8-4
		l-9.2-6.3L13239.5-79.1z"/>
	<path class="st0" d="M13275.3-84.3c-0.4-1.4-1.5-2.5-2.8-2.9c-0.1,0-0.2-0.1-0.3-0.1c0,0,0,0,0,0c-0.1,0-0.2,0-0.4-0.1
		c-0.1,0-0.1,0-0.2,0c0,0-0.1,0-0.1,0c-0.1,0-0.1,0-0.2,0c0,0-0.1,0-0.1,0c-0.2,0-0.3,0-0.5,0c0,0,0,0,0,0c-0.2,0-0.3,0.1-0.5,0.1
		l-13.4,3.6l9.2,6.3l6.4-1.7C13274.6-79.7,13275.9-82,13275.3-84.3C13275.3-84.3,13275.3-84.3,13275.3-84.3z"/>
	<path class="st0" d="M13268.2-94.4c0.3-0.1,0.5-0.1,0.8-0.2c0.1,0,0.2,0,0.3,0c0.2,0,0.3-0.1,0.5-0.1c0.1,0,0.2,0,0.3,0
		c0.2,0,0.3,0,0.5,0c0.1,0,0.2,0,0.4,0c0.1,0,0.2,0,0.2,0c0.1,0,0.1,0,0.2,0c0.1,0,0.2,0,0.3,0l2.6-4.6l-4.4-7.1l-7.9,13.8l4.7-1.3
		L13268.2-94.4z"/>
	<path class="st0" d="M13281.6-119.5C13281.6-119.5,13281.6-119.5,13281.6-119.5c-0.6-0.3-1.2-0.5-1.8-0.5c-1.3,0-2.6,0.7-3.2,1.8
		l-2.5,4.4l4.4,7.1l4.5-7.8c0.5-0.8,0.6-1.8,0.4-2.8C13283.1-118.2,13282.5-119,13281.6-119.5z"/>
	<path class="st0" d="M13251.7-124.9c0.8-0.5,1.7-1,2.6-1.6c0,0,0,0,0,0c1.2-0.7,2.1-1.6,2.8-2.8c2.4-3.9,1.1-9-2.8-11.4
		c-1-0.6-2-1.2-2.9-1.8c-13.8-8.4-14.2-8.8-22.7-22.7c-0.5-0.8-1-1.7-1.6-2.6c0,0,0,0,0,0c-0.7-1.2-1.6-2.1-2.8-2.8
		c-1.3-0.8-2.8-1.2-4.3-1.2c-2.9,0-5.6,1.5-7.1,4c-0.6,1-1.2,2-1.8,2.9c-8.4,13.8-8.8,14.2-22.7,22.7c-0.8,0.5-1.7,1-2.6,1.6
		c0,0,0,0,0,0c-1.2,0.7-2.1,1.6-2.8,2.8c-2.4,3.9-1.1,9,2.8,11.4c1,0.6,2,1.2,2.9,1.8c13.8,8.4,14.2,8.8,22.7,22.7
		c0.5,0.8,1,1.7,1.6,2.6c0,0,0,0,0,0c0.7,1.2,1.6,2.1,2.8,2.8c1.3,0.8,2.8,1.2,4.3,1.2c2.9,0,5.6-1.5,7.1-4c0.6-1,1.2-2,1.8-2.9
		C13237.3-115.9,13237.7-116.4,13251.7-124.9z M13220.1-118.4c-8.4,0-15.2-6.8-15.2-15.2c0-8.4,6.8-15.2,15.2-15.2
		c8.4,0,15.2,6.8,15.2,15.2C13235.3-125.2,13228.5-118.4,13220.1-118.4z"/>
	<path class="st0" d="M13220.1-141.5c-4.3,0-7.9,3.5-7.9,7.9c0,4.3,3.5,7.9,7.9,7.9c4.3,0,7.9-3.5,7.9-7.9
		C13227.9-138,13224.4-141.5,13220.1-141.5z"/>
	<path class="st9" d="M13260.4-170.9L13260.4-170.9c0.7,0.4,1.3,0.6,2,0.6c1.3,0,2.5-0.6,3.2-1.8c1-1.8,0.5-4-1.3-5.1l-0.1-0.1
		c-1.8-1-4-0.4-5.1,1.3C13258-174.2,13258.6-171.9,13260.4-170.9z"/>
	<path class="st9" d="M13233.4-95.4c0.6-1,1.2-2,1.8-2.9c7.6-12.5,7.6-12.5,20.3-20.2c0.8-0.5,1.7-1,2.6-1.6c2.2-1.3,4-3.1,5.4-5.3
		c4.5-7.4,2.2-17.1-5.2-21.6c-1-0.6-2-1.2-2.9-1.8c-12.5-7.6-12.5-7.6-20.2-20.3c-0.5-0.8-1-1.7-1.6-2.6c-1.3-2.2-3.1-4-5.3-5.4
		c-2.5-1.5-5.3-2.3-8.2-2.3c-5.5,0-10.5,2.8-13.4,7.5c-0.6,1-1.2,2-1.8,2.9c-7.6,12.5-7.6,12.5-20.3,20.2c-0.8,0.5-1.7,1-2.6,1.6
		c-2.2,1.3-4,3.1-5.4,5.3c-4.5,7.4-2.2,17.1,5.2,21.6c1,0.6,2,1.2,2.9,1.8c12.5,7.6,12.5,7.6,20.2,20.3c0.5,0.8,1,1.7,1.6,2.6
		c1.3,2.2,3.1,4,5.3,5.4c2.5,1.5,5.3,2.3,8.2,2.3C13225.6-87.9,13230.6-90.7,13233.4-95.4z"/>
	<path class="st9" d="M13205.9-66.9c-6.1-2.9-11.7-6.8-16.4-11.6c-1.4-1.4-3.8-1.4-5.2,0c-1.4,1.4-1.4,3.8,0,5.2
		c5.4,5.4,11.6,9.8,18.5,13c0.5,0.2,1,0.4,1.6,0.4c1.4,0,2.7-0.8,3.3-2.1C13208.5-63.8,13207.7-66,13205.9-66.9z"/>
	<path class="st9" d="M13269-164.8c5.2,4.4,9.5,9.6,12.9,15.4c0.7,1.2,1.9,1.8,3.2,1.8c0.6,0,1.3-0.2,1.8-0.5c1.8-1,2.4-3.3,1.4-5
		c-3.8-6.6-8.7-12.4-14.5-17.4c-1.6-1.3-3.9-1.1-5.2,0.4C13267.3-168.5,13267.5-166.1,13269-164.8z"/>
	<path class="st9" d="M13215.8-63.2l-0.1,0c-2-0.5-4,0.6-4.5,2.6c-0.5,2,0.6,4,2.6,4.5l0.1,0c0.3,0.1,0.7,0.1,1,0.1
		c1.6,0,3.1-1.1,3.6-2.7C13218.9-60.6,13217.8-62.7,13215.8-63.2z"/>
	<path class="st9" d="M13304.4-124.4c2.1,7.9,6.7,12.3,13.8,13.4v-75.4c-3.2,4.9-6.8,12.2-9.8,21.4
		C13303.3-149.4,13301.8-134.2,13304.4-124.4z"/>
	<path class="st9" d="M13285.4-125.8C13285.4-125.9,13285.4-125.9,13285.4-125.8c-1.8-1-3.7-1.5-5.6-1.5c-4,0-7.7,2.1-9.6,5.5
		l-3.6,6.3c0,0,0,0,0,0l-11.1,19.3c-1,1.7-1.5,3.7-1.5,5.6l-16.3,4.4c-6.2,1.7-9.8,8-8.2,14.2c0,0,0,0,0,0.1c1.4,5.1,6,8.6,11.2,8.6
		c1,0,2-0.1,3-0.4l30.6-8.2c6.2-1.7,9.9-8,8.2-14.2c0,0,0,0,0-0.1c-0.6-2.4-2-4.4-3.8-5.9l3.2-5.5c0,0,0,0,0,0l7.6-13.1
		c1.5-2.6,1.9-5.5,1.1-8.4C13289.7-122,13287.9-124.4,13285.4-125.8z"/>
	<path class="st9" d="M13310.4-105.6c-0.7,6.1-2,12.6-3.4,19c-1.8,8.3-3.6,17-3.6,24c0,4.1,3.3,7.4,7.4,7.4c4.1,0,7.4-3.3,7.4-7.4
		l0-40.9C13315.4-103.9,13312.8-104.6,13310.4-105.6z"/>
	<path class="st0" d="M13325.6-195.8L13325.6-195.8c0-1.3-0.7-2.5-1.8-3.2c-1.1-0.7-2.6-0.7-3.7,0c-7,4.1-15.3,19.3-20.2,36.4
		c-6.4-10.3-14.9-19-25.2-25.6c-13.1-8.4-28.2-12.8-43.7-12.8c-12.4,0-24.8,2.9-35.8,8.4c-8.1,4-15.5,9.4-21.8,15.8v-18.9
		c0-2-1.7-3.7-3.7-3.7c-2,0-3.7,1.7-3.7,3.7v25.9h-7.4v-25.9c0-2-1.7-3.7-3.7-3.7s-3.7,1.7-3.7,3.7v25.9h-7.4v-25.9
		c0-2-1.7-3.7-3.7-3.7c-2,0-3.7,1.7-3.7,3.7v29.6c0,8.8,6.2,16.1,14.4,18c-0.7,6.6-1.9,20.8-3.6,42.3c-1.4,18-3.4,44.4-3.4,46.9
		c0,6.1,5,11.1,11.1,11.1c6.1,0,11.1-5,11.1-11.1c0-1.1-0.4-6.6-0.9-14c15,21,39.4,34,66,34c18.3,0,36.2-6.3,50.4-17.6
		c5.9-4.7,11.1-10.2,15.5-16.3c-0.5,3.6-0.9,7-0.9,10.2c0,8.2,6.6,14.8,14.8,14.8c8.2,0,14.8-6.6,14.8-14.8l0-43.9
		c0-0.1,0-0.3,0-0.4V-195.8z M13157.3-58.4c-1.8,2.6-3.4,2.1-4.6,1.1c-1.2-1-1.8-2.6-1.7-4.2l3-40.2c0.1-0.7,1.1-0.7,1.2,0l3,40
		C13158.3-60.5,13158-59.4,13157.3-58.4z M13268.6-170c1.3-1.6,3.7-1.7,5.2-0.4c5.8,4.9,10.7,10.8,14.5,17.4c1,1.8,0.4,4-1.4,5
		c-0.6,0.3-1.2,0.5-1.8,0.5c-1.3,0-2.5-0.7-3.2-1.8c-3.4-5.9-7.7-11.1-12.9-15.4C13267.5-166.1,13267.3-168.5,13268.6-170z
		 M13259-176c1-1.8,3.3-2.3,5.1-1.3l0.1,0.1c1.8,1,2.3,3.3,1.3,5.1c-0.7,1.2-1.9,1.8-3.2,1.8c-0.6,0-1.3-0.2-1.9-0.5l-0.1-0.1
		C13258.6-171.9,13258-174.2,13259-176z M13207.6-61.9c-0.6,1.3-2,2.1-3.3,2.1c-0.5,0-1.1-0.1-1.6-0.4c-6.9-3.3-13.1-7.6-18.5-13
		c-1.4-1.4-1.4-3.8,0-5.2c1.4-1.4,3.8-1.4,5.2,0c4.8,4.8,10.3,8.7,16.4,11.6C13207.7-66,13208.5-63.8,13207.6-61.9z M13218.4-58.7
		c-0.5,1.6-1.9,2.7-3.6,2.7c-0.3,0-0.6,0-1-0.1l-0.1,0c-2-0.5-3.1-2.6-2.6-4.5c0.5-2,2.6-3.1,4.5-2.6l0.1,0
		C13217.8-62.7,13218.9-60.6,13218.4-58.7z M13211.9-90.2c-2.2-1.3-4-3.2-5.3-5.4c-0.6-0.9-1.1-1.8-1.6-2.6
		c-7.7-12.7-7.7-12.7-20.2-20.3c-0.9-0.6-1.9-1.1-2.9-1.8c-7.4-4.5-9.7-14.2-5.2-21.6c1.3-2.2,3.2-4,5.4-5.3
		c0.9-0.6,1.8-1.1,2.6-1.6c12.7-7.7,12.7-7.7,20.3-20.2c0.6-0.9,1.2-1.9,1.8-2.9c2.9-4.7,7.9-7.5,13.4-7.5c2.9,0,5.7,0.8,8.2,2.3
		c2.2,1.3,4,3.2,5.3,5.4c0.6,0.9,1.1,1.8,1.6,2.6c7.7,12.7,7.7,12.7,20.2,20.3c0.9,0.6,1.9,1.2,2.9,1.8c7.4,4.5,9.7,14.2,5.2,21.6
		c-1.3,2.2-3.2,4-5.4,5.3c-0.9,0.6-1.8,1.1-2.6,1.6c-12.7,7.7-12.7,7.7-20.3,20.2c-0.6,0.9-1.2,1.9-1.8,2.9
		c-2.9,4.7-7.9,7.5-13.4,7.5C13217.2-87.9,13214.4-88.7,13211.9-90.2z M13289.4-110.7l-7.6,13.1c0,0,0,0,0,0l-3.2,5.5
		c1.8,1.5,3.2,3.5,3.8,5.9c0,0,0,0,0,0.1c1.7,6.2-2,12.6-8.2,14.2l-30.6,8.2c-1,0.3-2,0.4-3,0.4c-5.3,0-9.9-3.5-11.2-8.6
		c0,0,0,0,0-0.1c-1.6-6.2,2.1-12.5,8.2-14.2l16.3-4.4c0-1.9,0.5-3.9,1.5-5.6l11.1-19.3c0,0,0,0,0,0l3.6-6.3c2-3.4,5.7-5.5,9.6-5.5
		c1.9,0,3.8,0.5,5.5,1.5c0,0,0.1,0,0.1,0.1c2.5,1.5,4.3,3.9,5.1,6.7C13291.3-116.3,13290.9-113.3,13289.4-110.7z M13310.8-55.3
		c-4.1,0-7.4-3.3-7.4-7.4c0-7,1.8-15.6,3.6-24c1.4-6.4,2.7-12.9,3.4-19c2.3,1.1,4.9,1.8,7.8,2.1l0,40.9
		C13318.2-58.6,13314.9-55.3,13310.8-55.3z M13318.2-111c-7.2-1.1-11.7-5.5-13.8-13.4c-2.6-9.8-1.1-25,4-40.6
		c3-9.2,6.6-16.6,9.8-21.4V-111z"/>
</g>
<g>
	<g>
		<path class="st0" d="M13522.3-160h-50.9c-6.1,0-11.1,5-11.1,11.1v25.4v50.2v25.4c0,6.1,5,11.1,11.1,11.1h50.9
			c6.1,0,11.1-5,11.1-11.1v-25.4v-50.2v-25.4C13533.3-155,13528.4-160,13522.3-160z M13464.9-148.9c0-3.6,2.9-6.5,6.5-6.5h50.9
			c3.6,0,6.5,2.9,6.5,6.5v23.2h-63.9V-148.9z M13528.8-47.8c0,3.6-2.9,6.5-6.5,6.5h-50.9c-3.6,0-6.5-2.9-6.5-6.5v-23.2h63.9V-47.8z"
			/>
	</g>
	<g>
		<path class="st0" d="M13513.3-163.8v-5.8c0-3.8-3.1-6.9-6.9-6.9h-5v-3h-9.1v3h-5c-3.8,0-6.9,3.1-6.9,6.9v5.8H13513.3z"/>
	</g>
	<g>
		<path class="st0" d="M13500.6-201.7c-1.9-1.5-4.5-1.9-6.9-1.3c-7.1,2-19.2,4.7-36.8,6.2c-2.6,0.2-4.6,2.4-4.6,5v3.5
			c0,2.8,2.3,5,5,5h44c1.3,0,2.3-1,2.3-2.3v-9.9C13503.7-197.9,13502.5-200.2,13500.6-201.7z"/>
	</g>
	<g>
		<path class="st0" d="M13457.8-41.7h-21.8c-1.4,0-2.6-1.2-2.6-2.6v-20h23v-84.6c0-2.2,0.5-4.4,1.4-6.3h-36.4
			c-1.8,0-3.5,0.8-4.7,2.2c-1.2,1.4-1.7,3.2-1.4,5l13.5,81.6v22.1c0,3.9,3.2,7.1,7.1,7.1h25C13459.7-38.4,13458.6-40,13457.8-41.7z"
			/>
	</g>
	<g>
		<path class="st0" d="M13425.4-41.7h-56.9c-4,0-7.5-2.7-8.5-6.5c-2.5-9.4-2.7-20.5-0.5-28.4c1-3.8,4.5-6.4,8.4-6.4h0.5h53.8
			l-0.8-4.6h-53c-4,0-7.5-2.7-8.5-6.5c-2.5-9.4-2.7-20.5-0.5-28.4c1-3.8,4.5-6.4,8.4-6.4h46.7l-0.8-4.6h-45.9c-6,0-11.3,4-12.9,9.8
			c-2.3,8.6-2.1,20.7,0.5,30.8c0.8,3.1,2.7,5.7,5.2,7.5c-2.7,1.7-4.8,4.4-5.7,7.7c-2.3,8.6-2.1,20.7,0.5,30.8
			c1.5,5.8,6.8,9.9,12.9,9.9h59.3C13426.6-38.4,13425.8-40,13425.4-41.7z"/>
	</g>
	<g>
		<path class="st0" d="M13541.3-85.6c2.5-1.8,4.4-4.4,5.2-7.5c2.6-10.1,2.8-22.2,0.5-30.8c-1.3-4.8-5.1-8.3-9.8-9.5v4.8
			c2.6,1,4.6,3.1,5.3,5.9c2.1,7.9,1.9,19.1-0.5,28.4c-0.7,2.6-2.5,4.7-4.8,5.7v5.9c2.6,1,4.6,3.1,5.3,5.9c2.1,7.9,1.9,19.1-0.5,28.4
			c-0.8,3-3.1,5.3-6,6.2c-0.8,1.9-1.9,3.5-3.4,4.9h0.9c6.1,0,11.3-4.1,12.9-9.9c2.6-10.1,2.8-22.2,0.5-30.8
			C13546-81.1,13544-83.8,13541.3-85.6z"/>
	</g>
</g>
<g>
	<path class="st0" d="M13734.8-175.7l-3.2-3.2c-3.4-3.4-8.4-4-12.4-2.1c-16.7-14.6-41.3-16-59.6-3.3c-9-5.8-19.5-8.9-30.2-8.9
		c-30.8,0-55.9,25.1-55.9,55.9v86.4c0,2.2,1.8,4.1,4.1,4.1h16.3c2.2,0,4.1-1.8,4.1-4.1v-86.4c0-17.4,14.1-31.5,31.5-31.5
		c4.9,0,9.7,1.1,14.1,3.3c-8.4,17.5-5.6,38.4,7.2,53c-0.7,1.4-1.1,3-1.1,4.6c0,2.9,1.1,5.7,3.2,7.8l3.2,3.2c0.8,0.8,1.8,1.2,2.9,1.2
		c1.1,0,2.1-0.4,2.9-1.2l73.2-73.2C13736.4-171.6,13736.4-174.1,13734.8-175.7z"/>
	<path class="st0" d="M13695.2-109.1c-0.7-2.1-3-3.3-5.1-2.6c-2.1,0.7-3.3,3-2.6,5.1l8.1,24.4c0.6,1.7,2.2,2.8,3.9,2.8
		c0.4,0,0.9-0.1,1.3-0.2c2.1-0.7,3.3-3,2.6-5.1L13695.2-109.1z"/>
	<path class="st0" d="M13723.8-103.7c1,0,2.1-0.4,2.9-1.2c1.6-1.6,1.6-4.2,0-5.7l-16.3-16.3c-1.6-1.6-4.2-1.6-5.7,0s-1.6,4.2,0,5.7
		l16.3,16.3C13721.8-104.1,13722.8-103.7,13723.8-103.7z"/>
	<path class="st0" d="M13720-141.6c-0.7,2.1,0.4,4.4,2.6,5.1l24.4,8.1c0.4,0.1,0.9,0.2,1.3,0.2c1.7,0,3.3-1.1,3.9-2.8
		c0.7-2.1-0.4-4.4-2.6-5.1l-24.4-8.1C13723-144.9,13720.7-143.7,13720-141.6z"/>
	<path class="st0" d="M13719.1-93.8c-1.3-1.9-3.8-2.4-5.6-1.1c-1.9,1.2-2.4,3.8-1.1,5.6l16.3,24.4c0.8,1.2,2.1,1.8,3.4,1.8
		c0.8,0,1.6-0.2,2.3-0.7c1.9-1.2,2.4-3.8,1.1-5.6L13719.1-93.8z"/>
	<path class="st0" d="M13766.7-103.1l-24.4-16.3c-1.8-1.2-4.4-0.7-5.6,1.1c-1.2,1.9-0.7,4.4,1.1,5.6l24.4,16.3
		c0.7,0.5,1.5,0.7,2.3,0.7c1.3,0,2.6-0.6,3.4-1.8C13769.1-99.3,13768.6-101.8,13766.7-103.1z"/>
</g>
<g>
	<g>
		<path d="M13970.8-167.9h-57.7l20.5-33.6c1.8-2.9,0.9-6.7-2.1-8.5c-2.9-1.8-6.7-0.9-8.5,2.1l-24.4,40h-15.2l-24.4-40
			c-1.8-2.9-5.6-3.8-8.5-2.1c-2.9,1.8-3.8,5.6-2.1,8.5l20.5,33.6h-57.7c-7.5,0-13.5,6.1-13.5,13.5v111.7c0,7.5,6.1,13.5,13.5,13.5
			h159.5c7.5,0,13.5-6.1,13.5-13.5v-111.7C13984.3-161.8,13978.2-167.9,13970.8-167.9L13970.8-167.9z M13928.6-58.9
			c0,4.1-3.3,7.4-7.4,7.4h-94.2c-4.1,0-7.4-3.3-7.4-7.4v-79.3c0-4.1,3.3-7.4,7.4-7.4h94.2c4.1,0,7.4,3.3,7.4,7.4V-58.9z
			 M13955.8-61.2c-7,0-12.8-5.7-12.8-12.8c0-7,5.7-12.8,12.8-12.8c7,0,12.8,5.7,12.8,12.8C13968.6-67,13962.8-61.2,13955.8-61.2
			L13955.8-61.2z M13955.8-110.2c-7,0-12.8-5.7-12.8-12.8s5.7-12.8,12.8-12.8c7,0,12.8,5.7,12.8,12.8S13962.8-110.2,13955.8-110.2
			L13955.8-110.2z M13955.8-110.2"/>
	</g>
</g>
<g>
	<path d="M14148.2-28h-74.4c-0.6,0-1.1-0.1-1.6-0.2c0.8,2.4,2.9,4.1,5.6,4.1h66.6c2.6,0,4.8-1.7,5.6-4.1
		C14149.3-28,14148.8-28,14148.2-28L14148.2-28z M14148.2-28"/>
	<path d="M14067.9-166.9c1.6-1.2,3.7-2,5.9-2h74.4c2.2,0,4.2,0.8,5.9,2v-43.1c0-3.2-2.6-5.9-5.9-5.9h-74.4c-3.2,0-5.9,2.6-5.9,5.9
		V-166.9z M14075.8-205.2c0-1.6,1.3-2.9,2.9-2.9h2c1.6,0,2.9,1.3,2.9,2.9v25.5c0,1.6-1.3,2.9-2.9,2.9h-2c-1.6,0-2.9-1.3-2.9-2.9
		V-205.2z M14075.8-205.2"/>
	<path d="M14154.1-147.4v-11.7c0-3.3-2.6-5.9-5.9-5.9h-74.4c-3.2,0-5.9,2.6-5.9,5.9v121.4c0,3.3,2.6,5.9,5.9,5.9h74.4
		c3.3,0,5.9-2.6,5.9-5.9V-147.4z M14080.5-55.4h-1.7c-1.7,0-3.1-1.4-3.1-3.1v-87.9c0-1.7,1.4-3.1,3.1-3.1h1.7c1.7,0,3.1,1.4,3.1,3.1
		v87.9C14083.6-56.7,14082.2-55.4,14080.5-55.4L14080.5-55.4z M14080.5-55.4"/>
</g>
<path d="M14331-120c13.6,0,25.3-4.8,34.9-14.5c9.7-9.6,14.5-21.3,14.5-34.9c0-13.6-4.8-25.3-14.5-34.9c-9.6-9.6-21.3-14.5-34.9-14.5
	s-25.3,4.8-34.9,14.5c-9.7,9.7-14.5,21.3-14.5,34.9c0,13.6,4.8,25.3,14.5,34.9C14305.7-124.8,14317.4-120,14331-120L14331-120z
	 M14331-120"/>
<path d="M14335.7-63.8c0-27.7,22.5-50.2,50.2-50.2c9.1,0,17.7,2.4,25,6.7c-0.2-0.3-0.4-0.7-0.6-1c-2.3-4.1-5-7.5-8-10.4
	c-3-2.9-6.7-5.2-11-6.9c-4.3-1.7-9.1-2.6-14.3-2.6c-0.8,0-2.6,0.9-5.4,2.8c-2.8,1.9-6,3.9-9.6,6.2c-3.6,2.3-8.2,4.3-13.9,6.2
	c-5.7,1.8-11.4,2.8-17.2,2.8c-5.7,0-11.5-0.9-17.2-2.8c-5.7-1.8-10.3-3.9-13.9-6.2c-3.6-2.3-6.8-4.3-9.6-6.2
	c-2.8-1.8-4.6-2.8-5.4-2.8c-5.2,0-10,0.9-14.3,2.6c-4.3,1.7-8,4-11,6.9c-3,2.9-5.7,6.3-8,10.4c-2.3,4.1-4.2,8.2-5.5,12.5
	c-1.4,4.3-2.5,8.9-3.4,14c-0.9,5-1.5,9.7-1.8,14c-0.3,4.3-0.4,8.8-0.4,13.3c0,10.3,3.1,18.4,9.4,24.4c6.3,6,14.6,8.9,25,8.9h84.6
	C14345.2-30.1,14335.7-45.8,14335.7-63.8z"/>
<path d="M14385.9-106.6c-23.6,0-42.8,19.1-42.8,42.8s19.1,42.8,42.8,42.8c23.6,0,42.8-19.1,42.8-42.8S14409.5-106.6,14385.9-106.6z
	 M14378.4-41.4l-19.9-19.9l8.8-8.8l11.1,11.1l28.6-28.6l8.8,8.8L14378.4-41.4z"/>
<g>
	<path d="M14600.2-151h-35.3c-3.4,0-6.3,2.8-6.3,6.3v12.5c0,3.4,2.9,6.3,6.3,6.3h37.2c3.4,0,6.3-2.8,6.3-6.3v-12.5
		c0-3.4-2.8-6.3-6.3-6.3H14600.2z M14600.2-151"/>
	<path d="M14453.3-80.8v33.4h12.3v-12.3h170v12.3h12.3v-33.4H14453.3z M14453.3-80.8"/>
	<path d="M14636-192.6v20.1l-0.2-0.2v0.2c-7.4-7.2-17.7-11.8-29-11.8H14495c-11.2,0-21.5,4.6-29,11.8v-0.2l-0.2,0.2v-20.1h-12.3
		v74.6c2.8-4.6,7.2-8.2,14.6-8.2h22.6c-1.3-1.7-2.1-4-2.1-6.3v-12.3c0-5.7,4.7-10.4,10.4-10.4h37.6c5.7,0,10.4,4.7,10.4,10.4v12.3
		c0,2.3-0.8,4.6-2.1,6.3h12.1c-1.3-1.7-2.1-4-2.1-6.3v-12.3c0-5.7,4.7-10.4,10.4-10.4h37.6c5.7,0,9.7,4.7,9.7,10.4v12.3
		c0,2.3-0.8,4.6-2.1,6.3h23.3c7.2,0,11.8,3.6,14.6,8.2v-74.6H14636z M14636-192.6"/>
	<path d="M14498.4-126.4h37.2c3.4,0,6.3-2.9,6.3-6.3v-12.5c0-3.4-2.8-6.3-6.3-6.3h-37.2c-3.4,0-6.3,2.8-6.3,6.3v12.5
		C14492.4-129,14495.2-126.4,14498.4-126.4L14498.4-126.4z M14498.4-126.4"/>
	<path d="M14648.3-100.9c-0.6-0.2-1.3-0.4-2.1-0.4h-190.9c-0.6,0-1.3,0.2-1.9,0.4c-2.3,0.8-4.2,3.2-4.2,5.9v4.2
		c0,2.8,1.7,4.9,4.2,5.9c0.6,0.2,1.3,0.4,2.1,0.4h190.9c0.4,0,0.8,0,1.1-0.2c0.4,0,0.6-0.2,0.9-0.2c2.3-0.8,4.2-3.2,4.2-5.9V-95
		C14652.5-97.7,14650.8-100,14648.3-100.9L14648.3-100.9z M14648.3-100.9"/>
	<path d="M14648-107.8c-1-5.5-4.2-14.4-14-14.4h-166c-9.9,0-13.1,8.9-14,14.4c-0.2,0.7-0.2,1.5-0.4,2.1h194.9
		C14648.2-106.2,14648.2-107,14648-107.8L14648-107.8z M14648-107.8"/>
</g>
<g>
	<path d="M-1407.9,60.5l-15.5-30c-1.2-2.3-4.3-4.2-6.9-4.2h-19.4c-2.6,0-5.7,1.9-6.9,4.2l-15.5,30c-0.9,1.7-1.6,4.1-2,6.2h68.1
		C-1406.3,64.6-1407,62.1-1407.9,60.5L-1407.9,60.5z M-1407.9,60.5"/>
	<path d="M-1474.3,189.2c0,2.6,2.1,4.8,4.8,4.8h59.1c2.6,0,4.8-2.1,4.8-4.8v-47.8h-68.6V189.2z M-1474.3,189.2"/>
	<path d="M-1450.9,22.7h21.8c2.6,0,4.8-2.1,4.8-4.8v-7.1c0-2.6-2.1-4.8-4.8-4.8h-21.8c-2.6,0-4.8,2.1-4.8,4.8v7.1
		C-1455.7,20.5-1453.5,22.7-1450.9,22.7L-1450.9,22.7z M-1450.9,22.7"/>
	<path d="M-1404.3,91.7c0.8,0,1.4-2.1,1.4-4.8v-8.7c0-1.4-0.2-2.7-0.5-3.6h-73.2c-0.3,0.9-0.5,2.2-0.5,3.6v8.7
		c0,2.6,0.6,4.8,1.4,4.8s1.4,0.8,1.4,1.7c0,0.9-0.6,1.7-1.4,1.7s-1.4,2.1-1.4,4.8v8.7c0,2.6,0.6,4.8,1.4,4.8s1.4,0.8,1.4,1.7
		c0,0.9-0.6,1.7-1.4,1.7s-1.4,2.1-1.4,4.8v8.7c0,1.3,0.2,2.5,0.4,3.4h73.3c0.3-0.9,0.4-2.1,0.4-3.4v-8.7c0-2.6-0.6-4.8-1.4-4.8
		s-1.4-0.8-1.4-1.7c0-0.9,0.6-1.7,1.4-1.7s1.4-2.1,1.4-4.8v-8.7c0-2.6-0.6-4.8-1.4-4.8s-1.4-0.8-1.4-1.7
		C-1405.7,92.4-1405.1,91.7-1404.3,91.7L-1404.3,91.7z M-1441.1,123c-8.3,0-15-6.7-15-15c0-8.3,15-25.5,15-25.5s15,17.2,15,25.5
		C-1426.2,116.3-1432.9,123-1441.1,123L-1441.1,123z M-1441.1,123"/>
</g>
<g>
	<g>
		<defs>
			<rect id="SVGID_15_" x="-1311.3" y="49.8" width="182.6" height="101.4"/>
		</defs>
		<clipPath id="SVGID_16_">
			<use xlink:href="#SVGID_15_"  style="overflow:visible;"/>
		</clipPath>
		<path class="st10" d="M-1139.7,84.8c0,16.4-13.3,29.7-29.7,29.7c-16.4,0-29.7-13.3-29.7-29.7c0-16.4,13.3-29.7,29.7-29.7
			C-1153,55.1-1139.7,68.4-1139.7,84.8L-1139.7,84.8z M-1139.7,84.8"/>
		<path class="st10" d="M-1233.4,90.4l-37.2,26.6c1.6-0.3,3.4-0.5,5.4-0.5c8.9,0,13.9,4,17.1,6.6c2.4,1.9,3.2,2.6,5.7,2.6
			c2.5,0,3.3-0.6,5.7-2.6c3.3-2.6,8.2-6.6,17.1-6.6c8.9,0,13.9,4,17.1,6.6c2.4,1.9,3.2,2.6,5.7,2.6c2.5,0,3.3-0.6,5.7-2.6
			c1.1-0.9,2.4-1.9,3.9-2.9l-26-43.9l-35.5-26.5l-40.6,11.5l-5.1,23.4l42.2-8.3L-1233.4,90.4z M-1233.4,90.4"/>
	</g>
	<path d="M-1145.9,130.3c-2.4,1.9-3.2,2.6-5.7,2.6c-2.5,0-3.3-0.6-5.7-2.6c-3.3-2.6-8.2-6.6-17.1-6.6s-13.9,4-17.1,6.6
		c-2.4,1.9-3.2,2.6-5.7,2.6c-2.5,0-3.3-0.6-5.7-2.6c-3.3-2.6-8.2-6.6-17.1-6.6c-8.9,0-13.9,4-17.1,6.6c-2.4,1.9-3.2,2.6-5.7,2.6
		c-2.5,0-3.3-0.6-5.7-2.6c-3.3-2.6-8.2-6.6-17.1-6.6s-13.9,4-17.1,6.6c-2.4,1.9-3.2,2.6-5.7,2.6c-2.5,0-3.3-0.6-5.7-2.6
		c-3.3-2.6-8.2-6.6-17.1-6.6v18.3c2.5,0,3.3,0.6,5.7,2.6c3.3,2.6,8.2,6.6,17.1,6.6s13.9-4,17.1-6.6c2.4-1.9,3.2-2.6,5.7-2.6
		c2.5,0,3.3,0.6,5.7,2.6c3.3,2.6,8.2,6.6,17.1,6.6c8.9,0,13.8-4,17.1-6.6c2.4-1.9,3.2-2.6,5.7-2.6c2.5,0,3.3,0.6,5.7,2.6
		c3.3,2.6,8.2,6.6,17.1,6.6s13.9-4,17.1-6.6c2.4-1.9,3.2-2.6,5.7-2.6c2.5,0,3.3,0.6,5.7,2.6c3.3,2.6,8.2,6.6,17.1,6.6
		c8.9,0,13.9-4,17.1-6.6c2.4-1.9,3.2-2.6,5.7-2.6v-18.3C-1137.7,123.7-1142.6,127.6-1145.9,130.3L-1145.9,130.3z M-1145.9,130.3"/>
</g>
<g>
	<g>
		<defs>
			<rect id="SVGID_17_" x="448.7" y="49.3" width="182.6" height="101.4"/>
		</defs>
		<clipPath id="SVGID_18_">
			<use xlink:href="#SVGID_17_"  style="overflow:visible;"/>
		</clipPath>
		<path class="st11" d="M620.3,84.4c0,16.4-13.3,29.7-29.7,29.7s-29.7-13.3-29.7-29.7c0-16.4,13.3-29.7,29.7-29.7
			S620.3,68,620.3,84.4L620.3,84.4z M620.3,84.4"/>
		<path class="st11" d="M526.6,89.9l-37.2,26.6c1.6-0.3,3.4-0.5,5.4-0.5c8.9,0,13.9,4,17.1,6.6c2.4,1.9,3.2,2.6,5.7,2.6
			s3.3-0.6,5.7-2.6c3.3-2.6,8.2-6.6,17.1-6.6c8.9,0,13.9,4,17.1,6.6c2.4,1.9,3.2,2.6,5.7,2.6c2.5,0,3.3-0.6,5.7-2.6
			c1.1-0.9,2.4-1.9,3.9-2.9l-26-43.9l-35.5-26.5l-40.6,11.5l-5.1,23.4l42.2-8.3L526.6,89.9z M526.6,89.9"/>
	</g>
	<path d="M614.2,129.8c-2.4,1.9-3.2,2.6-5.7,2.6c-2.5,0-3.3-0.6-5.7-2.6c-3.3-2.6-8.2-6.6-17.1-6.6s-13.9,4-17.1,6.6
		c-2.4,1.9-3.2,2.6-5.7,2.6c-2.5,0-3.3-0.6-5.7-2.6c-3.3-2.6-8.2-6.6-17.1-6.6c-8.9,0-13.9,4-17.1,6.6c-2.4,1.9-3.2,2.6-5.7,2.6
		c-2.5,0-3.3-0.6-5.7-2.6c-3.3-2.6-8.2-6.6-17.1-6.6c-8.9,0-13.9,4-17.1,6.6c-2.4,1.9-3.2,2.6-5.7,2.6c-2.5,0-3.3-0.6-5.7-2.6
		c-3.3-2.6-8.2-6.6-17.1-6.6v18.3c2.5,0,3.3,0.6,5.7,2.6c3.3,2.6,8.2,6.6,17.1,6.6s13.9-4,17.1-6.6c2.4-1.9,3.2-2.6,5.7-2.6
		c2.5,0,3.3,0.6,5.7,2.6c3.3,2.6,8.2,6.6,17.1,6.6s13.8-4,17.1-6.6c2.4-1.9,3.2-2.6,5.7-2.6c2.5,0,3.3,0.6,5.7,2.6
		c3.3,2.6,8.2,6.6,17.1,6.6s13.9-4,17.1-6.6c2.4-1.9,3.2-2.6,5.7-2.6c2.5,0,3.3,0.6,5.7,2.6c3.3,2.6,8.2,6.6,17.1,6.6
		c8.9,0,13.9-4,17.1-6.6c2.4-1.9,3.2-2.6,5.7-2.6v-18.3C622.4,123.2,617.4,127.2,614.2,129.8L614.2,129.8z M614.2,129.8"/>
</g>
<g>
	<path class="st0" d="M-924.9,165.8h-119v-6.3h6.3h6.3h6.3h6.3h6.3h6.3h47h6.3h6.3h6.3h6.3h6.3h3.1V165.8z M-1065.6,59.3h-3.8
		c0-0.1,0-0.2,0.1-0.3c0-0.2,0.1-0.4,0.1-0.6c0.1-0.7,0.2-1.5,0.2-2.2c0-0.7-0.1-1.5-0.2-2.2c0-0.2-0.1-0.4-0.1-0.6
		c0-0.1,0-0.2-0.1-0.3h10.6l8.5,28.2h-7l-5.4-19.6C-1063,60.2-1064.2,59.3-1065.6,59.3L-1065.6,59.3z M-1034.6,131.3
		c1.7,0,3.1,1.4,3.1,3.1v18.8h-6.3v-18.8C-1037.7,132.7-1036.3,131.3-1034.6,131.3L-1034.6,131.3z M-1032.6,74.9h85.8v6.3v0h-82.7
		L-1032.6,74.9z M-1023,58.3c5.9-18.2,22.7-30.4,41.7-30.4c1.7,0,3.1,1.4,3.1,3.1c0,1.7-1.4,3.1-3.1,3.1c-16.4,0-30.7,10.5-35.8,26
		c-0.4,1.3-1.7,2.2-3,2.2c-0.3,0-0.6-0.1-1-0.2C-1022.7,61.7-1023.6,60-1023,58.3L-1023,58.3z M-940.6,81.2v-9.4V56.1h18.8l0,25.1
		L-940.6,81.2z M-934.3,150.1c0-1.7,1.4-3.1,3.1-3.1s3.1,1.4,3.1,3.1v3.1h-6.3V150.1z M-946.9,134.5c0-1.7,1.4-3.1,3.1-3.1
		s3.1,1.4,3.1,3.1v18.8h-6.3V134.5z M-959.4,147c0-1.7,1.4-3.1,3.1-3.1c1.7,0,3.1,1.4,3.1,3.1v6.3h-6.3V147z M-1012.6,143.9
		c0-1.7,1.4-3.1,3.1-3.1s3.1,1.4,3.1,3.1v9.4h-6.3V143.9z M-1025.2,147c0-1.7,1.4-3.1,3.1-3.1s3.1,1.4,3.1,3.1v6.3h-6.3V147z
		 M-939.5,35.9c1.4-2.9,2-5.6,2-8.1l0-2.9h12.5v2.9c0,2.6,0.7,5.3,2,8.1c0.2,0.5,0.3,1,0.5,1.5H-940c0,0,0,0,0-0.1
		C-939.8,36.8-939.7,36.3-939.5,35.9L-939.5,35.9z M-924.9,18.5h-12.5l0-6.3l12.5,0V18.5z M-921.8,43.6l0,6.3h-18.8v-6.3H-921.8z
		 M-909.3,159.5c1.7,0,3.1-1.4,3.1-3.1V84.3c0-1.7-1.4-3.1-3.1-3.1h-6.3v0V53V40.8v-0.4c0-0.1,0-0.1,0-0.1c-0.1-2.5-0.6-4.9-1.7-7.1
		v0c-1-2-1.4-3.8-1.4-5.5v-6v-9.4v0c0-3.5-2.8-6.3-6.3-6.3h-12.5c-3.5,0-6.3,2.8-6.3,6.3v0v9.4v6c0,0.6-0.1,1.3-0.2,2
		c-9.5-8.5-21.5-13.4-34.2-14.1V9.1c0-1.7-1.4-3.1-3.1-3.1s-3.1,1.4-3.1,3.1v6.4c-28.6,1.6-51.5,24.5-53.1,53.1h-0.2
		c-1.1,0-2.1,0.6-2.7,1.5c-0.6,0.9-0.6,2.1-0.1,3l4,8h-7.2l-9.8-32.2c-0.4-1.3-1.6-2.2-3-2.2h-16.9c-2.2-1.9-5.1-3.1-8.2-3.1
		c-6.9,0-12.5,5.6-12.5,12.5s5.6,12.5,12.5,12.5c3.2,0,6-1.2,8.2-3.1h5.4l5.2,19.2v71.6c0,1.7,1.4,3.1,3.1,3.1h9.4v6.4
		c-7,0.8-12.5,6.7-12.5,13.9c0,7.8,6.3,14.1,14.1,14.1s14.1-6.3,14.1-14.1c0-2.9-0.9-5.6-2.4-7.8h105c-1.5,2.2-2.4,4.9-2.4,7.8
		c0,7.8,6.3,14.1,14.1,14.1s14.1-6.3,14.1-14.1c0-7.2-5.5-13.1-12.5-13.9v-6.4H-909.3z"/>
</g>
<g>
	<g>
		<defs>
			<rect id="SVGID_19_" x="-864.8" y="2.1" width="169.5" height="195.9"/>
		</defs>
		<clipPath id="SVGID_20_">
			<use xlink:href="#SVGID_19_"  style="overflow:visible;"/>
		</clipPath>
		<path class="st12" d="M-735.5,84.7V71.1c0-4.9-4-8.9-8.9-8.9h-23.2c4.7-6.1,6.6-12,5.7-17.9c-1.1-7.2-6.2-13-10.8-18.1
			c-6.5-7.3-10-11.7-6.9-17.7c1-1.9,0.5-4.3-1.3-5.6c-1.8-1.3-4.2-1.1-5.8,0.4c-20.8,20.5-9.8,33.8-1.7,43.6
			c5.2,6.2,8.3,10.4,7.2,15.2h-26.6c4.7-6.1,6.6-12,5.7-17.9c-1.1-7.2-6.2-13-10.8-18.1c-6.5-7.3-10-11.7-6.9-17.7
			c1-1.9,0.5-4.3-1.3-5.6c-1.8-1.3-4.2-1.1-5.8,0.4c-20.8,20.5-9.8,33.8-1.7,43.6c5.2,6.2,8.3,10.4,7.2,15.2h-34.7
			c-4.9,0-8.9,4-8.9,8.9v93.6c0,17.2,14,31.2,31.2,31.2h66.8c15.7,0,28.8-11.7,30.9-26.9c21.4-2.1,38.2-20.2,38.2-42.1
			C-697.7,105-714.3,87-735.5,84.7L-735.5,84.7z M-824.6,160.2c0,4.9-4,8.9-8.9,8.9s-8.9-4-8.9-8.9V93.4c0-4.9,4-8.9,8.9-8.9
			s8.9,4,8.9,8.9V160.2z M-735.5,150.9v-48.2c11.4,2.1,20.1,12.1,20.1,24.1C-715.5,138.8-724.1,148.8-735.5,150.9L-735.5,150.9z
			 M-735.5,150.9"/>
	</g>
</g>
<g>
	<path class="st0" d="M-522,72.8V40.2h-97.8v32.6h10.9v-5.4c0-9,7.3-16.3,16.3-16.3s16.3,7.3,16.3,16.3v5.4h10.9v-5.4
		c0-9,7.3-16.3,16.3-16.3s16.3,7.3,16.3,16.3v5.4H-522z"/>
	<path class="st0" d="M-554.6,67.4v5.4h10.9v-5.4c0-3-2.4-5.4-5.4-5.4C-552.1,62-554.6,64.4-554.6,67.4z"/>
	<path class="st0" d="M-554.6,110.9v5.4h10.9v-5.4c0-3-2.4-5.4-5.4-5.4C-552.1,105.4-554.6,107.9-554.6,110.9z"/>
	<path class="st0" d="M-543.7,154.3c0-3-2.4-5.4-5.4-5.4h-54.3c-3,0-5.4,2.4-5.4,5.4v5.4h65.2V154.3z"/>
	<path class="st0" d="M-598,110.9v5.4h10.9v-5.4c0-3-2.4-5.4-5.4-5.4S-598,107.9-598,110.9z"/>
	<path class="st0" d="M-522,116.3V83.7c-59.7,0-46.5,0-97.8,0v32.6h10.9v-5.4c0-9,7.3-16.3,16.3-16.3s16.3,7.3,16.3,16.3v5.4h10.9
		v-5.4c0-9,7.3-16.3,16.3-16.3s16.3,7.3,16.3,16.3v5.4H-522z"/>
	<path class="st0" d="M-598,67.4v5.4h10.9v-5.4c0-3-2.4-5.4-5.4-5.4S-598,64.4-598,67.4z"/>
	<path class="st0" d="M-522,192.7v-65.6c-36.4,0-62.2,0-103.2,0c-3,0-5.4-2.4-5.4-5.4V34.8c0-3,2.4-5.4,5.4-5.4H-522V7.3h-114.1
		c-9,0-16.7,7.7-16.7,16.7v152.5c0,9,7.7,16.3,16.7,16.3H-522z M-619.8,154.3c0-9,7.3-16.3,16.3-16.3h54.3c9,0,16.3,7.3,16.3,16.3
		v10.9c0,3-2.4,5.4-5.4,5.4h-76.1c-3,0-5.4-2.4-5.4-5.4V154.3z"/>
	<path class="st0" d="M-483.9,7.3h-27.2c0,48.2,0-3.3,0,114.4v71h27.2c9,0,16.7-7.3,16.7-16.3V23.9C-467.3,15-475,7.3-483.9,7.3z
		 M-494.8,116.3c-3,0-5.4-2.4-5.4-5.4c0-3,2.4-5.4,5.4-5.4c3,0,5.4,2.4,5.4,5.4C-489.4,113.9-491.8,116.3-494.8,116.3z M-494.8,94.6
		c-3,0-5.4-2.4-5.4-5.4c0-3,2.4-5.4,5.4-5.4c3,0,5.4,2.4,5.4,5.4C-489.4,92.1-491.8,94.6-494.8,94.6z M-494.8,72.8
		c-3,0-5.4-2.4-5.4-5.4c0-3,2.4-5.4,5.4-5.4c3,0,5.4,2.4,5.4,5.4C-489.4,70.4-491.8,72.8-494.8,72.8z M-494.8,51.1
		c-3,0-5.4-2.4-5.4-5.4c0-3,2.4-5.4,5.4-5.4c3,0,5.4,2.4,5.4,5.4C-489.4,48.7-491.8,51.1-494.8,51.1z"/>
</g>
<g>
	<path d="M-430.3,174c0.8,1.7,1.9,3.3,3.4,4.5c7.8,6.5,22,1.5,28.7-4.5c7.3-6.5,8.5-6.5,15.8,0c4.3,3.8,9.9,6.2,16.1,6.2
		c6.2,0,11.8-2.3,16.1-6.2c7.2-6.5,8.6-6.5,15.8,0c4.3,3.8,9.9,6.2,16.1,6.2c6.2,0,11.9-2.3,16.1-6.2c5.8-5.2,8.7-6.1,14.8-0.8
		c10.9,9.3,26.7,8.9,36.3-2.4c5.4-6.4,5.9-14.4,2.3-21.8c-6.3-12.7-16.5-25.6-32-25.6h-13.1c0-0.1,0-0.3,0-0.4l-5.8-34.8h4.5
		c2,0,3.6-1.6,3.6-3.6v-3.6c0-2-1.6-3.6-3.6-3.6c0,0-4.8,0-4.8,0h-8.6c0.5-0.4,1-0.9,1.4-1.5c0.8-1.2,1.3-2.6,1.3-4.1
		c0-4.1-3.3-7.4-7.4-7.4c-4.1,0-7.3,3.3-7.3,7.4c0,0.1,0,0.2,0,0.2c0,0.1-0.8,0.5-1.7,1.2c-0.9,0.7-2.3,0.1-4-0.7
		c-0.9-0.5-2-0.7-3.2-0.7c-0.4,0-0.8,0-1.2,0.1c-0.7,0.1-1.9-1.7-3.9-3.1c-1.2-0.8-2.6-1.3-4.2-1.3c-1.9,0-3.7,0.7-5,1.9
		c-2.2,2-3.2,3.7-4.8,3c-0.9-0.4-1.9-0.6-3-0.6c-3.5,0-6.4,2.4-7.2,5.7h-15v0h-4.8c-2,0-3.6,1.6-3.6,3.6v3.6c0,2,1.6,3.6,3.6,3.6
		h5.6l-5.8,34.8c0,0.2,0,0.3,0,0.4c-8,0.1-16,0.4-23.9,0.2c-13.7-0.4-25.6,6.8-29.5,20.2c-2.5,8.5-1.9,18.1,0.3,26.6
		C-431.3,171.6-430.8,172.9-430.3,174z M-302,123.5h-68.4l4.6-27.6c6.7,7.4,17.2,9.9,29.1,9.9c12.5,0,23.4-2.8,30-11L-302,123.5
		L-302,123.5z"/>
	<path d="M-302,123.5"/>
	<path d="M-370.7,74.8l69.2-24c-7.3-17-26.2-25.9-44-20.7l-1.1-3.1c1.5-1.3,2.1-3.3,1.4-5.3c-0.9-2.6-3.7-3.9-6.3-3
		c-2.6,0.9-4,3.7-3.1,6.3c0.7,2,2.5,3.2,4.5,3.2l1.1,3.1C-366.1,38.2-375.5,56.9-370.7,74.8L-370.7,74.8z M-370.7,74.8"/>
</g>
<g>
	<path class="st0" d="M-196.4,75.9h28.8c2.5,0,5,0.2,7.4,0.6V18.9c-2.5,0.4-4.9,0.6-7.4,0.6h-28.8c-6.7,0-12.1,5.4-12.1,12.1v32.2
		C-208.5,70.4-203.1,75.9-196.4,75.9z M-54.4,14.6C-67,7.4-83.1,3.5-99.9,3.5c-15.8,0-31.3,3.6-43.4,10c-2.8,1.5-5.8,2.6-8.9,3.6
		v61.3c3,0.9,6,2.1,8.9,3.6c12.2,6.5,27.6,10,43.4,10c16.8,0,32.9-4,45.5-11.1c14.6-8.4,22.9-20.4,22.9-33.1S-39.9,23-54.4,14.6z
		 M-67.7,59.8h-24.1c-2.2,0-4-1.8-4-4s1.8-4,4-4h24.1c2.2,0,4,1.8,4,4S-65.5,59.8-67.7,59.8z M-67.7,43.7h-24.1c-2.2,0-4-1.8-4-4
		c0-2.2,1.8-4,4-4h24.1c2.2,0,4,1.8,4,4C-63.7,41.9-65.5,43.7-67.7,43.7z M-85.2,99c-10.5,1.4-18.6,1.4-29.5,0
		c-1.2-0.2-2.4,0.2-3.3,1.1c-0.9,0.8-1.3,2.1-1.2,3.3c3.5,38.5,1.4,52.2-0.4,54.2c-1.2,1.2-1.5,2.9-0.9,4.4c0.6,1.5,2.1,2.5,3.7,2.5
		h12c-0.6,12.3-4.6,24.1-28.1,24.1c-16.3,0-28.7-4.4-33.1-11.8c-3-4.9-2.6-11.2,1.3-18.5l1.8-3.3c5.9-10.8,17-30.8,8.1-45.8
		c-6.8-11.5-23-17.1-49.6-17.1c-2.2,0-4,1.8-4,4c0,2.2,1.8,4,4,4c23.2,0,37.5,4.4,42.7,13.1c6.5,11.1-3,28.5-8.2,37.9l-1.9,3.5
		c-6.5,12.4-4.2,21.2-1,26.4c6.1,10.1,20.3,15.7,40,15.7c32,0,35.7-20.6,36.1-32.2h4.1c0.9,0,1.8-0.3,2.5-0.9
		c6.6-5.2,9.2-22.2,9.5-60.5c0-1.2-0.5-2.3-1.4-3C-82.8,99.2-84,98.8-85.2,99z M-96.7,124.1c0,2.2-1.8,4-4,4s-4-1.8-4-4v-12.1
		c0-2.2,1.8-4,4-4s4,1.8,4,4V124.1z"/>
</g>
<g>
	<path d="M189.6,40.6H10.4c-3.9,0-7,3.1-7,7v104.8c0,3.8,3.1,7,7,7h179.2c3.9,0,7-3.1,7-7V47.6C196.6,43.8,193.5,40.6,189.6,40.6
		L189.6,40.6z M158.8,66.9h10.9v10.9h-10.9V66.9z M158.8,80.5h10.9v10.9h-10.9V80.5z M158.8,94h10.9v10.9h-10.9V94z M144.8,66.9
		h10.9v10.9h-10.9V66.9z M144.8,80.5h10.9v10.9h-10.9V80.5z M132.6,145.4h-12.1c1.9-1.1,3.3-3.6,3.3-6.6h-22.7
		c11.6-7.1,19.2-18.7,19.2-31.9H29.5c0,13.2,7.6,24.8,19.2,31.9H26c0,3,1.3,5.5,3.2,6.6H17.4V54.6h115.2V145.4z M144.8,94h10.9v10.9
		h-10.9V94z M163.9,141.8c-6.6,0-11.9-5.3-11.9-11.9c0-6.6,5.3-12,11.9-12c6.6,0,11.9,5.3,11.9,12
		C175.8,136.5,170.5,141.8,163.9,141.8L163.9,141.8z M183.6,104.9h-10.9V94h10.9V104.9z M183.6,91.4h-10.9V80.5h10.9V91.4z
		 M183.6,77.8h-10.9V66.9h10.9V77.8z M183.6,77.8"/>
</g>
<g>
	<path d="M381.6,19.4v37.5c10.3-0.6,10.3-10.2,10.3-18.7C391.9,29.6,391.9,20,381.6,19.4L381.6,19.4z M381.6,19.4"/>
	<g>
		<defs>
			<rect id="SVGID_21_" x="223.7" y="3.5" width="192.7" height="193"/>
		</defs>
		<clipPath id="SVGID_22_">
			<use xlink:href="#SVGID_21_"  style="overflow:visible;"/>
		</clipPath>
		<path class="st13" d="M323.5,108.6c-11.2,2.1-16.2,8.5-16.2,16c0,8.8,6.9,16,22.7,16.7c5.2,9.7,14.4,16.6,31,16.6
			c37.6,0,37.6-35,37.6-59.5h-75.2C323.4,101.5,323.4,105,323.5,108.6L323.5,108.6z M373,141.6c6.3-9.4,8.7-20,8.6-31.2
			c0-5.3,8.2-5.3,8.2,0c0,12.5-2.7,24.9-9.7,35.4C377.1,150,370,145.9,373,141.6L373,141.6z M316.9,124.7c-0.1-4.1,0.8-7.2,6.9-8.8
			c0.4,6.1,1.3,12.3,3,17.9C318.1,132.6,317,129.4,316.9,124.7L316.9,124.7z M316.9,124.7"/>
		<path class="st13" d="M283.3,193H408c5.6,0,8.7-5.8,8.7-11.2v-8c0-6-3.5-12.4-8.7-12.4H293c-4.1,0-7.4-1.1-9.6-3.1V193z
			 M283.3,193"/>
	</g>
	<path d="M340.8,3.5H233.3c-5.6,0-9.7,4.1-9.7,9.7v168.7c0,5.4,3.9,11.2,9.7,11.2h46.5V96.6c0-7.3,5.4-12.4,13.1-12.4h47.8
		c5.7,0,9.2-5.9,9.2-11.4V13.1c0-0.9-0.1-1.8-0.3-2.6C348.7,6.2,345.4,3.5,340.8,3.5L340.8,3.5z M272.2,46.8c-0.2,0-0.4,0-0.6,0
		l-2.8-0.5c-2.4,5.3-7.6,8.9-13.8,8.9c-8.4,0-15.1-6.8-15.1-15.1c0-8.4,6.8-15.1,15.1-15.1c8.1,0,14.7,6.4,15.1,14.5l2.6,0.4
		c1.9,0.3,3.2,2.1,2.9,4.1C275.4,45.6,273.9,46.8,272.2,46.8L272.2,46.8z M272.2,46.8"/>
	<path d="M362.1,70.2h8l1.1-3.5l1.1-3.5h5.7V14h-24.6v49.2h5.4l1.6,3.5L362.1,70.2z M362.1,70.2"/>
</g>
<g>
	<path d="M566.6,43.3L545,20.7l-21.6,22.6l-7.2-6.9l21.9-22.9c3.8-3.8,10-3.8,13.8,0l0.1,0.1l21.8,22.8L566.6,43.3z"/>
</g>
<g>
	<path d="M705.4,118.7c-10.1,0-18.2,8.2-18.2,18.2c0,10.1,8.2,18.2,18.2,18.2c10.1,0,18.2-8.2,18.2-18.2
		C723.6,126.9,715.4,118.7,705.4,118.7L705.4,118.7z M705.4,144.9c-4.4,0-7.9-3.5-7.9-7.9c0-4.4,3.6-7.9,7.9-7.9s7.9,3.5,7.9,7.9
		C713.3,141.3,709.7,144.9,705.4,144.9L705.4,144.9z M705.4,144.9"/>
	<path d="M812.5,118.7c-10.1,0-18.2,8.2-18.2,18.2c0,10.1,8.2,18.2,18.2,18.2c10.1,0,18.2-8.2,18.2-18.2
		C830.7,126.9,822.5,118.7,812.5,118.7L812.5,118.7z M812.5,144.9c-4.4,0-7.9-3.5-7.9-7.9c0-4.4,3.5-7.9,7.9-7.9
		c4.4,0,7.9,3.5,7.9,7.9C820.4,141.3,816.8,144.9,812.5,144.9L812.5,144.9z M812.5,144.9"/>
	<path d="M847.3,44.8H683.6c-6,0-11.9,4.8-13.1,10.7L664,79.4c-1.2,5.9-2.2,15.6-2.2,21.6V126c0,6,4.9,10.9,10.9,10.9h11.1
		c0-11.9,9.7-21.5,21.5-21.5c11.9,0,21.5,9.6,21.5,21.5h64.1c0-11.9,9.7-21.5,21.5-21.5c11.9,0,21.5,9.6,21.5,21.5h13.3
		c6,0,10.9-4.9,10.9-10.9V55.7C858.2,49.7,853.3,44.8,847.3,44.8L847.3,44.8z M707.1,90.8h-25.4l4-9.5c0.7-1.7-0.1-3.6-1.7-4.3
		c-1.7-0.7-3.6,0.1-4.3,1.7l-5,11.8c-3.4-0.9-5.4-4-4.7-7.8l5.9-23.4c0.8-4.4,5.2-8,9.7-8h21.6L707.1,90.8L707.1,90.8z M755.6,90.8
		h-42V51.4h42V90.8z M804.1,90.8h-42V51.4h42V90.8z M851.5,82.6c0,4.5-3.7,8.2-8.2,8.2h-32.6V51.4h32.6c4.5,0,8.2,3.7,8.2,8.2V82.6z
		 M851.5,82.6"/>
</g>
<g>
	<g>
		<path d="M1059.8,53.1h-57.7l20.5-33.6c1.8-2.9,0.9-6.7-2.1-8.5c-2.9-1.8-6.7-0.9-8.5,2.1l-24.4,40h-15.2l-24.4-40
			c-1.8-2.9-5.6-3.8-8.5-2.1c-2.9,1.8-3.8,5.6-2.1,8.5l20.5,33.6h-57.7c-7.5,0-13.5,6.1-13.5,13.5v111.7c0,7.5,6.1,13.5,13.5,13.5
			h159.5c7.5,0,13.5-6.1,13.5-13.5V66.6C1073.3,59.2,1067.2,53.1,1059.8,53.1L1059.8,53.1z M1017.6,162.1c0,4.1-3.3,7.4-7.4,7.4H916
			c-4.1,0-7.4-3.3-7.4-7.4V82.9c0-4.1,3.3-7.4,7.4-7.4h94.2c4.1,0,7.4,3.3,7.4,7.4V162.1z M1044.8,159.8c-7,0-12.8-5.7-12.8-12.8
			c0-7,5.7-12.8,12.8-12.8c7,0,12.8,5.7,12.8,12.8C1057.6,154,1051.8,159.8,1044.8,159.8L1044.8,159.8z M1044.8,110.8
			c-7,0-12.8-5.7-12.8-12.8s5.7-12.8,12.8-12.8c7,0,12.8,5.7,12.8,12.8S1051.8,110.8,1044.8,110.8L1044.8,110.8z M1044.8,110.8"/>
	</g>
</g>
<g>
	<g>
		<defs>
			<rect id="SVGID_23_" x="926" y="90.4" width="79.7" height="60"/>
		</defs>
		<clipPath id="SVGID_24_">
			<use xlink:href="#SVGID_23_"  style="overflow:visible;"/>
		</clipPath>
		<path class="st14" d="M986.8,118.9c0,6.3-2.7,12.4-7.4,16.6c-0.9,0.8-2.1,1.2-3.2,1.2c-1.3,0-2.6-0.5-3.6-1.6
			c-1.8-2-1.6-5,0.3-6.8c2.7-2.4,4.2-5.9,4.2-9.5c0-3.6-1.5-7.1-4.2-9.5c-2-1.8-2.1-4.8-0.3-6.8c1.8-2,4.8-2.1,6.8-0.3
			C984.1,106.6,986.8,112.6,986.8,118.9L986.8,118.9z M991.7,91.9c-1.9-1.9-4.9-1.9-6.8,0c-1.9,1.9-1.9,4.9,0,6.8
			c5.4,5.4,8.4,12.6,8.4,20.3c0,7.7-3,14.9-8.4,20.3c-1.9,1.9-1.9,4.9,0,6.8c0.9,0.9,2.2,1.4,3.4,1.4c1.2,0,2.5-0.5,3.4-1.4
			c7.2-7.3,11.2-16.9,11.2-27.1C1002.8,108.7,998.9,99.1,991.7,91.9L991.7,91.9z M964.4,113.1c-3.2,0-5.8,2.6-5.8,5.8
			c0,3.2,2.6,5.8,5.8,5.8c3.2,0,5.8-2.6,5.8-5.8C970.2,115.7,967.6,113.1,964.4,113.1L964.4,113.1z M956.2,102.7
			c-1.8-2-4.8-2.1-6.8-0.3c-4.7,4.2-7.4,10.3-7.4,16.6c0,6.3,2.7,12.4,7.3,16.6c0.9,0.8,2.1,1.2,3.2,1.2c1.3,0,2.6-0.5,3.6-1.6
			c1.8-2,1.6-5-0.3-6.8c-2.7-2.4-4.2-5.9-4.2-9.5c0-3.6,1.5-7.1,4.2-9.5C957.8,107.7,957.9,104.6,956.2,102.7L956.2,102.7z
			 M935.6,118.9c0-7.7,3-14.9,8.4-20.3c1.9-1.9,1.9-4.9,0-6.8c-1.9-1.9-4.9-1.9-6.8,0c-7.2,7.2-11.2,16.9-11.2,27.1
			c0,10.2,4,19.9,11.2,27.1c0.9,1,2.2,1.4,3.4,1.4c1.2,0,2.4-0.5,3.4-1.4c1.9-1.9,1.9-4.9,0-6.8
			C938.6,133.8,935.6,126.6,935.6,118.9L935.6,118.9z M935.6,118.9"/>
	</g>
</g>
<g>
	<g>
		<path d="M1269.2,100c0,7.9-3.3,15.5-9.2,20.8c-1.2,1-2.6,1.6-4,1.6c-1.6,0-3.3-0.7-4.5-2c-2.2-2.5-2-6.3,0.4-8.5
			c3.4-3,5.3-7.4,5.3-11.9c0-4.5-1.9-8.8-5.2-11.9c-2.5-2.2-2.7-6-0.4-8.5c2.2-2.5,6-2.6,8.5-0.4
			C1265.8,84.5,1269.2,92.1,1269.2,100L1269.2,100z"/>
		<path d="M1275.2,66.1c-2.3-2.3-6.1-2.3-8.5,0c-2.4,2.3-2.4,6.2,0,8.5c6.7,6.8,10.5,15.8,10.5,25.4c0,9.6-3.7,18.6-10.5,25.4
			c-2.3,2.3-2.3,6.2,0,8.5c1.2,1.2,2.7,1.7,4.2,1.7c1.5,0,3.1-0.6,4.2-1.8c9-9.1,14-21.1,14-33.9
			C1289.2,87.2,1284.2,75.1,1275.2,66.1L1275.2,66.1z"/>
	</g>
	<g>
		<path d="M1148.5,79.6c-2.2-2.5-6-2.6-8.5-0.4c-5.8,5.3-9.2,12.9-9.2,20.8c0,7.9,3.3,15.5,9.2,20.8c1.2,1,2.6,1.5,4,1.5
			c1.6,0,3.3-0.7,4.5-2c2.2-2.4,2-6.3-0.4-8.5c-3.3-3-5.3-7.3-5.3-11.9c0-4.5,1.9-8.8,5.3-11.9C1150.6,85.9,1150.7,82.1,1148.5,79.6
			L1148.5,79.6z"/>
		<path d="M1122.8,100c0-9.6,3.7-18.6,10.5-25.4c2.3-2.4,2.3-6.2,0-8.5c-2.3-2.3-6.2-2.3-8.5,0c-9,9.1-14,21.1-14,33.9
			c0,12.8,5,24.8,14,33.9c1.2,1.2,2.7,1.8,4.3,1.8c1.5,0,3-0.6,4.2-1.8c2.4-2.3,2.4-6.1,0-8.5C1126.5,118.6,1122.8,109.6,1122.8,100
			L1122.8,100z"/>
	</g>
</g>
<path d="M1116.7,100"/>
<g>
	<polygon class="st15" points="1241.9,118.9 1205.3,101.9 1217.6,140.5 1224.1,129 1236.1,142.4 1241.6,137.5 1229.5,123.9 	"/>
	<path class="st15" d="M1200.3,117.1c-0.9,2.6-2,4.7-3.2,6c-0.7,0.8-1.4,1.3-1.9,1.3s-1.2-0.5-1.9-1.3c-1.1-1.3-2.2-3.4-3.2-6
		c-0.7-2.1-1.4-4.4-1.9-7c2.3-0.1,4.6-0.2,6.9-0.2c1.8,0,3.7,0,5.5,0.1l-2-6.1l-0.4-1.3c-1.1,0-2.1,0-3.2,0c-2.7,0-5.4,0.1-8,0.2
		c0,0,0,0,0,0c-0.2-2.6-0.4-5.3-0.4-8.1c0-2.8,0.1-5.5,0.4-8.1c0,0,0,0,0,0c2.6,0.1,5.3,0.2,8,0.2s5.4-0.1,8-0.2c0,0,0,0,0,0
		c0.2,2.3,0.3,4.6,0.4,7l4.5,2.1l2.8,1.3c0-0.8,0-1.5,0-2.3c0-2.9-0.1-5.8-0.4-8.7c4.5-0.5,8.7-1.2,12.5-2.1c1.3,3.4,2,7,2,10.7
		c0,2.9-0.4,5.7-1.2,8.3l6.7,3.1c0.3-0.9,0.6-1.8,0.8-2.8c0.7-2.8,1-5.8,1-8.7c0-4.6-0.8-9.1-2.5-13.4c0-0.2,0-0.4-0.1-0.6l-1.2-2.4
		c-1.3-2.7-3-5.3-5-7.6c0,0,0,0,0,0l-0.1-0.1c-0.1-0.1-0.2-0.2-0.3-0.3c0-0.1-0.1-0.1-0.1-0.2c-0.1-0.1-0.1-0.1-0.2-0.2
		c-0.1-0.1-0.3-0.3-0.4-0.4l-0.1-0.1c0,0,0,0,0,0c-0.1-0.1-0.2-0.2-0.3-0.3l0,0l0,0c0,0,0,0,0,0c-0.3-0.3-0.6-0.6-0.9-1l0,0
		c-0.3-0.3-0.6-0.5-0.8-0.8c-0.1-0.1-0.1-0.1-0.2-0.2c-0.1,0-0.1-0.1-0.2-0.1c-3-2.7-6.5-4.9-10.3-6.5c-4.4-1.8-9-2.8-13.8-2.9
		l-0.1,0c-0.2,0-0.4,0-0.6,0c-0.2,0-0.4,0-0.6,0l-0.1,0c-4.8,0.1-9.4,1.1-13.8,2.9c-3.8,1.6-7.2,3.8-10.3,6.5
		c-0.1,0-0.1,0.1-0.2,0.1c-0.1,0.1-0.1,0.1-0.2,0.2c-0.3,0.3-0.6,0.5-0.8,0.8l0,0c-0.3,0.3-0.6,0.6-0.9,0.9l0,0l0,0c0,0,0,0,0,0
		c-0.1,0.1-0.2,0.2-0.3,0.3c0,0,0,0,0,0l-0.1,0.1c-0.1,0.1-0.3,0.3-0.4,0.4l0,0l0,0c-0.1,0.1-0.1,0.1-0.2,0.2c0,0.1-0.1,0.1-0.1,0.2
		c-0.1,0.1-0.2,0.2-0.3,0.3l-0.1,0.1c0,0,0,0,0,0c-2,2.3-3.6,4.9-5,7.6l-1.2,2.4c-0.1,0.2-0.1,0.4-0.1,0.6
		c-1.7,4.3-2.5,8.8-2.5,13.4c0,2.9,0.3,5.9,1,8.7c0.4,1.6,0.9,3.2,1.5,4.7c0,0.2,0,0.4,0.1,0.6l1.3,2.6c3,6.1,7.7,11.2,13.4,14.8
		c3.1,2,6.5,3.4,10.1,4.4c0.8,0.2,1.7,0.4,2.5,0.6c0.4,0.1,0.9,0.2,1.3,0.2c1.9,0.3,3.9,0.5,5.9,0.5c4.1,0,8.1-0.7,11.9-1.9
		l-5.5-17.2C1201.2,114.3,1200.8,115.7,1200.3,117.1z M1219.4,77.3c-3,0.6-6.3,1.1-9.9,1.5c-0.6-3.2-1.4-6.2-2.3-8.9
		c-0.4-1-0.8-2-1.2-3C1211.3,69,1216.1,72.7,1219.4,77.3z M1190.2,72.4c0.9-2.6,2-4.7,3.2-6c0.7-0.8,1.4-1.3,1.9-1.3
		c0.5,0,1.2,0.5,1.9,1.3c1.1,1.3,2.2,3.4,3.2,6c0.7,2.1,1.4,4.4,1.9,7c-2.3,0.1-4.6,0.2-6.9,0.2c-2.3,0-4.7-0.1-6.9-0.2
		C1188.8,76.8,1189.5,74.5,1190.2,72.4z M1184.5,67c-0.4,0.9-0.8,1.9-1.2,3c-1,2.7-1.7,5.6-2.3,8.9c-3.5-0.4-6.8-0.9-9.9-1.5
		C1174.5,72.7,1179.2,69,1184.5,67z M1167.4,105.5c-1.3-3.4-2-7-2-10.7c0-3.7,0.7-7.3,2-10.7c3.8,0.9,8,1.6,12.5,2.1
		c-0.3,2.8-0.4,5.7-0.4,8.7c0,2.9,0.1,5.8,0.4,8.7C1175.4,103.9,1171.2,104.6,1167.4,105.5z M1184.4,122.5l-0.1-0.1l0,0
		c-0.1,0-0.1,0-0.2-0.1c0,0-0.1,0-0.1,0l0,0l-0.1-0.1l0,0c-0.1,0-0.1,0-0.2-0.1c0,0-0.1,0-0.1,0l0,0l-0.1-0.1l0,0
		c-0.1,0-0.1-0.1-0.2-0.1c0,0,0,0,0,0c0,0,0,0,0,0l-0.1,0c0,0,0,0,0,0c-0.4-0.2-0.7-0.3-1.1-0.5c0,0,0,0,0,0l-0.1,0l0,0c0,0,0,0,0,0
		c-0.1,0-0.1-0.1-0.2-0.1l0,0l-0.1-0.1c0,0,0,0,0,0c0,0-0.1,0-0.1,0c-0.1,0-0.2-0.1-0.2-0.1l-0.1-0.1c0,0,0,0,0,0c0,0-0.1,0-0.1-0.1
		c-0.1,0-0.1-0.1-0.2-0.1l0,0l-0.1-0.1l0,0c0,0-0.1,0-0.1-0.1c-0.1,0-0.1-0.1-0.2-0.1l0,0l-0.1-0.1c0,0-0.1,0-0.1-0.1
		c-0.1,0-0.2-0.1-0.2-0.1l-0.1,0c0,0-0.1-0.1-0.1-0.1c-0.1,0-0.2-0.1-0.2-0.2l0,0c0,0-0.1-0.1-0.1-0.1c-0.1,0-0.1-0.1-0.2-0.1l0,0
		l0,0c-0.1,0-0.1-0.1-0.2-0.1c-0.1-0.1-0.2-0.1-0.2-0.2l0,0l0,0c-0.1,0-0.1-0.1-0.2-0.1c-0.1-0.1-0.2-0.1-0.2-0.2
		c-0.1,0-0.1-0.1-0.2-0.1c-0.1-0.1-0.2-0.1-0.2-0.2c-0.1,0-0.1-0.1-0.2-0.1c-0.1-0.1-0.1-0.1-0.2-0.2c-0.1,0-0.1-0.1-0.2-0.1
		c-0.1-0.1-0.1-0.1-0.2-0.2c-0.1,0-0.1-0.1-0.2-0.1c-0.1-0.1-0.1-0.1-0.2-0.2c-0.1,0-0.1-0.1-0.2-0.1c-0.1-0.1-0.1-0.1-0.2-0.2
		c-0.1,0-0.1-0.1-0.2-0.1l0,0c-0.1-0.1-0.1-0.1-0.2-0.2c-0.1,0-0.1-0.1-0.2-0.1c-0.1-0.1-0.1-0.1-0.2-0.2c0,0-0.1-0.1-0.1-0.1l0,0
		l0,0l0,0c-0.1-0.1-0.1-0.1-0.2-0.2c0,0-0.1-0.1-0.1-0.1l0,0l0,0c-0.1-0.1-0.1-0.1-0.2-0.2c0,0-0.1-0.1-0.1-0.1l0,0l-0.1-0.1
		c-0.1-0.1-0.1-0.1-0.2-0.2c0,0-0.1-0.1-0.1-0.1l0,0l-0.1-0.1l0,0c-0.1-0.1-0.1-0.1-0.2-0.2c0,0-0.1-0.1-0.1-0.1l0,0l-0.1-0.1l0,0
		c0-0.1-0.1-0.1-0.1-0.2c0,0-0.1-0.1-0.1-0.1l0,0l-0.1-0.1l0,0c0-0.1-0.1-0.1-0.1-0.2c0,0,0-0.1-0.1-0.1l0,0c0,0,0,0,0,0l-0.1-0.1
		l0,0c0-0.1-0.1-0.1-0.1-0.2c0,0,0,0-0.1-0.1l0,0l-0.1-0.1c0,0,0,0,0,0c-0.2-0.3-0.5-0.6-0.7-0.9c0,0,0,0,0,0l-0.1-0.1c0,0,0,0,0,0
		c0,0,0-0.1-0.1-0.1c0,0-0.1-0.1-0.1-0.1l0,0l-0.1-0.1c0,0,0,0,0,0c0,0-0.1-0.1-0.1-0.1c0,0-0.1-0.1-0.1-0.1l0,0l-0.1-0.1l0,0
		c0,0-0.1-0.1-0.1-0.1c0,0-0.1-0.1-0.1-0.1l0,0l-0.1-0.1l0,0c0,0-0.1-0.1-0.1-0.1c0,0,0,0,0,0c3-0.6,6.4-1.1,9.9-1.5
		c0.6,3.2,1.4,6.2,2.3,8.9c0.4,1.1,0.8,2.1,1.2,3C1184.5,122.6,1184.5,122.5,1184.4,122.5z"/>
</g>
<g>
	<path d="M1432.2,133.5v-12.2c0-1.7-1.4-3-3-3h-18.3c-1.7,0-3,1.4-3,3v12.2c0,1.7,1.4,3,3,3h1.3l-1.8,3.8l9.6,19.1l9.6-19.1
		l-1.8-3.8h1.3C1430.8,136.6,1432.2,135.2,1432.2,133.5z"/>
	<path d="M1479.2,132.2c-8.6-8.5-19.8-13.4-31.8-13.9l-24.7,49.3c-1,2.1-4.4,2.1-5.5,0l-24.7-49.3c-12,0.4-23.2,5.3-31.8,13.9
		c-9,9-13.9,20.9-13.9,33.6v31.6h146.3v-31.6C1493.1,153.2,1488.2,141.2,1479.2,132.2z M1474.8,176.2c0,1.7-1.4,3-3,3h-24.4
		c-1.7,0-3-1.4-3-3v-18.3c0-1.7,1.4-3,3-3h24.4c1.7,0,3,1.4,3,3V176.2z"/>
	<rect x="1450.5" y="160.9" width="18.3" height="12.2"/>
	<path d="M1420,112.2c23.5,0,42.7-19.1,42.7-42.7c0-6.4-1.5-12.6-4.1-18.3h-77c-2.7,5.7-4.1,11.9-4.1,18.3
		C1377.3,93,1396.5,112.2,1420,112.2z"/>
	<path d="M1383.4,42.1c0,1.7,1.4,3,3,3h67c1.7,0,3-1.4,3-3v-11c7.6-7.6,6.1-19.4,6.1-19.9c-0.2-1.1-0.9-2.1-2-2.4
		c-12.1-4.2-25.8-6.3-40.6-6.3c-14.9,0-28.5,2.1-40.6,6.3c-1.4,0.5-2.1,1.8-2,3.2c-0.3,2.8-0.5,12.4,6,19V42.1z"/>
</g>
<g>
	<path class="st0" d="M1706.9,139.8c0.3,0.1,0.6,0.1,0.9,0.1h7.3c2.5,0,4.5-2,4.5-4.5v-19.5h5.7c2.5,0,4.5-2,4.5-4.5V88.3
		c0-2.5-2-4.5-4.5-4.5h-5.7V64.6c0-2.5-2-4.5-4.5-4.5h-7.3c-0.3,0-0.6,0-0.9,0.1c-2.1,0.4-3.6,2.2-3.6,4.4v70.8
		C1703.3,137.6,1704.9,139.4,1706.9,139.8z"/>
	<path class="st0" d="M1584,155.2h13.5c2.5,0,4.5-2,4.5-4.5v-40.3h4.1h4.1h57.6h4.1h4.1v40.3c0,2.5,2,4.5,4.5,4.5h13.5
		c2.5,0,4.5-2,4.5-4.5V49.3c0-2.5-2-4.5-4.5-4.5h-13.5c-2.5,0-4.5,2-4.5,4.5v40h-4.1h-4.1h-57.6h-4.1h-4.1v-40c0-2.5-2-4.5-4.5-4.5
		H1584c-2.5,0-4.5,2-4.5,4.5v101.4C1579.5,153.2,1581.5,155.2,1584,155.2z"/>
	<path class="st0" d="M1554.7,115.9h3.9v19.5c0,2.5,2,4.5,4.5,4.5h7.3c0.3,0,0.6,0,0.9-0.1c2.1-0.4,3.6-2.2,3.6-4.4V64.6
		c0-2.2-1.6-4-3.6-4.4c-0.3-0.1-0.6-0.1-0.9-0.1h-7.3c-2.5,0-4.5,2-4.5,4.5v19.2h-3.9c-2.5,0-4.5,2-4.5,4.5v23.1
		C1550.2,113.9,1552.2,115.9,1554.7,115.9z"/>
</g>
<g>
	<path d="M1835.5,65.5c23.1,0,39.2-8.8,39.2-21.4c0-12.6-16.1-21.4-39.2-21.4c-23.1,0-39.2,8.8-39.2,21.4
		C1796.3,56.7,1812.4,65.5,1835.5,65.5L1835.5,65.5z M1835.5,65.5"/>
	<path d="M1903,107.3c2-0.6,4.2-0.9,6.4-0.9c2.2,0,4.3,0.3,6.4,0.9c0.1-0.2,0.1-0.3,0.2-0.5c2.5-6.7,3.8-13.7,3.8-16.9
		c0-5.7-4.7-10.4-10.4-10.4c-5.7,0-10.4,4.7-10.4,10.4c0,3.2,1.3,10.2,3.8,16.9C1902.9,107,1903,107.2,1903,107.3L1903,107.3z
		 M1903,107.3"/>
	<path d="M1915.8,149.6c-2,0.6-4.2,0.9-6.4,0.9s-4.3-0.3-6.4-0.9c-0.1,0.2-0.1,0.3-0.2,0.5c-2.5,6.7-3.8,13.7-3.8,16.9
		c0,5.7,4.7,10.4,10.4,10.4s10.4-4.7,10.4-10.4c0-3.2-1.3-10.2-3.8-16.9C1915.9,150,1915.8,149.8,1915.8,149.6L1915.8,149.6z
		 M1915.8,149.6"/>
	<path d="M1930.8,123.1c6.8-1.2,14-3.6,17-5.4c2.4-1.4,4.1-3.7,4.8-6.4c0.7-2.7,0.3-5.5-1.1-7.9c-1.9-3.2-5.2-5.1-8.9-5.1
		c-1.9,0-3.7,0.5-5.3,1.5c-2.8,1.6-8.1,6.4-12.5,11.9c-0.1,0.1-0.2,0.3-0.3,0.4C1927.5,115.1,1929.8,118.9,1930.8,123.1
		L1930.8,123.1z M1930.8,123.1"/>
	<path d="M1947.8,139.4c-3-1.8-10.2-4.3-17-5.5c-1.1,4.3-3.4,8-6.6,10.9c0.1,0.1,0.2,0.3,0.3,0.4c4.4,5.6,9.8,10.3,12.5,12
		c1.6,1,3.5,1.5,5.3,1.5c3.7,0,7-1.9,8.9-5c1.4-2.4,1.8-5.2,1.2-7.9C1951.9,143.1,1950.2,140.8,1947.8,139.4L1947.8,139.4z
		 M1947.8,139.4"/>
	<path d="M1888,133.8c-6.8,1.2-14,3.6-17,5.4c-2.4,1.4-4.1,3.7-4.8,6.4c-0.7,2.7-0.3,5.5,1.1,7.9c1.9,3.2,5.2,5.1,8.9,5.1
		c1.9,0,3.7-0.5,5.3-1.5c2.8-1.6,8.1-6.4,12.5-11.9c0.1-0.1,0.2-0.3,0.3-0.4C1891.4,141.9,1889,138.1,1888,133.8L1888,133.8z
		 M1888,133.8"/>
	<path d="M1881.7,99.8c-1.6-1-3.5-1.5-5.3-1.5c-3.7,0-7,1.9-8.9,5c-1.4,2.4-1.8,5.2-1.2,7.9c0.7,2.7,2.4,5,4.7,6.4
		c3,1.8,10.2,4.3,17,5.5c1.1-4.3,3.4-8,6.6-10.9c-0.1-0.1-0.2-0.3-0.3-0.4C1889.8,106.2,1884.5,101.4,1881.7,99.8L1881.7,99.8z
		 M1881.7,99.8"/>
	<path d="M1924.4,128.5c0,8.3-6.7,15-15,15c-8.3,0-15-6.7-15-15c0-8.3,6.7-15,15-15C1917.7,113.5,1924.4,120.2,1924.4,128.5
		L1924.4,128.5z M1924.4,128.5"/>
	<path d="M1792.5,108.1c10.5,6.6,25.4,10.1,43.3,10.1c8,0,15.5-0.7,22.2-2.1c-0.3-0.9-0.6-1.7-0.9-2.7c-1.3-5.1-0.5-10.5,2.2-15
		c3.6-6,10.1-9.7,17-9.7c3.6,0,7.1,1,10.2,2.8c1,0.6,2.1,1.4,3.3,2.3c-0.2-1.5-0.3-2.8-0.3-4c0-3.6,1-7,2.7-10
		c-1.8-6.2-6.2-11.6-13.2-16c-1-0.6-2-1.2-3-1.7c-1.6,1.6-3.5,3-5.6,4.4c-8.7,5.5-20.8,8.4-35,8.4c-14.2,0-26.3-2.9-35-8.4
		c-2-1.3-3.8-2.7-5.4-4.2c-0.9,0.5-1.8,1-2.6,1.5c-9.2,5.8-14,13.4-14,22.1C1778.4,94.7,1783.3,102.3,1792.5,108.1L1792.5,108.1z
		 M1792.5,108.1"/>
	<path d="M1889.9,162.8c-1.2,1-2.4,1.8-3.4,2.4c-3.1,1.8-6.6,2.8-10.1,2.8c-7,0-13.5-3.7-17.1-9.7c-2.7-4.6-3.5-9.9-2.2-15
		c1.3-5.1,4.5-9.5,9.1-12.2c1.4-0.8,3.5-1.8,5.9-2.7c-2.4-0.9-4.4-1.9-5.9-2.7c-0.7-0.4-1.3-0.8-1.9-1.3c-8.5,2.2-18.1,3.3-28.5,3.3
		c-19.7,0-36.4-4-48.3-11.5c-4.9-3.1-8.8-6.7-11.8-10.7c0,0,0,0,0,0c-5.6,6.8-8.5,14.5-8.5,22.7c0,13.1,7.6,25.2,21.3,33.8
		c15.5,9.8,37.6,14.9,63.9,14.9c14,0,26.8-1.5,38.1-4.3c-0.5-1.8-0.8-3.7-0.8-5.7C1889.6,165.8,1889.7,164.4,1889.9,162.8
		L1889.9,162.8z M1889.9,162.8"/>
</g>
<path class="st0" d="M2152,103.8c-16.2-7.7-32.7-15.4-47.1-33c-5.6-6.8-14.4-13.6-22.7-14.7v-2.8c0-6.8,2.6-9.9,5.5-13.1
	c2.7-3.1,5.8-6.6,5.8-13.4c0-7.2-5.8-13-13-13c-7.2,0-13,5.8-13,13c0,1.2,1,2.2,2.2,2.2c1.2,0,2.2-1,2.2-2.2c0-4.7,3.8-8.5,8.5-8.5
	c4.7,0,8.5,3.8,8.5,8.5c0,5.1-2.1,7.4-4.7,10.5c-3.1,3.5-6.6,7.5-6.6,16V56c-8.3,1.1-17.1,7.9-22.7,14.7c-14.4,17.6-31,25.3-47.1,33
	c-21.8,10.4-25.2,16.2-25.2,24.2c0,8.1,10,10.9,16,2.8h32.2c0,14.4,0,43.7,0,43.7c0,6.5,5.3,11.8,11.8,11.8h75.6
	c6.5,0,11.8-5.3,11.8-11.8c0,0,0-29.3,0-43.7h31c6,8.1,16,5.4,16-2.8C2177.3,120,2173.8,114.1,2152,103.8z M2130.2,124
	c0-0.6,0-1,0-1.1c0-1-0.5-1.5-1.3-1.5c-0.3,0-96.3,0-96.6,0c-0.8,0-1.3,0.5-1.3,1.5c0,0.1,0,0.5,0,1.1h-25.3l74.3-42.6l74.3,42.6
	H2130.2z"/>
<g>
	<path class="st0" d="M2370.7,192.8l-13.1-55.4c-2.7-11.2-11.1-20.3-22.1-23.7c-5.9-1.8-11.4-2.9-17.4-3.9l-3.2-6.4
		c0-0.1-0.1-0.1-0.1-0.2l0.3-2c4.9-4.5,8.5-10.7,8.6-10.8c1.1-2,2.2-4.9,3.2-8.3c0.3,0.3,0.7,0.4,1.1,0.4c1.2,0,2.4-0.2,3.6-0.7
		c3.3-1.4,5.4-4.7,5.4-8.2v-5.2c0-3.2-2.6-5.7-5.7-5.7c-0.1,0-0.2,0-0.4,0c1-6.6,1.5-12.6,1.5-16.4c0-5-1.2-9.6-3.4-13.6
		c0-0.1,0-0.2,0-0.3l-4.2-22.9c-0.4-2.4-2.5-4.2-5-4.2h-39.2c-2.5,0-4.6,1.8-5,4.2l-2.8,15.2l-1.4,7.8c0,0.1,0,0.2,0,0.3
		c-2.3,4-3.4,8.6-3.4,13.6c0,3.9,0.6,9.9,1.6,16.3c-3.1,0.1-5.5,2.6-5.5,5.7v5.2c0,3.6,2.1,6.8,5.4,8.2c1.1,0.5,2.3,0.7,3.6,0.7
		c0.3,0,0.5-0.1,0.7-0.2c0.9,3.3,1.9,6.1,2.8,8c0.9,1.8,4.4,6.8,8.6,10.6c0,0.1,0,0.1,0,0.2l0.3,2.1c0,0.1-0.1,0.1-0.1,0.2l-3.3,6.5
		c-7.1,1.3-12.3,2.5-17.1,3.9c-11.2,3.3-19.8,12.4-22.5,23.8l-13,55.1c-0.1,0.5,0,0.9,0.3,1.3c0.3,0.4,0.7,0.6,1.2,0.6h23.9v-42.3
		c0-1.4,1.1-2.5,2.5-2.5c1.4,0,2.5,1.1,2.5,2.5v42.3h38.6l0.1-66.8l0,0c-6.9-1.8-11.4-4.3-15.7-8.6c-0.9-0.9-1.1-2.1-0.5-3.2
		l4.1-8.1c1,2.3,2.8,4.1,5.1,5.1l7,3.1v11.7h3v-11.7l7-3.1c2.3-1,4.1-2.9,5.1-5.1l4.1,8.1c0.5,1.1,0.3,2.4-0.5,3.2
		c-4.3,4.3-8.8,6.8-15.7,8.6l0,0l-0.2,66.8h38.9v-42.3c0-1.4,1.1-2.5,2.5-2.5c1.4,0,2.5,1.1,2.5,2.5v42.3h23.9
		c0.5,0,0.9-0.2,1.2-0.6C2370.7,193.7,2370.8,193.2,2370.7,192.8z M2280.2,186.7c-4,0-7.2-3.2-7.2-7.2c0-4,3.2-7.2,7.2-7.2
		c4,0,7.2,3.2,7.2,7.2C2287.4,183.5,2284.2,186.7,2280.2,186.7z M2287.4,151.1c0,4-3.2,7.2-7.2,7.2c-4,0-7.2-3.2-7.2-7.2
		c0-4,3.2-7.2,7.2-7.2C2284.2,143.9,2287.4,147.1,2287.4,151.1z M2330.3,65.4c0.2,0.1,0.5,0.2,0.8,0.2c1.5,0,2.7,1.2,2.7,2.7v5.2
		c0,2.4-1.4,4.5-3.6,5.5c-0.7,0.3-1.5,0.5-2.3,0.5c-0.1,0-0.3,0-0.4,0.1C2328.5,75.2,2329.5,70.3,2330.3,65.4z M2275.4,26.5h49.2
		l0.9,4.7h-50.9L2275.4,26.5z M2270.5,79c-2.2-0.9-3.6-3.1-3.6-5.5v-5.2c0-1.5,1.2-2.7,2.7-2.7c0.1,0,0.2,0,0.3,0
		c0.8,4.8,1.8,9.6,2.9,13.9C2272,79.5,2271.2,79.3,2270.5,79z M2311.5,104.8c-0.3,2.4-1.9,4.5-4.1,5.5l-7.3,3.2l-7.3-3.2
		c-2.2-1-3.8-3.1-4.1-5.5l-0.2-1.2c2,1.3,4.1,2.1,6.2,2.1h11.3c2,0,3.9-0.7,5.7-1.8L2311.5,104.8z M2305.9,102.6h-11.3
		c-5.7,0-13.7-10.1-15.5-13.6c-2.2-4.4-4.6-14.6-6.3-24.3c2-2,8.2-8.8,11.9-19.1l27.9-4.3c4.1,10.9,12.7,21.3,14.6,23.4
		c-1.6,9.8-4,19.9-6.4,24.2C2317.9,94.2,2311.2,102.6,2305.9,102.6z M2319.8,186.7c-4,0-7.2-3.2-7.2-7.2c0-4,3.2-7.2,7.2-7.2
		c4,0,7.2,3.2,7.2,7.2C2327,183.5,2323.7,186.7,2319.8,186.7z M2319.8,158.3c-4,0-7.2-3.2-7.2-7.2c0-4,3.2-7.2,7.2-7.2
		c4,0,7.2,3.2,7.2,7.2C2327,155.1,2323.7,158.3,2319.8,158.3z"/>
</g>
<g>
	<path class="st0" d="M2601.3,112.6c-0.2-0.2-1-0.9-2.3-2c-22.6-18-43.1-24.3-43.1-24.3c-5.6-1.5-11.2-2.6-16.6-3.1L2526,68.1
		c-3.1-3.5-8.7-4.4-13-2l-29.4,16.3c-2.2,1.2-3.8,3.3-4.4,5.6c-0.5,2.3,0,4.7,1.5,6.6l1.6,2.1c-2.9,1.6-5.7,3.3-8.5,5.2l-23.8-12.7
		c-4.8-2.5-10.6-2.4-15.2,0.4c-4.6,2.8-6.8,7.5-5.8,12.4c0.2,0.9,0.5,1.7,1,2.5l9.6,15.7c0.8,1.4,0.9,3,0.1,4.4l-8.9,16
		c-0.4,0.8-0.7,1.6-0.9,2.5c-0.7,4,0.8,7.8,4.1,10.6c4.8,4,11.9,4.6,17.4,1.4l23.3-13.5c1.3,0.8,2.6,1.6,4,2.3l-1,0.9
		c-4.2,3.5-4.9,9-1.7,13.2l4.2,5.5c0.5,0.6,1,1.2,1.6,1.7c2.3,1.9,5.2,2.9,8.1,2.9c2.9,0,5.8-0.9,8-2.8l11.2-9.2
		c7.6,1.8,15.1,2.6,22.4,2.5c8.4-0.1,17.1-1.6,25.8-4.3l1.1-0.3c0,0,22-6.9,43.1-27.8C2605.6,122.1,2605.5,116.3,2601.3,112.6z
		 M2596.3,122c-0.6,0.6-14.8,14.5-36.7,24.9c-1.9-1.5-3.4-3.2-4.2-4.3c-4.4-5.7-7-13.9-7.2-22.5c-0.2-8.6,2.1-16.8,6.2-22.7
		c0.9-1.3,2.3-3,4-4.4c17.7,7.7,30.9,17.8,35.8,21.9c1.2,1,1.9,1.6,2,1.7l0,0C2597.8,118.3,2597.8,120.5,2596.3,122z"/>
	<path class="st0" d="M2609.6,74.1c-0.9-8.3-1.4-13.2-1.6-14.9c1.9-0.8,3.3-2.7,3.3-4.9c0-2.3-1.5-4.3-3.7-5
		c-0.1-6.3,0.3-12.1,1.2-17.3h-3.2c-1,5.3-1.4,11-1.4,17.3c-2,0.7-3.5,2.6-3.5,4.9c0,2.5,1.7,4.5,4,5.1l1.4,14.6l1.3,12.7
		c0.2,1.3-0.1,2.4-0.9,3.4c-0.8,1-1.8,1.5-3,1.6c-1.2,0.1-2.3-0.2-3.2-0.9c-1-0.8-1.6-1.8-1.8-3c-0.1-0.7-0.1-0.7,0.3-1.5l2.7,1.6
		c-0.8-0.7-1.7-2.9-2.4-5.8c-0.6-2.6-0.8-4.8-0.6-5.9l-2.7,8.2c-0.6,1.5-0.7,2.2-0.6,3.7c0.2,2.2,1.2,3.8,2.8,5.2
		c1.7,1.4,3.6,2,5.7,1.8c2.2-0.2,3.9-1.2,5.3-2.9c1.4-1.7,2-3.6,1.8-5.7l0-0.2L2609.6,74.1z M2606.2,56c-1,0-1.8-0.8-1.8-1.8
		c0-1,0.8-1.8,1.8-1.8c1,0,1.8,0.8,1.8,1.8C2607.9,55.2,2607.1,56,2606.2,56z"/>
	
		<ellipse transform="matrix(0.1602 -0.9871 0.9871 0.1602 2046.6335 2639.0784)" class="st0" cx="2574.2" cy="116.8" rx="6.1" ry="6.1"/>
</g>
</svg>
