<?xml version="1.0" encoding="utf-8"?>
<!-- Generator: Adobe Illustrator 22.0.1, SVG Export Plug-In . SVG Version: 6.00 Build 0)  -->
<svg version="1.1" id="Layer_1" xmlns="http://www.w3.org/2000/svg" xmlns:xlink="http://www.w3.org/1999/xlink" x="0px" y="0px"
	 viewBox="0 0 200 200" style="enable-background:new 0 0 200 200;" xml:space="preserve">
<style type="text/css">
	.st0{fill:#010101;}
	.st1{fill-rule:evenodd;clip-rule:evenodd;}
	.st2{clip-path:url(#SVGID_2_);}
	.st3{clip-path:url(#SVGID_4_);}
	.st4{clip-path:url(#SVGID_6_);}
	.st5{clip-path:url(#SVGID_8_);}
	.st6{clip-path:url(#SVGID_10_);fill:#020202;}
	.st7{clip-path:url(#SVGID_12_);}
	.st8{clip-path:url(#SVGID_14_);}
	.st9{fill:none;}
	.st10{clip-path:url(#SVGID_16_);}
	.st11{clip-path:url(#SVGID_18_);}
	.st12{clip-path:url(#SVGID_20_);}
	.st13{clip-path:url(#SVGID_22_);}
	.st14{clip-path:url(#SVGID_24_);}
	.st15{fill:#1E1818;}
</style>
<g>
	<path d="M9.7,174c0.8,1.7,1.9,3.3,3.4,4.5c7.8,6.5,22,1.5,28.7-4.5c7.3-6.5,8.5-6.5,15.8,0c4.3,3.8,9.9,6.2,16.1,6.2
		c6.2,0,11.8-2.3,16.1-6.2c7.2-6.5,8.6-6.5,15.8,0c4.3,3.8,9.9,6.2,16.1,6.2c6.2,0,11.9-2.3,16.1-6.2c5.8-5.2,8.7-6.1,14.8-0.8
		c10.9,9.3,26.7,8.9,36.3-2.4c5.4-6.4,5.9-14.4,2.3-21.8c-6.3-12.7-16.5-25.6-32-25.6h-13.1c0-0.1,0-0.3,0-0.4l-5.8-34.8h4.5
		c2,0,3.6-1.6,3.6-3.6v-3.6c0-2-1.6-3.6-3.6-3.6c0,0-4.8,0-4.8,0h-8.6c0.5-0.4,1-0.9,1.4-1.5c0.8-1.2,1.3-2.6,1.3-4.1
		c0-4.1-3.3-7.4-7.4-7.4c-4.1,0-7.3,3.3-7.3,7.4c0,0.1,0,0.2,0,0.2c0,0.1-0.8,0.5-1.7,1.2c-0.9,0.7-2.3,0.1-4-0.7
		c-0.9-0.5-2-0.7-3.2-0.7c-0.4,0-0.8,0-1.2,0.1c-0.7,0.1-1.9-1.7-3.9-3.1c-1.2-0.8-2.6-1.3-4.2-1.3c-1.9,0-3.7,0.7-5,1.9
		c-2.2,2-3.2,3.7-4.8,3c-0.9-0.4-1.9-0.6-3-0.6c-3.5,0-6.4,2.4-7.2,5.7h-15v0h-4.8c-2,0-3.6,1.6-3.6,3.6v3.6c0,2,1.6,3.6,3.6,3.6
		h5.6L61.6,123c0,0.2,0,0.3,0,0.4c-8,0.1-16,0.4-23.9,0.2c-13.7-0.4-25.6,6.8-29.5,20.2c-2.5,8.5-1.9,18.1,0.3,26.6
		C8.7,171.6,9.2,172.9,9.7,174z M138,123.5H69.6l4.6-27.6c6.7,7.4,17.2,9.9,29.1,9.9c12.5,0,23.4-2.8,30-11L138,123.5L138,123.5z"/>
	<path d="M69.3,74.8l69.2-24c-7.3-17-26.2-25.9-44-20.7L93.4,27c1.5-1.3,2.1-3.3,1.4-5.3c-0.9-2.6-3.7-3.9-6.3-3
		c-2.6,0.9-4,3.7-3.1,6.3c0.7,2,2.5,3.2,4.5,3.2l1.1,3.1C73.9,38.2,64.5,56.9,69.3,74.8L69.3,74.8z M69.3,74.8"/>
</g>
</svg>
