<?xml version="1.0" encoding="utf-8"?>
<!-- Generator: Adobe Illustrator 22.0.1, SVG Export Plug-In . SVG Version: 6.00 Build 0)  -->
<svg version="1.1" id="Layer_1" xmlns="http://www.w3.org/2000/svg" xmlns:xlink="http://www.w3.org/1999/xlink" x="0px" y="0px"
	 viewBox="0 0 200 200" style="enable-background:new 0 0 200 200;" xml:space="preserve">
<style type="text/css">
	.st0{fill:#010101;}
	.st1{fill-rule:evenodd;clip-rule:evenodd;}
	.st2{clip-path:url(#SVGID_2_);}
	.st3{clip-path:url(#SVGID_4_);}
	.st4{clip-path:url(#SVGID_6_);}
	.st5{clip-path:url(#SVGID_8_);}
	.st6{clip-path:url(#SVGID_10_);fill:#020202;}
	.st7{clip-path:url(#SVGID_12_);}
	.st8{clip-path:url(#SVGID_14_);}
	.st9{fill:none;}
	.st10{fill:#272626;}
	.st11{clip-path:url(#SVGID_16_);}
	.st12{clip-path:url(#SVGID_18_);}
	.st13{clip-path:url(#SVGID_20_);}
	.st14{clip-path:url(#SVGID_22_);}
	.st15{clip-path:url(#SVGID_24_);}
	.st16{fill:#1E1818;}
</style>
<g>
	<path d="M98.3,66.7c-4.9,0-8.2,0.5-10,0.9v31.6c2.1,0.5,4.7,0.6,8.1,0.6c12.9,0,20.8-6.5,20.8-17.4
		C117.1,72.5,110.3,66.7,98.3,66.7L98.3,66.7z M98.3,66.7"/>
	<path d="M171.8,3.5H28.2c-12.7,0-23,10.3-23,23v147.9c0,12.7,10.3,23,23,23h143.6c12.7,0,22.9-10.3,22.9-23V26.4
		C194.7,13.7,184.5,3.5,171.8,3.5L171.8,3.5z M180.6,170.6c0,6.9-5.6,12.5-12.5,12.5H31.6c-6.9,0-12.5-5.6-12.5-12.5V30.4
		c0-6.9,5.6-12.5,12.5-12.5h136.5c6.9,0,12.5,5.6,12.5,12.5V170.6z M180.6,170.6"/>
	<path d="M168.1,26.7H31.6c-2,0-3.7,1.7-3.7,3.7v140.3c0,2,1.6,3.7,3.7,3.7h136.5c2,0,3.7-1.6,3.7-3.7V30.4
		C171.8,28.3,170.1,26.7,168.1,26.7L168.1,26.7z M131.3,107.1c-8.2,7.8-20.5,11.3-34.7,11.3c-3.2,0-5.9-0.2-8.3-0.5v38.3H64.5V50.6
		c7.5-1.3,17.9-2.2,32.6-2.2c14.9,0,25.5,2.9,32.6,8.6c6.8,5.4,11.4,14.3,11.4,24.7C141.1,92.2,137.6,101.1,131.3,107.1L131.3,107.1
		z M131.3,107.1"/>
</g>
</svg>
