<?xml version="1.0" encoding="utf-8"?>
<!-- Generator: Adobe Illustrator 22.0.1, SVG Export Plug-In . SVG Version: 6.00 Build 0)  -->
<svg version="1.1" id="Layer_1" xmlns="http://www.w3.org/2000/svg" xmlns:xlink="http://www.w3.org/1999/xlink" x="0px" y="0px"
	 viewBox="0 0 200 200" style="enable-background:new 0 0 200 200;" xml:space="preserve">
<style type="text/css">
	.st0{fill:#010101;}
	.st1{fill-rule:evenodd;clip-rule:evenodd;}
	.st2{clip-path:url(#SVGID_2_);}
	.st3{clip-path:url(#SVGID_4_);}
	.st4{clip-path:url(#SVGID_6_);}
	.st5{clip-path:url(#SVGID_8_);}
	.st6{clip-path:url(#SVGID_10_);fill:#020202;}
	.st7{clip-path:url(#SVGID_12_);}
</style>
<g>
	<g>
		<defs>
			<rect id="SVGID_5_" x="1.5" y="1.5" width="197" height="197"/>
		</defs>
		<clipPath id="SVGID_2_">
			<use xlink:href="#SVGID_5_"  style="overflow:visible;"/>
		</clipPath>
		<path class="st2" d="M194.8,90.3c3.9-3.8,5.3-9.4,3.6-14.5c-1.7-5.2-6-8.9-11.4-9.6l-47.8-7c-2-0.3-3.8-1.6-4.7-3.4L113,12.4
			c-2.4-4.9-7.3-7.9-12.7-7.9c-5.4,0-10.3,3-12.7,7.9L66.2,55.7c-0.9,1.8-2.7,3.1-4.7,3.4l-47.8,7c-5.4,0.8-9.8,4.5-11.5,9.6
			c-1.7,5.2-0.3,10.7,3.6,14.5L40.4,124c1.5,1.4,2.1,3.5,1.8,5.5L34,177.2c-0.7,4.2,0.4,8.3,3.1,11.5c4.2,5,11.6,6.6,17.5,3.4
			l42.8-22.5c1.8-0.9,4-0.9,5.8,0l42.8,22.5c2.1,1.1,4.3,1.7,6.6,1.7c4.2,0,8.1-1.9,10.9-5.1c2.7-3.2,3.8-7.3,3.1-11.5l-8.2-47.6
			c-0.4-2,0.3-4.1,1.8-5.5L194.8,90.3z M194.8,90.3"/>
	</g>
</g>
</svg>
