<?xml version="1.0" encoding="utf-8"?>
<!-- Generator: Adobe Illustrator 22.0.1, SVG Export Plug-In . SVG Version: 6.00 Build 0)  -->
<svg version="1.1" id="Layer_1" xmlns="http://www.w3.org/2000/svg" xmlns:xlink="http://www.w3.org/1999/xlink" x="0px" y="0px"
	 viewBox="0 0 200 200" style="enable-background:new 0 0 200 200;" xml:space="preserve">
<style type="text/css">
	.st0{fill:#010101;}
	.st1{fill-rule:evenodd;clip-rule:evenodd;}
	.st2{clip-path:url(#SVGID_2_);}
	.st3{clip-path:url(#SVGID_4_);}
	.st4{clip-path:url(#SVGID_6_);}
	.st5{clip-path:url(#SVGID_8_);}
	.st6{clip-path:url(#SVGID_10_);fill:#020202;}
	.st7{clip-path:url(#SVGID_12_);}
	.st8{clip-path:url(#SVGID_14_);}
	.st9{fill:none;}
	.st10{clip-path:url(#SVGID_16_);}
	.st11{clip-path:url(#SVGID_18_);}
	.st12{clip-path:url(#SVGID_20_);}
	.st13{clip-path:url(#SVGID_22_);}
	.st14{clip-path:url(#SVGID_24_);}
	.st15{fill:#1E1818;}
</style>
<g>
	<path d="M137.2,192H62.8c-0.6,0-1.1-0.1-1.6-0.2c0.8,2.4,2.9,4.1,5.6,4.1h66.6c2.6,0,4.8-1.7,5.6-4.1
		C138.3,192,137.8,192,137.2,192L137.2,192z M137.2,192"/>
	<path d="M56.9,53.1c1.6-1.2,3.7-2,5.9-2h74.4c2.2,0,4.2,0.8,5.9,2V9.9c0-3.2-2.6-5.9-5.9-5.9H62.8c-3.2,0-5.9,2.6-5.9,5.9V53.1z
		 M64.8,14.8c0-1.6,1.3-2.9,2.9-2.9h2c1.6,0,2.9,1.3,2.9,2.9v25.5c0,1.6-1.3,2.9-2.9,2.9h-2c-1.6,0-2.9-1.3-2.9-2.9V14.8z
		 M64.8,14.8"/>
	<path d="M143.1,72.6V60.8c0-3.3-2.6-5.9-5.9-5.9H62.8c-3.2,0-5.9,2.6-5.9,5.9v121.4c0,3.3,2.6,5.9,5.9,5.9h74.4
		c3.3,0,5.9-2.6,5.9-5.9V72.6z M69.5,164.6h-1.7c-1.7,0-3.1-1.4-3.1-3.1V73.7c0-1.7,1.4-3.1,3.1-3.1h1.7c1.7,0,3.1,1.4,3.1,3.1v87.9
		C72.6,163.3,71.2,164.6,69.5,164.6L69.5,164.6z M69.5,164.6"/>
</g>
</svg>
