<?xml version="1.0" encoding="utf-8"?>
<!-- Generator: Adobe Illustrator 22.0.1, SVG Export Plug-In . SVG Version: 6.00 Build 0)  -->
<svg version="1.1" id="Layer_1" xmlns="http://www.w3.org/2000/svg" xmlns:xlink="http://www.w3.org/1999/xlink" x="0px" y="0px"
	 viewBox="0 0 200 200" style="enable-background:new 0 0 200 200;" xml:space="preserve">
<style type="text/css">
	.st0{fill:#010101;}
	.st1{fill-rule:evenodd;clip-rule:evenodd;}
	.st2{clip-path:url(#SVGID_2_);}
	.st3{clip-path:url(#SVGID_4_);}
	.st4{clip-path:url(#SVGID_6_);}
	.st5{clip-path:url(#SVGID_8_);}
	.st6{clip-path:url(#SVGID_10_);fill:#020202;}
	.st7{clip-path:url(#SVGID_12_);}
</style>
<g>
	<defs>
		<rect id="SVGID_7_" x="24.5" y="1" width="151" height="200"/>
	</defs>
	<clipPath id="SVGID_2_">
		<use xlink:href="#SVGID_7_"  style="overflow:visible;"/>
	</clipPath>
	<path class="st2" d="M171.6,27.1c-47.8,0-69.2-24.7-69.4-25c-1.2-1.5-3.8-1.5-5,0c-0.2,0.3-21.4,25-69.4,25c-1.8,0-3.3,1.5-3.3,3.3
		v62.4c0,34.1,15.3,66.5,41,86.7c10.4,8.1,21.5,14,33.2,17.5c0.3,0.1,0.6,0.1,0.9,0.1c0.3,0,0.6,0,0.9-0.1
		c11.7-3.5,22.9-9.4,33.2-17.5c25.7-20.2,41-52.6,41-86.7V30.4C174.8,28.6,173.4,27.1,171.6,27.1L171.6,27.1z M168.3,92.8
		c0,32.1-14.4,62.6-38.5,81.5c-9.4,7.4-19.5,12.8-30.1,16.1c-10.6-3.3-20.7-8.7-30.1-16.1c-24.1-19-38.5-49.4-38.5-81.5V33.6
		c40-0.9,61.6-18,68.6-24.7c7,6.7,28.6,23.8,68.6,24.7V92.8z M168.3,92.8"/>
</g>
<path d="M152.4,45.6c-24.2-3.1-41-11.7-50.9-18.4c-1.1-0.8-2.6-0.8-3.7,0C88,33.9,71.2,42.5,47,45.6c-1.6,0.2-2.9,1.6-2.9,3.2v44
	c0,28.1,12.5,54.8,33.5,71.3c6.6,5.2,13.6,9.3,20.9,12.1c0.4,0.2,0.8,0.2,1.2,0.2c0.4,0,0.8-0.1,1.2-0.2c7.2-2.8,14.3-6.9,20.9-12.1
	c21-16.5,33.5-43.1,33.5-71.3v-44C155.2,47.2,154,45.8,152.4,45.6z M90.9,124.5L71,104.7l8.8-8.8L90.9,107l28.6-28.6l8.8,8.8
	L90.9,124.5z"/>
</svg>
