<?xml version="1.0" encoding="utf-8"?>
<!-- Generator: Adobe Illustrator 22.0.1, SVG Export Plug-In . SVG Version: 6.00 Build 0)  -->
<svg version="1.1" id="Layer_1" xmlns="http://www.w3.org/2000/svg" xmlns:xlink="http://www.w3.org/1999/xlink" x="0px" y="0px"
	 viewBox="0 0 200 200" style="enable-background:new 0 0 200 200;" xml:space="preserve">
<style type="text/css">
	.st0{fill:#010101;}
	.st1{fill-rule:evenodd;clip-rule:evenodd;}
	.st2{clip-path:url(#SVGID_2_);}
	.st3{clip-path:url(#SVGID_4_);}
	.st4{clip-path:url(#SVGID_6_);}
	.st5{clip-path:url(#SVGID_8_);}
	.st6{clip-path:url(#SVGID_10_);fill:#020202;}
	.st7{clip-path:url(#SVGID_12_);}
	.st8{clip-path:url(#SVGID_14_);}
	.st9{fill:none;}
	.st10{clip-path:url(#SVGID_16_);}
	.st11{clip-path:url(#SVGID_18_);}
	.st12{clip-path:url(#SVGID_20_);}
	.st13{clip-path:url(#SVGID_22_);}
	.st14{clip-path:url(#SVGID_24_);}
	.st15{fill:#1E1818;}
</style>
<g>
	<path d="M75.5,65.5c23.1,0,39.2-8.8,39.2-21.4c0-12.6-16.1-21.4-39.2-21.4c-23.1,0-39.2,8.8-39.2,21.4
		C36.3,56.7,52.4,65.5,75.5,65.5L75.5,65.5z M75.5,65.5"/>
	<path d="M143,107.3c2-0.6,4.2-0.9,6.4-0.9c2.2,0,4.3,0.3,6.4,0.9c0.1-0.2,0.1-0.3,0.2-0.5c2.5-6.7,3.8-13.7,3.8-16.9
		c0-5.7-4.7-10.4-10.4-10.4c-5.7,0-10.4,4.7-10.4,10.4c0,3.2,1.3,10.2,3.8,16.9C142.9,107,143,107.2,143,107.3L143,107.3z
		 M143,107.3"/>
	<path d="M155.8,149.6c-2,0.6-4.2,0.9-6.4,0.9c-2.2,0-4.3-0.3-6.4-0.9c-0.1,0.2-0.1,0.3-0.2,0.5c-2.5,6.7-3.8,13.7-3.8,16.9
		c0,5.7,4.7,10.4,10.4,10.4c5.7,0,10.4-4.7,10.4-10.4c0-3.2-1.3-10.2-3.8-16.9C155.9,150,155.8,149.8,155.8,149.6L155.8,149.6z
		 M155.8,149.6"/>
	<path d="M170.8,123.1c6.8-1.2,14-3.6,17-5.4c2.4-1.4,4.1-3.7,4.8-6.4c0.7-2.7,0.3-5.5-1.1-7.9c-1.9-3.2-5.2-5.1-8.9-5.1
		c-1.9,0-3.7,0.5-5.3,1.5c-2.8,1.6-8.1,6.4-12.5,11.9c-0.1,0.1-0.2,0.3-0.3,0.4C167.5,115.1,169.8,118.9,170.8,123.1L170.8,123.1z
		 M170.8,123.1"/>
	<path d="M187.8,139.4c-3-1.8-10.2-4.3-17-5.5c-1.1,4.3-3.4,8-6.6,10.9c0.1,0.1,0.2,0.3,0.3,0.4c4.4,5.6,9.8,10.3,12.5,12
		c1.6,1,3.5,1.5,5.3,1.5c3.7,0,7-1.9,8.9-5c1.4-2.4,1.8-5.2,1.2-7.9C191.9,143.1,190.2,140.8,187.8,139.4L187.8,139.4z M187.8,139.4
		"/>
	<path d="M128,133.8c-6.8,1.2-14,3.6-17,5.4c-2.4,1.4-4.1,3.7-4.8,6.4c-0.7,2.7-0.3,5.5,1.1,7.9c1.9,3.2,5.2,5.1,8.9,5.1
		c1.9,0,3.7-0.5,5.3-1.5c2.8-1.6,8.1-6.4,12.5-11.9c0.1-0.1,0.2-0.3,0.3-0.4C131.4,141.9,129,138.1,128,133.8L128,133.8z M128,133.8
		"/>
	<path d="M121.7,99.8c-1.6-1-3.5-1.5-5.3-1.5c-3.7,0-7,1.9-8.9,5c-1.4,2.4-1.8,5.2-1.2,7.9c0.7,2.7,2.4,5,4.7,6.4
		c3,1.8,10.2,4.3,17,5.5c1.1-4.3,3.4-8,6.6-10.9c-0.1-0.1-0.2-0.3-0.3-0.4C129.8,106.2,124.5,101.4,121.7,99.8L121.7,99.8z
		 M121.7,99.8"/>
	<path d="M164.4,128.5c0,8.3-6.7,15-15,15c-8.3,0-15-6.7-15-15c0-8.3,6.7-15,15-15C157.7,113.5,164.4,120.2,164.4,128.5L164.4,128.5
		z M164.4,128.5"/>
	<path d="M32.5,108.1c10.5,6.6,25.4,10.1,43.3,10.1c8,0,15.5-0.7,22.2-2.1c-0.3-0.9-0.6-1.7-0.9-2.7c-1.3-5.1-0.5-10.5,2.2-15
		c3.6-6,10.1-9.7,17-9.7c3.6,0,7.1,1,10.2,2.8c1,0.6,2.1,1.4,3.3,2.3c-0.2-1.5-0.3-2.8-0.3-4c0-3.6,1-7,2.7-10
		c-1.8-6.2-6.2-11.6-13.2-16c-1-0.6-2-1.2-3-1.7c-1.6,1.6-3.5,3-5.6,4.4c-8.7,5.5-20.8,8.4-35,8.4c-14.2,0-26.3-2.9-35-8.4
		c-2-1.3-3.8-2.7-5.4-4.2c-0.9,0.5-1.8,1-2.6,1.5c-9.2,5.8-14,13.4-14,22.1C18.4,94.7,23.3,102.3,32.5,108.1L32.5,108.1z
		 M32.5,108.1"/>
	<path d="M129.9,162.8c-1.2,1-2.4,1.8-3.4,2.4c-3.1,1.8-6.6,2.8-10.1,2.8c-7,0-13.5-3.7-17.1-9.7c-2.7-4.6-3.5-9.9-2.2-15
		c1.3-5.1,4.5-9.5,9.1-12.2c1.4-0.8,3.5-1.8,5.9-2.7c-2.4-0.9-4.4-1.9-5.9-2.7c-0.7-0.4-1.3-0.8-1.9-1.3c-8.5,2.2-18.1,3.3-28.5,3.3
		c-19.7,0-36.4-4-48.3-11.5c-4.9-3.1-8.8-6.7-11.8-10.7c0,0,0,0,0,0c-5.6,6.8-8.5,14.5-8.5,22.7c0,13.1,7.6,25.2,21.3,33.8
		C43.9,171.8,66,177,92.3,177c14,0,26.8-1.5,38.1-4.3c-0.5-1.8-0.8-3.7-0.8-5.7C129.6,165.8,129.7,164.4,129.9,162.8L129.9,162.8z
		 M129.9,162.8"/>
</g>
</svg>
