<?xml version="1.0" encoding="utf-8"?>
<!-- Generator: Adobe Illustrator 22.0.1, SVG Export Plug-In . SVG Version: 6.00 Build 0)  -->
<svg version="1.1" id="Layer_1" xmlns="http://www.w3.org/2000/svg" xmlns:xlink="http://www.w3.org/1999/xlink" x="0px" y="0px"
	 viewBox="0 0 200 200" style="enable-background:new 0 0 200 200;" xml:space="preserve">
<style type="text/css">
	.st0{fill:#010101;}
	.st1{fill-rule:evenodd;clip-rule:evenodd;}
	.st2{clip-path:url(#SVGID_2_);}
	.st3{clip-path:url(#SVGID_4_);}
	.st4{clip-path:url(#SVGID_6_);}
	.st5{clip-path:url(#SVGID_8_);}
	.st6{clip-path:url(#SVGID_10_);fill:#020202;}
	.st7{clip-path:url(#SVGID_12_);}
	.st8{clip-path:url(#SVGID_14_);}
	.st9{fill:none;}
	.st10{clip-path:url(#SVGID_16_);}
	.st11{clip-path:url(#SVGID_18_);}
	.st12{clip-path:url(#SVGID_20_);}
	.st13{clip-path:url(#SVGID_22_);}
	.st14{clip-path:url(#SVGID_24_);}
	.st15{fill:#1E1818;}
</style>
<g>
	<g>
		<defs>
			<rect id="SVGID_15_" x="8.7" y="49.8" width="182.6" height="101.4"/>
		</defs>
		<clipPath id="SVGID_2_">
			<use xlink:href="#SVGID_15_"  style="overflow:visible;"/>
		</clipPath>
		<path class="st2" d="M180.3,84.8c0,16.4-13.3,29.7-29.7,29.7s-29.7-13.3-29.7-29.7c0-16.4,13.3-29.7,29.7-29.7
			S180.3,68.4,180.3,84.8L180.3,84.8z M180.3,84.8"/>
		<path class="st2" d="M86.6,90.4L49.4,117c1.6-0.3,3.4-0.5,5.4-0.5c8.9,0,13.9,4,17.1,6.6c2.4,1.9,3.2,2.6,5.7,2.6
			c2.5,0,3.3-0.6,5.7-2.6c3.3-2.6,8.2-6.6,17.1-6.6c8.9,0,13.9,4,17.1,6.6c2.4,1.9,3.2,2.6,5.7,2.6c2.5,0,3.3-0.6,5.7-2.6
			c1.1-0.9,2.4-1.9,3.9-2.9l-26-43.9L71.3,49.7L30.7,61.2l-5.1,23.4l42.2-8.3L86.6,90.4z M86.6,90.4"/>
	</g>
	<path d="M174.1,130.3c-2.4,1.9-3.2,2.6-5.7,2.6c-2.5,0-3.3-0.6-5.7-2.6c-3.3-2.6-8.2-6.6-17.1-6.6c-8.9,0-13.9,4-17.1,6.6
		c-2.4,1.9-3.2,2.6-5.7,2.6c-2.5,0-3.3-0.6-5.7-2.6c-3.3-2.6-8.2-6.6-17.1-6.6c-8.9,0-13.9,4-17.1,6.6c-2.4,1.9-3.2,2.6-5.7,2.6
		c-2.5,0-3.3-0.6-5.7-2.6c-3.3-2.6-8.2-6.6-17.1-6.6s-13.9,4-17.1,6.6c-2.4,1.9-3.2,2.6-5.7,2.6c-2.5,0-3.3-0.6-5.7-2.6
		c-3.3-2.6-8.2-6.6-17.1-6.6v18.3c2.5,0,3.3,0.6,5.7,2.6c3.3,2.6,8.2,6.6,17.1,6.6c8.9,0,13.9-4,17.1-6.6c2.4-1.9,3.2-2.6,5.7-2.6
		c2.5,0,3.3,0.6,5.7,2.6c3.3,2.6,8.2,6.6,17.1,6.6s13.8-4,17.1-6.6c2.4-1.9,3.2-2.6,5.7-2.6c2.5,0,3.3,0.6,5.7,2.6
		c3.3,2.6,8.2,6.6,17.1,6.6s13.9-4,17.1-6.6c2.4-1.9,3.2-2.6,5.7-2.6c2.5,0,3.3,0.6,5.7,2.6c3.3,2.6,8.2,6.6,17.1,6.6
		c8.9,0,13.9-4,17.1-6.6c2.4-1.9,3.2-2.6,5.7-2.6v-18.3C182.3,123.7,177.4,127.6,174.1,130.3L174.1,130.3z M174.1,130.3"/>
</g>
</svg>
