<?xml version="1.0" encoding="utf-8"?>
<!-- Generator: Adobe Illustrator 22.0.1, SVG Export Plug-In . SVG Version: 6.00 Build 0)  -->
<svg version="1.1" id="Layer_1" xmlns="http://www.w3.org/2000/svg" xmlns:xlink="http://www.w3.org/1999/xlink" x="0px" y="0px"
	 viewBox="0 0 200 200" style="enable-background:new 0 0 200 200;" xml:space="preserve">
<style type="text/css">
	.st0{fill:#010101;}
	.st1{fill-rule:evenodd;clip-rule:evenodd;}
	.st2{clip-path:url(#SVGID_2_);}
	.st3{clip-path:url(#SVGID_4_);}
	.st4{clip-path:url(#SVGID_6_);}
	.st5{clip-path:url(#SVGID_8_);}
	.st6{clip-path:url(#SVGID_10_);fill:#020202;}
	.st7{clip-path:url(#SVGID_12_);}
	.st8{clip-path:url(#SVGID_14_);}
	.st9{fill:none;}
	.st10{clip-path:url(#SVGID_16_);}
	.st11{clip-path:url(#SVGID_18_);}
	.st12{clip-path:url(#SVGID_20_);}
	.st13{clip-path:url(#SVGID_22_);}
	.st14{clip-path:url(#SVGID_24_);}
	.st15{fill:#1E1818;}
</style>
<g>
	<g>
		<path class="st0" d="M171.3,60h-50.9c-6.1,0-11.1,5-11.1,11.1v25.4v50.2v25.4c0,6.1,5,11.1,11.1,11.1h50.9c6.1,0,11.1-5,11.1-11.1
			v-25.4V96.6V71.1C182.3,65,177.4,60,171.3,60z M113.9,71.1c0-3.6,2.9-6.5,6.5-6.5h50.9c3.6,0,6.5,2.9,6.5,6.5v23.2h-63.9V71.1z
			 M177.8,172.2c0,3.6-2.9,6.5-6.5,6.5h-50.9c-3.6,0-6.5-2.9-6.5-6.5v-23.2h63.9V172.2z"/>
	</g>
	<g>
		<path class="st0" d="M162.3,56.2v-5.8c0-3.8-3.1-6.9-6.9-6.9h-5v-3h-9.1v3h-5c-3.8,0-6.9,3.1-6.9,6.9v5.8H162.3z"/>
	</g>
	<g>
		<path class="st0" d="M149.6,18.3c-1.9-1.5-4.5-1.9-6.9-1.3c-7.1,2-19.2,4.7-36.8,6.2c-2.6,0.2-4.6,2.4-4.6,5v3.5c0,2.8,2.3,5,5,5
			h44c1.3,0,2.3-1,2.3-2.3v-9.9C152.7,22.1,151.5,19.8,149.6,18.3z"/>
	</g>
	<g>
		<path class="st0" d="M106.8,178.3H85c-1.4,0-2.6-1.2-2.6-2.6v-20h23V71.1c0-2.2,0.5-4.4,1.4-6.3H70.5c-1.8,0-3.5,0.8-4.7,2.2
			c-1.2,1.4-1.7,3.2-1.4,5l13.5,81.6v22.1c0,3.9,3.2,7.1,7.1,7.1h25C108.7,181.6,107.6,180,106.8,178.3z"/>
	</g>
	<g>
		<path class="st0" d="M74.4,178.3H17.5c-4,0-7.5-2.7-8.5-6.5c-2.5-9.4-2.7-20.5-0.5-28.4c1-3.8,4.5-6.4,8.4-6.4h0.5h53.8l-0.8-4.6
			h-53c-4,0-7.5-2.7-8.5-6.5c-2.5-9.4-2.7-20.5-0.5-28.4c1-3.8,4.5-6.4,8.4-6.4h46.7l-0.8-4.6H16.9c-6,0-11.3,4-12.9,9.8
			c-2.3,8.6-2.1,20.7,0.5,30.8c0.8,3.1,2.7,5.7,5.2,7.5c-2.7,1.7-4.8,4.4-5.7,7.7c-2.3,8.6-2.1,20.7,0.5,30.8
			c1.5,5.8,6.8,9.9,12.9,9.9h59.3C75.6,181.6,74.8,180,74.4,178.3z"/>
	</g>
	<g>
		<path class="st0" d="M190.3,134.4c2.5-1.8,4.4-4.4,5.2-7.5c2.6-10.1,2.8-22.2,0.5-30.8c-1.3-4.8-5.1-8.3-9.8-9.5v4.8
			c2.6,1,4.6,3.1,5.3,5.9c2.1,7.9,1.9,19.1-0.5,28.4c-0.7,2.6-2.5,4.7-4.8,5.7v5.9c2.6,1,4.6,3.1,5.3,5.9c2.1,7.9,1.9,19.1-0.5,28.4
			c-0.8,3-3.1,5.3-6,6.2c-0.8,1.9-1.9,3.5-3.4,4.9h0.9c6.1,0,11.3-4.1,12.9-9.9c2.6-10.1,2.8-22.2,0.5-30.8
			C195,138.9,193,136.2,190.3,134.4z"/>
	</g>
</g>
</svg>
