<?xml version="1.0" encoding="utf-8"?>
<!-- Generator: Adobe Illustrator 22.0.1, SVG Export Plug-In . SVG Version: 6.00 Build 0)  -->
<svg version="1.1" id="Layer_1" xmlns="http://www.w3.org/2000/svg" xmlns:xlink="http://www.w3.org/1999/xlink" x="0px" y="0px"
	 viewBox="0 0 200 200" style="enable-background:new 0 0 200 200;" xml:space="preserve">
<style type="text/css">
	.st0{fill:#010101;}
	.st1{fill-rule:evenodd;clip-rule:evenodd;}
	.st2{clip-path:url(#SVGID_2_);}
	.st3{clip-path:url(#SVGID_4_);}
	.st4{clip-path:url(#SVGID_6_);}
	.st5{clip-path:url(#SVGID_8_);}
	.st6{clip-path:url(#SVGID_10_);fill:#020202;}
	.st7{clip-path:url(#SVGID_12_);}
	.st8{clip-path:url(#SVGID_14_);}
	.st9{fill:none;}
	.st10{fill:#272626;}
	.st11{clip-path:url(#SVGID_16_);}
	.st12{clip-path:url(#SVGID_18_);}
	.st13{clip-path:url(#SVGID_20_);}
	.st14{clip-path:url(#SVGID_22_);}
	.st15{clip-path:url(#SVGID_24_);}
	.st16{fill:#1E1818;}
</style>
<g>
	<g>
		<defs>
			<rect id="SVGID_13_" x="4.1" y="5.4" width="191.8" height="189.3"/>
		</defs>
		<clipPath id="SVGID_2_">
			<use xlink:href="#SVGID_13_"  style="overflow:visible;"/>
		</clipPath>
		<path class="st2" d="M47.1,128.3c-4.1-4.3-7.1-9.4-8.9-14.9c-8.5,8.5-16.3,16.4-20.7,21.4C4.9,148.7,4.5,155.9,4.1,164.3
			c-0.4,7.5,2.4,14.8,7.8,20.4c5.8,6.1,14,9.6,22.5,9.6c12.8,0,23.3-10.4,23.3-23.3c0-9.7-7.9-17.6-17.6-17.6
			c-7.2,0-13.1,5.9-13.1,13.1c0,5.2,4.2,9.4,9.6,9.5c0,0,0,0,0,0c1.1,0,2.8-0.8,3.9-2.1c0.6-0.8,0.9-1.5,0.8-2.2
			c-0.6-2.7,1.2-5.3,3.8-5.9c2.7-0.6,5.3,1.2,5.9,3.8c0.8,3.7-0.2,7.4-2.8,10.6c-2.9,3.5-7.5,5.8-11.7,5.7
			c-10.8-0.2-19.3-8.7-19.3-19.4c0-12.7,10.3-23,23-23c9.9,0,18.6,5.2,23.4,13.1c0.7-4.7,2.2-9.9,6.1-16.2
			C61.1,138.8,53.1,134.6,47.1,128.3L47.1,128.3z M47.1,128.3"/>
		<path class="st2" d="M76.8,131.1c12.8,0,23.3-10.4,23.3-23.3c0-9.7-7.9-17.6-17.6-17.6c-7.2,0-13.1,5.9-13.1,13.1
			c0,5.2,4.2,9.4,9.6,9.5c1.1,0,2.8-0.8,3.9-2.1c0.6-0.8,0.9-1.5,0.8-2.2c-0.6-2.7,1.2-5.3,3.8-5.9c2.7-0.6,5.3,1.2,5.9,3.8
			c0.8,3.7-0.2,7.4-2.8,10.6c-2.9,3.5-7.5,5.7-11.7,5.7c-10.8-0.2-19.3-8.7-19.3-19.4c0-6.2,2.6-12.1,6.7-16.2
			c20-20.3,80.7-80.8,80.7-80.8c-2.6-0.7-5.3-1.1-8-1.1h0c-8.2,0-15.9,3.2-21.6,8.9c0,0,0,0-0.1,0.1c-0.4,0.4-43.9,42.5-57.3,57.3
			C47.2,85.4,46.9,92.6,46.5,101c-0.4,7.5,2.4,14.8,7.8,20.4C60.1,127.6,68.3,131.1,76.8,131.1L76.8,131.1z M76.8,131.1"/>
	</g>
	<path d="M110,107.8L110,107.8l50-49.9c0.1-0.2,0.3-0.4,0.5-0.5c11.9-11.9,11.9-31.3,0-43.2c-1.3-1.3-2.6-2.4-4-3.4L86.6,80.6
		C99.8,82.6,110,94,110,107.8L110,107.8z M110,107.8"/>
	<path d="M186.8,77.8c-6-6-13.8-9-21.7-9c-0.7,0-1.4,0-2.1,0.1l-62.6,62.6c-0.4,0.4-0.9,0.8-1.5,1c-4.8,4.3-10.8,7.2-17.5,8.2
		c-8,10.4-8.3,16.7-8.6,23.9c-0.4,7.5,2.4,14.8,7.8,20.4c5.8,6.1,14,9.6,22.5,9.6c12.8,0,23.3-10.4,23.3-23.3
		c0-9.7-7.9-17.6-17.6-17.6c-7.2,0-13.1,5.9-13.1,13.1c0,5.2,4.2,9.4,9.6,9.5c1.1,0,2.8-0.8,3.9-2.1c0.6-0.8,0.9-1.5,0.8-2.2
		c-0.6-2.7,1.2-5.3,3.8-5.9c2.7-0.6,5.3,1.2,5.9,3.8c0.8,3.7-0.2,7.4-2.8,10.6c-2.9,3.5-7.5,5.8-11.7,5.7
		c-10.8-0.2-19.3-8.7-19.3-19.4c0-12.7,10.3-23,23-23c15.2,0,27.6,12.4,27.6,27.6v0l50-50c0.1-0.2,0.3-0.4,0.5-0.5
		c5.8-5.8,8.9-13.4,8.9-21.6C195.7,91.2,192.5,83.5,186.8,77.8L186.8,77.8z M186.8,77.8"/>
</g>
</svg>
