<?xml version="1.0" encoding="utf-8"?>
<!-- Generator: Adobe Illustrator 22.0.1, SVG Export Plug-In . SVG Version: 6.00 Build 0)  -->
<svg version="1.1" id="Layer_1" xmlns="http://www.w3.org/2000/svg" xmlns:xlink="http://www.w3.org/1999/xlink" x="0px" y="0px"
	 viewBox="0 0 200 200" style="enable-background:new 0 0 200 200;" xml:space="preserve">
<style type="text/css">
	.st0{fill:#010101;}
	.st1{fill-rule:evenodd;clip-rule:evenodd;}
	.st2{clip-path:url(#SVGID_2_);}
	.st3{clip-path:url(#SVGID_4_);}
	.st4{clip-path:url(#SVGID_6_);}
	.st5{clip-path:url(#SVGID_8_);}
	.st6{clip-path:url(#SVGID_10_);fill:#020202;}
	.st7{clip-path:url(#SVGID_12_);}
</style>
<g>
	<path d="M197.5,39.5c-7.2,3.2-14.9,5.3-23,6.3c8.3-5,14.6-12.8,17.6-22.1c-7.7,4.6-16.3,7.9-25.4,9.7c-7.3-7.8-17.7-12.6-29.2-12.6
		c-22.1,0-40,17.9-40,40c0,3.1,0.4,6.2,1,9.1C65.3,68.2,35.8,52.3,16,28.1c-3.4,5.9-5.4,12.8-5.4,20.1c0,13.9,7.1,26.1,17.8,33.3
		c-6.6-0.2-12.7-2-18.1-5c0,0.2,0,0.3,0,0.5c0,19.4,13.8,35.6,32.1,39.2c-3.4,0.9-6.9,1.4-10.5,1.4c-2.6,0-5.1-0.3-7.5-0.7
		c5.1,15.9,19.9,27.5,37.4,27.8c-13.7,10.7-31,17.1-49.7,17.1c-3.2,0-6.4-0.2-9.5-0.6c17.7,11.4,38.8,18,61.4,18
		c73.6,0,113.9-61,113.9-113.9c0-1.7,0-3.5-0.1-5.2C185.4,54.6,192.2,47.5,197.5,39.5L197.5,39.5z M197.5,39.5"/>
</g>
</svg>
