<?xml version="1.0" encoding="utf-8"?>
<!-- Generator: Adobe Illustrator 22.0.1, SVG Export Plug-In . SVG Version: 6.00 Build 0)  -->
<svg version="1.1" id="Layer_1" xmlns="http://www.w3.org/2000/svg" xmlns:xlink="http://www.w3.org/1999/xlink" x="0px" y="0px"
	 viewBox="0 0 200 200" style="enable-background:new 0 0 200 200;" xml:space="preserve">
<style type="text/css">
	.st0{fill:#010101;}
	.st1{fill-rule:evenodd;clip-rule:evenodd;}
	.st2{clip-path:url(#SVGID_2_);}
	.st3{clip-path:url(#SVGID_4_);}
	.st4{clip-path:url(#SVGID_6_);}
	.st5{clip-path:url(#SVGID_8_);}
	.st6{clip-path:url(#SVGID_10_);fill:#020202;}
	.st7{clip-path:url(#SVGID_12_);}
</style>
<g>
	<path d="M100.9,100.1c13.6,0,25.3-4.8,34.9-14.5c9.7-9.6,14.5-21.3,14.5-34.9c0-13.6-4.8-25.3-14.5-34.9
		c-9.6-9.6-21.3-14.5-34.9-14.5S75.6,6.1,66,15.7C56.3,25.4,51.5,37,51.5,50.7c0,13.6,4.8,25.3,14.5,34.9
		C75.6,95.2,87.2,100.1,100.9,100.1L100.9,100.1z M100.9,100.1"/>
	<path d="M191,152.2c-0.3-4.3-0.9-9-1.8-14c-0.9-5-2-9.7-3.4-14c-1.4-4.3-3.2-8.5-5.5-12.5c-2.3-4.1-5-7.5-8-10.4
		c-3-2.9-6.7-5.2-11-6.9c-4.3-1.7-9.1-2.6-14.3-2.6c-0.8,0-2.6,0.9-5.4,2.8c-2.8,1.9-6,3.9-9.6,6.2c-3.6,2.3-8.2,4.3-13.9,6.2
		c-5.7,1.8-11.4,2.8-17.2,2.8c-5.7,0-11.5-0.9-17.2-2.8c-5.7-1.8-10.3-3.9-13.9-6.2c-3.6-2.3-6.8-4.3-9.6-6.2
		c-2.8-1.8-4.6-2.8-5.4-2.8c-5.2,0-10,0.9-14.3,2.6c-4.3,1.7-8,4-11,6.9c-3,2.9-5.7,6.3-8,10.4c-2.3,4.1-4.2,8.2-5.5,12.5
		c-1.4,4.3-2.5,8.9-3.4,14c-0.9,5-1.5,9.7-1.8,14c-0.3,4.3-0.4,8.8-0.4,13.3c0,10.3,3.1,18.4,9.4,24.4c6.3,6,14.6,8.9,25,8.9h112.4
		c10.4,0,18.7-3,25-8.9c6.3-6,9.4-14.1,9.4-24.4C191.4,161,191.3,156.5,191,152.2L191,152.2z M191,152.2"/>
</g>
</svg>
