<?xml version="1.0" encoding="utf-8"?>
<!-- Generator: Adobe Illustrator 22.0.1, SVG Export Plug-In . SVG Version: 6.00 Build 0)  -->
<svg version="1.1" id="Layer_1" xmlns="http://www.w3.org/2000/svg" xmlns:xlink="http://www.w3.org/1999/xlink" x="0px" y="0px"
	 viewBox="0 0 200 200" style="enable-background:new 0 0 200 200;" xml:space="preserve">
<style type="text/css">
	.st0{fill:#010101;}
	.st1{fill-rule:evenodd;clip-rule:evenodd;}
	.st2{clip-path:url(#SVGID_2_);}
	.st3{clip-path:url(#SVGID_4_);}
	.st4{clip-path:url(#SVGID_6_);}
	.st5{clip-path:url(#SVGID_8_);}
	.st6{clip-path:url(#SVGID_10_);fill:#020202;}
	.st7{clip-path:url(#SVGID_12_);}
	.st8{clip-path:url(#SVGID_14_);}
	.st9{fill:none;}
	.st10{clip-path:url(#SVGID_16_);}
	.st11{clip-path:url(#SVGID_18_);}
	.st12{clip-path:url(#SVGID_20_);}
	.st13{clip-path:url(#SVGID_22_);}
	.st14{clip-path:url(#SVGID_24_);}
	.st15{fill:#1E1818;}
</style>
<g>
	<path class="st0" d="M138,72.8V40.2H40.2v32.6h10.9v-5.4c0-9,7.3-16.3,16.3-16.3s16.3,7.3,16.3,16.3v5.4h10.9v-5.4
		c0-9,7.3-16.3,16.3-16.3s16.3,7.3,16.3,16.3v5.4H138z"/>
	<path class="st0" d="M105.4,67.4v5.4h10.9v-5.4c0-3-2.4-5.4-5.4-5.4C107.9,62,105.4,64.4,105.4,67.4z"/>
	<path class="st0" d="M105.4,110.9v5.4h10.9v-5.4c0-3-2.4-5.4-5.4-5.4C107.9,105.4,105.4,107.9,105.4,110.9z"/>
	<path class="st0" d="M116.3,154.3c0-3-2.4-5.4-5.4-5.4H56.5c-3,0-5.4,2.4-5.4,5.4v5.4h65.2V154.3z"/>
	<path class="st0" d="M62,110.9v5.4h10.9v-5.4c0-3-2.4-5.4-5.4-5.4C64.4,105.4,62,107.9,62,110.9z"/>
	<path class="st0" d="M138,116.3V83.7c-59.7,0-46.5,0-97.8,0v32.6h10.9v-5.4c0-9,7.3-16.3,16.3-16.3s16.3,7.3,16.3,16.3v5.4h10.9
		v-5.4c0-9,7.3-16.3,16.3-16.3s16.3,7.3,16.3,16.3v5.4H138z"/>
	<path class="st0" d="M62,67.4v5.4h10.9v-5.4c0-3-2.4-5.4-5.4-5.4C64.4,62,62,64.4,62,67.4z"/>
	<path class="st0" d="M138,192.7v-65.6c-36.4,0-62.2,0-103.2,0c-3,0-5.4-2.4-5.4-5.4V34.8c0-3,2.4-5.4,5.4-5.4H138V7.3H23.9
		C15,7.3,7.3,15,7.3,23.9v152.5c0,9,7.7,16.3,16.7,16.3H138z M40.2,154.3c0-9,7.3-16.3,16.3-16.3h54.3c9,0,16.3,7.3,16.3,16.3v10.9
		c0,3-2.4,5.4-5.4,5.4H45.7c-3,0-5.4-2.4-5.4-5.4V154.3z"/>
	<path class="st0" d="M176.1,7.3h-27.2c0,48.2,0-3.3,0,114.4v71h27.2c9,0,16.7-7.3,16.7-16.3V23.9C192.7,15,185,7.3,176.1,7.3z
		 M165.2,116.3c-3,0-5.4-2.4-5.4-5.4c0-3,2.4-5.4,5.4-5.4c3,0,5.4,2.4,5.4,5.4C170.6,113.9,168.2,116.3,165.2,116.3z M165.2,94.6
		c-3,0-5.4-2.4-5.4-5.4c0-3,2.4-5.4,5.4-5.4c3,0,5.4,2.4,5.4,5.4C170.6,92.1,168.2,94.6,165.2,94.6z M165.2,72.8
		c-3,0-5.4-2.4-5.4-5.4c0-3,2.4-5.4,5.4-5.4c3,0,5.4,2.4,5.4,5.4C170.6,70.4,168.2,72.8,165.2,72.8z M165.2,51.1
		c-3,0-5.4-2.4-5.4-5.4c0-3,2.4-5.4,5.4-5.4c3,0,5.4,2.4,5.4,5.4C170.6,48.7,168.2,51.1,165.2,51.1z"/>
</g>
</svg>
