<?xml version="1.0" encoding="utf-8"?>
<!-- Generator: Adobe Illustrator 21.0.0, SVG Export Plug-In . SVG Version: 6.00 Build 0)  -->
<svg version="1.1" id="Layer_1" xmlns="http://www.w3.org/2000/svg" xmlns:xlink="http://www.w3.org/1999/xlink" x="0px" y="0px"
	 viewBox="0 0 21 12" style="enable-background:new 0 0 21 12;" xml:space="preserve">
<style type="text/css">
	.st0{fill:#F9892B;}
</style>
<g>
	<g>
		<path class="st0" d="M0.4,6c0,0.3,0.1,0.6,0.4,0.6h17.8l-3.2,3.2c-0.2,0.2-0.2,0.6,0,0.8c0.2,0.2,0.6,0.2,0.8,0l4.2-4.2
			c0.1-0.1,0.2-0.3,0.2-0.4c0-0.1-0.1-0.3-0.2-0.4l-4.2-4.2c-0.2-0.2-0.6-0.2-0.8,0c-0.2,0.2-0.2,0.6,0,0.8l3.2,3.2H0.9
			C0.5,5.4,0.4,5.7,0.4,6L0.4,6z M0.4,6"/>
	</g>
</g>
</svg>
