<?xml version="1.0" encoding="utf-8"?>
<!-- Generator: Adobe Illustrator 21.0.0, SVG Export Plug-In . SVG Version: 6.00 Build 0)  -->
<svg version="1.1" id="Layer_1" xmlns="http://www.w3.org/2000/svg" xmlns:xlink="http://www.w3.org/1999/xlink" x="0px" y="0px"
	 viewBox="0 0 42 42" style="enable-background:new 0 0 42 42;" xml:space="preserve">
<style type="text/css">
	.st0{fill:#FF8826;}
</style>
<g>
	<g>
		<path class="st0" d="M36.3,38.2H5.7c-2.1,0-3.8-1.7-3.8-3.8V13.9c0-2.1,1.7-3.8,3.8-3.8h30.7c2.1,0,3.8,1.7,3.8,3.8v20.5
			C40.2,36.5,38.5,38.2,36.3,38.2z M5.7,11.9c-1.1,0-2,0.9-2,2v20.5c0,1.1,0.9,2,2,2h30.7c1.1,0,2-0.9,2-2V13.9c0-1.1-0.9-2-2-2H5.7
			z"/>
	</g>
	<g>
		<path class="st0" d="M9.3,38.2c-0.5,0-0.9-0.4-0.9-0.9v-23c0-0.5,0.4-0.9,0.9-0.9c0.5,0,0.9,0.4,0.9,0.9v23
			C10.2,37.8,9.8,38.2,9.3,38.2z"/>
	</g>
	<g>
		<path class="st0" d="M9.3,14.8c-0.5,0-0.9-0.3-0.9-0.7V11c0-0.4,0.4-0.7,0.9-0.7c0.5,0,0.9,0.3,0.9,0.7v3.1
			C10.2,14.5,9.8,14.8,9.3,14.8z"/>
	</g>
	<g>
		<path class="st0" d="M32.6,38.2c-0.6,0-1-0.4-1-0.9V13c0-0.5,0.5-0.9,1-0.9c0.6,0,1,0.4,1,0.9v24.3C33.6,37.8,33.2,38.2,32.6,38.2
			z"/>
	</g>
	<g>
		<path class="st0" d="M32.5,15.8c-0.5,0-0.9-0.4-0.9-0.9V11c0-0.5,0.4-0.9,0.9-0.9c0.5,0,0.9,0.4,0.9,0.9v3.8
			C33.5,15.4,33,15.8,32.5,15.8z"/>
	</g>
	<g>
		<path class="st0" d="M27.8,11.3c-0.5,0-0.9-0.4-0.9-0.9V8.6c0-1.6-1.3-2.9-2.9-2.9h-5.8c-1.6,0-2.9,1.3-2.9,2.9v1.8
			c0,0.5-0.4,0.9-0.9,0.9c-0.5,0-0.9-0.4-0.9-0.9V8.6c0-2.6,2.1-4.8,4.8-4.8h5.8c2.6,0,4.8,2.1,4.8,4.8v1.8
			C28.7,10.9,28.3,11.3,27.8,11.3z"/>
	</g>
	<g>
		<path class="st0" d="M24.5,11.6c-0.5,0-0.9-0.4-0.9-0.9V9.7c0-0.7-0.2-1.1-0.7-1.1h-3.7c-0.5,0-0.7,0.4-0.7,1.1v0.9
			c0,0.5-0.4,0.9-0.9,0.9c-0.5,0-0.9-0.4-0.9-0.9V9.7c0-1.7,1-2.9,2.5-2.9h3.7c1.5,0,2.5,1.2,2.5,2.9v0.9
			C25.4,11.2,25,11.6,24.5,11.6z"/>
	</g>
</g>
</svg>
