<?xml version="1.0" encoding="utf-8"?>
<!-- Generator: Adobe Illustrator 21.0.0, SVG Export Plug-In . SVG Version: 6.00 Build 0)  -->
<svg version="1.1" id="Layer_1" xmlns="http://www.w3.org/2000/svg" xmlns:xlink="http://www.w3.org/1999/xlink" x="0px" y="0px"
	 viewBox="0 0 20 18" style="enable-background:new 0 0 20 18;" xml:space="preserve">
<style type="text/css">
	.st0{fill:#546A79;}
</style>
<path class="st0" d="M10,0.2C4.9,0.2,0.8,4,0.8,8.5c0,1.7,0.6,3.2,1.5,4.6c-0.1,1.5-0.5,3.6-1.5,4.7c0,0,3.2-0.4,5.3-1.7
	c0,0,0,0,0,0C7,15.4,7.8,14.9,8,14.7c0.1-0.1,0.3-0.2,0.4-0.1c0.1,0.1,0.2,0.2,0.2,0.3c0,0.2,0,0.3-1.8,1.4c1,0.3,2.1,0.5,3.2,0.5
	c5.1,0,9.2-3.7,9.2-8.3C19.2,4,15.1,0.2,10,0.2z M5.1,9.7c-0.7,0-1.2-0.5-1.2-1.2c0-0.7,0.5-1.2,1.2-1.2c0.7,0,1.2,0.5,1.2,1.2
	C6.3,9.2,5.8,9.7,5.1,9.7z M10,9.7c-0.7,0-1.2-0.5-1.2-1.2c0-0.7,0.5-1.2,1.2-1.2c0.7,0,1.2,0.5,1.2,1.2C11.3,9.2,10.7,9.7,10,9.7z
	 M14.9,9.7c-0.7,0-1.2-0.5-1.2-1.2c0-0.7,0.5-1.2,1.2-1.2c0.7,0,1.2,0.5,1.2,1.2C16.1,9.2,15.6,9.7,14.9,9.7z"/>
</svg>
