<?xml version="1.0" encoding="utf-8"?>
<!-- Generator: Adobe Illustrator 21.0.0, SVG Export Plug-In . SVG Version: 6.00 Build 0)  -->
<svg version="1.1" id="Layer_1" xmlns="http://www.w3.org/2000/svg" xmlns:xlink="http://www.w3.org/1999/xlink" x="0px" y="0px"
	 viewBox="0 0 42 42" style="enable-background:new 0 0 42 42;" xml:space="preserve">
<style type="text/css">
	.st0{fill:#FF8826;}
</style>
<g>
	<g>
		<path class="st0" d="M21,41C10,41,1,32,1,21C1,10,10,1,21,1c11,0,20,9,20,20C41,32,32,41,21,41z M21,3.4C11.3,3.4,3.4,11.3,3.4,21
			c0,9.7,7.9,17.6,17.6,17.6c9.7,0,17.6-7.9,17.6-17.6C38.6,11.3,30.7,3.4,21,3.4z"/>
	</g>
	<g>
		<circle class="st0" cx="21" cy="21" r="1.9"/>
	</g>
	<g>
		<path class="st0" d="M20.7,8.7c-0.5,0-1-0.4-1-1V5.6c0-0.5,0.4-1,1-1h0.7c0.5,0,1,0.4,1,1v2.1c0,0.5-0.4,1-1,1H20.7z"/>
	</g>
	<g>
		<path class="st0" d="M19.1,23.5c-0.1,0-0.2,0-0.2,0c-0.2-0.1-0.5-0.2-0.6-0.4l-0.4-0.6c-0.3-0.5-0.1-1,0.4-1.3l8.8-5.1
			c0.2-0.1,0.3-0.1,0.5-0.1c0.3,0,0.7,0.2,0.8,0.5l0.4,0.6c0.1,0.2,0.2,0.5,0.1,0.7c-0.1,0.2-0.2,0.5-0.4,0.6l-8.8,5.1
			C19.4,23.4,19.3,23.5,19.1,23.5z"/>
	</g>
	<g>
		<path class="st0" d="M34.3,22.3c-0.5,0-1-0.4-1-1v-0.7c0-0.5,0.4-1,1-1h2.1c0.5,0,1,0.4,1,1v0.7c0,0.5-0.4,1-1,1H34.3z"/>
	</g>
	<g>
		<path class="st0" d="M20.7,37.4c-0.5,0-1-0.4-1-1v-2.1c0-0.5,0.4-1,1-1h0.7c0.5,0,1,0.4,1,1v2.1c0,0.5-0.4,1-1,1H20.7z"/>
	</g>
	<g>
		<path class="st0" d="M5.6,22.4c-0.5,0-1-0.4-1-1v-0.7c0-0.5,0.4-1,1-1h2.1c0.5,0,1,0.4,1,1v0.7c0,0.5-0.4,1-1,1H5.6z"/>
	</g>
	<g>
		<path class="st0" d="M22.3,24.4c-0.1,0-0.2,0-0.2,0c-0.2-0.1-0.5-0.2-0.6-0.4l-6-10.5c-0.3-0.5-0.1-1,0.4-1.3l0.6-0.4
			c0.1-0.1,0.3-0.1,0.5-0.1c0.1,0,0.2,0,0.2,0c0.2,0.1,0.5,0.2,0.6,0.4l6,10.5c0.3,0.5,0.1,1-0.4,1.3l-0.6,0.4
			C22.6,24.4,22.4,24.4,22.3,24.4z"/>
	</g>
</g>
</svg>
