<?xml version="1.0" encoding="utf-8"?>
<!-- Generator: Adobe Illustrator 23.1.1, SVG Export Plug-In . SVG Version: 6.00 Build 0)  -->
<svg version="1.1" id="Layer_1" xmlns="http://www.w3.org/2000/svg" xmlns:xlink="http://www.w3.org/1999/xlink" x="0px" y="0px"
	 viewBox="0 0 500 102" style="enable-background:new 0 0 500 102;" xml:space="preserve">
<style type="text/css">
	.st0{fill:#4863DB;}
	.st1{fill:#1DCD70;}
</style>
<g id="Group_3341" transform="translate(-390 98)">
	<g id="Group_3340">
		<g id="Group_3339">
			<g id="Group_3338">
				<path id="Path_1401" class="st0" d="M402.8-84.7h44.5v9.8h-16.2v50.8H419v-50.8h-16.2L402.8-84.7z"/>
				<path id="Path_1400" class="st0" d="M461.8-24.1h-12.2v-48.1h12.2v7.5c3.1-5.2,8.7-8.3,14.8-8.2v12.8h-3.2
					c-7.2,0-11.6,2.8-11.6,12.1L461.8-24.1z"/>
				<path id="Path_1399" class="st0" d="M500.1-73c6.2-0.2,12.2,2.6,15.9,7.6v-6.9h12.2v48.1H516v-7c-3.7,5.1-9.7,8-16,7.8
					c-12.2,0-21.9-10-21.9-25S487.8-73,500.1-73z M503.2-62.3c-7.1,0.1-12.8,5.8-12.7,12.9c0,0.3,0,0.7,0.1,1
					c0,9.1,6.2,14.3,12.7,14.3c7.8-0.8,13.5-7.8,12.7-15.6C515.2-56.3,509.9-61.6,503.2-62.3z"/>
				<path id="Path_1398" class="st0" d="M544.6-72.2l12.2,36.9l12.2-36.9h12.9L564-24.1h-14.8l-17.7-48.1H544.6z"/>
				<path id="Path_1396" class="st0" d="M606.2-23.3c-14,0-24.2-9.7-24.2-24.8c0-15.2,9.9-24.8,24.2-24.8
					c12.5-0.6,23.1,8.9,23.7,21.4c0,0.8,0,1.6,0,2.4c0,1.6-0.1,3.1-0.4,4.7h-35.2c0.1,6.2,5.2,11.2,11.4,11.1c0.1,0,0.1,0,0.2,0
					c4.1,0.3,7.9-2.1,9.6-5.8h13.1C625.8-29.3,616.5-22.8,606.2-23.3z M594.5-52.6h22.8c-0.2-5.9-5.1-10.5-11-10.4
					c-0.2,0-0.3,0-0.5,0C600-63.1,595-58.6,594.5-52.6L594.5-52.6z"/>
				<path id="Path_1397" class="st0" d="M635.3-88.4h12.2v64.3h-12.2V-88.4z"/>
				<path id="Path_1394" class="st1" d="M677.4-23.3c-13.7-0.1-24.7-11.4-24.6-25.1c0.1-13.7,11.4-24.7,25.1-24.6
					c13.6,0.1,24.6,11.2,24.6,24.8c0.4,13.3-10,24.4-23.2,24.9C678.6-23.3,678-23.3,677.4-23.3z M677.4-33.9
					c6.4,0,12.6-4.7,12.6-14.2c0-9.6-6-14.2-12.4-14.2c-6.4,0-12.2,4.6-12.2,14.2C665.3-38.6,670.9-33.9,677.4-33.9L677.4-33.9z"/>
				<path id="Path_1393" class="st0" d="M736-73c12.3,0,22,9.6,22,24.7s-9.6,25-22,25c-6.2,0.1-12.1-2.7-15.9-7.6v29.8H708v-71.1
					h12.2v7C723.9-70.3,729.8-73.1,736-73z M732.8-62.3c-7.8,0.9-13.5,7.9-12.6,15.7c0.7,6.6,6,11.9,12.6,12.6
					c7.3-0.2,13-6.2,12.8-13.5c0-0.3,0-0.6,0-0.8c0.6-7.1-4.6-13.3-11.7-13.9C733.5-62.3,733.2-62.3,732.8-62.3z"/>
				<path id="Path_1392" class="st0" d="M762.1-85c-0.2-4.1,3-7.6,7.1-7.8c4.1-0.2,7.6,3,7.8,7.1c0.2,4.1-3,7.6-7.1,7.8
					c-0.1,0-0.2,0-0.4,0c-3.9,0.2-7.3-2.8-7.5-6.8C762.1-84.8,762.1-84.9,762.1-85z M763.4-72.2h12.2V-24h-12.2V-72.2z"/>
				<path id="Path_1391" class="st0" d="M804.7-73c12,0,20.1,6.3,22.7,17h-13.1c-1.3-4.2-5.3-7-9.6-6.7c-6.8,0-11.3,5.1-11.3,14.5
					s4.5,14.4,11.3,14.4c4.4,0.4,8.4-2.4,9.6-6.6h13.1c-2.4,10.4-12,17.6-22.7,17c-13.9,0-23.8-9.7-23.8-24.8S790.8-73,804.7-73z"/>
				<path id="Path_1390" class="st0" d="M832.9-88.4H845v36.6l16.2-20.4H877L855.8-48l21.4,24h-15.8l-16.3-20.5v20.5h-12.2
					L832.9-88.4z"/>
				<path id="Path_1395" class="st1" d="M678-1.1l12-17.5h-24.1L678-1.1z"/>
			</g>
		</g>
	</g>
</g>
</svg>
