<?xml version="1.0" encoding="utf-8"?>
<!-- Generator: Adobe Illustrator 21.0.0, SVG Export Plug-In . SVG Version: 6.00 Build 0)  -->
<svg version="1.1" id="Layer_1" xmlns="http://www.w3.org/2000/svg" xmlns:xlink="http://www.w3.org/1999/xlink" x="0px" y="0px"
	 viewBox="0 0 62 39" style="enable-background:new 0 0 62 39;" xml:space="preserve">
<style type="text/css">
	.st0{fill-rule:evenodd;clip-rule:evenodd;fill:none;stroke:#ED7E21;stroke-miterlimit:10;}
	.st1{fill-rule:evenodd;clip-rule:evenodd;fill:#ED7E21;}
	.st2{fill:#FFFFFF;}
</style>
<g>
	<path class="st0" d="M57.8,29.7l-19.6,7.6c-4.4,1.2-9,1.2-13.4,0L5.1,29.7c-1.4-0.4-2.4-1.7-2.4-3.2V12.7c0-1.5,1-2.8,2.4-3.2
		l19.6-7.6c4.4-1.2,9-1.2,13.4,0l19.6,7.6c1.4,0.4,2.4,1.7,2.4,3.2v13.7C60.2,28,59.2,29.3,57.8,29.7z"/>
	<path class="st1" d="M54.6,28.3l-17.3,6.6c-3.8,1.1-7.8,1.1-11.6,0L8.3,28.3c-1.2-0.3-2.1-1.5-2.1-2.8V13.7c0-1.3,0.9-2.4,2.1-2.8
		l17.4-6.6c3.8-1.1,7.8-1.1,11.6,0l17.3,6.6c1.2,0.3,2.1,1.5,2.1,2.8v11.9C56.6,26.8,55.8,27.9,54.6,28.3z"/>
	<g>
		<g>
			<path class="st2" d="M17.9,16.7V9.5h1.5v6.2h1.4v1H17.9z"/>
			<path class="st2" d="M21.6,14.4v-2.4c0-1.7,0.7-2.6,2.1-2.6c1.4,0,2.1,0.9,2.1,2.6v2.4c0,0.3,0,0.6-0.1,0.8s-0.1,0.5-0.2,0.7
				c-0.1,0.2-0.2,0.4-0.4,0.6c-0.2,0.2-0.4,0.3-0.6,0.4c-0.2,0.1-0.5,0.1-0.8,0.1c-0.3,0-0.6,0-0.8-0.1c-0.2-0.1-0.4-0.2-0.6-0.4
				c-0.2-0.1-0.3-0.3-0.4-0.5c-0.1-0.2-0.2-0.4-0.2-0.7C21.6,14.9,21.6,14.7,21.6,14.4z M24.4,14.7v-3.1c0-0.7-0.2-1.1-0.7-1.1
				c-0.1,0-0.2,0-0.3,0.1c-0.1,0.1-0.2,0.2-0.2,0.3c0,0.1-0.1,0.2-0.1,0.3c0,0.1,0,0.2,0,0.4v3.1c0,0.7,0.2,1.1,0.7,1.1
				C24.1,15.8,24.4,15.4,24.4,14.7z"/>
			<path class="st2" d="M27.6,16.7l-1-7.2h1.2l0.5,4.8l0.6-4.8H30l0.6,4.8l0.5-4.8h1.3l-1,7.2h-1.3L29.5,12l-0.6,4.7H27.6z"/>
			<path class="st2" d="M33.2,16.7V9.5h3v1h-1.6v2h1.1v1h-1.1v2.2h1.6v1H33.2z"/>
			<path class="st2" d="M36.9,14.7l1.5-0.3c0,0.1,0,0.3,0,0.4c0,0.1,0,0.2,0,0.4c0,0.1,0.1,0.2,0.1,0.3c0,0.1,0.1,0.2,0.2,0.2
				c0.1,0.1,0.2,0.1,0.3,0.1c0.3,0,0.4-0.2,0.4-0.6c0-0.5-0.3-1-0.9-1.5l-0.5-0.4c-0.1-0.1-0.3-0.2-0.3-0.3
				c-0.1-0.1-0.2-0.2-0.3-0.3c-0.1-0.1-0.2-0.3-0.3-0.4C37.1,12.2,37,12,37,11.8c0-0.2-0.1-0.4-0.1-0.6c0-0.6,0.2-1.1,0.6-1.4
				c0.4-0.3,0.9-0.5,1.5-0.5c0.5,0,0.9,0.2,1.3,0.5c0.4,0.4,0.5,0.8,0.5,1.3l0,0.1c0,0,0,0.1,0,0.1l-1.5,0.2c0,0,0-0.1,0-0.1
				c0-0.1,0-0.1,0-0.2c0-0.1,0-0.2,0-0.3c0-0.1,0-0.2-0.1-0.3c0-0.1-0.1-0.2-0.1-0.2s-0.1-0.1-0.2-0.1c-0.2,0-0.3,0.1-0.4,0.2
				c-0.1,0.1-0.1,0.3-0.1,0.4c0,0.2,0,0.3,0.1,0.4c0,0.1,0.1,0.3,0.2,0.4c0.1,0.1,0.2,0.2,0.3,0.3c0.1,0.1,0.2,0.2,0.3,0.3
				c0.1,0.1,0.2,0.2,0.3,0.2c0.2,0.2,0.4,0.4,0.5,0.5c0.1,0.2,0.3,0.3,0.4,0.5c0.1,0.2,0.2,0.4,0.3,0.7c0.1,0.2,0.1,0.5,0.1,0.8
				c0,0.5-0.2,0.9-0.5,1.2c-0.4,0.3-0.8,0.5-1.3,0.5c-0.3,0-0.6-0.1-0.9-0.2c-0.3-0.1-0.5-0.3-0.6-0.5c-0.2-0.2-0.3-0.4-0.4-0.7
				C37,15.2,36.9,15,36.9,14.7z"/>
			<path class="st2" d="M42.4,16.7v-6.1h-1.1V9.5h3.6v1.1h-1v6.1H42.4z"/>
		</g>
		<g>
			<path class="st2" d="M18,29.9V18.1H23v1.6h-2.5v3.2h1.8v1.7h-1.8v5.3H18z"/>
			<path class="st2" d="M23.3,29.9l2.5-11.8H28l2.5,11.8h-2.4l-0.5-2.5h-1.5l-0.5,2.5H23.3z M26.3,25.9h1.2l-0.6-4.4L26.3,25.9z"/>
			<path class="st2" d="M31.9,29.9V18.1h2.6c0.6,0,1.1,0.1,1.6,0.2c0.4,0.1,0.8,0.3,1.2,0.5c0.3,0.2,0.6,0.6,0.8,1
				c0.2,0.4,0.3,0.9,0.3,1.5c0,0.2,0,0.5,0,0.7c0,0.2-0.1,0.4-0.1,0.7c-0.1,0.2-0.1,0.5-0.3,0.7s-0.3,0.4-0.5,0.6
				c-0.2,0.2-0.4,0.3-0.7,0.5c0.7,2.2,1.3,4.1,1.8,5.7H36l-1.3-5.4h-0.4v5.4H31.9z M34.3,23H35c0.2,0,0.3-0.1,0.5-0.2
				c0.1-0.1,0.2-0.3,0.3-0.5c0.1-0.2,0.1-0.4,0.1-0.5c0-0.2,0-0.3,0-0.4c0-0.1,0-0.3,0-0.4c0-0.1-0.1-0.3-0.1-0.5
				c-0.1-0.2-0.1-0.3-0.2-0.4c-0.1-0.1-0.3-0.2-0.4-0.2h-0.8V23z"/>
			<path class="st2" d="M39.8,29.9V18.1h4.9v1.6h-2.5v3.2H44v1.7h-1.8v3.6h2.5v1.6H39.8z"/>
		</g>
	</g>
	<g>
		<path class="st2" d="M50.2,21.5c0-0.1,0-0.2,0-0.3c0.1-0.3,0.1-0.7,0.2-1c0,0,0-0.1,0-0.1c-0.3-0.3-0.6-0.6-0.9-0.9
			c0,0-0.1-0.1-0.1-0.1c0-0.1,0.1-0.2,0.1-0.2c0.3,0,0.5-0.1,0.8-0.1c0.2,0,0.3,0,0.5-0.1c0,0,0,0,0,0c0.2-0.4,0.4-0.7,0.6-1.1
			c0,0,0,0,0,0c0-0.1,0.1-0.1,0.2-0.1c0.1,0,0.1,0,0.2,0.1c0.1,0.2,0.2,0.4,0.3,0.5c0.1,0.2,0.2,0.4,0.3,0.6c0,0,0,0,0.1,0
			c0.4,0.1,0.8,0.1,1.3,0.2c0.1,0,0.1,0,0.1,0.1c0,0.1,0,0.1-0.1,0.2c-0.3,0.3-0.6,0.6-0.9,0.9c0,0,0,0,0,0.1
			c0.1,0.4,0.1,0.8,0.2,1.2c0,0.1,0,0.1-0.1,0.2c-0.1,0-0.1,0-0.2,0c-0.4-0.2-0.7-0.4-1.1-0.6c0,0-0.1,0-0.1,0
			c-0.4,0.2-0.7,0.4-1.1,0.6C50.4,21.7,50.3,21.7,50.2,21.5C50.3,21.5,50.2,21.5,50.2,21.5z"/>
	</g>
	<g>
		<path class="st2" d="M9.6,21.5c0-0.1,0-0.2,0-0.3c0.1-0.3,0.1-0.7,0.2-1c0,0,0-0.1,0-0.1c-0.3-0.3-0.6-0.6-0.9-0.9
			c0,0-0.1-0.1-0.1-0.1C8.8,19.1,8.9,19,9,19c0.3,0,0.5-0.1,0.8-0.1c0.2,0,0.3,0,0.5-0.1c0,0,0,0,0,0c0.2-0.4,0.4-0.7,0.6-1.1
			c0,0,0,0,0,0c0-0.1,0.1-0.1,0.2-0.1c0.1,0,0.1,0,0.2,0.1c0.1,0.2,0.2,0.4,0.3,0.5c0.1,0.2,0.2,0.4,0.3,0.6c0,0,0,0,0.1,0
			c0.4,0.1,0.8,0.1,1.3,0.2c0.1,0,0.1,0,0.1,0.1c0,0.1,0,0.1-0.1,0.2c-0.3,0.3-0.6,0.6-0.9,0.9c0,0,0,0,0,0.1
			c0.1,0.4,0.1,0.8,0.2,1.2c0,0.1,0,0.1-0.1,0.2c-0.1,0-0.1,0-0.2,0c-0.4-0.2-0.7-0.4-1.1-0.6c0,0-0.1,0-0.1,0
			c-0.4,0.2-0.7,0.4-1.1,0.6C9.7,21.7,9.6,21.7,9.6,21.5C9.6,21.5,9.6,21.5,9.6,21.5z"/>
	</g>
</g>
</svg>
