<?xml version="1.0" encoding="utf-8"?>
<!-- Generator: Adobe Illustrator 21.0.0, SVG Export Plug-In . SVG Version: 6.00 Build 0)  -->
<svg version="1.1" id="Layer_1" xmlns="http://www.w3.org/2000/svg" xmlns:xlink="http://www.w3.org/1999/xlink" x="0px" y="0px"
	 viewBox="0 0 44 35" style="enable-background:new 0 0 44 35;" xml:space="preserve">
<style type="text/css">
	.st0{fill:#ED8324;}
</style>
<g>
	<path class="st0" d="M40.9,5.7l-0.2-0.5L39.9,3c-0.8-2.1-3.4-3.1-5.8-2.2L2.9,12.4l36.6-6.6C39.9,5.7,40.4,5.7,40.9,5.7L40.9,5.7z
		 M40.9,5.7"/>
	<path class="st0" d="M40.5,12.2H3.8c-1.5,0-2.8,1-2.8,2.2v17.8c0,1.2,1.2,2.2,2.8,2.2h36.7c1.5,0,2.8-1,2.8-2.2V14.4
		C43.3,13.2,42,12.2,40.5,12.2L40.5,12.2z M14.1,32.2h-2.9v-2.5h2.9V32.2z M14.1,27.1h-2.9v-2.5h2.9V27.1z M14.1,22.1h-2.9v-2.5h2.9
		V22.1z M14.1,17h-2.9v-2.5h2.9V17z M35.8,20l-2.3,2.1l2,6.8l-1.1,1.1c-0.1,0.1-0.3,0.1-0.5,0l-3-5.5l-2.8,2.8l0.4,2.2l-0.7,0.7
		c-0.1,0.1-0.2,0.1-0.3,0l-4-4c-0.1-0.1-0.1-0.2,0-0.3l0.7-0.7l2.1,0.4l2.8-2.8l-5.5-3c-0.1-0.1-0.1-0.3,0-0.5l1.1-1.1l6.8,2
		l2.1-2.3c0.6-0.6,1.6-0.7,2.2-0.1C36.4,18.4,36.4,19.4,35.8,20L35.8,20z M35.8,20"/>
	<polygon class="st0" points="41.6,8 40.4,4.4 28.9,7.2 4.1,12.1 5.9,13.1 41.9,9 41.6,8 	"/>
</g>
</svg>
