<?xml version="1.0" encoding="utf-8"?>
<!-- Generator: Adobe Illustrator 21.0.0, SVG Export Plug-In . SVG Version: 6.00 Build 0)  -->
<svg version="1.1" id="Layer_1" xmlns="http://www.w3.org/2000/svg" xmlns:xlink="http://www.w3.org/1999/xlink" x="0px" y="0px"
	 viewBox="0 0 42 42" style="enable-background:new 0 0 42 42;" xml:space="preserve">
<style type="text/css">
	.st0{fill:#FF8826;}
</style>
<path class="st0" d="M22.3,26.1h-2.3c-0.8,0-1.5-0.7-1.5-1.5c0-0.8,0.7-1.5,1.5-1.5h4c0.5,0,1-0.4,1-1c0-0.5-0.4-1-1-1h-1.9v-1.4
	c0-0.5-0.4-1-1-1c-0.5,0-1,0.4-1,1v1.4h-0.1c-1.9,0-3.5,1.6-3.5,3.5c0,1.9,1.6,3.5,3.5,3.5h2.3c0.8,0,1.5,0.7,1.5,1.5
	c0,0.8-0.7,1.5-1.5,1.5h-4.1c-0.5,0-1,0.4-1,1c0,0.5,0.4,1,1,1h2v1.4c0,0.5,0.4,1,1,1c0.5,0,1-0.4,1-1v-1.4h0.2
	c1.9,0,3.5-1.6,3.5-3.5C25.9,27.7,24.3,26.1,22.3,26.1L22.3,26.1z M22.3,26.1"/>
<path class="st0" d="M36.2,23.8c-1-2.4-2.5-4.8-4.3-6.9c-2.2-2.7-4.4-4.4-5.5-5.3l4.2-7.9c0.2-0.4,0.1-0.9-0.2-1.2
	C29.3,1.5,28.1,1,26.8,1c-1.2,0-2.3,0.4-3.2,0.8c-0.7,0.3-1.5,0.6-2,0.6c-0.2,0-0.3,0-0.5-0.1c-2-0.7-3.5-1.2-5-1.2
	c-1.9,0-3.5,0.7-5,2.3c-0.3,0.3-0.4,0.9-0.1,1.2l4.6,6.9c-1.1,0.8-3.3,2.6-5.5,5.2c-1.8,2.2-3.3,4.5-4.3,6.9c-1.3,3-2,6.2-2,9.4
	c0,4.3,3.5,7.8,7.8,7.8h18.9c4.3,0,7.8-3.5,7.8-7.8C38.2,30.1,37.5,26.9,36.2,23.8L36.2,23.8z M13.1,4.3c1-0.8,1.9-1.2,3-1.2
	c1.2,0,2.5,0.4,4.3,1.1c0.4,0.1,0.8,0.2,1.2,0.2c1,0,1.9-0.4,2.8-0.8C25.2,3.3,26,3,26.8,3c0.4,0,0.9,0.1,1.6,0.5l-4,7.4h-7
	L13.1,4.3z M30.5,39H11.5c-3.2,0-5.8-2.6-5.8-5.8c0-5.3,2-10.4,5.8-15.1c2.4-2.9,4.9-4.8,5.7-5.3h7.5c0.8,0.5,3.2,2.4,5.7,5.3
	c3.9,4.6,5.8,9.7,5.8,15.1C36.2,36.5,33.6,39,30.5,39L30.5,39z M30.5,39"/>
</svg>
